<?xml version="1.0" encoding="UTF-8" standalone="no"?>
<!-- Created with Inkscape (http://www.inkscape.org/) -->

<svg
   width="775.40955mm"
   height="911.86023mm"
   viewBox="0 0 775.40956 911.86023"
   version="1.1"
   id="svg1"
   xml:space="preserve"
   xmlns:xlink="http://www.w3.org/1999/xlink"
   xmlns="http://www.w3.org/2000/svg"
   xmlns:svg="http://www.w3.org/2000/svg"><defs
     id="defs1"><linearGradient
       id="linearGradient226"><stop
         style="stop-color:#0044aa;stop-opacity:1"
         offset="0"
         id="stop226" /><stop
         style="stop-color:#0055d4;stop-opacity:1"
         offset="1"
         id="stop227" /></linearGradient><linearGradient
       id="linearGradient224"><stop
         style="stop-color:#0044aa;stop-opacity:1"
         offset="0"
         id="stop224" /><stop
         style="stop-color:#003380;stop-opacity:1"
         offset="1"
         id="stop225" /></linearGradient><linearGradient
       id="linearGradient222"><stop
         style="stop-color:#003380;stop-opacity:1"
         offset="0"
         id="stop222" /><stop
         style="stop-color:#0055d4;stop-opacity:1"
         offset="1"
         id="stop223" /></linearGradient><linearGradient
       id="linearGradient220"><stop
         style="stop-color:#003380;stop-opacity:1"
         offset="0"
         id="stop220" /><stop
         style="stop-color:#0044aa;stop-opacity:1"
         offset="1"
         id="stop221" /></linearGradient><linearGradient
       id="linearGradient217"><stop
         style="stop-color:#0044aa;stop-opacity:1"
         offset="0"
         id="stop218" /><stop
         style="stop-color:#003380;stop-opacity:1"
         offset="1"
         id="stop219" /></linearGradient><linearGradient
       id="linearGradient202"><stop
         style="stop-color:#aa0000;stop-opacity:1"
         offset="0"
         id="stop203" /><stop
         style="stop-color:#ff0000;stop-opacity:1"
         offset="1"
         id="stop204" /></linearGradient><linearGradient
       id="linearGradient200"><stop
         style="stop-color:#aa0000;stop-opacity:1"
         offset="0"
         id="stop201" /><stop
         style="stop-color:#ff0000;stop-opacity:1"
         offset="1"
         id="stop202" /></linearGradient><linearGradient
       id="linearGradient199"><stop
         style="stop-color:#ff0000;stop-opacity:1"
         offset="0"
         id="stop199" /><stop
         style="stop-color:#aa0000;stop-opacity:1"
         offset="1"
         id="stop200" /></linearGradient><radialGradient
       xlink:href="#linearGradient199"
       id="radialGradient200"
       cx="1721.7454"
       cy="348.6355"
       fx="1721.7454"
       fy="348.6355"
       r="149.5251"
       gradientTransform="matrix(-1.3543304,0.4855419,-0.7342334,-2.0480103,4358.5319,208.87809)"
       gradientUnits="userSpaceOnUse" /><radialGradient
       xlink:href="#linearGradient200"
       id="radialGradient202"
       cx="2211.657"
       cy="293.81915"
       fx="2211.657"
       fy="293.81915"
       r="145.58882"
       gradientTransform="matrix(-2.5326058,-0.8225854,0.49510656,-1.5243522,7693.2031,2766.7213)"
       gradientUnits="userSpaceOnUse" /><radialGradient
       xlink:href="#linearGradient202"
       id="radialGradient204"
       cx="1906.4821"
       cy="107.83813"
       fx="1906.4821"
       fy="107.83813"
       r="249.30373"
       gradientTransform="matrix(-1.560853,0.72585079,-0.43062609,-0.92599396,4998.364,-1078.2888)"
       gradientUnits="userSpaceOnUse" /><linearGradient
       xlink:href="#linearGradient217"
       id="linearGradient219"
       x1="888.52045"
       y1="18.889933"
       x2="913.20856"
       y2="49.275272"
       gradientUnits="userSpaceOnUse" /><linearGradient
       xlink:href="#linearGradient220"
       id="linearGradient221"
       x1="936.94708"
       y1="74.912903"
       x2="883.77271"
       y2="22.688101"
       gradientUnits="userSpaceOnUse" /><linearGradient
       xlink:href="#linearGradient222"
       id="linearGradient223"
       x1="1851.6066"
       y1="73.114723"
       x2="1816.4735"
       y2="9.4954214"
       gradientUnits="userSpaceOnUse" /><linearGradient
       xlink:href="#linearGradient224"
       id="linearGradient225"
       gradientUnits="userSpaceOnUse"
       x1="903.17175"
       y1="15.403349"
       x2="921.21307"
       y2="51.485939" /><linearGradient
       xlink:href="#linearGradient226"
       id="linearGradient227"
       x1="1054.149"
       y1="-135.57381"
       x2="1123.4656"
       y2="2.1097655"
       gradientUnits="userSpaceOnUse" /></defs><g
     id="layer6"
     transform="translate(-1050.6739,-51.742073)"><g
       id="g340"
       transform="translate(-579.77684,311.81276)"><g
         id="g3"><g
           id="g191"
           transform="matrix(-1,0,0,1,3985.7685,-1.5875)"><path
             d="m 1791.7262,233.58936 c 3.8238,-0.15544 4.5703,2.33164 4.5703,2.33164 0,0 73.3949,138.83156 79.5848,151.21144 6.19,12.37988 0.8841,261.7463 0.8841,261.7463 l -267.0519,3.53725 -19.4541,-40.67659 c -19.4541,-40.67675 -5.3056,-84.89094 -5.3056,-84.89094 4.7325,-25.63434 12.16,-49.01341 21.4333,-70.5745 16.4279,7.0227 55.6969,29.15326 55.6969,29.15326 l 29.9785,-60.65418 c 0,0 -36.9254,-19.4765 -53.9951,-26.75392 30.3973,-46.11629 67.4251,-83.25369 98.0978,-117.88428 34.2658,-38.68712 49.188,-46.28641 55.561,-46.54548 z"
             style="opacity:1;vector-effect:none;fill:url(#radialGradient200);stroke:#000000;stroke-width:0.153034px;stop-color:#000000;stop-opacity:1"
             id="path205" /><path
             style="font-variation-settings:normal;opacity:1;vector-effect:none;fill:url(#radialGradient202);fill-opacity:1;stroke:#000000;stroke-width:0.153034px;stroke-linecap:butt;stroke-linejoin:miter;stroke-miterlimit:4;stroke-dasharray:none;stroke-dashoffset:0;stroke-opacity:1;-inkscape-stroke:none;stop-color:#000000;stop-opacity:1"
             d="m 2185.3785,256.25955 c 49.5196,53.94096 38.024,28.29688 49.5196,53.94096 11.4956,25.64405 45.0982,73.39505 69.8579,102.57623 24.7598,29.18116 52.1724,98.15486 50.4039,140.60019 -1.7686,42.44534 3.5371,44.21389 -5.3057,63.66801 -8.8428,19.45413 -30.9497,36.25541 -30.9497,36.25541 l -254.6721,-1.76856 c 0,0 70.7423,-372.28102 121.1461,-395.27224 z"
             id="path132" /><path
             d="m 1927.9452,140.50357 c 22.2573,0.27508 85.2201,4.3372 85.2201,4.3372 0,0 72.2899,7.51603 116.7246,14.36915 44.4348,6.85313 86.4387,27.63409 97.0499,35.37148 10.6113,7.73741 -26.0862,46.20339 -26.0862,46.20339 0,0 2.3583,0.85316 5.6327,2.59415 -4.7578,5.93112 -26.2178,33.10518 -31.9402,48.69367 -6.4109,17.46441 -43.9926,114.29328 -45.9822,129.32596 -1.9897,15.03265 -25.4232,79.5848 -25.4232,79.5848 0,0 -21.4435,97.93376 -23.212,112.30323 -1.6955,13.77542 -4.0341,34.4361 -4.2385,36.24016 l -181.6324,-0.36948 c 0.1714,-4.51602 5.5892,-148.7679 -1.3751,-186.4186 -6.096,-32.95678 -5.0385,-39.54903 -16.2104,-58.40677 -5.1361,-14.36121 -12.4861,-31.26191 -22.905,-48.54794 -9.7602,-16.19307 -27.7108,-36.13547 -46.7026,-55.16511 -25.0687,-25.11868 -49.3136,-46.27647 -62.2551,-57.26627 0.2429,-0.14133 0.4032,-0.24835 0.6558,-0.39378 6.0613,-3.49038 15.4249,-8.41892 18.3131,-11.45925 4.2003,-4.42135 -24.3177,-49.29832 -29.1812,-60.13069 -4.8636,-10.83236 -4.8636,-12.15884 -2.2107,-11.93777 2.6528,0.22106 60.1307,-1.10509 79.5848,-3.75791 19.4539,-2.65283 99.7024,-13.92786 109.4295,-15.0332 1.2157,-0.13814 3.5645,-0.1757 6.7438,-0.13642 z"
             style="opacity:1;vector-effect:none;fill:url(#radialGradient204);fill-opacity:1;stroke:#000000;stroke-width:0.153034px;stop-color:#000000;stop-opacity:1"
             id="path139" /><path
             d="m 2145.12,388.41453 c 8.2422,-27.52671 33.5561,-85.81121 41.8057,-102.31055 8.5965,-17.1929 21.1457,-34.39757 24.8931,-39.46994 0.1844,0.12818 0.3441,0.2076 0.5302,0.34055 6.1899,4.42138 -11.9378,26.08626 -11.9378,26.08626 -16.3592,14.3695 -45.7615,101.24988 -54.3832,113.62976 -0.2795,0.40127 -0.6043,1.14104 -0.908,1.72392 z"
             style="opacity:1;vector-effect:none;fill:#aa0000;fill-opacity:1;stroke:#000000;stroke-width:0.153034px;stop-color:#000000;stop-opacity:1"
             id="path134" /><path
             d="m 2075.6902,649.52676 c 0.2044,-1.80407 2.543,-22.4647 4.2385,-36.24016 1.7685,-14.36951 23.212,-112.30323 23.212,-112.30323 0,0 23.4335,-64.5521 25.4232,-79.5848 1.9896,-15.03272 39.5712,-111.8615 45.9822,-129.32596 5.7224,-15.58854 27.1824,-42.76254 31.9402,-48.69367 1.6068,0.85432 3.3744,1.89413 5.3325,3.2551 -3.7474,5.07237 -16.2966,22.27704 -24.8931,39.46994 -8.2496,16.49934 -33.5635,74.78384 -41.8057,102.31055 -9.0663,17.39983 -28.5382,112.77048 -36.4525,125.3908 -8.1796,13.04309 -25.4233,135.73693 -25.4233,135.73693 z"
             style="opacity:1;vector-effect:none;fill:#f9f9f9;stroke:#000000;stroke-width:0.153034px;stop-color:#000000;stop-opacity:1"
             id="path133" /><path
             d="m 1744.6096,243.35259 c 12.9415,10.98982 37.1863,32.14754 62.2551,57.26627 0,0 0,0 0,0 18.9918,19.02967 36.9423,38.972 46.7026,55.16511 10.419,17.28607 17.7689,34.18671 22.905,48.54794 -1.7925,-3.02583 -3.8326,-6.30409 -6.3391,-10.12496 -18.1277,-27.63365 -63.2257,-88.42799 -80.6902,-104.12388 -17.4645,-15.69591 -36.9187,-37.80289 -44.6562,-41.11894 l -4.9568,-2.12442 c 0.04,-0.0852 0.051,-0.23112 0.094,-0.30747 0.3135,-0.56448 2.2803,-1.78007 4.6855,-3.17965 z"
             style="opacity:1;vector-effect:none;fill:#f9f9f9;stroke:#000000;stroke-width:0.153034px;stop-color:#000000;stop-opacity:1"
             id="path138" /></g><g
           id="g180"
           transform="matrix(-1,0,0,1,3985.7685,-1.5875)"><path
             d="m 909.13823,-14.605811 c -4.19401,0.03066 -8.68839,1.356875 -13.42708,4.516003 -10.29928,6.8661876 -14.11794,17.9011807 -13.71596,29.582174 2.0466,-2.834642 4.44904,-5.669769 7.28276,-8.444446 11.69521,-11.45157321 24.93995,-2.3609927 34.80356,8.706445 9.75795,7.557442 17.10991,20.598059 21.78523,30.885453 -1.36055,-15.319304 -3.28559,-35.456233 -3.28559,-35.456233 0,0 -13.23537,-29.937117 -33.44292,-29.789396 z"
             style="opacity:1;fill:#0066ff;fill-opacity:1;stroke:#0066ff;stroke-width:0.529167;stop-color:#000000;stop-opacity:1"
             id="path110"
             transform="translate(919.94858,13.082907)" /><path
             d="m 898.36473,58.849136 c 0.37761,-18.771675 3.28694,-50.055911 18.94355,-43.206148 2.37292,1.038152 4.62712,2.449237 6.77323,4.111377 -9.86361,-11.0674377 -23.10835,-20.15801821 -34.80356,-8.706445 -2.83372,2.774677 -5.23616,5.609804 -7.28276,8.444446 0.49258,14.31376 7.33238,29.579751 16.36954,39.35677 z"
             style="opacity:1;fill:url(#linearGradient219);fill-opacity:1;stroke:#0044aa;stroke-width:0.529167;stop-color:#000000;stop-opacity:1"
             id="path111"
             transform="translate(919.94858,13.082907)" /><path
             d="m 913.23256,14.680256 c -12.10411,-0.131201 -14.52562,27.157084 -14.86783,44.16888 3.33016,3.602797 6.9517,6.47618 10.67222,8.258928 22.0564,10.568678 38.13927,4.135577 38.13927,0 0,-0.521927 -0.0747,-1.751719 -0.20257,-3.480408 -0.22033,-2.977865 -0.65629,-7.91403 -1.10691,-12.987838 -4.67531,-10.287373 -12.0273,-23.328026 -21.78523,-30.885453 -2.14611,-1.662137 -4.40032,-3.073227 -6.77323,-4.111377 -1.46781,-0.642164 -2.82357,-0.949159 -4.07572,-0.962732 z"
             style="opacity:1;fill:url(#linearGradient221);fill-opacity:1;stroke:#003380;stroke-width:0.529167;stop-color:#000000;stop-opacity:1"
             id="path112"
             transform="translate(919.94858,13.082907)" /></g><g
           id="g181"
           style="fill:url(#linearGradient223);fill-opacity:1"><path
             d="m 909.13823,-14.605811 c -4.19401,0.03066 -8.68839,1.356875 -13.42708,4.516003 -10.29928,6.8661876 -14.11794,17.9011807 -13.71596,29.582174 2.0466,-2.834642 4.44904,-5.669769 7.28276,-8.444446 11.69521,-11.45157321 24.93995,-2.3609927 34.80356,8.706445 9.75795,7.557442 17.10991,20.598059 21.78523,30.885453 -1.36055,-15.319304 -3.28559,-35.456233 -3.28559,-35.456233 0,0 -13.23537,-29.937117 -33.44292,-29.789396 z"
             style="opacity:1;fill:#0066ff;fill-opacity:1;stroke:#0066ff;stroke-width:0.529167;stop-color:#000000;stop-opacity:1"
             id="path104"
             transform="translate(919.94858,13.082907)" /><path
             d="m 898.36473,58.849136 c 0.37761,-18.771675 3.28694,-50.055911 18.94355,-43.206148 2.37292,1.038152 4.62712,2.449237 6.77323,4.111377 -9.86361,-11.0674377 -23.10835,-20.15801821 -34.80356,-8.706445 -2.83372,2.774677 -5.23616,5.609804 -7.28276,8.444446 0.49258,14.31376 7.33238,29.579751 16.36954,39.35677 z"
             style="opacity:1;fill:url(#linearGradient225);fill-opacity:1;stroke:#0044aa;stroke-width:0.529167;stop-color:#000000;stop-opacity:1"
             id="path105"
             transform="translate(919.94858,13.082907)" /><path
             d="m 913.23256,14.680256 c -12.10411,-0.131201 -14.52562,27.157084 -14.86783,44.16888 3.33016,3.602797 6.9517,6.47618 10.67222,8.258928 22.0564,10.568678 38.13927,4.135577 38.13927,0 0,-0.521927 -0.0747,-1.751719 -0.20257,-3.480408 -0.22033,-2.977865 -0.65629,-7.91403 -1.10691,-12.987838 -4.67531,-10.287373 -12.0273,-23.328026 -21.78523,-30.885453 -2.14611,-1.662137 -4.40032,-3.073227 -6.77323,-4.111377 -1.46781,-0.642164 -2.82357,-0.949159 -4.07572,-0.962732 z"
             style="opacity:1;fill:#00398e;fill-opacity:1;stroke:#003380;stroke-width:0.529167;stop-color:#000000;stop-opacity:1"
             id="path106"
             transform="translate(919.94858,13.082907)" /></g><path
           style="font-variation-settings:normal;opacity:1;vector-effect:none;fill:#0044aa;fill-opacity:1;stroke:#000000;stroke-width:0.153034px;stroke-linecap:butt;stroke-linejoin:miter;stroke-miterlimit:4;stroke-dasharray:none;stroke-dashoffset:0;stroke-opacity:1;-inkscape-stroke:none;stop-color:#000000;stop-opacity:1"
           d="m 2016.8173,113.98631 2.494,71.6402 -73.0679,-1.42765 2.6724,-71.11343 z"
           id="path180"
           transform="matrix(-1,0,0,1,3985.7685,-1.5875)" /><path
           style="font-variation-settings:normal;opacity:1;vector-effect:none;fill:#00112b;fill-opacity:1;stroke:#000000;stroke-width:0.153034px;stroke-linecap:butt;stroke-linejoin:miter;stroke-miterlimit:4;stroke-dasharray:none;stroke-dashoffset:0;stroke-opacity:1;-inkscape-stroke:none;stop-color:#000000;stop-opacity:1"
           d="m 1947.1711,161.86134 c 0,0 -9.5345,43.39 -32.2578,47.31876 -37.6651,6.51212 -61.346,11.25502 -61.346,11.25502 0,0 1.2505,85.66321 25.6364,158.19558 24.3859,72.53235 23.7606,235.73015 21.8848,270.74577 l 165.0736,0.62529 c 0,0 10.0044,-120.05356 18.1331,-149.44167 8.1286,-29.38811 25.6364,-141.93832 28.7628,-177.57922 3.1264,-35.6409 -1.2506,-90.66544 -1.2506,-90.66544 0,0 -51.8981,-17.50781 -68.7807,-23.7606 -16.8825,-6.25279 -19.4378,-25.22804 -24.1834,-46.73328 0,0 -34.1135,13.88612 -72.2014,0.0398 z"
           id="path125"
           transform="matrix(-1,0,0,1,3985.7685,-1.5875)" /><path
           style="font-variation-settings:normal;display:inline;opacity:1;fill:url(#linearGradient227);fill-opacity:1;stroke:#000000;stroke-width:0.529167;stroke-linecap:butt;stroke-linejoin:miter;stroke-miterlimit:4;stroke-dasharray:none;stroke-dashoffset:0;stroke-opacity:1;stop-color:#000000;stop-opacity:1"
           d="m 1075.8391,-238.00645 c 0,0 -80.41413,4.13558 -115.79639,45.95098 -35.38225,41.8154 -43.19392,78.57615 -38.13931,112.579915 5.05461,34.00372 22.97549,139.23146 22.97549,139.23146 0,0 0.45951,16.08282 37.22029,30.78714 36.76072,14.704305 89.60442,27.111095 96.03752,27.570605 6.4332,0.4595 97.416,-33.544225 103.8492,-38.139325 6.4332,-4.5951 17.0019,-11.94728 18.3805,-16.54233 1.3785,-4.5951 20.6778,-120.85111 20.6778,-124.06764 0,-3.21659 14.7044,-106.606295 -49.627,-146.583645 -64.3314,-39.97735 -95.5781,-30.78716 -95.5781,-30.78716 z"
           id="path74"
           transform="translate(919.94858,13.082907)" /><path
           style="font-variation-settings:normal;opacity:1;fill:#000000;fill-opacity:1;stroke:#000000;stroke-width:0.529167;stroke-linecap:butt;stroke-linejoin:miter;stroke-miterlimit:4;stroke-dasharray:none;stroke-dashoffset:0;stroke-opacity:1;stop-color:#000000;stop-opacity:1"
           d="m 1096.5171,-67.987825 c 0,0 12.8663,14.2448 39.0583,-1.83802 26.192,-16.08288 41.8155,-14.24481 41.8155,-14.24481 l -8.7308,17.92084 c 0,0 -45.0319,22.9755 -53.3031,16.54238 -8.2712,-6.43311 -18.8399,-18.38039 -18.8399,-18.38039 z"
           id="path79"
           transform="translate(919.94858,13.082907)" /><path
           style="font-variation-settings:normal;opacity:1;vector-effect:none;fill:#ffffff;fill-opacity:1;stroke:#000000;stroke-width:0.153034px;stroke-linecap:butt;stroke-linejoin:miter;stroke-miterlimit:4;stroke-dasharray:none;stroke-dashoffset:0;stroke-opacity:1;-inkscape-stroke:none;stop-color:#000000;stop-opacity:1"
           d="m 2136.1934,-17.170868 c 0,0 26.8869,-63.15317 27.5122,-79.410424 0.6253,-16.257248 6.2528,-44.394798 -1.2506,-48.771758 -7.5033,-4.37695 -3.1263,-14.38141 -8.7539,-21.25948 -5.6275,-6.87807 -5.0022,-31.26395 -19.3836,-36.26618 -14.3814,-5.00223 -16.2572,-21.88476 -31.264,-26.26171 -15.0067,-4.37696 -14.3814,-18.13309 -32.5144,-17.50781 -18.1331,0.62528 -29.3882,-6.87807 -35.0157,-5.00224 -5.6275,1.87584 -20.6342,-6.87806 -35.0156,-6.25278 -14.3814,0.62527 -33.1398,-2.50112 -41.8937,1.87583 -8.7539,4.37695 -30.6387,-2.50111 -37.5167,5.62751 -6.8781,8.12863 -18.1331,3.75168 -26.887,13.75614 -8.7539,10.00446 -23.1353,5.00223 -25.0112,12.50558 -1.8758,7.50334 -30.6386,23.7606 -30.6386,32.5145 0,8.75391 -11.2551,12.50558 -11.8803,31.88923 -0.6253,19.38364 -7.5034,33.13978 -3.7517,41.89369 3.7517,8.7539 27.5123,107.54797 27.5123,107.54797 0,0 -9.3792,-80.660982 13.7561,-97.54351 23.1353,-16.88253 38.142,-50.02232 57.5256,-48.77176 19.3837,1.25056 86.2886,6.87807 108.1733,1.25056 21.8848,-5.62751 42.519,-6.25279 50.0223,1.87584 7.5034,8.12862 13.7562,36.89145 20.009,41.89368 6.2527,5.00224 25.0111,3.1264 28.1375,26.886997 3.1264,23.760599 8.1287,67.530125 8.1287,67.530125 z"
           id="path114"
           transform="matrix(-1,0,0,1,3985.7685,-1.5875)" /><path
           style="font-variation-settings:normal;opacity:1;fill:#000000;fill-opacity:1;stroke:#000000;stroke-width:0.529167;stroke-linecap:butt;stroke-linejoin:miter;stroke-miterlimit:4;stroke-dasharray:none;stroke-dashoffset:0;stroke-opacity:1;stop-color:#000000;stop-opacity:1"
           d="m 1186.5811,-82.692135 -10.5688,13.32579 c 0,0 24.3541,-5.97361 29.8681,-2.29757 0,0 -12.8662,-11.48773 -19.2993,-11.02822 z"
           id="path80"
           transform="translate(919.94858,13.082907)" /><path
           style="font-variation-settings:normal;opacity:1;fill:#0044aa;fill-opacity:1;stroke:none;stroke-width:0.529167;stroke-linecap:butt;stroke-linejoin:miter;stroke-miterlimit:4;stroke-dasharray:none;stroke-dashoffset:0;stroke-opacity:1;stop-color:#000000;stop-opacity:1"
           d="m 982.55869,6.9122853 c 0,0 50.54611,-13.7853 67.08841,-33.0847103 0,0 -2.757,18.8399003 -29.8681,33.5442203 0,0 22.516,-16.54239 19.7589,-18.8399103 -2.757,-2.29758 -35.8418,18.8399103 -56.97921,18.3804003 z"
           id="path83"
           transform="translate(919.94858,13.082907)" /><path
           style="font-variation-settings:normal;opacity:1;fill:#000000;fill-opacity:1;stroke:#000000;stroke-width:0.529167;stroke-linecap:butt;stroke-linejoin:miter;stroke-miterlimit:4;stroke-dasharray:none;stroke-dashoffset:0;stroke-opacity:1;stop-color:#000000;stop-opacity:1"
           d="m 945.79791,-82.692135 c 0,0 33.54421,0 48.24852,12.40678 14.70427,12.40674 36.76077,18.38035 51.00557,9.64971 0,0 -19.7589,-11.94728 -27.111,-19.29941 -7.3522,-7.35218 -53.76271,-26.651595 -72.14309,-2.75708 z"
           id="path78"
           transform="translate(919.94858,13.082907)" /><path
           d="m 1999.6325,18.215942 c -3.0345,-0.09668 -7.1342,0.79309 -9.6506,1.799891 -5.3247,2.130428 -9.8507,4.673569 -13.5785,7.251753 -3.1386,2.170678 -8.2183,7.534113 -6.4704,10.450008 3.6266,-2.217229 9.3317,-5.042872 13.1392,-3.640087 5.9402,2.188474 23.7603,2.50111 27.1994,-0.312643 2.0817,-1.703253 8.0482,0.144556 12.4416,1.86862 0.3616,-0.440891 0.699,-0.88686 0.9829,-1.321883 1.0366,-1.58819 0.1707,-3.662547 -1.5492,-4.467945 -4.1007,-1.920221 -11.0487,-5.398228 -13.4385,-7.958687 -2.0565,-2.203387 -5.1479,-3.164888 -7.8481,-3.56464 -0.3823,-0.0566 -0.7943,-0.09058 -1.2278,-0.104387 z"
           style="opacity:1;vector-effect:none;fill:#0066ff;stroke:none;stroke-width:0.153034px;stop-color:#000000;stop-opacity:1"
           id="path98" /><path
           d="m 1988.3179,42.350903 c -2.0343,-5.408585 -8.834,-2.966014 -12.8452,-0.936377 2.9848,0.67677 7.8113,-0.368292 10.6619,0.284738 0.7457,0.170826 1.4723,0.396907 2.1833,0.651639 z"
           style="opacity:1;vector-effect:none;fill:#002255;stroke:none;stroke-width:0.153034px;stop-color:#000000;stop-opacity:1"
           id="path101" /><path
           d="m 2018.7243,38.62865 c -8.1526,-3.856879 -10.9864,-0.380089 -11.9755,2.519226 2.2663,-1.807602 4.8242,-3.183062 7.8998,-2.380733 1.5283,0.398695 2.8834,0.281568 4.0757,-0.138493 z"
           style="opacity:1;vector-effect:none;fill:#002255;stroke:none;stroke-width:0.153034px;stop-color:#000000;stop-opacity:1"
           id="path100" /><path
           d="m 2022.7132,35.633484 c -4.3934,-1.724064 -10.3599,-3.571873 -12.4416,-1.86862 -3.4391,2.813753 -21.2592,2.501117 -27.1994,0.312643 -3.8075,-1.402785 -9.5126,1.422858 -13.1392,3.640087 0.024,0.04056 0.045,0.08236 0.072,0.121957 1.0327,1.515586 2.854,2.791598 5.0225,3.461804 0.1418,0.04385 0.2934,0.07872 0.4454,0.113171 4.0112,-2.029637 10.8109,-4.472208 12.8452,0.936377 4.1049,1.47059 7.6212,4.034786 10.3865,4.2323 2.5048,0.178918 5.0122,-3.016783 8.0444,-5.435327 0.9891,-2.899315 3.8229,-6.376105 11.9755,-2.519226 1.6489,-0.580891 2.9688,-1.751334 3.9889,-2.995166 z"
           style="opacity:1;vector-effect:none;fill:#0055d4;stroke:none;stroke-width:0.153034px;stop-color:#000000;stop-opacity:1"
           id="path99" /><path
           style="font-variation-settings:normal;opacity:1;vector-effect:none;fill:#0055d4;fill-opacity:1;stroke:none;stroke-width:0.153034px;stroke-linecap:butt;stroke-linejoin:miter;stroke-miterlimit:4;stroke-dasharray:none;stroke-dashoffset:0;stroke-opacity:1;-inkscape-stroke:none;stop-color:#000000;stop-opacity:1"
           d="m 1984.948,88.789607 c 0,0 16.8825,20.634203 37.2041,-1.563196 0,0 -14.3814,15.006689 -37.2041,1.563196 z"
           id="path92" /><path
           style="font-variation-settings:normal;opacity:1;vector-effect:none;fill:#00112b;fill-opacity:1;stroke:#000000;stroke-width:0.153034px;stroke-linecap:butt;stroke-linejoin:miter;stroke-miterlimit:4;stroke-dasharray:none;stroke-dashoffset:0;stroke-opacity:1;-inkscape-stroke:none;stop-color:#000000;stop-opacity:1"
           d="m 1999.0167,80.660982 -3.439,-1.563198 c 0,0 5.9402,-7.815987 15.9446,-2.188477 0,0 -3.4391,5.940151 -12.5056,3.751675 z"
           id="path93" /><path
           style="font-variation-settings:normal;opacity:1;vector-effect:none;fill:#5599ff;fill-opacity:1;stroke:none;stroke-width:0.153034px;stroke-linecap:butt;stroke-linejoin:miter;stroke-miterlimit:4;stroke-dasharray:none;stroke-dashoffset:0;stroke-opacity:1;-inkscape-stroke:none;stop-color:#000000;stop-opacity:1"
           d="m 1990.2628,71.907076 c 0,0 5.0023,-8.441264 12.193,-6.878068 0,0 -1.8759,-0.625281 -12.193,6.878068 z"
           id="path94" /><path
           style="font-variation-settings:normal;opacity:1;vector-effect:none;fill:#80b3ff;fill-opacity:1;stroke:none;stroke-width:0.153034px;stroke-linecap:butt;stroke-linejoin:miter;stroke-miterlimit:4;stroke-dasharray:none;stroke-dashoffset:0;stroke-opacity:1;-inkscape-stroke:none;stop-color:#000000;stop-opacity:1"
           d="m 2007.7707,66.904845 c 0,0 2.8137,-3.439033 4.6895,-1.250558 1.8759,2.188477 -3.7517,3.126396 -4.6895,1.250558 z"
           id="path95" /><path
           style="font-variation-settings:normal;opacity:1;vector-effect:none;fill:#2a7fff;fill-opacity:1;stroke:none;stroke-width:0.153034px;stroke-linecap:butt;stroke-linejoin:miter;stroke-miterlimit:4;stroke-dasharray:none;stroke-dashoffset:0;stroke-opacity:1;-inkscape-stroke:none;stop-color:#000000;stop-opacity:1"
           d="m 1984.9479,23.7606 c 0,0 15.0067,4.689591 16.2573,-1.250559 0.6441,-3.059333 -9.6918,-5.314871 -16.2573,1.250559 z"
           id="path102" /><path
           style="font-variation-settings:normal;opacity:1;vector-effect:none;fill:#5599ff;fill-opacity:1;stroke:none;stroke-width:0.153034px;stroke-linecap:butt;stroke-linejoin:miter;stroke-miterlimit:4;stroke-dasharray:none;stroke-dashoffset:0;stroke-opacity:1;-inkscape-stroke:none;stop-color:#000000;stop-opacity:1"
           d="m 2010.5844,23.44796 c 0,0 -6.2528,-3.439034 -5.3149,0 0.9379,3.439035 4.377,1.563197 5.3149,0 z"
           id="path103" /><path
           style="font-variation-settings:normal;opacity:1;fill:#ffffff;fill-opacity:1;stroke:none;stroke-width:0.529167;stroke-linecap:butt;stroke-linejoin:miter;stroke-miterlimit:4;stroke-dasharray:none;stroke-dashoffset:0;stroke-opacity:1;stop-color:#000000;stop-opacity:1"
           d="m 958.20467,-35.822135 c 0,0 27.57059,43.1939303 85.00933,5.97362 l 4.1355,-4.1356 c 0,0 -8.4613,-24.750229 -66.35953,-20.155129 0,0 -27.3804,7.288839 -22.7853,18.317109 z"
           id="path81"
           transform="translate(919.94858,13.082907)" /><circle
           style="opacity:1;fill:#00aa88;stroke:#666666;stroke-width:0.529167;stroke-linecap:round;stroke-linejoin:round;stroke-dasharray:none;stroke-opacity:0.831943;paint-order:stroke fill markers"
           id="path87"
           cx="1001.2209"
           cy="-37.156143"
           r="17.82045"
           transform="translate(919.94858,13.082907)" /><path
           d="m 992.01312,-58.790592 c -3.26794,0.03029 -13.6791,3.666872 -17.29773,3.954065 0,0 -19.53566,7.143063 -16.87264,17.906497 l 92.09475,2.985648 c -4.7373,-7.170423 -19.8754,-25.19888 -57.92438,-24.84621 z"
           style="opacity:1;fill:#0044aa;fill-opacity:1;stroke:none;stroke-width:0.529167;stop-color:#000000;stop-opacity:1"
           id="path86"
           transform="translate(919.94858,13.082907)" /><path
           style="font-variation-settings:normal;opacity:1;fill:#000000;fill-opacity:1;stroke:#000000;stroke-width:0.529167;stroke-linecap:butt;stroke-linejoin:miter;stroke-miterlimit:4;stroke-dasharray:none;stroke-dashoffset:0;stroke-opacity:1;stop-color:#000000;stop-opacity:1"
           d="m 947.7056,-39.498225 6.89265,-4.5951 95.60975,9.918996 -99.28582,-1.647806 z"
           id="path82"
           transform="translate(919.94858,13.082907)" /><path
           style="font-variation-settings:normal;display:inline;opacity:1;fill:#ffffff;fill-opacity:1;stroke:none;stroke-width:0.529167;stroke-linecap:butt;stroke-linejoin:miter;stroke-miterlimit:4;stroke-dasharray:none;stroke-dashoffset:0;stroke-opacity:1;stop-color:#000000;stop-opacity:1"
           d="m 958.20467,-35.822135 c 0,0 27.57059,43.1939303 85.00933,5.97362 l 4.1355,-4.1356 c 0,0 -13.823,-20.323167 -71.72125,-15.728067 0,0 -22.01868,2.861777 -17.42358,13.890047 z"
           id="path107"
           transform="matrix(-1,0,0,1,3075.6124,13.082907)" /><circle
           style="display:inline;opacity:1;fill:#008066;stroke:#666666;stroke-width:0.529167;stroke-linecap:round;stroke-linejoin:round;stroke-dasharray:none;stroke-opacity:0.831943;paint-order:stroke fill markers"
           id="circle107"
           cx="1921.1694"
           cy="-22.485735"
           r="17.82045"
           transform="matrix(-1,0,0,1,3995.561,0)" /><path
           d="m 1009.7148,-53.306874 c -11.0828,-3.333395 -53.20421,-0.211796 -52.70944,16.45297 l 91.88644,2.212346 c -4.7373,-7.170423 -19.2699,-12.677854 -39.177,-18.665316 z"
           style="display:inline;opacity:1;fill:#0052cc;fill-opacity:1;stroke:none;stroke-width:0.529167;stop-color:#000000;stop-opacity:1"
           id="path108"
           transform="matrix(-1,0,0,1,3075.6124,13.082907)" /><path
           style="font-variation-settings:normal;display:inline;opacity:1;fill:#000000;fill-opacity:1;stroke:#000000;stroke-width:0.529167;stroke-linecap:butt;stroke-linejoin:miter;stroke-miterlimit:4;stroke-dasharray:none;stroke-dashoffset:0;stroke-opacity:1;stop-color:#000000;stop-opacity:1"
           d="m 947.7056,-39.498225 6.89265,-4.5951 96.30695,9.918996 -99.98302,-1.647806 z"
           id="path109"
           transform="matrix(-1,0,0,1,3075.6124,13.082907)" /><path
           d="m 1739.83,246.83971 4.9568,2.12442 c 7.7375,3.31605 27.1917,25.42302 44.6562,41.11894 17.4645,15.69591 62.5625,76.49021 80.6902,104.12388 18.1277,27.63366 15.4753,30.28675 22.5495,68.53173 6.9643,37.65081 1.5465,181.90257 1.3751,186.4186 l -28.1249,-0.0574 c 1.9896,-5.96888 4.2007,-195.20447 -2.4313,-235.8812 -6.6321,-40.67676 -9.7275,-35.37122 -42.8879,-75.8269 -33.1604,-40.45568 -69.4158,-76.26898 -75.8269,-80.02716 -6.1649,-3.61396 -5.9619,-8.38951 -4.9568,-10.52494 z"
           style="display:inline;opacity:1;vector-effect:none;fill:#aa0000;stroke:#000000;stroke-width:0.153034px;stop-color:#000000;stop-opacity:1"
           id="path135"
           transform="matrix(-1,0,0,1,3985.7685,-1.5875)" /><path
           d="m 1638.0673,398.01912 c 17.0696,7.27741 53.9951,26.75392 53.9951,26.75392 l -29.9785,60.65418 c 0,0 -39.269,-22.13057 -55.6969,-29.15326 2.1374,-4.96962 4.3809,-9.83418 6.7056,-14.6141 l 14.119,7.60212 -8.7178,-18.22886 c 1.035,-1.95996 2.0757,-3.91319 3.1388,-5.84202 l 24.043,-3.96151 -17.276,-7.80211 c 3.1361,-5.24409 6.357,-10.38576 9.6677,-15.40836 z m 22.8833,28.41428 -16.4496,5.70715 -4.1967,8.22482 1.6785,15.10709 14.7717,8.89661 17.9606,-33.57159 z"
           style="display:inline;opacity:1;vector-effect:none;fill:#333333;fill-opacity:1;stroke:#000000;stroke-width:0.153034px;stop-color:#000000;stop-opacity:1"
           id="path211"
           transform="matrix(-1,0,0,1,3985.7685,-1.5875)" /><path
           style="font-variation-settings:normal;display:inline;opacity:1;vector-effect:none;fill:#ffffff;fill-opacity:1;stroke:#000000;stroke-width:0.153034px;stroke-linecap:butt;stroke-linejoin:miter;stroke-miterlimit:4;stroke-dasharray:none;stroke-dashoffset:0;stroke-opacity:1;-inkscape-stroke:none;stop-color:#000000;stop-opacity:1"
           d="m 2284.136,385.39715 -20.4717,-26.15882 c -10.8188,-13.82433 -53.6009,28.58418 -53.6009,28.58418 l 35.5559,38.34464 c 0.6972,-2.78871 21.7311,-8.69241 50.1596,-24.14748 z"
           id="path179"
           transform="matrix(-1,0,0,1,3985.7685,-1.5875)" /><g
           id="g199"
           style="opacity:1;fill:#ff2a2a;fill-opacity:1;stroke:none"><path
             style="font-variation-settings:normal;opacity:0.5;vector-effect:none;fill:#ff2a2a;fill-opacity:1;stroke:none;stroke-width:0.153034px;stroke-linecap:butt;stroke-linejoin:miter;stroke-miterlimit:4;stroke-dasharray:none;stroke-dashoffset:0;stroke-opacity:1;-inkscape-stroke:none;stop-color:#000000;stop-opacity:1"
             d="m 1631.7032,534.59967 c 20.1683,-71.27997 33.1534,-91.7246 41.1655,-100.56553 30.5422,-33.70159 86.199,-112.72179 89.2381,-125.98318 3.0391,-13.26137 3.8679,-19.33951 3.8679,-19.33951 0,0 -9.6698,6.51603 -17.4056,24.75045 -7.7358,18.2344 -48.0725,73.60483 -62.7153,89.35273 -14.6428,15.74789 -31.5733,52.26041 -34.6123,59.16738 -3.0391,6.90695 -20.9197,65.98696 -19.5383,72.61766 z"
             id="path196" /><path
             d="m 2322.4675,432.06355 -3.6928,1.67845 9.5679,16.95349 8.7287,-4.53203 -0.8392,-4.69997 -3.8608,-5.37125 z"
             style="opacity:1;vector-effect:none;fill:#1a1a1a;fill-opacity:1;stroke:#000000;stroke-width:0.153034px;stop-color:#000000;stop-opacity:1"
             id="path210" /><path
             d="m 2367.2746,429.44562 -8.7178,18.22886 14.119,-7.60212 c -1.7491,-3.5966 -3.5559,-7.13247 -5.4012,-10.62674 z"
             style="opacity:1;vector-effect:none;fill:#ffd5d5;stroke:#000000;stroke-width:0.153034px;stop-color:#000000;stop-opacity:1"
             id="path213" /><path
             d="m 2357.3688,411.83998 -17.276,7.80211 24.043,3.96151 c -2.1978,-3.98757 -4.4589,-7.90403 -6.767,-11.76362 z"
             style="opacity:1;vector-effect:none;fill:#ffd5d5;stroke:#000000;stroke-width:0.153034px;stop-color:#000000;stop-opacity:1"
             id="path212" /><path
             style="font-variation-settings:normal;opacity:1;vector-effect:none;fill:#ff2a2a;fill-opacity:1;stroke:none;stroke-width:0.153034px;stroke-linecap:butt;stroke-linejoin:miter;stroke-miterlimit:4;stroke-dasharray:none;stroke-dashoffset:0;stroke-opacity:1;-inkscape-stroke:none;stop-color:#000000;stop-opacity:1"
             d="m 2402.0836,532.11314 c 0,0 -19.8471,-89.79447 -74.2292,-158.6625 -2.1868,-2.76929 -53.9927,-68.12945 -58.4131,-72.54993 -4.4205,-4.42044 -33.5912,-34.6895 -33.5912,-34.6895 0,0 141.9789,103.81043 166.2335,265.90193 z"
             id="path192" /><path
             d="m 2324.8178,424.8459 -13.7645,4.36408 17.9606,33.57159 14.7717,-8.89661 1.6785,-15.10709 -4.1967,-8.22482 z m -2.3503,7.21765 9.9038,4.02869 3.8608,5.37125 0.8392,4.69997 -8.7287,4.53203 -9.5679,-16.95349 z"
             style="opacity:1;vector-effect:none;fill:#ffd5d5;fill-opacity:1;stroke:#000000;stroke-width:0.153034px;stop-color:#000000;stop-opacity:1"
             id="path209" /></g><g
           id="g198"
           style="opacity:0.3;fill:#000000"><path
             style="font-variation-settings:normal;opacity:1;vector-effect:none;fill:#000000;fill-opacity:1;stroke:#000000;stroke-width:0.153034px;stroke-linecap:butt;stroke-linejoin:miter;stroke-miterlimit:4;stroke-dasharray:none;stroke-dashoffset:0;stroke-opacity:1;-inkscape-stroke:none;stop-color:#000000;stop-opacity:1"
             d="m 2094.194,443.15136 c 0,0 72.3851,-127.64087 157.479,-159.68922 l -18.7869,-20.44463 c 0,0 -130.9563,125.98319 -138.6921,180.13385 z"
             id="path191" /><path
             style="font-variation-settings:normal;opacity:1;vector-effect:none;fill:#000000;fill-opacity:1;stroke:#000000;stroke-width:0.153034px;stroke-linecap:butt;stroke-linejoin:miter;stroke-miterlimit:4;stroke-dasharray:none;stroke-dashoffset:0;stroke-opacity:1;-inkscape-stroke:none;stop-color:#000000;stop-opacity:1"
             d="m 2210.7837,412.76066 c 0,0 6.0782,114.93203 3.8679,130.40365 -2.2102,15.47161 -37.5739,104.98598 -37.5739,104.98598 0,0 29.2855,-71.27997 35.9162,-80.12089 6.6307,-8.84092 47.52,-27.62787 47.52,-27.62787 l 6.6307,-7.73581 -43.652,19.89206 c 0,0 48.625,-38.67904 72.9376,-44.75718 0,0 -6.6307,-8.84091 -23.76,1.10513 -17.1293,9.94604 -69.6223,57.46601 -50.8353,35.91626 18.787,-21.54976 40.3367,-52.49299 40.3367,-52.49299 0,0 -37.5739,37.57393 -40.3367,44.20462 -2.7628,6.63069 4.973,-124.87806 4.973,-124.87806 l -8.2883,67.41205 z"
             id="path193" /><path
             style="font-variation-settings:normal;opacity:1;vector-effect:none;fill:#000000;fill-opacity:1;stroke:#000000;stroke-width:0.153034px;stroke-linecap:butt;stroke-linejoin:miter;stroke-miterlimit:4;stroke-dasharray:none;stroke-dashoffset:0;stroke-opacity:1;-inkscape-stroke:none;stop-color:#000000;stop-opacity:1"
             d="m 1765.9747,409.44532 c 0,0 44.2046,26.52279 44.2046,30.39068 0,3.86792 -49.1776,-19.33953 -70.7274,-9.39348 0,0 33.1535,0.55256 43.6521,7.18325 l -38.1265,-1.65767 57.466,13.81395 -20.4446,1.10511 c 0,0 -81.5023,-3.8679 -125.1543,68.79345 0,0 56.3609,-78.18694 155.8212,-61.6102 l 14.0903,-16.02417 22.6548,-22.65487 -4.4204,-22.65487 c 0,0 -49.7302,-119.90504 -59.1237,-124.32551 l -18.2344,16.02418 c 0,0 73.4902,90.61948 75.7004,117.14225 l 2.2102,11.60372 -20.9972,17.68185 -24.8651,-38.12649 19.3396,42.54695 c 0,0 -43.0996,-32.04837 -53.0456,-29.83813 z"
             id="path194" /><path
             style="font-variation-settings:normal;opacity:1;vector-effect:none;fill:#000000;fill-opacity:1;stroke:#000000;stroke-width:0.153034px;stroke-linecap:butt;stroke-linejoin:miter;stroke-miterlimit:4;stroke-dasharray:none;stroke-dashoffset:0;stroke-opacity:1;-inkscape-stroke:none;stop-color:#000000;stop-opacity:1"
             d="m 1864.6785,171.09326 c 9.524,66.32841 7.8233,69.38971 7.8233,69.38971 l 2.381,-9.18393 c 0,0 1.7008,0.68029 3.7416,-2.04087 2.0409,-2.72117 -11.5649,-51.02185 -13.9459,-58.16491 z"
             id="path197" /><path
             style="font-variation-settings:normal;opacity:1;vector-effect:none;fill:#000000;fill-opacity:1;stroke:#000000;stroke-width:0.153034px;stroke-linecap:butt;stroke-linejoin:miter;stroke-miterlimit:4;stroke-dasharray:none;stroke-dashoffset:0;stroke-opacity:1;-inkscape-stroke:none;stop-color:#000000;stop-opacity:1"
             d="m 2140.5366,161.90933 c -10.5445,55.78389 -14.9664,30.61311 -10.5445,55.78389 l 2.381,2.72116 c 0,0 -2.7212,-9.86422 0,-15.6467 2.7212,-5.78247 8.1635,-42.85835 8.1635,-42.85835 z"
             id="path198" /></g><path
           style="font-variation-settings:normal;opacity:1;vector-effect:none;fill:#ff0000;fill-opacity:1;stroke:none;stroke-width:0.153034px;stroke-linecap:butt;stroke-linejoin:miter;stroke-miterlimit:4;stroke-dasharray:none;stroke-dashoffset:0;stroke-opacity:1;-inkscape-stroke:none;stop-color:#000000;stop-opacity:1"
           d="m 1658.2259,519.12805 c 0,0 47.746,-82.20662 154.1636,-60.78135 l 36.4689,-41.16556 4.1442,0.55255 c 0,0 -34.8112,33.42975 -36.4688,44.20463 -1.6577,10.77488 1.223,14.00942 1.223,14.00942 0,0 -2.8807,-16.49593 -14.4844,-17.32477 -11.6037,-0.82884 -92.0785,-9.95588 -145.0465,60.50508 z"
           id="path195" /></g></g></g></svg>
