<svg xmlns="http://www.w3.org/2000/svg" viewBox="0 0 557.12 220.25"><defs><style>.cls-1{fill:#dc2626;}</style></defs><g id="Layer_2" data-name="Layer 2"><g id="neck"><path d="M77.85,38.55q43,0,69.21,25.34t26.25,66q0,41-25.84,65.67T77.85,220.25H0V38.55Zm0,20.9H22.55V199.34h55.3q33.57,0,52.83-18.84t19.26-50.94q0-31.61-19.59-50.86T77.85,59.45Z"/><path class="cls-1" d="M213,220.25V38.55H355.83v20.9H235.52v53.32h72.75v20.91H235.52v65.66H363.24v20.91Z"/><path d="M469.06,220.25H454.91L367.35,38.55h24.52L462,184.2,532.1,38.55h25Z"/><polygon class="cls-1" points="354.46 17.12 211.97 17.12 212.25 0 354.46 0 354.46 17.12"/></g></g></svg>