<svg xmlns="http://www.w3.org/2000/svg" viewBox="0 0 638.25 190.42"><defs><style>.cls-1{fill:#dc2626;}</style></defs><g id="Layer_2" data-name="Layer 2"><g id="neck"><rect class="cls-1" x="239.7" y="73.71" width="47.23" height="47.23" transform="translate(174.07 -168.83) rotate(51.18)"/></g><g id="Layer_6" data-name="Layer 6"><path d="M76.37,185.65V24.85H0V4H175.61v20.9H99.08v160.8Z"/><path d="M264.82,190.42q-40.83,0-67.4-26.91T170.84,95.29q0-41.48,26.66-68.38T264.82,0q40.82,0,67.64,27t26.83,68.3q0,41.33-26.75,68.22T264.82,190.42Zm0-21.23q30.6,0,50.69-20.9t20.08-53q0-32.25-20-53.16t-50.77-20.9q-30.62,0-50.7,21T194,95.29q0,32.1,20.08,53T264.82,169.19Z"/><path d="M399,185.65V4H506.42Q533.25,4,547,15.39t13.75,33.82a42.86,42.86,0,0,1-4.28,19.42,35.39,35.39,0,0,1-12.18,13.83q14.47,8.39,21.89,20.57t7.4,28q0,25.19-16.54,39.91t-44.85,14.73ZM421.5,75.71h86.9q14.31,0,21.89-6.5t7.57-18.68q0-12.84-7.32-19.26T508.4,24.85H421.5Zm0,89h95.13q15.47,0,24.36-9.14t8.88-24.93q0-15.63-8.88-24.85t-24.36-9.22H421.5Z"/><path d="M615.87,185.65V44.77h22.38V185.65Z"/></g></g></svg>