<svg xmlns="http://www.w3.org/2000/svg" viewBox="0 0 501.52 961.25"><defs><style>.cls-1,.cls-3{fill:none;}.cls-2{fill:#dc2626;}.cls-3{stroke:#000;stroke-miterlimit:10;}</style></defs><g id="Layer_2" data-name="Layer 2"><g id="Layer_4" data-name="Layer 4"><path class="cls-1" d="M153.75,183a8.26,8.26,0,0,0-1.19-.7,40.4,40.4,0,0,0,5.12,6.54C156.65,186.3,155.38,184.13,153.75,183Z"/><path class="cls-2" d="M149.46,147.25c.43-6,10.29-2.57,18.86,3.87S182,157.54,197,164.39s19.29-7.28,39.86-13.27,17.57-40.73,17.57-40.73,4.29-15.85,3.63-8.14,14.37,14.57,31.94,29.57,17.15,70.29,17.15,70.29,6-37.72,8.14-48c1.36-6.55,13.16-11.54,21.55-14.29a242.31,242.31,0,0,0,4.6-39.74c.44-13.42-.34-27.27-6-39.45S318.42,38.2,305,37.26c-6-.42-12.54.84-17.51-2.5-3.46-2.34-5.26-6.39-7.63-9.83C269.48,9.84,248.62,7.06,230.29,6.48c-8.61-.27-17.39-.35-25.63,2.16-6.12,1.86-11.8,5.11-18.06,6.39-11.21,2.29-23.78-1.79-33.75,3.82q.69-9.42,1.39-18.85a19.38,19.38,0,0,0-16,17.47A19.38,19.38,0,0,0,152,36.71c-5.31-1.12-10.75-2.31-15.29-5.28s-8-8.21-7.32-13.59c-5.14,5-8.91,11.88-8.66,19.07s5.33,14.38,12.42,15.56c-8.36,1.4-17.32,2.72-25-.88S95.65,37.33,101,30.73c-12.41,1.15-19.51,16.8-15.4,28.56s15.85,19.3,27.81,22.83c-4.49,7-15.08,5.49-22.43,9.3-10.54,5.47-11.76,20.67-7,31.56s13.58,19.46,19.31,29.86c2,3.63,2.7,9.59-1.31,10.63a6,6,0,0,1-3.57-.43,17.51,17.51,0,0,1-10.59-19.38,21.26,21.26,0,0,0,24.49,33.66,9.4,9.4,0,0,1,0,9.52c-.82,1.35-2,2.56-2.28,4.12-.74,4.19,5,6.16,9.19,6.45,4.94.33,10.75.29,13.74-3.65,1.61-2.12,2-4.92,3.38-7.18,3-4.82,11-6.91,16.23-4.32a20.19,20.19,0,0,1-3.1-8C148.68,167.06,149,153.25,149.46,147.25Z"/><path class="cls-3" d="M351.78,151.9c-3.39-5-9.86-6.7-15.75-8,.29-1.35.56-2.7.84-4.05-8.39,2.75-20.19,7.74-21.55,14.29-2.14,10.28-8.14,48-8.14,48s.43-55.29-17.15-70.29S257.42,110,258.09,102.25s-3.63,8.14-3.63,8.14,3,34.74-17.57,40.73S212,171.25,197,164.39s-20.14-6.83-28.71-13.27-18.43-9.87-18.86-3.87-.78,19.81,0,27a20.19,20.19,0,0,0,3.1,8,8.26,8.26,0,0,1,1.19.7c1.63,1.17,2.9,3.34,3.93,5.84,1.61,3.88,2.64,8.55,3.6,11.42,5.33,16.11,4.32,34.21,13,49.2,9.81,16.86,29.44,24.91,47.69,31.81,4.39,1.66,8.92,3.34,13.61,3.21,7.14-.22,13.41-4.56,19.21-8.74l19.7-14.2c8.36-6,16.93-12.26,22.45-21,6.24-9.81,8-21.74,9.39-33.27.09,2.83,3.72,4,6.56,3.91,9.52-.28,18.32-5.76,24.52-13s10.13-16.1,13.55-25C353.66,166.29,355.93,158,351.78,151.9Z"/><path class="cls-1" d="M335,709.72l-2.6,10.51L343.57,707s-14.73.18-2-20.74L314,674l14.79,17.28Z"/><path class="cls-1" d="M110.07,726.22c-14,14.16-22.61,56.25-22.61,56.25Z"/><path class="cls-1" d="M108.67,725.28l-.24-.11-.87,1.05Z"/><path class="cls-3" d="M110.07,726.22c11.75-11.87,2.05-3.85-1.4-.94A5.38,5.38,0,0,1,110.07,726.22Z"/><path class="cls-3" d="M90.84,724.1C75.74,726.34,76,758.67,76,758.67c3.66.91,11.44,23.8,11.44,23.8s8.59-42.09,22.61-56.25a5.38,5.38,0,0,0-1.4-.94l-1.11.94.87-1.05C106.09,724,100.91,722.6,90.84,724.1Z"/><path class="cls-3" d="M443,452.05s-19.67-55.83-25.17-69.1S341,345.88,341,345.88s7.32-4.12-4.58-9.61S308,319.79,302.09,310.18s1.83-40.73,0-51.26c-3.26-18.74-27.79,1-32.35,7.09-6.22,8.31-14.48,15.37-24.33,18.64s-21.35,2.37-29.73-3.75c-4.21-3.07-11.29-11.75-15.13-5.59-1.9,3.05,2.66,11.75,4.06,14.68,7.33,16.43,1.38,32.55-6.4,35.75s-9.16,4.12-16.94,15.26-54.91,27.76-54.91,27.76c-59,15.1-50.8,71.85-69.56,86.49s-12.36,119.9-12.36,119.9.91,5-20.59,16.48S.51,629.16.51,629.16l15,43.93c-10.65,17.39.13,26.54.13,26.54-3.21,32,56.75,58.12,60.41,59,0,0-.28-32.33,14.82-34.57,10.07-1.5,15.25-.06,17.59,1.07,4-4.89,20.64-25.87,24.87-41,4.82-17.27,40.15-53.64,40.15-53.64l26,2.77s27.32,17.09,39.49,18,37.92,15.07,50.39,15.07S314,674,314,674l27.56,12.27c-12.71,20.92,2,20.74,2,20.74l-11.13,13.22.47,3.87s31.74-2.62,33.82,37.09L365,767.94c3.11-1.44,6.72-2.67,10.33-6.07,7.78-7.32,0,0,21.51-.46s14.65,1.38,22.43,1.83,23.34,0,35.24-9.61,6.86-35.69,6.86-35.69,17.85-24.71,36.61-70S443,452.05,443,452.05Z"/><path class="cls-3" d="M323.57,734.19l24,55.8L357,777.43c1.47-5.88,4.39-7.83,8-9.49l1.75-6.75c-2.08-39.71-33.82-37.09-33.82-37.09C330.92,730.89,323.57,734.19,323.57,734.19Z"/><path class="cls-3" d="M357,777.43,347.58,790l-24-55.8s7.35-3.3,9.34-10.09l-.47-3.87L314,674s-12.21-7.66-24.68-7.66-38.23-14.15-50.39-15.07-39.49-18-39.49-18l-26-2.77s-35.33,36.37-40.15,53.64-25.74,42.09-25.74,42.09,16.53-14.16,2.51,0-22.61,56.25-22.61,56.25l-1.83,16L72.36,845.16,82.88,960l130-2.22,12.36-40.27L244.43,960H388.58S354.26,788.41,357,777.43Z"/><path class="cls-3" d="M91.12,394.84s2.29,54.92-3.2,86S76,570.12,75.1,580.65s-5.95,36.15-5.49,43.93,15.56,37.07,24.25,42.56,22.43,9.61,30.21,10.07-17.85-3.21-8.24-11.44,28.37-9.61,33.41-15.56,9.15-8.24,6.41-12.82l-2.75-4.57L150.15,631c-1.83-2.29-13.27-11.9.92-12.82s20.14,3.66,24.71,3.21,16-5.5-5.95-8.7-15.56-15.56-33.4-2.75-22.89,16-33.87,23.8S93,645.17,87.92,641.51s-14.19-16-1.84-23.34S98.9,605.82,122.7,604s27.45-7.78,39.81-.92,23.8,11.44,23.8,15.56,4.12,13.73,0,13.27,5-5,18.76,2.75-10.52.91,30.66,12.81,31.58,14.19,48.06,14.19h16.47s15.56,5,23.34,5,12.36,0,15.56,6,9.15,6.87,4.12,10.53,8.69,10.07-5,3.66S314,674,314,674l15.1,35.24,2.75,8.24s3.66-16.93-37.53-33-46.22-16-46.22-16-2.75-.46-12.81-7.32-4.12-3.66-22-10.07-22.88-7.78-22.88-7.78-15.56-10.52-16.94-6-3.2,18.31-2.74,20.14-4.58,5.49-4.58,5.49-2.74-11-4.57-7.32-11.9,5-11.9,8.24,7.32,5.49,7.32,5.49l50.38-4.12L242,668.05,157,674.46l-9.15-6a56.23,56.23,0,0,1-8.24,7.32c-5.95,4.58-8.7,13.73-8.7,15.56s-16.47,28.84-16.47,28.84,3.66-6-1.83-17.85l-5.49-11.9h0s-7.78,0-7.78-2.75,4.57-5-.46-12.81S74.19,647,74.19,649.29s-28.38,17.39-28.38,17.39l-22,11.9s16.76-31.08,35.23-32.49,7.78-7.26,10.07-11-2.74-4.57-2.74-4.57-39.66,10.16-47.14,36.61c0,0,6.86-35.24,38-39.36L65,625.49s2.29-.91,2.75-13.72L19.27,628.24s10.07-3.2,7.32-6.86l-2.74-3.67-10.07-.45S5.54,604.9,27.51,604s38,1.83,41.18-6.87,6.87-46.68,6.87-48,7.32-50.34,7.32-50.34l-6.41-7.32S52.22,456.17,66,466.24s17.39,12.35,17.39,12.35L56.8,455.25,82.42,474Z"/><path class="cls-3" d="M80.55,684.31c-1.67,0-3.45.1-4.79,1.09-.8.6-1.37,1.49-2.18,2.09a7.06,7.06,0,0,1-3.75,1.1,29.72,29.72,0,0,1-11.28-1.35,48.37,48.37,0,0,0-4.79-1.52,13.69,13.69,0,0,0-14.58,6.92,4.11,4.11,0,0,0-.55,2.9c.58,2.08,3.41,2.37,5.52,1.93,6.69-1.39,13.26-5.84,19.8-3.87,1.34,3.5-1.07,7.55-4.39,9.29s-7.26,1.73-11,1.55a19.78,19.78,0,0,1-4.41-.54,33.26,33.26,0,0,1-5.33-2.28c-7.1-3.28-15.39-4-21.76-8.56-1.14.45-1.25,2.16-.5,3.13a6,6,0,0,0,3.17,1.72l8.67,2.61c7.83,2.36,15.72,4.73,23.87,5.43,2.39.21,4.9.3,7,1.48s3.55,3.91,2.44,6.05a11.83,11.83,0,0,1-6.23-.58c-1.54-.59-2.95-1.5-4.47-2.13-3.25-1.34-6.86-1.36-10.37-1.36a13,13,0,0,0-5.75.9c-1.76.88-3.11,2.88-2.57,4.77.67,2.37,3.61,3.1,6.06,3.4a23.77,23.77,0,0,0,6.52.22C49.35,718,54,715,58,717c3.19,1.65,4.09,5.71,4.63,9.26L64,735.45l-12.75-.25L61.19,738c1.49.43,3.51.65,4.22-.74a3.25,3.25,0,0,0,.2-1.81c-.61-7.26-2.53-14.4-2.65-21.69s1.95-15.16,7.71-19.63c3.93,7.54,3.4,16.53,2.76,25,.65-8.76,1.32-17.64,4.12-26A69.49,69.49,0,0,1,81.22,720c2.51-9.71,3.27-19.77,4-29.77,3.43,3.45,5.26,8.23,6,13s.39,9.7.08,14.55l2.09-27.14c.51,8.77,1.3,17.54,2.38,26.26l4-26a95,95,0,0,1,6.21,25.77,84.93,84.93,0,0,0,1.6-13.86c.15-4.37-.38-9.4-4-11.9-1.63-1.15-3.41-1.85-4.73-3.41s-1-2.13-3.25-2.68C91,683.7,85.24,684.27,80.55,684.31Z"/><path class="cls-3" d="M330.49,726.47A10.39,10.39,0,0,1,342,722.73a17.58,17.58,0,0,1,3.75,1.95,68.77,68.77,0,0,1,20.6,20.55,21.49,21.49,0,0,1,2.63,5.19,21.25,21.25,0,0,1,.78,5.51,17.27,17.27,0,0,1-.92,7.43,7.15,7.15,0,0,1-5.54,4.58,17.7,17.7,0,0,0,3.92-12.85,24.92,24.92,0,0,0-2.76-8.67,42.55,42.55,0,0,0-21.54-19.94c-2.27-.93-4.8-1.67-7.14-1-4.54,1.37-6,7.49-10.41,8.63C327.25,731.82,328.69,729,330.49,726.47Z"/><path class="cls-3" d="M352.52,697.41c.38,1.32-.76,2.54-1.79,3.44-2.41,2.09-5.59,6.52-9.05,5a8.09,8.09,0,0,1-4-9.24c.47-1.35,1.39-2.5,1.93-3.82.85-2.11.72-4.58,1.94-6.49l.51,2.82c.05.29.19.66.49.66a.62.62,0,0,0,.4-.2l1.62-1.36"/><path class="cls-3" d="M354.88,694.47a13.76,13.76,0,0,1,14.92-5.31c1.35.41,2.7,1,4.09.84s2.39-1,3.66-1c1.75,0,3.07,1.56,3.9,3.09s1.5,3.28,2.94,4.26c1.82,1.24,4.44,1,6.05,2.46s1.66,3.93,3.38,5c1.46.92,3.45.42,4.95,1.26a5,5,0,0,1,1.89,2.2c1.87,3.62,2.07,7.84,2.24,11.91l.49,12.27a4.29,4.29,0,0,0,.4,2,3.94,3.94,0,0,0,1.69,1.4c5.77,3,12.46,3.69,18.83,5.08a2.34,2.34,0,0,1,1.21.53,2.54,2.54,0,0,1,.5,1.46,11.9,11.9,0,0,0,2.43,5.57,3.43,3.43,0,0,1,1,2c0,1.44-1.83,2-3.27,2.14-4.38.34-9.22,0-12.42-3-3-2.8-3.76-7.21-6.1-10.56a3.44,3.44,0,0,0-2.12-1.65,3.7,3.7,0,0,0-2.75,1.15,24.12,24.12,0,0,0-4.24,4.67c-.8,1.15-1.53,2.54-1.18,3.9.44,1.73,2.34,2.57,4,3.31a30.28,30.28,0,0,1,8.91,6.25c-6.56-.82-10.45-8.32-16.85-10a1.3,1.3,0,0,0-.73,0c-.33.12-.51.47-.68.77-1.47,2.55-4.43,3.74-7.11,5A123.17,123.17,0,0,0,371.17,759c3.39-2,3.37-6.92,5.85-9.93,2.69-3.26,7.68-3.56,10.85-6.35,2.27-2,3.39-5.08,5.71-7,1.72-1.44,4.12-2.31,4.95-4.38.89-2.23-.5-4.67-1.83-6.67-2.09-.33-3,2.43-4.09,4.27-1.67,2.89-5.1,4.2-7.57,6.45-1.57,1.43-2.76,3.25-4.35,4.66-2.77,2.45-6.49,3.43-10.07,4.35,6.15-3.82,8.48-11.75,14.08-16.33,2.18-1.78,4.82-3,6.75-5.06s2.95-5.43,1.23-7.66c-8.81,6.6-15.87,14.62-26,19,.29-2.45,2.23-4.39,4.33-5.68s4.47-2.13,6.49-3.55c4.31-3,6.48-8.18,8.44-13.06.72-1.78,1.22-4.26-.43-5.24a3.39,3.39,0,0,0-1.47-.39,11,11,0,0,0-7.41,2.12,27.56,27.56,0,0,0-4.46,4.81c-4,4.8-9.33,9-15.55,9.4.08-2.33,1.64-4.38,3.48-5.82s4-2.41,5.94-3.72a21.42,21.42,0,0,0,9.31-17.41c-8.72,1-16.35,6.19-23,11.89-2.55,2.18-5.27,4.56-8.61,4.85.17-3.65,3-6.52,5.6-9.12S355.35,698.1,354.88,694.47Z"/><path class="cls-3" d="M362.24,452.39,327.89,569.18c-3.52,12-7.08,24.4-5.21,36.74,9.17-3.61,18.21,6.22,21.05,15.65s3.33,20.35,10.34,27.27l-16.38-44.63c-1.88-5.12-3.78-10.38-3.83-15.84-.09-12,8.56-22,13.31-33.08,7.37-17.12,5.29-36.95,11.19-54.63,3.17-9.5,8.55-18.1,12.33-27.36,3.08-7.56,5.07-15.5,7.06-23.41,2.41-9.64,10.2-26.07,6.81-35.67C371.8,421.35,366.15,439.11,362.24,452.39Z"/><path class="cls-3" d="M402.63,455.66c.79-5.56,5.6-9.51,9.87-13.15,5-4.28,14.16-24.62.55-21.05C403.45,424,401.06,448.29,402.63,455.66Z"/><path class="cls-3" d="M386.9,524.17c-4.33,6.74-8.66,13.5-13.59,19.81-3.38,4.33-7.05,8.47-9.79,13.22-5.29,9.2-6.8,20.21-12.15,29.37,8.78,2.39,18.28-1.32,25.21-7.21a25.83,25.83,0,0,0,6.57-7.89c1.83-3.62,2.4-7.73,3.2-11.71,3.24-16.14,10.6-30.94,17.72-45.64,4.52-9.34,16.62-26.31,12.66-36.89C405.56,491.48,396.75,508.8,386.9,524.17Z"/><path class="cls-3" d="M388.83,603.92c8.35-1.8,16-6,24-8.86,14.91-5.36,31-6.28,46.82-7.15,5.66-.31,12.07-.36,16.08,3.66s3.94,10.74,4.75,16.55a40.11,40.11,0,0,0,16.13,26.64A65.48,65.48,0,0,1,463,629.23c-3.79-1.73-7.43-3.83-11.42-5.05-4.44-1.34-9.13-1.54-13.77-1.6a267.65,267.65,0,0,0-54.69,4.87l39.52-5.34c3.45-.47,7.08-1,9.81-3.16s4.09-6.48,1.88-9.17c-2.88-2.51-7.35-2.06-10.85-.52s-6.57,4-10.17,5.27c-4.72,1.69-9.89,1.21-14.91,1.06a110.07,110.07,0,0,0-25.73,2.24c-8.72,1.8-19.7,3.87-24.91-3.34L362.33,611a24.1,24.1,0,0,1-22.41-16C355.61,599.15,372.38,607.47,388.83,603.92Z"/><path class="cls-3" d="M449.77,646.66l-16.64-12.27a41.93,41.93,0,0,0-7.55-4.77A28.31,28.31,0,0,0,411,627.78c-1.39.15-3,.58-3.44,1.92-.51,1.73,1.49,3.08,3.16,3.77q16.44,6.76,33.51,11.87a10.07,10.07,0,0,1,4.41,2.15,14.44,14.44,0,0,1,2,3.22c2.56,4.6,22.9,17.86,27.54,12C480,660.52,453.93,649.72,449.77,646.66Z"/><path class="cls-3" d="M435.14,667.64,443,677.92c7.32,9.58,15,20.42,14,32.43a15.88,15.88,0,0,1-3.13,8.64c-2.06,2.55-5.07,4.11-7.79,6-4.12,2.79-7.86,6.42-12.64,7.82a30.52,30.52,0,0,1-8.16.85l-15.06.17c8.19,3.14,17.19,3.13,26,3.09,4.69,0,10.07-.38,12.9-4.12,2,4.08-.26,9-3.13,12.52a39.67,39.67,0,0,1-35.52,14.05,44.9,44.9,0,0,0,43.84-4.27,14.71,14.71,0,0,0,5.08-5.47,17.55,17.55,0,0,0,1.18-4.77,88.49,88.49,0,0,0,1.41-14.87c-.07-3.59-.56-7.15-.89-10.73-.71-7.72-.65-15.51-1.72-23.19s-3.4-15.4-8.29-21.41c-3.06-3.77-7-6.71-10.72-9.82a130.59,130.59,0,0,1-27.34-31.53c.52.84-.53,3.68-.15,4.88s.94,1.51,1.64,2.51c2,2.91,4.43,5.66,6.59,8.49Z"/><path class="cls-3" d="M384.66,649.15c3.25-1.14,6.39-2.63,9.73-3.48s7-1,10.12.51,5.4,5,4.74,8.36a3.8,3.8,0,0,1-1.31,2.34,4.69,4.69,0,0,1-2,.73,52.47,52.47,0,0,1-11,.5l-20-.49c-5.31-.13-10.75-.24-15.76,1.52s-9.56,5.81-10.34,11.06c1.61.29,2.87-1.28,3.8-2.62A51.32,51.32,0,0,1,365.9,654.4C371.5,650.59,378.3,651.36,384.66,649.15Z"/><path class="cls-3" d="M169.18,675.68s-40.72,147.43-42,210,3.87,73.46,3.87,73.46l1.27-49.89Z"/><path class="cls-3" d="M205.07,670.84l-7.18,173.27v38.14l-13.71,20.57H142.61l7.28,19.29,37.72-3.86-13.77,22.29,4.9,17.78,34.11-.58,12.36-40.27L244.43,960l16.46-.82s-23.14-42.18-1.71-48.6,26.14,12.85,26.14,12.85l9,35.75L266.46,756.68S284,917,284,915.25s-3-48.86-15.42-42l-12.43,6.86s-13,7.28-14.22,21.85a108.91,108.91,0,0,1-5.07,25.29L228.75,899l-4.29,13.72S209,880.54,205.61,862.11,203,819.25,203,819.25s22.72,1.71,32.58-19.71,10.28-33.86,10.28-33.86S233,823.54,205.18,812.82Z"/><path class="cls-3" d="M257,675.68s.86,59.34,4.72,62.67Z"/><path class="cls-3" d="M351.37,777.68s-4.07-1.72-3.77,8.14,10.58,31.59,10.58,31.59Z"/><path class="cls-3" d="M325.38,812.39l42.31,38.21,2.12,11.64s-2.2-5.7-11.63-7.42-32.17-11-32.8-17.5S307.58,810.68,325.38,812.39Z"/><path class="cls-3" d="M286.61,866.82C287.89,866.39,302,845,314,849.25s29.54,20.57,29.54,20.57a17.29,17.29,0,0,1-13.25,6.43C321.75,876.25,286.61,866.82,286.61,866.82Z"/><path class="cls-3" d="M308.89,700.54l16.49,37.81S313.61,707,308.89,700.54Z"/><path class="cls-3" d="M181.27,341s26.91,19.68,44.91,24.82,51.85,2.57,54.43,0S341,345.88,341,345.88,205.8,383,181.27,341Z"/><path class="cls-3" d="M87.46,782.47S96,740.78,112,724.1C112,724.1,85.43,771.72,87.46,782.47Z"/><path class="cls-3" d="M78.42,761.19s-12.64-27.5,7.32-37.09,24.33,2.12,24.33,2.12S99,718,90.84,724.1s-12.25,11.23-12.93,19.4A100.7,100.7,0,0,0,78.42,761.19Z"/><path class="cls-3" d="M224.09,156.68s43-14.5,47-14.5,24.11,14.5,24.11,14.5H270.5l-43.73,13Z"/><polygon class="cls-3" points="195.93 175.25 149.46 174.25 152.56 161.8 189.2 165.72 195.93 175.25"/><path class="cls-3" d="M239.5,192.29s1.49-16,25.64-17.86c0,0,18.58-1.68,21-3,0,0-1.22,4.63-11.11,3.8S244.7,176.15,239.5,192.29Z"/><path class="cls-3" d="M283,175.25s-3.35,14.6-12.08,18.87-31.4,0-31.4,0,.29-9.87,9.46-13.68c0,0,10.52-7.88,21.94-5.35L283,173.31Z"/><path class="cls-3" d="M199.37,196s-14.86,9.43-22.66,8.13-11.89-11.86-11.89-11.86,12.63-8.2,20.62-5.79S200.12,192.34,199.37,196Z"/><path class="cls-3" d="M174.85,188.8s.8,8.29,7.27,8.48,13-4.2,13.29-6.65C195.41,190.63,183.61,182.67,174.85,188.8Z"/><path class="cls-3" d="M249,180.44s6.52,11,12.28,8.36,9.1-4.88,9.66-13.71C270.9,175.09,256,174,249,180.44Z"/><path class="cls-3" d="M158.5,188.8s28.31-9.28,36.91,1.83c0,0-15.95-10.37-27.73,0l-2.86,1.66Z"/><path class="cls-3" d="M237.46,221.43s-.37,8.36-3.72,8.17-9.1-6.31-10.4-.93v2.79s-.37-2.79,3.16-2S238.76,231.46,237.46,221.43Z"/><path class="cls-3" d="M217,232.76s-4.12-5-5.59-3.9L210,230l-.74,1.49Z"/><polygon class="cls-3" points="204.76 251.77 244.89 245.39 248.96 241.68 243.4 247.81 204.76 251.77"/><path d="M312.43,191.61s7.87-.81,7.71-6-3.7-.64-2.89-6.91,2.57-19,15.11-22.84,20.57-4.32,19.28,5.8-5,21.75-11.09,27.51,12.38-18.67,5-24.61l-1.76-1.13s2.73,25.4-15.75,33.75c0,0,15.26-17,10-23,0,0-5.49-5.3-5.88-1.61s4.59,9.32-.71,13.82l-5.3,4.5-4.18,1.33s12.7-7.75,8.2-15.63C330.11,176.66,321.43,197.07,312.43,191.61Z"/></g></g></svg>