<svg xmlns="http://www.w3.org/2000/svg" viewBox="0 0 1955.26 2744.6"><defs><style>.cls-1{opacity:0.35;}.cls-2{fill:#371a45;}.cls-3{fill:#fff;}.cls-4{opacity:0.7;}.cls-5{fill:#111a28;}.cls-6{opacity:0.43;}.cls-7{fill:#22a7f0;}</style></defs><g id="Layer_2" data-name="Layer 2"><g id="Layer_4" data-name="Layer 4"><g class="cls-1"><ellipse class="cls-2" cx="938.21" cy="2632.66" rx="938.21" ry="111.94"/></g><path class="cls-3" d="M451,1178.72v630.77a202.75,202.75,0,0,0,26.22,99.83c35.13,62.31,102,104.58,178.22,104.58h587.35c73.44,0,138.18-39.24,174.23-97.8a202.58,202.58,0,0,0,30.21-106.61V1178.72a201.35,201.35,0,0,0-4.07-40.44,205.34,205.34,0,0,0-200.37-164H655.46c-87.69,0-163,55.92-191.83,133.88A203.07,203.07,0,0,0,451,1178.72Z"/><path class="cls-2" d="M1242.82,2029.16H655.45c-121.13,0-219.67-98.54-219.67-219.67V1178.72c0-121.13,98.54-219.67,219.67-219.67h587.37c121.13,0,219.68,98.54,219.68,219.67v630.77C1462.5,1930.62,1364,2029.16,1242.82,2029.16ZM655.45,989.56c-104.3,0-189.16,84.86-189.16,189.16v630.77c0,104.3,84.86,189.15,189.16,189.15h587.37c104.3,0,189.16-84.85,189.16-189.15V1178.72c0-104.3-84.86-189.16-189.16-189.16Z"/><path class="cls-3" d="M582.22,1034s-254.38,289.26-254.38,530.86c0,206.77,254.38,277.9,254.38,277.9l352.56-597.1Z"/><path class="cls-3" d="M327.84,1564.85c0,206.81,254.38,277.91,254.38,277.91l8.7-14.7,343.87-582.39L669,1086.08,582.22,1034S327.84,1323.29,327.84,1564.85Z"/><g class="cls-1"><path class="cls-2" d="M434.46,1593.14c0,119.4,84.81,193.57,156.46,234.92l343.87-582.39L669,1086.08C609.12,1160,434.46,1392.93,434.46,1593.14Z"/></g><path class="cls-2" d="M589.39,1860.62l-11.28-3.16c-2.7-.75-66.78-19-131.71-63.52-87.55-60.06-133.82-139.27-133.82-229.07,0-244.54,247.63-528.95,258.18-540.94l8.4-9.55,376.46,226Zm-3.92-806.86c-43.24,51.92-242.37,302.37-242.37,511.11,0,169,184.61,243.31,232.17,259.64L913.94,1251Z"/><path class="cls-3" d="M1340.16,1384.62s107.78,135,280.42,105.19c179-30.89,147.34-328.85,147.34-328.85l-272-104.73s16.9,93.07-22.49,93c-44.12,0-122.87-103.83-191.65-135Z"/><g class="cls-1"><path class="cls-2" d="M1300,1130.1l40.15,254.54s107.77,134.95,280.44,105.17c179-30.89,147.33-328.85,147.33-328.85l-125.12,67.13c84.44,15.07,73.83,168.64-54.26,190.76-172.63,29.81-276-242.41-276-242.41Z"/></g><path class="cls-2" d="M1570.41,1509.43c-148.23,0-238-110.08-242.17-115.28a15.26,15.26,0,0,1,23.83-19.06h0c1,1.27,104.54,127.51,265.92,99.68,146-25.2,138.75-254,135.48-303l-239.27-92.13c1.75,23.21.94,55-13.36,72.11a34.69,34.69,0,0,1-27.42,12.81h0c-29.33,0-63.75-30.48-103.6-65.77-31.65-28-64.38-57-94.34-70.57a15.25,15.25,0,0,1,12.59-27.79c34.16,15.46,68.64,46,102,75.51,30.76,27.23,65.61,58.09,83.39,58.1h0a4.44,4.44,0,0,0,4-1.85c9.36-11.19,7.6-50.31,3.47-73.22l-4.82-26.7,306,117.82,1,9.28c1.35,12.74,31,312.55-159.91,345.5A310,310,0,0,1,1570.41,1509.43Z"/><g class="cls-1"><path class="cls-2" d="M1146.41,2165.23c-1.68.76-3.35,1.47-5,2.18v0C1143.06,2166.74,1144.73,2166,1146.41,2165.23Z"/></g><g class="cls-1"><path class="cls-2" d="M934.78,1697.94q-6.4,9.81-12.41,19.28C926.4,1710.91,930.55,1704.44,934.78,1697.94Z"/></g><path class="cls-3" d="M410.07,2520.25c.24,2.6.6,5.19,1.07,7.67,12.94,76.59,102.67,104,264.16,82.82,73.12-9.5,174.23-20.79,200.89-79,53.25-116.23-1.08-351.41,5.23-502.13v-.24a605.54,605.54,0,0,0,131.68,0c0,1.24.08,2.44.12,3.67,5.39,150.8-47.7,383.35,5.11,498.7,26.66,58.24,127.73,69.53,200.89,79,161.69,21.16,251.42-6.27,264.24-83.06.39-2.48.75-4.91,1-7.43,9.3-93.6-121.26-137.06-121.26-137.06s28.46-198.62,47.26-377.84c7.9-75.36,9.7-153.31,7.23-230.86q-.9-30.12-2.68-60.16-2.51-42.67-6.42-84.69-3.42-36.41-7.71-71.93c-10.62-89-24.9-173.15-39.63-247.19-13.18-66.42-26.71-124.74-38.32-171-2.6-10.22-5-19.84-7.39-28.86-14.17-54.56-24-86.33-24-86.33H602.94s-9.9,32-24.11,86.85c-8.39,32.13-18.24,72.17-28.5,118.23q-6,27-12.14,56.68c-16.48,80-32.81,173.15-44.62,272.34q-4.14,34.72-7.51,70.33c-2.71,29-4.94,58.31-6.62,87.81q-1.86,31.38-2.76,63-.58,20.89-.79,41.83c-.56,62,1.87,123.89,8.18,184,18.76,179.22,47.22,377.84,47.22,377.84S400.77,2426.65,410.07,2520.25Z"/><g class="cls-1"><path class="cls-2" d="M1018.33,2531.71c26.67,58.23,127.73,69.53,200.88,79.08,161.71,21.07,251.43-6.31,264.23-83.13-132.38,52.6-365.73,22.56-405.63-44.18-51.67-86.41-60-172.79,20.32-280.46s86.54-248.17,86.54-248.17c-38.39,28.28-117.38,59-171.46,78.17C1018.63,2183.84,965.5,2416.34,1018.33,2531.71Z"/></g><g class="cls-1"><path class="cls-2" d="M411.13,2527.93c12.93,76.6,102.65,103.93,264.15,82.86,73.14-9.55,174.25-20.85,200.92-79.08,53.22-116.23-1.12-351.43,5.2-502.11-44.76-14-127.61-42.65-171.25-74.75,0,0-22,101.05,71.6,239.16,75.51,111.46,81,200.13,29.34,286.5C774.45,2541.8,556.65,2567,411.13,2527.93Z"/></g><path class="cls-2" d="M1327.85,1138.23c16.66,49.83,30.3,100.56,42.42,151.65,6,25.56,11.66,51.21,16.67,77,2.48,12.9,5.09,25.77,7.42,38.7l6.55,38.86c2.26,12.94,4.24,25.93,6.15,38.93l5.77,39q2.61,19.55,4.91,39.14c1.69,13,3,26.13,4.25,39.22,5.81,52.29,8.75,104.9,11,157.51,1.18,52.67,2.09,105.41-.89,158.14l-.93,19.77-.45,9.89-.82,9.88-3.29,39.5c-2.26,26.3-5.43,52.18-8.27,78.26q-17.92,156.17-40,311.66l-10.28-16.64c7.09,2.48,13,5,19.37,7.78s12.31,5.77,18.33,8.94a264.1,264.1,0,0,1,34.73,21.95,185.75,185.75,0,0,1,30.77,28.76,128.36,128.36,0,0,1,22.3,37.67,107.11,107.11,0,0,1,6.3,44.33,113.11,113.11,0,0,1-11.27,43A103.08,103.08,0,0,1,1460,2596a137.79,137.79,0,0,1-37.88,20.91c-26.49,9.86-53.64,13.58-80.34,15.27-26.74,1.49-53.24.6-79.49-1.44-13.11-1.13-26.2-2.37-39.19-4.06l-38.62-5c-25.83-3.6-51.92-7.8-77.93-14.75a281.76,281.76,0,0,1-38.75-13.23c-12.75-5.58-25.35-12.49-36.86-21.9a109.63,109.63,0,0,1-15.85-16.21,88.1,88.1,0,0,1-11.66-19.86c-5.84-12.85-9.66-26.11-13-39.34-6.31-26.54-9-53.18-10.22-79.58s-.85-52.67.2-78.76c2.14-52.17,7-103.79,11.19-155.14s8.09-102.59,6.23-152.82l17.11,14.49c-11.61,1.33-22.6,2.15-33.91,2.78s-22.5.93-33.8.95-22.56-.33-33.8-.95-22.29-1.45-33.9-2.78L896.66,2030c-1.87,50.23,2.13,101.52,6.23,152.82s9.05,103,11.18,155.14c1.06,26.09,1.44,52.33.2,78.76s-3.9,53-10.22,79.58c-3.32,13.23-7.13,26.49-13,39.34a88.52,88.52,0,0,1-11.67,19.86,109.14,109.14,0,0,1-15.85,16.21c-11.51,9.41-24.11,16.32-36.85,21.9A282.68,282.68,0,0,1,788,2606.84c-26,6.95-52.1,11.15-77.93,14.75l-38.63,5c-13,1.69-26.08,2.93-39.19,4.06-26.25,2-52.74,2.93-79.49,1.44-26.69-1.69-53.84-5.41-80.34-15.27A137.79,137.79,0,0,1,434.5,2596a103.08,103.08,0,0,1-28.58-34.8,112.91,112.91,0,0,1-11.26-43A107.27,107.27,0,0,1,401,2473.8a128.79,128.79,0,0,1,22.3-37.67A185.42,185.42,0,0,1,454,2407.37a263.44,263.44,0,0,1,34.73-21.95q9-4.76,18.33-8.94c6.31-2.81,12.27-5.3,19.37-7.78l-10.29,16.64q-22.06-156.89-40.25-314.11c-2.87-26.3-6.05-52.35-8.33-78.91-1.07-13.27-2.56-26.52-3.27-39.81l-2.25-39.85c-2.08-53.15-1.79-106.3.32-159.34s6.23-105.93,11.73-158.64c1.21-13.2,2.76-26.35,4.29-39.51s3-26.32,4.77-39.46c3.26-26.29,6.82-52.54,10.92-78.71,8.08-52.45,17.9-104.19,30.19-156.17q4.83-19.33,10.3-38.41c3.56-12.76,7.39-25.45,11.4-38.09,8.11-25.26,16.77-50.44,27.86-74.82a5.12,5.12,0,0,1,9.67,3.15l0,.07c-10.57,51.41-20.28,103.1-30.51,154.52-9.16,51.22-18.3,103.21-26.78,154.86-17.22,103.45-29.32,207.83-33.33,312.46-2.08,52.29-2.36,104.62-.32,156.81s7.72,103.95,13.68,156.41q17.91,156.8,40.14,313.23l1.75,12.44-12,4.2c-5.1,1.77-11.08,4.22-16.55,6.68s-11.08,5.19-16.48,8a233.87,233.87,0,0,0-30.69,19.38c-19.11,14.31-35.25,32.14-42.78,52.58a76.47,76.47,0,0,0-4.49,31.77,82.62,82.62,0,0,0,8.12,31.43c9.41,19,27.9,32.74,49.94,40.79,22,8.23,46.58,11.83,71.32,13.35s50.07.58,75.3-1.39c12.61-1.09,25.24-2.28,37.85-3.92l38.19-5c25.3-3.52,50.3-7.6,74.21-14,23.7-6.43,47-15.18,64.1-29.2a79.06,79.06,0,0,0,11.18-11.4l2.3-3.12,2-3.26a33.76,33.76,0,0,0,1.8-3.35l.88-1.69.84-2c4.89-10.68,8.26-22.36,11.22-34.13,5.66-23.75,8.28-48.71,9.4-73.86s.84-50.62-.2-76.13c-2.09-51-6.9-102.31-11.11-153.89s-8.25-103.53-6.31-156.6l.61-16.38,16.5,1.88c10.24,1.17,21.19,2,31.84,2.6s21.45.88,32.14.9,21.42-.31,32.14-.9,21.6-1.43,31.84-2.6l16.51-1.88.6,16.38c2,53.07-2.21,105-6.31,156.6s-9,102.85-11.1,153.89c-1,25.51-1.4,51-.21,76.13s3.74,50.11,9.41,73.86c3,11.77,6.32,23.45,11.21,34.13l.85,2,.87,1.69c.62,1.11,1.07,2.3,1.8,3.35l2,3.26,2.31,3.12a78.54,78.54,0,0,0,11.18,11.4c17.12,14,40.39,22.77,64.1,29.2,23.91,6.4,48.91,10.48,74.2,14l38.19,5c12.62,1.64,25.24,2.83,37.86,3.92,25.22,2,50.46,2.78,75.29,1.39s49.34-5.12,71.33-13.35c22-8.05,40.52-21.75,49.94-40.79a82.81,82.81,0,0,0,8.12-31.43,76.63,76.63,0,0,0-4.49-31.77c-7.54-20.44-23.68-38.27-42.78-52.58a234,234,0,0,0-30.7-19.38c-5.4-2.84-10.9-5.54-16.47-8s-11.45-4.91-16.55-6.68l-12-4.2,1.75-12.44Q1370,2226,1388,2070.23c2.83-25.91,6-52,8.22-77.75l3.22-38.68.81-9.67.4-9.71.8-19.41c2.58-51.74,1.67-103.69-.12-155.54-5-103.74-16.18-207.22-31.35-310.19-15.45-103-34.14-205.42-52-308.58a5.1,5.1,0,0,1,9.86-2.47Z"/><path class="cls-2" d="M665.59,2270c-125.08,0-168.1-54.48-170.62-57.82a15.26,15.26,0,0,1,24.3-18.46c1.34,1.66,83.25,99,361.21,3.91a15.26,15.26,0,1,1,9.87,28.87C796,2258.8,722.33,2270,665.59,2270Z"/><path class="cls-2" d="M1241.43,2277.16c-112,0-232-39.51-239.58-42.06a15.26,15.26,0,0,1,9.68-28.94c2.7.9,270.41,89,363.21,3.26a15.26,15.26,0,0,1,20.71,22.42C1358.58,2265.92,1301.15,2277.16,1241.43,2277.16Z"/><path class="cls-3" d="M372.33,849.45h0a11.77,11.77,0,0,0,10.07-13.27L336.24,500A11.78,11.78,0,0,0,323,490h0A123.57,123.57,0,0,0,217.35,629.2l15.74,114.63A123.57,123.57,0,0,0,372.33,849.45Z"/><path class="cls-2" d="M355.26,853.36A126.36,126.36,0,0,1,230.38,744.2L214.63,629.58a126.34,126.34,0,0,1,108-142.34A14.54,14.54,0,0,1,339,499.65L385.12,835.8a14.54,14.54,0,0,1-12.41,16.37h0A128.46,128.46,0,0,1,355.26,853.36ZM324.59,492.59a10.49,10.49,0,0,0-1.25.08A120.86,120.86,0,0,0,220.06,628.83l15.75,114.63A120.84,120.84,0,0,0,372,846.74a9.07,9.07,0,0,0,7.73-10.19L333.53,500.4a9.06,9.06,0,0,0-8.94-7.81Z"/><g class="cls-1"><path class="cls-2" d="M225.71,690.08l7.37,53.76A123.62,123.62,0,0,0,372.34,849.47a11.79,11.79,0,0,0,10.07-13.29l-12.24-89.37a11.79,11.79,0,0,1-9.67,8.38l-8,1.07A123.48,123.48,0,0,1,225.71,690.08Z"/></g><path class="cls-2" d="M355.23,865.88A138.89,138.89,0,0,1,218,745.91L202.23,631.28A138.83,138.83,0,0,1,320.89,474.84,27.05,27.05,0,0,1,351.36,498L397.52,834.1a27.07,27.07,0,0,1-23.11,30.47h0A141,141,0,0,1,355.23,865.88ZM321.6,505.6a108.33,108.33,0,0,0-89.13,121.53l15.74,114.63a108.32,108.32,0,0,0,118.6,93Z"/><path class="cls-3" d="M1432.53,337.59h0a11.78,11.78,0,0,0-10.07,13.28L1468.62,687a11.79,11.79,0,0,0,13.27,10.07h0a123.57,123.57,0,0,0,105.62-139.24l-15.74-114.63A123.59,123.59,0,0,0,1432.53,337.59Z"/><path class="cls-2" d="M1480.26,699.94a14.54,14.54,0,0,1-14.36-12.55l-46.16-336.15a14.54,14.54,0,0,1,12.41-16.36h0a126.31,126.31,0,0,1,142.33,108l15.74,114.63a126.32,126.32,0,0,1-108,142.33A15.06,15.06,0,0,1,1480.26,699.94ZM1432.9,340.31a9.06,9.06,0,0,0-7.73,10.18l46.16,336.15a9,9,0,0,0,10.19,7.73,120.84,120.84,0,0,0,103.27-136.15l-15.74-114.63A120.84,120.84,0,0,0,1432.9,340.31Z"/><g class="cls-1"><path class="cls-2" d="M1455.79,593.77,1468.6,687a11.82,11.82,0,0,0,13.3,10.07,123.53,123.53,0,0,0,105.6-139.23l-6.63-48.3a123.64,123.64,0,0,1-101.66,87.23l-12.27,1.68A11.92,11.92,0,0,1,1455.79,593.77Z"/></g><path class="cls-2" d="M1480.27,712.46a27.09,27.09,0,0,1-26.77-23.37l-46.16-336.15a27.06,27.06,0,0,1,23.1-30.46h0a138.83,138.83,0,0,1,156.43,118.66l15.75,114.63A138.83,138.83,0,0,1,1484,712.2,27.15,27.15,0,0,1,1480.27,712.46Zm-42.22-360.17,45.21,329.15a108.32,108.32,0,0,0,89.13-121.52l-15.74-114.63a108.32,108.32,0,0,0-118.6-93Z"/><g class="cls-1"><path class="cls-2" d="M463.63,1108.19q15.33,16.05,31.7,30.85a606.32,606.32,0,0,0,807.11,6.31q9.11-8,17.84-16.41a592.84,592.84,0,0,0,48.22-51.69q14-16.76,26.58-34.52a204,204,0,0,0-152.27-68.42H655.46C567.77,974.31,492.49,1030.23,463.63,1108.19Z"/></g><circle class="cls-3" cx="902.36" cy="593.53" r="578.21"/><path class="cls-2" d="M901.19,1174.67c-111.47,0-220.65-32.22-316.2-94.55C455,995.35,365.83,865,333.87,713.19s-2.88-307.06,81.89-437S630.85,57,782.7,25c313.46-66,622.16,135.37,688.15,448.83S1335.48,1096,1022,1162A586,586,0,0,1,901.19,1174.67ZM902.5,18A575.53,575.53,0,0,0,783.83,30.41c-150.42,31.66-279.5,120-363.47,248.75s-112.79,282.48-81.13,432.9,120,279.5,248.75,363.47,282.5,112.79,432.91,81.13c310.51-65.36,509.95-371.15,444.6-681.66C1408.51,204.29,1168.77,18,902.5,18Z"/><g class="cls-1"><path class="cls-2" d="M325.49,633.16a574.75,574.75,0,0,0,11.05,79.47C402.36,1025.1,709,1225.1,1021.47,1159.36s512.46-372.44,446.72-684.92c-1.89-9-4-17.94-6.28-26.71C1481.74,731.19,1290,993,1004.13,1053.18,700.63,1117,402.71,930.23,325.49,633.16Z"/></g><path class="cls-2" d="M901.16,1187.19c-113.87,0-225.4-32.91-323-96.58C445.38,1004,354.27,870.89,321.62,715.77h0C289,560.65,318.68,402.09,405.28,269.32S625,45.44,780.12,12.79c320.2-67.4,635.57,138.28,703,458.5s-138.29,635.58-458.5,703A598.89,598.89,0,0,1,901.16,1187.19ZM902.5,30.52A563.5,563.5,0,0,0,786.41,42.65C639.26,73.63,513,160,430.84,286S320.51,562.34,351.48,709.48h0c31,147.15,117.39,273.42,243.34,355.57s276.36,110.32,423.49,79.36c303.76-63.94,498.86-363.08,434.93-666.83C1397.5,212.76,1163,30.52,902.5,30.52Z"/><path class="cls-2" d="M341.42,726.78c21.63,111.06,77.76,207.14,156,280.44,58.68,55,270.5,129.89,505.55,86.3,217.94-40.42,393.3-195,427.07-267.93,45-97.32,61-207.45,39.38-318.51-57.24-293.89-333.47-366.55-645-305.88S284.18,432.88,341.42,726.78Z"/><path class="cls-2" d="M857.69,1122.11C676,1122.11,533,1061.44,487,1018.36c-83.5-78.19-139-178-160.57-288.66C298.35,585.44,334.53,463,434,365.62c86.73-84.88,220.75-146.91,387.56-179.4s314.31-25.28,426.56,20.85c128.72,52.89,208.22,152.85,236.31,297.1,21.56,110.64,7.55,224-40.5,327.83-35.49,76.66-212.24,234.63-438.13,276.52A812.58,812.58,0,0,1,857.69,1122.11ZM356.4,723.86c20.31,104.31,72.7,198.44,151.48,272.23,52.31,49,256.77,126.11,492.34,82.42,212.56-39.42,383.81-189.78,416-259.33,45.34-98,58.57-204.87,38.25-309.18-26-133.54-99.34-226-218-274.71-106.72-43.85-248.19-50.46-409.13-19.11s-289.59,90.56-372,171.25C363.68,477.13,330.39,590.32,356.4,723.86Z"/><g class="cls-4"><ellipse class="cls-3" cx="516.95" cy="651.15" rx="74.15" ry="102.32" transform="translate(-201.16 232.16) rotate(-21.29)"/></g><g class="cls-4"><ellipse class="cls-3" cx="644.85" cy="832.74" rx="40.3" ry="46.97" transform="translate(-324.56 420.99) rotate(-29.23)"/></g><g class="cls-1"><path class="cls-5" d="M397.72,431.23c-56.14,79.23-79.27,177.49-56.3,295.53,21.64,111.08,77.79,207.16,156,280.47,58.69,55,270.53,129.87,505.58,86.3,83-15.37,159.78-47.31,225-85-290.07,47.39-548.3-44.91-621.07-113.07-99.34-93-170.58-215-198-355.93A585.06,585.06,0,0,1,397.72,431.23Z"/></g><path class="cls-2" d="M339.72,474.86a15.26,15.26,0,0,1-13.47-22.41c73.77-161.23,251.2-280,487-325.91,237.66-46.28,447.45.12,575.59,127.31l-10.66,10.9-9.62,11.84,9.62-11.84-9.63,11.83-1.2-1.07c-120.86-119.95-320.68-163.34-548.27-119C592.73,200.58,423.11,313.33,353.68,465.84l-.68,1.51-1.49,1.95A15.21,15.21,0,0,1,339.72,474.86Z"/><g class="cls-4"><path class="cls-3" d="M1376.83,706.59s34.56-307.66-144.19-392.76S829.17,273,837.24,286.36c0,0,260.6,11.78,396.3,189.57C1338.18,613,1376.83,706.59,1376.83,706.59Z"/></g><path class="cls-2" d="M1010.54,2014.31l21.48-5.53c7.28-2,14.62-4,21.89-6.16q21.91-6.27,43.52-14c14.48-5,28.61-10.83,43-16.46s28.7-11.92,44.18-17.31a186.12,186.12,0,0,1-35.19,33.33,236.73,236.73,0,0,1-20.11,13.57c-7,4-14,8-21.28,11.62a349.48,349.48,0,0,1-44.68,19c-15.5,5.2-30.71,9.55-47.75,12a15.25,15.25,0,0,1-6-29.85Z"/><path class="cls-2" d="M879.18,2044.39c-17-2.43-32.25-6.78-47.75-12a348.87,348.87,0,0,1-44.68-19c-7.24-3.59-14.26-7.66-21.28-11.62a236.73,236.73,0,0,1-20.11-13.57,186.12,186.12,0,0,1-35.19-33.33c15.48,5.39,29.62,11.81,44.18,17.31s28.57,11.49,43,16.46,28.91,9.8,43.52,14c7.27,2.21,14.61,4.11,21.89,6.16l21.48,5.53.84.21a15.25,15.25,0,0,1-6,29.87Z"/><path class="cls-2" d="M1360.49,2398.19c-8.88-1.07-18.72-2.08-28.17-2.89s-19.11-1.56-28.7-1.94q-28.74-1.52-57.48-.35a523.93,523.93,0,0,0-57.06,6.52,430.3,430.3,0,0,0-56.79,15.11c14.59-14.08,32.6-24.77,51.6-32.74,19.13-7.61,39.25-12.4,59.51-15.69a398.29,398.29,0,0,1,61.19-4.1c10.21.2,20.42.57,30.6,1.62a265.55,265.55,0,0,1,30.77,4.44,15.26,15.26,0,0,1-4.83,30.1Z"/><path class="cls-2" d="M528.5,2368.17a265.86,265.86,0,0,1,30.77-4.44c10.18-1.05,20.39-1.42,30.6-1.62a398.29,398.29,0,0,1,61.19,4.1c20.26,3.29,40.39,8.08,59.52,15.69,19,8,37,18.66,51.6,32.74a431.12,431.12,0,0,0-56.79-15.11,524.49,524.49,0,0,0-57.06-6.52q-28.73-1.17-57.49.35c-9.58.38-19.16,1.16-28.7,1.94s-19.29,1.82-28.17,2.89l-.58.07a15.25,15.25,0,0,1-4.89-30.09Z"/><g class="cls-1"><path class="cls-2" d="M1177,1960s-121.57,20.5-215.46,20.5S717.36,1960,717.36,1960s90.22,72.48,234.07,69.36C1098.88,2026.15,1177,1960,1177,1960Z"/></g><g class="cls-1"><path class="cls-2" d="M479.44,1716.53c20,1.36,41,2.16,62.07,2,2.87,0,5.66,0,8.54-.12s6-.12,9-.28c2,0,4-.12,6-.2,2.35-.12,4.71-.24,7.06-.4,2.95-.16,5.95-.36,8.9-.6h.2c3-.2,6-.48,8.9-.76,1.92-.2,3.87-.4,5.79-.64,1.64-.12,3.27-.32,4.87-.52,2.55-.28,5.11-.64,7.58-1s4.71-.68,7-1.08a7.87,7.87,0,0,0,1.4-.2c2.71-.4,5.38-.88,8-1.4s5.35-1,7.94-1.56l.64-.12c1.48-.35,2.95-.63,4.35-1,1.64-.36,3.23-.72,4.83-1.16h0c.88-.24,1.72-.44,2.6-.72v32.53c0,44.91,36.8,81.71,81.74,81.71h446.17c44.86,0,81.66-36.8,81.66-81.71v-26c51.69,7.82,110.85,5.7,160.3,1q-2.51-42.67-6.42-84.69-3.42-36.41-7.71-71.93c-45.1,1.44-98.91,1.68-146.17-2.44V1497a81.89,81.89,0,0,0-81.66-81.67H726.91A81.83,81.83,0,0,0,645.17,1497v54.6c-9.42,1.4-19.4,2.52-29.66,3.43-38.88,3.52-82.39,4.08-121.94,3.36q-4.14,34.72-7.51,70.33C483.35,1657.7,481.12,1687,479.44,1716.53Z"/></g><path class="cls-3" d="M1175.6,1654.23c63.22,25.6,161.06,20.24,227.76,12.17a71.63,71.63,0,0,0,62.2-81.62h0a71.61,71.61,0,0,0-74.13-61.12c-62.39,2.93-156,4.3-215.24-8.85"/><g class="cls-1"><path class="cls-2" d="M1175.59,1654.22c63.23,25.59,161.06,20.24,227.76,12.18a71.66,71.66,0,0,0,53.32-107.09,71.22,71.22,0,0,1-53.32,35.2c-66.58,8.06-164.21,13.41-227.44-12Z"/></g><path class="cls-2" d="M1301.25,1688.33c-47.1,0-94.5-5-131.38-19.95h0c-44.07-17.85-45.36-88-32.36-129.85,12.59-40.47,33.56-40.48,42-38.62,56.61,12.56,146.12,11.56,211.23,8.51a86.93,86.93,0,0,1,14.48,173.13C1374.1,1685.31,1337.77,1688.33,1301.25,1688.33Zm-119.93-48.24c59.43,24.06,152.56,19.35,220.21,11.16a56.41,56.41,0,0,0-9.39-112.34c-66.15,3.1-157.15,4.06-217.09-8.73-6,6.06-16.51,35.34-13.68,68.45.89,10.39,4.62,35.25,20,41.46Z"/><path class="cls-3" d="M464.27,1666.4c31.29,3.79,69.49,7,107.73,6.62,2.63,0,5.22,0,7.86-.12s5.55-.12,8.3-.24c1.88,0,3.71-.12,5.51-.2l6.51-.36c2.75-.16,5.5-.36,8.22-.56h.2c2.71-.19,5.47-.43,8.18-.71,1.8-.16,3.59-.36,5.35-.56,1.52-.12,3-.32,4.51-.48,2.35-.28,4.71-.6,7-.92s4.36-.64,6.47-1a6.58,6.58,0,0,0,1.28-.2c2.51-.36,5-.8,7.42-1.27s4.91-.92,7.31-1.44l.59-.12c1.36-.32,2.72-.6,4-.92s2.95-.68,4.43-1.08h0c4.51-1.11,8.94-2.39,13.25-3.75,2.31-.72,4.63-1.52,6.9-2.31s4.51-1.68,6.67-2.56l-.28-66.94-.32-72.48c-15.17,3.39-32.61,5.79-51.17,7.46-54,4.91-117.63,3.56-164,1.4-1.12,0-2.24-.08-3.39-.08a71.68,71.68,0,0,0-8.54,142.82Z"/><g class="cls-1"><path class="cls-2" d="M464.27,1666.4c31.29,3.79,69.49,7,107.73,6.62,2.64,0,5.23,0,7.86-.12s5.55-.12,8.31-.24c1.87,0,3.71-.12,5.51-.2l6.5-.36c2.76-.15,5.51-.35,8.22-.55h.2c2.72-.2,5.47-.44,8.19-.72,1.79-.16,3.59-.36,5.34-.56,1.52-.12,3-.32,4.51-.48,2.36-.28,4.71-.6,7-.92s4.35-.64,6.47-1a6.48,6.48,0,0,0,1.27-.2c2.52-.35,5-.79,7.43-1.27s4.91-.92,7.3-1.44l.6-.12c1.36-.32,2.71-.6,4-.92,1.48-.32,3-.68,4.43-1.08h0c4.51-1.11,8.94-2.39,13.25-3.75,2.32-.72,4.63-1.51,6.91-2.31s4.51-1.68,6.67-2.56l-.28-63.9c-2.08.84-4.2,1.68-6.39,2.43s-4.59,1.6-6.91,2.32c-4.31,1.36-8.74,2.63-13.25,3.75h0c-1.47.4-2.95.76-4.43,1.08-1.32.32-2.67.6-4,.92l-.6.12c-2.39.52-4.83,1-7.3,1.43s-4.91.92-7.43,1.28a6.48,6.48,0,0,1-1.27.2c-2.12.36-4.27.68-6.47,1s-4.63.64-7,.92c-1.47.16-3,.36-4.51.48-1.75.2-3.55.39-5.34.55-2.72.28-5.47.52-8.19.72h-.2c-2.71.2-5.46.4-8.22.56l-6.5.36c-1.8.08-3.64.16-5.51.2-2.76.12-5.55.2-8.31.24s-5.22.12-7.86.12c-38.24.36-76.44-2.83-107.73-6.63a71.44,71.44,0,0,1-55.44-39.11,71.72,71.72,0,0,0,55.44,103.14Z"/></g><path class="cls-2" d="M566.37,1688.33c-36.52,0-72.83-3-103.94-6.78a86.93,86.93,0,0,1,14.48-173.13c65.11,3.06,154.61,4.06,211.22-8.51,8.43-1.86,29.39-1.86,42,38.62,13,41.82,11.72,112-32.36,129.85h0C660.88,1683.3,613.47,1688.33,566.37,1688.33Zm-93.58-149.49a56.41,56.41,0,0,0-6.7,112.41c67.66,8.19,160.79,12.9,220.21-11.16l5.73,14.14-5.73-14.14c15.34-6.21,19.07-31.07,20-41.47,2.84-33.1-7.63-62.38-13.67-68.44-60,12.79-150.93,11.83-217.1,8.73C474.58,1538.86,473.68,1538.84,472.79,1538.84Z"/><path class="cls-3" d="M667.59,1468.73v223.44A75.62,75.62,0,0,0,743,1767.55h411.48a75.61,75.61,0,0,0,75.34-75.38V1468.73a75.57,75.57,0,0,0-75.34-75.33H743a75.56,75.56,0,0,0-75.39,75.33Z"/><g class="cls-6"><path class="cls-3" d="M667.6,1468.74v223.44a75.61,75.61,0,0,0,75.4,75.36h411.48a75.6,75.6,0,0,0,75.32-75.36V1468.74a75.54,75.54,0,0,0-75.32-75.32H743a75.51,75.51,0,0,0-75.4,75.32Z"/></g><g class="cls-1"><path class="cls-2" d="M667.6,1572.32v119.86a75.61,75.61,0,0,0,75.4,75.36h411.48a75.6,75.6,0,0,0,75.32-75.36V1521.11c-80.59,32.05-42.48,173.52-201.58,164.18-129.09-7.58-148.36-111.62-148.36-111.62H726.27s.42,67.06-24.64,67.5C682,1641.49,673.66,1611.59,667.6,1572.32Z"/></g><path class="cls-2" d="M1154.45,1782.8H743a90.7,90.7,0,0,1-90.6-90.6V1468.73a90.7,90.7,0,0,1,90.6-90.6h411.5a90.7,90.7,0,0,1,90.6,90.6V1692.2A90.7,90.7,0,0,1,1154.45,1782.8ZM743,1408.65a60.15,60.15,0,0,0-60.08,60.08V1692.2A60.15,60.15,0,0,0,743,1752.28h411.5a60.15,60.15,0,0,0,60.09-60.08V1468.73a60.15,60.15,0,0,0-60.09-60.08Z"/><circle class="cls-7" cx="802.93" cy="1580.46" r="64.98" transform="translate(-882.38 1030.66) rotate(-45)"/><path class="cls-3" d="M737.94,1580.48a62,62,0,0,0,.84,10.35,65,65,0,0,1,128.3,0,62,62,0,0,0,.84-10.35,65,65,0,0,0-130,0Z"/><g class="cls-1"><path class="cls-2" d="M738,1580.45a65,65,0,1,0,129.93,0,63.44,63.44,0,0,0-4.46-23.51,64.92,64.92,0,0,1-121,0A63.63,63.63,0,0,0,738,1580.45Z"/></g><path class="cls-2" d="M802.92,1656.89a76.43,76.43,0,1,1,76.43-76.43A76.52,76.52,0,0,1,802.92,1656.89Zm0-130a53.54,53.54,0,1,0,53.54,53.53A53.59,53.59,0,0,0,802.92,1526.93Z"/><path class="cls-2" d="M987.07,1782.8a15.26,15.26,0,0,1-15.26-15.26V1637.82a75,75,0,0,1,29.74-59.61l35-26.33a44.29,44.29,0,0,0,17.58-35.23V1393.39a15.26,15.26,0,0,1,30.52,0v123.26a75,75,0,0,1-29.74,59.61l-35,26.33a44.32,44.32,0,0,0-17.58,35.23v129.72A15.26,15.26,0,0,1,987.07,1782.8Z"/><path class="cls-3" d="M1487.82,1097.75c36,149.47,186.8,135.54,228.3,125.44,86.57-21.09,116.27-102.66,116.27-102.66l-69.82-92.28-31-49.94-37.08-11.15c-29.14-53.1-91.21-113.33-126.85-92.08C1567.59,875.08,1456.77,968.92,1487.82,1097.75Z"/><g class="cls-1"><path class="cls-2" d="M1845.25,1072.28c0,46.56-61,88.81-192.32,73.51-46.25-5.39-84.31-37.75-84.31-84.32a84.32,84.32,0,0,1,84.31-84.32C1699.5,977.15,1845.25,1025.71,1845.25,1072.28Z"/></g><path class="cls-3" d="M1840.61,921.58c-34.47,34.6-64.66,60.11-64.66,60.11l-96.75,99-65.3-159.45s-.38-32.19,2.13-74.78c4.89-84.34,21-209.45,73.07-206.22,93.74,5.82,31.72,252.68,31.72,252.68s149.64-199.5,209.57-142.83C1965.47,783.25,1897.24,864.7,1840.61,921.58Z"/><g class="cls-1"><path class="cls-2" d="M1840.61,921.58c-34.47,34.6-64.66,60.11-64.66,60.11l-96.75,99-65.3-159.45s-.38-32.19,2.13-74.78c25.12,19.85,72,55.9,88.38,77.38C1732.64,960.82,1802.78,914.26,1840.61,921.58Z"/></g><path class="cls-2" d="M1679.19,1096a15.24,15.24,0,0,1-14.12-9.48L1599.78,927a15.39,15.39,0,0,1-1.14-5.61c-.26-23.29-1-229.13,54.95-282.26,10.59-10.06,23.26-14.93,36.46-14.12,18.26,1.14,33.7,9.66,44.66,24.64,29.94,41,22.94,126.68,13.29,186,40-45.52,102.17-106.52,150.86-110.66,16.25-1.4,30.83,3.48,42,14.07,9.79,9.25,14.75,21.83,14.34,36.36-2,73.65-149.27,200.87-168.86,217.47l-96.26,98.53A15.29,15.29,0,0,1,1679.19,1096Zm-50-177.82,55.38,135.28L1765,971a14.25,14.25,0,0,1,1.07-1c60.65-51.28,157.35-149.7,158.62-195.49.21-7.6-2.46-11.12-4.81-13.34-4.9-4.63-10.78-6.49-18.46-5.84C1850.37,759.7,1762.54,862.76,1733,902.1a15.25,15.25,0,0,1-27-12.87c11.8-47,35.54-178.53,4.06-221.57-5.66-7.74-12.62-11.61-21.91-12.19-3-.2-7.68.21-13.54,5.78C1636,698,1628.72,856.33,1629.14,918.15Z"/><path class="cls-3" d="M1850.09,1103.27c-22.95,37.32-120.43,54.75-156.61,26.69-30.78-23.89,0-54.32,8.72-62.06,1.36-1.23,2.21-1.87,2.21-1.87s-37.45-11.48-44-43a43.06,43.06,0,0,1-.85-6.42c-2.3-36.39,94.88-67.81,139-60.71,33,5.32,45.57,18.75,48.67,33.12,3.32,15.3-4.12,31.67-9.09,40.43-2.3,4-4,6.37-4,6.37S1868.5,1073.38,1850.09,1103.27Z"/><g class="cls-1"><path class="cls-2" d="M1838.15,1029.43c-26.06,13.34-78.31,36-136,38.47,1.36-1.23,2.21-1.87,2.21-1.87s-37.45-11.48-44-43c34.56,7.56,130,22,186.83-34C1850.56,1004.3,1843.12,1020.67,1838.15,1029.43Z"/></g><g class="cls-1"><path class="cls-2" d="M1850.09,1103.27c-22.95,37.32-120.43,54.75-156.61,26.69-15.13-11.73-15.39-25-10.71-36.47a45.75,45.75,0,0,0,5.91,5.44c36.13,28.06,133.61,10.63,156.57-26.65a35,35,0,0,0,4.67-11.91C1855.66,1073.17,1858.81,1089.07,1850.09,1103.27Z"/></g><path class="cls-2" d="M1746.46,1159.11c-25.75,0-47.88-5.88-62.31-17.08-15.93-12.35-19.29-26.36-19.31-35.93,0-13.84,6.75-26.27,13.92-35.53-15-9.39-32.7-26.07-34.41-53-.57-8.83,2-22.29,17.45-36.32,32.55-29.58,102.79-46.3,139.2-40.46h0c30.92,5,50.66,17.38,58.65,36.85,8.86,21.56,0,44.3-7,57.12,10.93,15.43,28.33,47.44,10.42,76.52-12.88,20.92-43.62,37.6-82.22,44.6A193.68,193.68,0,0,1,1746.46,1159.11Zm37.88-189c-31.17,0-80.36,14.06-102,33.74-5,4.51-7.71,8.81-7.52,11.8,1.62,25.25,33.81,35.72,34.14,35.82a15.29,15.29,0,0,1,4.87,26.59c-6,4.77-18.51,17.94-18.45,28,0,2.6.8,6.66,7.49,11.85,13.2,10.24,42.36,13.43,72.57,7.94,28.86-5.23,53.65-17.52,61.68-30.58,11.92-19.34-14-48.9-14.28-49.19a15.28,15.28,0,0,1-1-19.29c4.12-5.73,14.83-25,9.61-37.61-4.62-11.15-21.72-16.08-35.24-18.25A74.62,74.62,0,0,0,1784.34,970.1Z"/><path class="cls-2" d="M1716.64,1081.64q-6.48,0-13.12-.38a15.26,15.26,0,1,1,1.78-30.46c65.57,3.83,120.52-27.82,121.06-28.14a15.26,15.26,0,0,1,15.49,26.3C1839.46,1050.37,1785.62,1081.64,1716.64,1081.64Z"/><path class="cls-3" d="M1567.6,875.09c47.31-28.21,141.09,87,142.81,138.74,1.32,39.48-45.44,72.42-101.32,22C1552.47,984.84,1493.3,919.39,1567.6,875.09Z"/><path class="cls-3" d="M1832.39,1120.55s-29.71,81.55-116.25,102.63c-41.52,10.11-192.3,24-228.32-125.44-31-128.82,79.78-222.65,79.78-222.65,47.31-28.21,141.09,87,142.81,138.74,1.32,39.48-57.36,61.87-106.5-7.6,0,0,25.89,63.1-29.39,106.15l130.25,75,98.5-19.23Z"/><path class="cls-3" d="M1600.26,1082.14l-2.6-1.49c2-1.53,3.74-3,5.44-4.59C1602.25,1078.06,1601.32,1080.1,1600.26,1082.14Z"/><g class="cls-1"><path class="cls-2" d="M1606,994.52c-6.93-25.5,66.33,39.43,104.45,22.75-1.83,32-44,50.67-86.17,12.28C1621.72,1009,1606,994.52,1606,994.52Z"/></g><g class="cls-1"><path class="cls-2" d="M1786.67,1171.41l16.62-3.23c-18.37,21.85-46.51,45.11-87.15,55-41.53,10.12-192.32,24-228.33-125.45-21.12-87.66,23.47-159.16,54.12-195.85-25,39.79-47.1,97.27-31,164.14,36,149.47,186.79,135.56,228.33,125.45A159.09,159.09,0,0,0,1786.67,1171.41Z"/></g><path class="cls-3" d="M1832.36,1120.61a131.68,131.68,0,0,1-7.65,16.2l-2.55.51Z"/><path class="cls-3" d="M1826.41,1136.47c-1.36,1.61-2.76,3.27-4.25,4.89.9-1.58,1.75-3.11,2.55-4.55Z"/><path class="cls-2" d="M1548.33,1201.36a65.55,65.55,0,0,1-23.41-10,86.25,86.25,0,0,1-18.89-16.92,136.4,136.4,0,0,1-24.85-43.69c-10.64-31.2-16.3-64.53-13.18-97.66,2.9-33.07,13.81-64.82,29.48-93.23a298.94,298.94,0,0,1,26.82-40.43q7.47-9.52,15.69-18.48c2.76-3,5.54-5.92,8.45-8.79s5.7-5.59,9.3-8.71a12.5,12.5,0,0,1,1.75-1.29l.29-.17c9.84-5.94,21.8-7.38,31.66-6s18.62,4.75,26.43,8.69a138.91,138.91,0,0,1,21.37,13.72,199.61,199.61,0,0,1,18.49,16,284.56,284.56,0,0,1,31.43,36.22A256.52,256.52,0,0,1,1714,972a147,147,0,0,1,8.84,23.82,80.15,80.15,0,0,1,2.49,13.62l.29,3.67c0,1.29-.08,2.64-.15,4-.24,2.66-.12,5.32-.83,7.95-1.76,10.7-7.91,20.72-16,27.82a52.38,52.38,0,0,1-28.37,12.76,35.28,35.28,0,0,1-7.5.54,51.82,51.82,0,0,1-7.4-.24c-4.77-.73-9.67-1.29-14-2.94-2.23-.72-4.49-1.41-6.67-2.21l-6.16-3A75.31,75.31,0,0,1,1627,1051c-14.57-10-25.81-22.74-35.56-36l26.57-14.6a86.09,86.09,0,0,1,2.86,8.75c.77,2.74,1.41,5.5,1.94,8.25a128.46,128.46,0,0,1,2.18,16.73,134.74,134.74,0,0,1-2.53,34.19c-1,5.77-3.21,11.29-5.48,16.69-1.37,2.6-2.91,5.12-4.37,7.66s-3.55,4.66-5.33,7a47.17,47.17,0,0,1-29.64,16.73,5.81,5.81,0,0,1-6.57-5,6,6,0,0,1,.09-2.11l.23-.94c1.36-5.79,3.65-9.92,5.36-14.25s3.82-7.93,5.39-11.76a166.75,166.75,0,0,0,9.3-22.06,61.1,61.1,0,0,0,3.09-24.33,98.48,98.48,0,0,0-1.64-12.54c-.4-2.07-.88-4.12-1.44-6.11s-1.26-4.2-1.67-5.3l-.08-.22a15.29,15.29,0,0,1,26.65-14.38c8.16,11.07,17.34,21.22,27.79,28.35,10.3,7,22.08,11.18,31.94,9.63a22,22,0,0,0,12.41-5.42c3.12-2.85,5.59-6.39,6.19-10.74.41-1,.12-2.22.31-3.31l.15-1.7-.19-2a49.61,49.61,0,0,0-1.62-8.66,116.38,116.38,0,0,0-7-18.67c-11.94-25-29.65-48.87-49.83-68.56-10.1-9.79-21.19-18.61-32.57-24.49a52.12,52.12,0,0,0-16.38-5.59c-5.07-.63-8.91.05-12.17,1.92l2-1.46c-2.2,1.91-5,4.59-7.5,7.06s-5,5.16-7.52,7.82c-4.92,5.35-9.64,10.92-14.13,16.65a268.33,268.33,0,0,0-24.1,36.31c-14,25.34-23.35,53-25.82,81.26a170,170,0,0,0,13,83.19,266.35,266.35,0,0,0,19.31,36.9c7.47,11.74,15.44,22.9,23.5,37.11l0,.09a5.58,5.58,0,0,1-5.91,8.23Z"/><path class="cls-2" d="M1846.73,1125.77a115.1,115.1,0,0,1-4.47,10.73c-1.58,3.32-3.25,6.56-5,9.72s-3.75,6.21-5.63,9.31-4.14,5.94-6.22,8.89l-6.72,8.52-7.3,8a154.11,154.11,0,0,1-16,14.66,176.8,176.8,0,0,1-17.6,12.61c-6.4,3.41-12.48,7.23-19.2,9.85a70.76,70.76,0,0,1-42.11,6.32,1.37,1.37,0,0,1-1.13-1.59,1.33,1.33,0,0,1,.46-.81l.07-.07c11.24-9.7,22.24-15.44,32.71-22.55,5.43-3.12,10.16-7.34,15.13-11,4.54-4.32,9.44-8.07,13.59-12.73a90.26,90.26,0,0,0,6.28-6.82c2-2.36,4.15-4.57,6-7l5.62-7.36,5.33-7.58c3.33-5.2,6.65-10.4,9.58-15.8,1.45-2.7,3-5.36,4.28-8.08s2.78-5.61,3.67-7.65l.4-.93a15.24,15.24,0,0,1,28.27,11.38Z"/><path class="cls-2" d="M1595.36,1504c-28.27,0-124.31-7.54-155.15-107.24-44.39-143.45,20.72-249.17,23.52-253.6a11.44,11.44,0,0,1,19.37,12.19c-.76,1.21-62.14,101.76-21,234.65,30.62,99,134.78,91.34,139.19,91a11.44,11.44,0,0,1,2,22.8C1603.07,1503.8,1600.21,1504,1595.36,1504Z"/><path class="cls-2" d="M498.18,1536a11.68,11.68,0,0,1-3-.41c-116.29-31.78-145.63-126.1-146.82-130.09a11.44,11.44,0,0,1,21.92-6.56c1.11,3.63,27.4,86.28,130.93,114.57a11.45,11.45,0,0,1-3,22.49Z"/></g></g></svg>