<?xml version="1.0" encoding="UTF-8" standalone="no"?>
<!-- Created with Inkscape (http://www.inkscape.org/) -->

<svg
   width="338.16519mm"
   height="312.15698mm"
   viewBox="0 0 338.16519 312.15698"
   version="1.1"
   id="svg1"
   xml:space="preserve"
   xmlns="http://www.w3.org/2000/svg"
   xmlns:svg="http://www.w3.org/2000/svg"><defs
     id="defs1" /><path
     d="M -685.92295,-310.7906 -709.474,0.41438396 A 39.524946,39.524946 139.38891 0 1 -751.95303,36.837573 L -1052.455,13.450838 a 34.92724,34.92724 49.506697 0 1 -32.1065,-37.600763 l 20.4322,-255.999665 a 22.874466,22.874466 139.44551 0 1 24.5281,-20.98935 l 66.13084,5.00459 a 36.897064,36.897064 156.89488 0 0 31.27053,-13.34131 l 29.16585,-35.42882 a 43.886663,43.886663 156.89488 0 1 37.19426,-15.86863 l 157.1889,11.89558 a 35.508648,35.508648 49.327723 0 1 32.72787,38.08693 z"
     style="display:inline;fill:#ffffff;fill-rule:evenodd;stroke:#ffffff;stroke-width:0.294328;stroke-dasharray:none"
     id="path139"
     transform="matrix(-0.89641488,-0.06080115,-0.06783799,0.80342965,-635.82266,236.72233)" /></svg>
