<svg xmlns="http://www.w3.org/2000/svg" viewBox="0 0 1768.23 3052.36"><defs><style>.cls-1,.cls-11{fill:#371a45;}.cls-2{fill:#fff;}.cls-3{opacity:0.35;}.cls-4{opacity:0.3;}.cls-5{fill:#293856;}.cls-6{fill:#22a7f0;}.cls-7{opacity:0.6;}.cls-8{fill:#220f2d;}.cls-9{opacity:0.5;}.cls-10{fill:none;}.cls-11{opacity:0.11;}</style></defs><g id="Layer_2" data-name="Layer 2"><g id="Layer_2-2" data-name="Layer 2"><path class="cls-1" d="M1167.29,1529.57a12.31,12.31,0,0,1-12.31-12.31v-914a12.32,12.32,0,1,1,24.63,0v914.05A12.32,12.32,0,0,1,1167.29,1529.57Z"/><path class="cls-2" d="M639,1978.61s-303.1,79-313.92,197.9c-9.42,103.68,104.23,453.29,171,491.7,48.7,28,195.49-23.36,195.49-23.36Z"/><g class="cls-3"><path class="cls-1" d="M324.59,2195.91c3.5,122.05,108.45,436,171.48,472.28,48.7,28,195.48-23.35,195.48-23.35l-23.31-136s-146.78,51.37-195.48,23.35C427.23,2506,359.85,2334.9,324.59,2195.91Z"/></g><path class="cls-1" d="M556.61,2688.05c-31.48,0-63.16-6.79-89.44-26.21-72.59-53.62-163.22-380.53-157-486.21,5.9-101,191.14-163.23,199-165.83a15,15,0,0,1,9.4,28.49c-48.32,16-174.56,72.06-178.47,139.09-5.91,101.2,86.58,417.23,144.92,460.33,71,52.43,202.12-12.56,203.44-13.23a15,15,0,0,1,13.49,26.8C697.73,2653.39,627.71,2688.05,556.61,2688.05Z"/><path class="cls-2" d="M987.93,2017.19s-13.23,107.25,33.26,33.7c42.43-67.18,95.25-179.19,141.87-361.82.39-1.49.78-3,1.18-4.5,0,0,21-1.83,46.75-14.71,60.71-30.34,47.71-148.59,36-188.79-13.79-47.36-46.4-34.57-46.4-34.57-11.43-18.72-34-28.68-72-28.11-71.37,1-85.91,58.75-85.91,58.75C977.19,1674.05,897.49,1795.4,850,1855.86c-25.1,32.08-41.16,47-41.16,47Z"/><g class="cls-3"><path class="cls-1" d="M987.93,2017.19s-13.23,107.25,33.26,33.7c42.43-67.18,95.25-179.19,141.87-361.82-15.63-3.8-38.63-11-50.77-21.78-30.38-27.15-35.88-89.71-35.88-89.71-12.57,60.33,0,95.64,14.67,115.55,15.8,21.39,20.64,49,11.43,74-13.4,36.28-30.29,75.74-57,101.23-61.46,58.54-147.14,32.3-195.42-12.48-25.1,32.08-41.16,47-41.16,47Z"/></g><g class="cls-3"><path class="cls-1" d="M1185.44,1680s-55.42,20.25-92.33-63.52c0,0,21.31,10.63,73.86,7.94,52.18-2.68,87.58-52.35,87.58-52.35S1258.17,1662.36,1185.44,1680Z"/></g><path class="cls-1" d="M816.45,1904.49a15.46,15.46,0,0,1-10.2-27.08c1.8-1.61,124.43-112.75,221.53-404.63,6.36-24.09,35.23-68.88,100.52-69.85,36.89-.52,62.67,8.11,78.81,26.48,16.86,19.21,22,47.13,16,87.86-5.86,40.21-33.09,68.36-63.27,65.55-27.74-2.6-56.24-32.66-53-109.23a15.46,15.46,0,1,1,30.89,1.31c-2.17,51.18,11.44,75.87,25,77.14,11.45,1,26-13.62,29.78-39.22,4.47-30.67,1.64-51.28-8.66-63-9.64-11-28.21-16.38-55.11-16-58.83.87-71,46.62-71.15,47.09l-.33,1.09C957,1784,831.91,1896,826.64,1900.65A15.44,15.44,0,0,1,816.45,1904.49Z"/><path class="cls-1" d="M940.61,2159.73a15.46,15.46,0,0,1-7.78-28.83c1.1-.66,122-77.36,216.4-450.12l2.7-10.65,10.94-1c.12,0,18.71-1.89,41.2-13.14,48.36-24.18,39.79-130.4,28.06-170.62-3.52-12.06-8.63-20.13-14.78-23.34a15.8,15.8,0,0,0-11.48-1.06,15.31,15.31,0,0,1-19.88-8.8,15.59,15.59,0,0,1,8.9-20.09,46.51,46.51,0,0,1,35.77,2c14.5,7.12,25,21.46,31.15,42.6,14.75,50.57,24.16,172.89-43.92,206.93a172.39,172.39,0,0,1-41.19,14.48c-98,380-223,456.37-228.33,459.46A15.43,15.43,0,0,1,940.61,2159.73Z"/><path class="cls-1" d="M1153.46,1700.28c-19.38,0-35.59-6.24-48.27-18.63-24.47-23.9-33.49-68.94-26.82-133.87,6.53-63.45,35-73.45,40.59-74.8l7,29.16a3.89,3.89,0,0,0,1.12-.33c-.14.06-14.56,6.79-18.9,49-5.54,53.82.83,92.64,17.93,109.34,8.59,8.4,20.43,11.51,36.18,9.51a15,15,0,0,1,3.77,29.77A100.71,100.71,0,0,1,1153.46,1700.28Z"/><path class="cls-2" d="M521,2333a295.49,295.49,0,0,1,17.45,46.76c14.54,49.92,20.29,103.11,43.13,153.58a159.75,159.75,0,0,0,19.66,32.44c2.22,2.86,4.44,5.53,6.66,8.07,16.81,19.07,32.58,28.59,32.58,28.59.09,5,.45,11.32.68,18.89,1,31.08.63,83.14-21.8,148.06-1.63,4.8-3.35,9.65-5.3,14.54-15,39-5.93,165.28,10.51,194.09,47.26,83.09,165.69,70.45,199.4,13.73,30.49-51.47,17.71-151.32,12-186.43-1.32-8-2.27-12.64-2.27-12.64,31.26-65.43,58.13-153.27,58.13-219.1a145.06,145.06,0,0,0,19.84,1.54l0,2.17c4.48,40.73-3.08,110.28-17.9,173.84-1.63,7-3.35,14-5.16,20.84-8.75,33,7.47,137.28,51.06,189.11,50.51,60.17,161.2,39.14,183.4-5.76,26.73-53.91-8.2-144.43-21.57-175.28-3-6.85-4.89-10.7-4.89-10.7,55.72-131.88,59-244.69,49.11-358.68A807.46,807.46,0,0,0,986,1994.46c-4.57-6.07-9.37-12-14.27-17.85-6.2-7.39-12.64-14.59-18.93-21.48-11.2-12.14-22.11-23.37-31.4-33.25l-12.73,10.78-20.71,4.8-343.51,80-3,40.33-1.31,18.07-2.86,38.83L530,2212.25l-4.31,58.35-3.58,47.93Z"/><g class="cls-3"><path class="cls-1" d="M939.61,2961.13c50.5,60.15,161.2,39.16,183.42-5.76,26.71-53.91-8.21-144.44-21.61-175.3a17.92,17.92,0,0,1-2.53,1.09s50.55,93.5-4.5,143.61c-43.38,39.55-113.4,27-142.12-25.49-35-64.08-39.55-179.19-39.55-179.19l-19,31.08c-1.66,7-3.36,14-5.19,20.87C879.81,2805,896.05,2909.28,939.61,2961.13Z"/></g><g class="cls-4"><path class="cls-5" d="M750.12,2825.73l2.62-.61A18,18,0,0,0,750.12,2825.73Z"/></g><g class="cls-4"><path class="cls-5" d="M749.6,2825.86l.52-.13Z"/></g><g class="cls-3"><path class="cls-1" d="M624.58,2978.07c47.28,83.11,165.7,70.45,199.4,13.75,30.51-51.51,17.72-151.34,12-186.48l-83,19.73c11.44-2.18,48.41-4.36,50.68,57.67,1.53,40.72-5,86.08-59.45,93.28-133.75,17.59-123.71-117.64-117.69-194.33,1.18-15.33-1.7-17.94-7.11-12.27-1.62,4.8-3.36,9.65-5.28,14.58C599.05,2823,608.17,2949.26,624.58,2978.07Z"/></g><g class="cls-3"><path class="cls-1" d="M857.69,2755.64s-30.58,62.64-110.44,75.4c-7.76,1.24-11.29-9.33-4.36-13,31.07-16.61,76.4-58.6,88.78-115.92,10.61-49.14,6.16-97.14.15-130a37,37,0,0,1,34.66-43.72c40.35-1.84,98.88-6.47,137.34-18.15,25.83-7.84,52.5-18.58,75.24-38.24a14.68,14.68,0,0,1,24.3,10.18c.73,11.9-.23,24.13-5.92,30.29-21.62,23.42-123,52.62-205.78,69.86,0,0-1.64,37.65-13.68,87.78C864.35,2726.83,857.69,2755.64,857.69,2755.64Z"/></g><g class="cls-3"><path class="cls-1" d="M911.63,2577.36s119.72-18.88,177.77-74.93c0,0-5.72,71.74-109.1,128.1-46.21,25.19-67,56.92-80.9,100.59C899.4,2731.12,919.08,2632.7,911.63,2577.36Z"/></g><path class="cls-1" d="M1028.08,3013.29c-40.64,0-77-15.23-100-42.51-47.32-56.35-63.62-166.63-54.1-202.58,17.79-67.21,27.35-146.78,22.72-189.2a15,15,0,1,1,29.83-3.25c5,46.37-4.63,128.67-23.55,200.12-7.11,26.85,6.53,126.15,48.07,175.61,20.08,23.91,55,35.42,93.42,30.82,30.35-3.64,57.11-17.45,65.09-33.58,24-48.43-11-141.11-26.52-172.74l-3-6.13,2.66-6.31c57.26-135.45,56.89-249,48-351.54-12.31-141.48-49.76-254.52-117.85-355.73a15,15,0,1,1,24.89-16.75c71,105.61,110.08,223.13,122.84,369.88,9.13,104.83,9.57,220.91-47.63,359.63,12.09,26.62,54.87,129.7,23.54,193-12.81,25.87-46.68,45-88.4,50A168.07,168.07,0,0,1,1028.08,3013.29Z"/><path class="cls-1" d="M969,1970.32a232.19,232.19,0,0,1,21.32,14.93c6.73,5.32,13.27,10.84,19.54,16.64a194.46,194.46,0,0,1,17.93,18.27c5.46,6.57,10.53,13.55,14.24,21.59a15.23,15.23,0,0,1-24.44,17.31l-.22-.22a131.17,131.17,0,0,1-15.45-18.85c-4.73-6.69-8.89-13.91-13.12-21.13s-8.3-14.64-12.24-22.2-7.66-15.34-10.84-23.58a2.26,2.26,0,0,1,1.29-2.93A2.31,2.31,0,0,1,969,1970.32Z"/><path class="cls-2" d="M552.43,2308.6,564,2340.77l-.88-14.75A100.44,100.44,0,0,0,552.43,2308.6Z"/><path class="cls-1" d="M729.87,3052.36h-1.41c-50.38-.46-93-24.84-116.93-66.87-18.26-32.09-28.29-163.25-11.43-206.91,29.32-75.95,27-134.44,25.76-165.87,0-.72-.06-1.42-.08-2.12-12.93-9.46-40.68-33-57.86-71-16.25-36-22.53-77.17-28.6-117.05-6.58-43.18-12.79-84-30.81-111.4a15,15,0,0,1,25.08-16.47c21.61,32.9,28.3,76.84,35.39,123.36,5.77,37.86,11.73,77,26.28,109.21,18.51,41,52.72,62.28,53.06,62.49l7,4.28.21,8.22c.05,2.69.18,5.81.32,9.32,1.23,31.2,3.8,96.12-27.76,177.85-13.4,34.73-4.63,156.39,9.53,181.27,18.5,32.5,51.71,51.35,91.13,51.71,35.65.44,68.56-15,82.32-38.22,34.07-57.38,8.2-187.1,7.93-188.4l-1-4.93,2.17-4.54c34.53-72.2,54.34-146.53,54.34-203.93a15,15,0,0,1,30,0c0,60.52-20.07,137.68-55.16,212.39,4.79,26.05,23.71,143.77-12.49,204.73C817.72,3031.69,775.83,3052.36,729.87,3052.36Z"/><path class="cls-1" d="M884.6,2565.57c8.45-2.61,17-4.82,25.52-6.88,8.48-2.34,17-4.4,25.55-6.48,17-4.52,34.1-8.45,50.94-13.43s33.69-10.07,50.17-16.23,33-12.75,48.23-21.48l.13-.08a1.79,1.79,0,0,1,2.18,2.8c-6.51,6.67-13.76,12.13-21.16,17.48s-15.18,10.12-23,14.75a420.32,420.32,0,0,1-49,24,479.85,479.85,0,0,1-51.31,18.35c-8.72,2.48-17.51,4.71-26.33,6.79-8.86,1.86-17.75,3.56-26.72,4.86a12.52,12.52,0,0,1-5.5-24.36Z"/><path class="cls-1" d="M1190.73,2077.6a90.77,90.77,0,0,1-18.26-1.62,12.5,12.5,0,1,1,5.73-24.33c3.07.69,76.61,16,106.68-83.26,17.9-59.12-23.12-113.41-62.79-165.91-30.47-40.33-59.26-78.42-59.26-117.27a12.5,12.5,0,0,1,25,0c0,30.47,26.33,65.31,54.21,102.21,41.41,54.8,88.35,116.92,66.76,188.21C1281.57,2065.54,1221.16,2077.6,1190.73,2077.6Z"/><path class="cls-2" d="M1077.16,2375.28c-16.45,8.65-35,18-55.18,27.63,12.41-4.84,23.78-9.47,33.88-13.68A69.72,69.72,0,0,0,1077.16,2375.28Z"/><path class="cls-1" d="M744.56,2824.09a160.27,160.27,0,0,0,28.06-10.73,138.6,138.6,0,0,0,24.51-15.09,154.45,154.45,0,0,0,20.4-18.84c1.49-1.75,3.27-3.2,4.64-5.07s2.93-3.54,4.48-5.25c3-3.47,5.61-7.33,8.92-10.74l1.16-1.2a12.49,12.49,0,0,1,20.14,14.29,93.68,93.68,0,0,1-20.16,27.14c-8.1,8-18,14.12-28,19a113.73,113.73,0,0,1-31.66,10c-10.84,1.69-21.73,2.06-32.47.07a1.82,1.82,0,0,1-.16-3.53Z"/><path class="cls-1" d="M1017.86,2807c18.1-8.44,34.31-19.33,47.37-32.31a158.89,158.89,0,0,0,17.6-20.64c5.55-7.05,9.82-14.83,15.16-22.33l.67-.93a12.52,12.52,0,0,1,22,11.53,90.7,90.7,0,0,1-16.57,28.6c-7,8.65-15.8,15.68-25,21.56a117.27,117.27,0,0,1-29.35,13.54c-10.24,3-20.68,4.88-31.33,4.51a1.81,1.81,0,0,1-.7-3.46Z"/><path class="cls-2" d="M390.77,2753.83c27.91,8.07,148.65,32.44,145.34-81.14-.68-24-8.47-62.61-7.93-62.66s64.11,32.76,82.1-1.81c6.52-12.55,4.53-24.1-2.36-34.34a57.2,57.2,0,0,0-6.66-8.07c-21.88-22.29-65.6-36.74-84.18-39.14,0,0,.14-1.54.41-4.4,1.63-17.53,8.43-84.49,21-142.48,6.79-31.31,15.27-60,25.5-76.93l-8.88-62.43L551,2211.25l-13.73-96.55-6.93-48.61c-1.58,0-107.92.45-148.83,122.51-.09.22-.13.45-.22.68-24.47,73.71-29.32,209.81-17.63,394.88C366.94,2636.49,331.78,2736.71,390.77,2753.83Z"/><g class="cls-3"><path class="cls-1" d="M501.36,2540.8c4.94,3.49,10.51-5,16.13-18.53,1.63-17.53,8.43-84.49,21-142.48,14.54,49.92,20.29,103.11,43.13,153.58a159.75,159.75,0,0,0,19.66,32.44c2.22,2.86,4.44,5.53,6.66,8.07,16.81,19.07,32.58,28.59,32.58,28.59.09,5,.45,11.32.68,18.89l17.26-2a517.45,517.45,0,0,0-3-71.7A38.41,38.41,0,0,1,687,2505.45c33.77-6,76-18.74,126.16-43.66,0,0,25.41-63.38-27.14-81.69,0,0-90.88,58.49-172.48,46.44-15.22-34.66-28.36-81.59-20.8-152,5.53-51.33-11.23-52.28-29.4-40.46a70.53,70.53,0,0,0-8.25,6.35c-17.48,15.54-23.78,37.69-29.85,65.06-.86,3.94-2,8.29-3.13,13-9.65,38.42-28.63,101.72-36.88,171.76C477.8,2553.49,501.36,2540.8,501.36,2540.8Z"/></g><path class="cls-1" d="M568.4,2305.56c-4.53,18-7.47,36.17-10.6,54.63L553,2387.82l-4.59,27.83-8.79,56c-2.82,18.71-5.17,37.69-7,56.33l-13.5-16.75a161.55,161.55,0,0,1,22,5.09c6.91,2.07,13.65,4.45,20.3,7.14,13.26,5.42,26.23,11.9,38.57,20.89a92,92,0,0,1,17.53,16.41c5.27,6.63,10.12,15,11.74,25.17a48,48,0,0,1-4.88,28.8,44.19,44.19,0,0,1-9.17,12.35,44.71,44.71,0,0,1-13.05,8.37c-9.31,3.74-18.29,4.31-26.41,3.93a112.64,112.64,0,0,1-22.92-3.84,174.11,174.11,0,0,1-20.84-7l-5-2.11-4.59-2.07a14.35,14.35,0,0,0,4.9,1.16c.72,7.55,26.75-23.93,16.4-15.56l-.05-.89.11.8.37,2.28.81,4.9c2.21,13.3,4.35,26.79,5.74,40.75a172.22,172.22,0,0,1,1,21.77,133.5,133.5,0,0,1-2.08,22.5c-2.55,15.07-9,30.77-19.88,43.41s-25.76,21.24-40.55,25.72c-14.88,4.71-29.85,6-44.39,6a226.34,226.34,0,0,1-42.78-4.7c-3.51-.74-7-1.51-10.52-2.43-1.79-.46-3.47-.91-5.41-1.51l-6.21-2.18a56.6,56.6,0,0,1-22-16.15,66.51,66.51,0,0,1-12.05-23,110.76,110.76,0,0,1-4.23-22.92c-1.27-14.9-.44-29,.7-42.76s2.91-27.11,4.3-40.17,2.49-25.74,1.73-37.43l-2.29-40.23c-1.36-26.84-2.48-53.7-3.09-80.62s-.89-53.85-.37-80.85,1.44-54,3.7-81.14,5.49-54.24,11.17-81.4c1.38-6.79,3.2-13.58,4.85-20.36l3-10.16,1.55-5.07,1.93-5c2.65-6.63,4.95-13.38,8-19.88,3.29-6.4,6.48-12.85,9.92-19.18,4-6.05,7.86-12.18,12-18.13l6.86-8.53c2.33-2.81,4.37-5.87,7.05-8.39,5.18-5.17,9.92-10.87,15.76-15.39l8.54-7.05c3-2.1,6.17-4,9.25-6.07,12.58-7.68,26.27-13.66,40.62-16.56a99.47,99.47,0,0,1,21.76-2.21,73.56,73.56,0,0,1,22,3.23,5.38,5.38,0,0,1,.54,10l-.58.26c-12,5.33-23.81,10.53-34.86,15.81-2.75,1.4-5.56,2.58-8.26,4s-5.39,2.79-8.08,4.17-5.16,3.14-7.8,4.56l-3.91,2.24-3.72,2.52c-2.51,1.64-5,3.33-7.54,4.9l-7.13,5.48c-5,3.35-9.09,7.86-13.64,11.84-4.37,4.18-8,9.11-12,13.68-3.56,5-6.75,10.21-10.18,15.28-24.69,42.75-31.68,95.7-36.26,147.88-2.2,26.22-3.15,52.67-3.61,79.15s-.23,53,.37,79.61,1.71,53.16,3.06,79.74L379,2582c.93,15-.46,29.13-1.83,42.63s-3.11,26.69-4.25,39.61-1.73,25.59-.7,37.37,3.89,22.53,9.29,28.88a25.62,25.62,0,0,0,10.05,7.29l3.26,1.14c1.25.4,2.8.81,4.25,1.18,2.94.77,6,1.44,9,2.08,24.29,4.87,50.14,6.18,71.67-.46,10.75-3.27,19.82-8.85,26.46-16.46a59.31,59.31,0,0,0,12.84-28.77,103.63,103.63,0,0,0,1.58-17.39,141.16,141.16,0,0,0-.82-18.28c-1.25-12.65-3.29-25.61-5.47-38.68l-.83-5-.42-2.67-.23-1.69a20.42,20.42,0,0,1-.17-2.14c-10.34,8.26,15.6-23.72,16.59-16a15.85,15.85,0,0,1,5.48,1.4l4.54,2,4.24,1.79a144.89,144.89,0,0,0,17.14,5.82,84.15,84.15,0,0,0,16.57,2.84c5.2.27,9.85-.34,13-1.63a12.07,12.07,0,0,0,6.43-6.08,16.85,16.85,0,0,0,1.93-10.06c-.81-6.3-7.71-14.85-17.05-21.49-9.28-6.8-20.38-12.47-31.85-17.14-5.75-2.32-11.64-4.4-17.54-6.17a106,106,0,0,0-17.1-3.87l-14.74-1.8,1.25-14.95c1.62-19.51,3.65-38.6,5.74-57.88s4.89-38.45,8.51-57.57l2.88-14.32,3.4-14.26c1.1-4.75,2.35-9.51,3.77-14.22s2.69-9.43,4.44-14.1,3.39-9.32,5.28-13.92c2.14-4.57,4.17-9.16,6.41-13.63s5.08-8.89,7.8-13.15a112.28,112.28,0,0,1,9.78-12.09,5.22,5.22,0,0,1,9,4.73Z"/><g class="cls-3"><path class="cls-1" d="M390.81,2753.86c27.85,8.08,148.63,32.44,145.31-81.14-.3-10.26-1.31-21.52-2.57-31.78-22.79,68.18-122.33,72.09-140.78,55.15-24.52-22.52-23.38-73.79-26.52-95.09C360.66,2650,349,2741.73,390.81,2753.86Z"/></g><g class="cls-3"><path class="cls-1" d="M1106.76,2273.13a761.06,761.06,0,0,1-56.4-142.54,772.61,772.61,0,0,0,34.35,76.31,437.34,437.34,0,0,1,36.82,97.62C1117,2293.83,1112,2283.34,1106.76,2273.13Z"/></g><circle class="cls-2" cx="1102.82" cy="2247.85" r="49.01"/><g class="cls-3"><path class="cls-1" d="M1149.35,2232.51a49,49,0,1,1-93.09,30.67,48.42,48.42,0,0,1-2.08-21.37,49,49,0,0,0,84.14-27.73A48.45,48.45,0,0,1,1149.35,2232.51Z"/></g><path class="cls-1" d="M1102.76,2312.35a64.48,64.48,0,1,1,61.29-84.68h0a64.55,64.55,0,0,1-61.29,84.68Zm0-98a33.55,33.55,0,1,0,31.89,23A33.52,33.52,0,0,0,1102.8,2214.3Z"/><path class="cls-2" d="M1092.35,2379.3l-240.82,95.55a56,56,0,0,1-72.43-31.28l-50.83-128.15a56,56,0,0,1,21.33-67.27,55.06,55.06,0,0,1,9.95-5.16l240.78-95.54a55.91,55.91,0,0,1,72.43,31.28l40.29,101.5,10.58,26.64A56,56,0,0,1,1092.35,2379.3Z"/><g class="cls-3"><path class="cls-1" d="M1092.35,2379.3l-240.82,95.55a56,56,0,0,1-72.43-31.28l-50.83-128.15a56,56,0,0,1,21.33-67.27c17.28,3.66,28.27,6,28.27,6,52.54,98.22,102.19,137.89,230.75,89.29,55.49-21,87-43.21,104.43-63.23l10.58,26.64A56,56,0,0,1,1092.35,2379.3Z"/></g><path class="cls-1" d="M831.06,2491.29a68.4,68.4,0,0,1-63.56-43.1L716.64,2320a68.45,68.45,0,0,1,38.29-88.65l240.8-95.56a68.46,68.46,0,0,1,88.66,38.3l50.86,128.16a68.46,68.46,0,0,1-38.29,88.66l-240.8,95.55A67.87,67.87,0,0,1,831.06,2491.29Zm20.49-16.43h0ZM1020.79,2156a42.91,42.91,0,0,0-15.84,3l-240.8,95.55a43.46,43.46,0,0,0-24.27,56.2L790.74,2439a43.33,43.33,0,0,0,56.2,24.27l240.8-95.55a43.46,43.46,0,0,0,24.27-56.2l-50.86-128.17a43,43,0,0,0-23.1-23.71A43.47,43.47,0,0,0,1020.79,2156Z"/><path class="cls-2" d="M1101.64,2374.52a49,49,0,0,1-9.29,4.78l-240.82,95.55a55.89,55.89,0,0,1-59.27-11.75,55,55,0,0,1-13.12-19.54l-22.61-56.93-7.46-18.78-20.8-52.43A56,56,0,0,1,759.55,2243l52-20.63A55.93,55.93,0,0,0,789.52,2290L817,2359.26l23.4,58.95a56,56,0,0,0,72.43,31.29Z"/><g class="cls-3"><path class="cls-1" d="M1101.64,2374.52a49,49,0,0,1-9.29,4.78l-240.82,95.55a55.89,55.89,0,0,1-72.39-31.29l-30.07-75.71c11.37,11,28.76,23.08,46.86,17.9,9.93-2.83,16.61-13.43,21-26.49l23.4,58.95a56,56,0,0,0,72.43,31.29Z"/></g><path class="cls-1" d="M831.09,2491.3a68.68,68.68,0,0,1-63.58-43.12L716.65,2320a68.45,68.45,0,0,1,38.28-88.66l52-20.64,11.29,22.18a43.34,43.34,0,0,0-17.1,52.53L852,2413.59a43.44,43.44,0,0,0,56.18,24.28l188.86-75,11.41,22.11a64,64,0,0,1-11.56,5.93l-240.74,95.53A67.73,67.73,0,0,1,831.09,2491.3ZM776,2249.9l-11.83,4.69a43.44,43.44,0,0,0-24.27,56.2L790.75,2439a43.44,43.44,0,0,0,56.17,24.28l13.39-5.32a67.64,67.64,0,0,1-31.55-35.12l-50.85-128.16A68.07,68.07,0,0,1,776,2249.9Z"/><path class="cls-6" d="M910.31,2317.48c1.86,4.75,10.14,45.7,10.14,45.7l-27.06,10.56c-18.64,7.27-41.27-6.13-50.55-29.93s-1.71-49,16.92-56.25L886.82,2277S907.29,2309.75,910.31,2317.48Z"/><g class="cls-3"><path class="cls-1" d="M910.31,2317.48c1.86,4.75,10.14,45.7,10.14,45.7l-27.06,10.56c-18.64,7.27-41.27-6.13-50.55-29.93s-1.71-49,16.92-56.25L886.82,2277S907.29,2309.75,910.31,2317.48Z"/></g><path class="cls-1" d="M887.91,2378.19c-19,0-38.34-14.3-47.06-36.65-5.1-13.06-5.88-27-2.2-39.21,3.87-12.88,12.18-22.39,23.39-26.76l18.89-7.37a18,18,0,0,1,21.91,7.36c11.13,18.13,17.69,29.64,19.46,34.2h0c.48,1.21,1.72,4.41,8.71,38.21a18,18,0,0,1-11.1,20.43l-18.8,7.33A36.16,36.16,0,0,1,887.91,2378.19Zm-.43-96.23a3,3,0,0,0-1.1.21l-18.89,7.37c-6.82,2.67-12,8.74-14.48,17.11-2.72,9-2.07,19.48,1.81,29.44,7.77,19.9,26.11,31.4,40.84,25.66l18.8-7.33a3,3,0,0,0,1.87-3.42c-6.31-30.45-7.77-35.16-8-35.81-1.39-3.54-8.21-15.42-18.26-31.78A3,3,0,0,0,887.48,2282Z"/><ellipse class="cls-6" cx="908.64" cy="2315.09" rx="36.22" ry="46.26" transform="translate(-779.34 488.62) rotate(-21.31)"/><g class="cls-3"><path class="cls-1" d="M876.53,2285.54a58.36,58.36,0,0,0,3.37,12.71c9.28,23.8,31.92,37.2,50.55,29.93a30.56,30.56,0,0,0,15.29-13.54c2.85,19.47-5,37.56-20.29,43.54-18.63,7.27-41.27-6.13-50.55-29.93C868.88,2312.84,870,2296.87,876.53,2285.54Z"/></g><g class="cls-7"><path class="cls-2" d="M937.38,2316.93c-9.29-23.8-31.92-37.2-50.56-29.93a30.53,30.53,0,0,0-15.36,13.67c1.88-13.27,9.07-24.27,20.36-28.67,18.64-7.27,41.27,6.13,50.56,29.93,6,15.35,4.92,31.25-1.56,42.58A55.13,55.13,0,0,0,937.38,2316.93Z"/></g><path class="cls-1" d="M915,2367.64c-19,0-38.34-14.31-47.06-36.66-10.77-27.62-1.27-57.21,21.19-66s49.49,6.58,60.26,34.19c5.1,13.06,5.88,27,2.21,39.21-3.88,12.89-12.19,22.38-23.4,26.76A36.17,36.17,0,0,1,915,2367.64Zm-12.45-90.14a21.86,21.86,0,0,0-8,1.48c-14.75,5.76-20.43,26.64-12.67,46.55s26.1,31.42,40.84,25.66c6.82-2.66,12-8.73,14.48-17.1,2.72-9,2.08-19.48-1.81-29.44C929,2288.22,915.37,2277.5,902.52,2277.5Z"/><path class="cls-1" d="M1017.12,2420.58a12.49,12.49,0,0,1-11.72-8.16L975,2330.07a27.07,27.07,0,0,1,3.56-25.43l21.56-29.46a2.11,2.11,0,0,0,.26-2l-42.71-108.71a12.5,12.5,0,0,1,23.28-9.14L1023.6,2264a27,27,0,0,1-3.36,25.94l-21.56,29.46a2.14,2.14,0,0,0-.27,2l30.44,82.33a12.51,12.51,0,0,1-11.73,16.84Z"/><path class="cls-2" d="M547.83,2368.64s-16.77,23.85-10.06,52.13c7.76,32.7,30.65,40.81,30.65,40.81s96.88,23.41,224.11-42.13c0,0,25.4-63.38-27.19-81.68C765.34,2337.77,628,2395.72,547.83,2368.64Z"/><g class="cls-3"><path class="cls-1" d="M537.79,2420.79c7.75,32.66,30.62,40.77,30.62,40.77s96.87,23.43,224.13-42.13c0,0,8.34-20.89,5.53-42.09-.36,1.18-.63,1.81-.63,1.81-93,47.93-169.78,48.3-204.36,45a57.13,57.13,0,0,1-50.16-42.7l-.24-1a10.43,10.43,0,0,1-.32-1.63C538.2,2388.49,533.76,2403.84,537.79,2420.79Z"/></g><path class="cls-1" d="M614.3,2481.19c-29.77,0-47.78-4.16-49.51-4.58l-1.53-.45c-11.45-4.06-32.87-19.54-40.53-51.82-8.22-34.66,11.6-63.38,12.45-64.59l6.64-9.45,10.95,3.7c73.63,24.86,205.25-29.92,206.56-30.48l5.48-2.3,5.61,2C788,2329.29,801,2340.64,808,2356c13.77,30.23.46,65.32-1.11,69.22l-2.15,5.35-5.12,2.64C722.78,2472.77,656.64,2481.19,614.3,2481.19Zm-41.16-34.4c10.59,2.09,96.5,16.59,206.76-38.28,2.81-9.79,5.75-27.11-.09-39.81-2.85-6.21-7.61-10.9-14.49-14.24-26.73,10.54-133.88,49.77-209.57,32.45-3,7.45-5.73,18.52-2.93,30.29C557.74,2438,570,2445.23,573.14,2446.79Z"/><path class="cls-1" d="M1003.82,2745.4c-32.48,0-68.88-8.32-106.15-32.43a10,10,0,1,1,10.86-16.79c107.78,69.71,207.13-6.93,208.12-7.71a10,10,0,1,1,12.4,15.69C1128.28,2704.76,1075.61,2745.4,1003.82,2745.4Z"/><path class="cls-1" d="M743.51,2742.85a203.6,203.6,0,0,1-112.37-33.18,10,10,0,1,1,10.86-16.8c108.29,70.07,222.63-4.13,223.76-4.89a10,10,0,1,1,11.06,16.67C876,2705.21,818,2742.85,743.51,2742.85Z"/><path class="cls-1" d="M525,2467.91a10,10,0,0,1-3.34-.57c-1.09-.38-109.5-38.15-157.53-1.48A10,10,0,1,1,352,2450c56.64-43.23,171.49-3.19,176.36-1.47a10,10,0,0,1-3.35,19.42Z"/><path class="cls-1" d="M1124.84,1798.29c-142.56,0-167-131.9-167.19-133.27a10,10,0,0,1,19.71-3.41c.89,5.11,23.17,122.44,157.39,116.45h.46a10,10,0,0,1,.44,20C1132,1798.21,1128.36,1798.29,1124.84,1798.29Z"/><g class="cls-3"><path class="cls-1" d="M381.48,2188.6a330.27,330.27,0,0,0,93.74,22.06,489.43,489.43,0,0,0,54.78,1.59c6.88-.19,13.86-.5,21-1,61.12-4.31,130-20.8,201.79-59.49,101.76-55,163.11-129.62,200-196.63-11.2-12.14-22.11-23.37-31.4-33.25l-12.73,10.78-20.71,4.8-343.51,80-3,40.33-1.31,18.07-2.86,38.83-6.93-48.61C528.73,2066.09,422.39,2066.54,381.48,2188.6Z"/></g><path class="cls-2" d="M981.53,1609.9a481.53,481.53,0,0,1-41.21,240.37,490,490,0,0,1-24,46.22c-4.31,7.36-8.91,14.67-13.67,21.94a485,485,0,0,1-47.6,60.75,481.22,481.22,0,0,1-110.08,89q-12,7.05-24.4,13.42c-150.84,77.42-337.93,73.3-489.3-27C8.24,1906.8-52.7,1606.21,95.06,1383.23a483.13,483.13,0,0,1,100.81-110.48c4.43-3.62,9-7.11,13.61-10.51q18.44-13.76,37.94-25.59a487.27,487.27,0,0,1,196-67q16.41-1.91,33-2.69a484.3,484.3,0,0,1,290,80.13C894.72,1332.08,969.35,1467.63,981.53,1609.9Z"/><path class="cls-1" d="M499,2136.61a485.74,485.74,0,0,1-268.56-80.8c-223.31-148-284.59-450.07-136.61-673.39A485,485,0,0,1,195,1271.6c4.23-3.44,8.82-7,13.66-10.54,12.25-9.14,25.06-17.78,38-25.66a488.56,488.56,0,0,1,196.63-67.23c11.07-1.28,22.2-2.19,33.08-2.69a485.37,485.37,0,0,1,290.87,80.37c124.37,82.4,203,215.05,215.76,363.92h0a484.16,484.16,0,0,1-65.44,287.47c-4,6.77-8.45,14-13.7,22a487.29,487.29,0,0,1-47.75,60.94,483.25,483.25,0,0,1-110.41,89.32c-8,4.67-16.22,9.2-24.48,13.46A486.43,486.43,0,0,1,499,2136.61Zm.16-968.72q-11.25,0-22.65.52c-10.81.5-21.88,1.41-32.88,2.68a485.65,485.65,0,0,0-195.45,66.82c-12.91,7.83-25.64,16.41-37.83,25.51-4.8,3.53-9.36,7-13.55,10.47A482.07,482.07,0,0,0,96.28,1384c-147.08,222-86.17,522.23,135.78,669.32,145.45,96.44,332.37,106.77,487.82,27,8.2-4.24,16.39-8.74,24.33-13.39A480,480,0,0,0,854,1978.19a485.16,485.16,0,0,0,47.45-60.57c5.23-8,9.69-15.14,13.63-21.87a489.66,489.66,0,0,0,24-46.08A481.89,481.89,0,0,0,980.07,1610h0c-12.67-148-90.83-279.83-214.45-361.73a481.76,481.76,0,0,0-239.43-79.64C517.33,1168.15,508.3,1167.89,499.16,1167.89Z"/><g class="cls-3"><path class="cls-1" d="M231.25,2054.57c151.36,100.38,338.47,104.5,489.3,27.06q12.36-6.36,24.39-13.41a485,485,0,0,0,157.7-149.79c4.74-7.28,9.34-14.57,13.67-21.93a493.59,493.59,0,0,0,24-46.23,481.38,481.38,0,0,0,41.22-240.39,486.88,486.88,0,0,0-29.3-129.72,483.23,483.23,0,0,1-66,275.46c-4.3,7.36-8.91,14.64-13.67,21.93a483,483,0,0,1-157.67,149.78q-12.08,7.07-24.42,13.42c-150.83,77.43-337.92,73.32-489.31-27.06A482,482,0,0,1,15.35,1680.51C24.45,1826.88,99.61,1967.36,231.25,2054.57Z"/></g><path class="cls-1" d="M499,2146.45A495.61,495.61,0,0,1,225,2064C-2.83,1913-65.35,1604.83,85.62,1377a494.86,494.86,0,0,1,103.19-113.07c4.27-3.48,9-7.14,14-10.79,12.46-9.28,25.52-18.09,38.78-26.14a498.53,498.53,0,0,1,200.61-68.59c11.29-1.31,22.65-2.23,33.76-2.75a495.38,495.38,0,0,1,296.77,82c126.88,84.07,207.11,219.4,220.12,371.29h0a494.54,494.54,0,0,1-42.19,246,501.19,501.19,0,0,1-24.58,47.3c-4,6.89-8.6,14.22-13.94,22.38a497.62,497.62,0,0,1-48.75,62.22A492.57,492.57,0,0,1,750.7,2078c-8.17,4.78-16.55,9.39-25,13.73A496.36,496.36,0,0,1,499,2146.45Zm.16-968.71q-11,0-22.2.51c-10.59.49-21.42,1.37-32.2,2.62a475.94,475.94,0,0,0-191.48,65.46c-12.63,7.67-25.1,16.07-37,25-4.72,3.47-9.15,6.89-13.22,10.21a471.91,471.91,0,0,0-98.53,108c-144.09,217.44-84.42,511.57,133,655.66,142.47,94.47,325.59,104.59,477.88,26.43,8-4.14,16.07-8.56,23.85-13.12a474,474,0,0,0,154-146.28c5.1-7.8,9.47-14.81,13.33-21.41A476.6,476.6,0,0,0,930,1845.59a471.83,471.83,0,0,0,40.25-234.72h0c-12.41-145-89-274.13-210.08-354.37a472,472,0,0,0-234.53-78C517,1178,508.11,1177.74,499.16,1177.74Z"/><path class="cls-1" d="M499,2149.73a499,499,0,0,1-275.81-83c-229.33-152-292.27-462.24-140.29-691.59a497.68,497.68,0,0,1,103.87-113.82c4.29-3.5,9.06-7.19,14.07-10.87,12.52-9.34,25.67-18.21,39-26.3a501.49,501.49,0,0,1,201.94-69c11.36-1.32,22.79-2.25,34-2.77a498.56,498.56,0,0,1,298.74,82.55c127.72,84.62,208.49,220.85,221.58,373.75h0a497.93,497.93,0,0,1-42.47,247.64,505.4,505.4,0,0,1-24.74,47.61c-4.06,6.92-8.65,14.3-14,22.51a502,502,0,0,1-97.55,108.74,494.65,494.65,0,0,1-64.93,45.63c-8.22,4.82-16.66,9.46-25.12,13.83A499.68,499.68,0,0,1,499,2149.73Zm.17-968.71q-10.95,0-22.05.51c-10.51.48-21.27,1.36-32,2.6a472.27,472.27,0,0,0-190.14,65c-12.56,7.61-24.93,16-36.79,24.8-4.7,3.46-9.08,6.84-13.1,10.12a468.84,468.84,0,0,0-97.88,107.24c-143.08,215.93-83.83,508,132.09,651.12,141.49,93.8,323.33,103.86,474.57,26.24,8-4.12,16-8.51,23.7-13a467.06,467.06,0,0,0,106.7-86.31,471.64,471.64,0,0,0,46.18-59c5.07-7.73,9.41-14.7,13.24-21.25a468.08,468.08,0,0,0,63.3-278c-12.33-144-88.37-272.23-208.63-351.91a468.67,468.67,0,0,0-232.9-77.47C516.84,1181.27,508,1181,499.16,1181Z"/><path class="cls-1" d="M976.18,1733.91c-128.12,321.62-528.33,415.65-733.45,140.87-139.55-186.94-64.26-467.91,123.87-590.44,136.92-89.18,309.61-116.35,506.12,58.32,0,0,75,90.76,91.37,173.31s18.26,165.6,18.26,165.6Z"/><path class="cls-8" d="M242.74,1874.78c205.11,274.77,605.33,180.74,733.45-140.86l1.24-10.61c-230.25,218.16-592.95,233-805.5-41C177.06,1750.45,199.68,1817.08,242.74,1874.78Z"/><path class="cls-1" d="M553.27,2099.71a444.82,444.82,0,0,1-57.94-3.76c-121-15.9-226-79.21-303.57-183.09-71.37-95.59-98.25-218.09-75.68-344.92,24.56-138,106.1-264,218.13-336.92,62.89-41,126.87-66.64,190.15-76.33l1.3-.2,1.31.07a496,496,0,0,1,246.46,82c127.22,84.3,207.67,220,220.71,372.29h0a495.93,495.93,0,0,1-42.3,246.68,505,505,0,0,1-24.64,47.42c-4.05,6.9-8.63,14.25-14,22.44a500.39,500.39,0,0,1-48.89,62.39l-1.46,1.36C772.05,2060.81,661.86,2099.71,553.27,2099.71ZM526.89,1179.9c-59.28,9.29-119.46,33.62-178.87,72.32-106.28,69.22-183.68,188.91-207,320.16-21.33,119.87,3.9,235.41,71,325.34,73.38,98.28,172.48,158.15,286.6,173.14,119.45,15.69,246.18-21.11,347.77-101a472.25,472.25,0,0,0,45.68-58.44c5.09-7.76,9.45-14.76,13.3-21.33A478.86,478.86,0,0,0,928.8,1845,470.6,470.6,0,0,0,968.93,1611c-12.38-144.56-88.73-273.35-209.48-353.36A470.66,470.66,0,0,0,526.89,1179.9Z"/><ellipse class="cls-2" cx="163.8" cy="1917.43" rx="125.87" ry="173.23" transform="translate(-1013.46 395.11) rotate(-32.83)"/><path class="cls-1" d="M204.5,2092.67c-59.86,0-126.34-41.88-165.62-110.39h0c-29.79-51.94-38.8-109-24.73-156.45,9.66-32.61,29.34-57.33,56.92-71.48,68.73-35.24,166.36,8.81,217.64,98.24,29.79,51.94,38.8,109,24.74,156.45-9.67,32.61-29.36,57.33-56.93,71.47A113.1,113.1,0,0,1,204.5,2092.67ZM64.2,1967.76c43.63,76.1,123.94,115,179,86.77,20.31-10.41,34.92-29,42.27-53.78,11.63-39.29,3.39-89.25-22.07-133.64-43.64-76.11-123.94-115-179-86.78-20.31,10.42-34.92,29-42.26,53.79-11.64,39.29-3.39,89.24,22.06,133.64Z"/><ellipse class="cls-2" cx="135.78" cy="1950.14" rx="102.56" ry="137.48" transform="translate(-1088.59 426.2) rotate(-34.8)"/><path class="cls-1" d="M166.52,2078.85c-29.83,0-61.51-13.45-88.74-38h0C22.11,1990.56,2.68,1909,34.49,1859c13.16-20.7,33.13-33.4,57.71-36.74,33.38-4.49,70.41,9,101.59,37.18,55.67,50.26,75.09,131.82,43.29,181.79-13.17,20.7-33.13,33.4-57.71,36.74A96.41,96.41,0,0,1,166.52,2078.85Zm-61.45-254.36a92,92,0,0,0-12.46.83c-23.67,3.21-42.88,15.44-55.55,35.35-31,48.77-11.85,128.57,42.76,177.88h0c30.51,27.55,66.61,40.83,99.14,36.42,23.66-3.21,42.87-15.43,55.54-35.35,31-48.77,11.86-128.58-42.75-177.89C165.08,1837.66,134.13,1824.49,105.07,1824.49Z"/><g class="cls-3"><path class="cls-1" d="M248.8,1952.47c-7.06-25.07-21-48.3-39-67.33,11.28,58.53-21.77,104-77.65,103.65-36.12-.21-73.46-19.54-101.24-49,.69,3.7,1.61,7.47,2.67,11.28,18,63.84,80.76,115.91,140.2,116.29S266.78,2016.28,248.8,1952.47Z"/></g><path class="cls-1" d="M171.58,2089.52c-47.32,0-100.65-35.23-134.11-93.06h0c-25.22-43.59-33.53-92.22-22.22-130.08,7.2-24.15,21.71-42.29,42-52.48,53.7-27,129.43,10,172.4,84.24,25.22,43.59,33.52,92.22,22.22,130.1-7.21,24.14-21.72,42.28-42,52.46A84.47,84.47,0,0,1,171.58,2089.52ZM95.52,1830.39a59.41,59.41,0,0,0-26.94,6.12c-13.87,7-23.92,19.8-29.09,37.1-9.35,31.32-1.91,72.51,19.88,110.17h0c35.65,61.63,98,95,139.13,74.31,13.86-7,23.92-19.8,29.09-37.1,9.35-31.31,1.91-72.5-19.88-110.17C179.21,1861.57,133.63,1830.39,95.52,1830.39Z"/><g class="cls-9"><path class="cls-2" d="M319.8,1435.4s181-102.11,341.79-64.32l.5.12a195.7,195.7,0,0,1,90,49c33.27,31.72,51.54,58.46,66.73,82.61,46.13,73.49,54,116.55,54,116.55,17.41-65.07,13.29-123.93-24.53-185.52q-5.62-9.09-12.22-18.32c-1-1.42-2-2.8-3.1-4.18,0,0,0-.06-.07-.07a484.48,484.48,0,0,0-39.75-42.56c-49.91-47.38-128.21-100.89-220.48-90.61C400.18,1297.31,308.93,1431.53,319.8,1435.4Z"/></g><g class="cls-9"><ellipse class="cls-2" cx="298.34" cy="1697.17" rx="64.75" ry="75.45" transform="translate(-487.06 163.37) rotate(-17.15)"/></g><g class="cls-9"><ellipse class="cls-2" cx="338.76" cy="1828.16" rx="26.74" ry="31.16" transform="translate(-381.79 114.18) rotate(-12.3)"/></g><path class="cls-10" d="M487.71,477.72c-4.36-6.4-7.9-12.11-10.65-16.76C477.06,461,479.65,468,487.71,477.72Z"/><path class="cls-11" d="M1196.86,524.9c-209.46,29.21-265.47-33.38-265.47-33.38C618.65,585.32,517,513.2,487.71,477.72c20.55,30.18,59.62,76.18,123.6,103.66,146.3,62.85,285.69-30,296.23-37.32,42.6,34.61,101.84,70.14,175.07,75.41,96.23,6.92,128.45-44.73,222.78-31.63,93.08,12.93,99.32,68.45,181.87,74.47,85.12,6.22,167.81-46.3,214.23-105.61l-95.21,34.19C1349.2,652.77,1406.33,495.69,1196.86,524.9Z"/><path class="cls-2" d="M1704.08,208.3c-34.85-22.07-83.81-28.52-150.17-8.72-77-132.56-223-209.88-374.69-198.47-146.1,11-275,102.56-334.64,237.51C695.48,178.26,548.7,217,494.37,308.11c-33.44,56.06-24.76,120-17.31,152.85,2.75,4.65,6.29,10.36,10.65,16.76,29.3,35.48,130.94,107.6,443.68,13.8,0,0,56,62.59,265.47,33.38s152.34,127.87,409.42,66l95.21-34.19C1784.67,450.41,1795.18,266,1704.08,208.3Z"/></g></g></svg>