<svg xmlns="http://www.w3.org/2000/svg" xmlns:xlink="http://www.w3.org/1999/xlink" viewBox="0 0 328.33 1094.99"><defs><style>.cls-1{isolation:isolate;}.cls-2,.cls-3,.cls-57{fill:none;}.cls-10,.cls-11,.cls-12,.cls-13,.cls-14,.cls-15,.cls-16,.cls-17,.cls-18,.cls-19,.cls-2,.cls-22,.cls-23,.cls-24,.cls-25,.cls-26,.cls-27,.cls-28,.cls-29,.cls-36,.cls-38,.cls-39,.cls-55,.cls-57,.cls-7,.cls-77,.cls-95,.cls-98{stroke:#000;}.cls-10,.cls-11,.cls-12,.cls-13,.cls-14,.cls-15,.cls-16,.cls-17,.cls-18,.cls-19,.cls-2,.cls-22,.cls-23,.cls-24,.cls-25,.cls-26,.cls-27,.cls-28,.cls-29,.cls-31,.cls-32,.cls-36,.cls-38,.cls-39,.cls-55,.cls-57,.cls-7,.cls-77,.cls-8,.cls-9,.cls-95,.cls-98{stroke-miterlimit:10;}.cls-4{fill:url(#linear-gradient);}.cls-31,.cls-32,.cls-36,.cls-37,.cls-40,.cls-5,.cls-54,.cls-55,.cls-62,.cls-8,.cls-9{fill:#231f20;}.cls-6{fill:url(#linear-gradient-2);}.cls-20,.cls-38,.cls-7{fill:#fff;}.cls-31,.cls-32,.cls-36,.cls-38,.cls-39,.cls-57,.cls-77,.cls-8,.cls-9,.cls-98{stroke-width:0.25px;}.cls-8{stroke:url(#linear-gradient-3);}.cls-9{stroke:url(#linear-gradient-4);}.cls-10{fill:url(#linear-gradient-5);}.cls-11{fill:url(#linear-gradient-6);}.cls-12{fill:url(#linear-gradient-7);}.cls-13{fill:url(#linear-gradient-8);}.cls-14{fill:url(#linear-gradient-9);}.cls-15{fill:url(#linear-gradient-10);}.cls-16{fill:url(#linear-gradient-11);}.cls-17{fill:url(#linear-gradient-12);}.cls-18{fill:url(#linear-gradient-13);}.cls-19{fill:url(#linear-gradient-14);}.cls-21{fill:url(#linear-gradient-15);}.cls-22{fill:url(#linear-gradient-16);}.cls-23{fill:url(#linear-gradient-17);}.cls-24{fill:url(#linear-gradient-18);}.cls-25{fill:url(#linear-gradient-19);}.cls-26{fill:url(#linear-gradient-20);}.cls-27{fill:url(#linear-gradient-21);}.cls-28{fill:url(#linear-gradient-22);}.cls-29{fill:#27aae1;}.cls-30{fill:url(#Orange_Yellow);}.cls-31{stroke:url(#linear-gradient-23);}.cls-32{stroke:url(#linear-gradient-24);}.cls-33{fill:url(#Orange_Yellow-2);}.cls-34{fill:url(#Orange_Yellow-3);}.cls-35{fill:url(#Orange_Yellow-4);}.cls-37{fill-opacity:0.29;}.cls-39{fill:#2e3192;}.cls-40{fill-opacity:0.43;}.cls-41{fill:#0090bb;}.cls-42{fill:#1c75bc;}.cls-43{fill:#0c6d84;}.cls-44{fill:#cb242b;}.cls-45{fill:url(#linear-gradient-25);}.cls-46{fill:url(#linear-gradient-26);}.cls-47{fill:url(#linear-gradient-27);}.cls-48{fill:url(#linear-gradient-28);}.cls-49{fill:#e9b820;}.cls-50{fill:url(#linear-gradient-29);}.cls-51{fill:url(#linear-gradient-30);}.cls-52{fill:url(#linear-gradient-31);}.cls-53{fill:url(#linear-gradient-32);}.cls-54{fill-opacity:0.54;}.cls-56,.cls-58,.cls-59,.cls-60,.cls-61,.cls-62,.cls-63,.cls-64,.cls-65,.cls-66,.cls-67,.cls-68,.cls-69,.cls-70,.cls-71,.cls-72,.cls-73,.cls-74,.cls-75,.cls-76,.cls-78,.cls-79,.cls-80,.cls-81,.cls-82,.cls-83,.cls-84,.cls-85,.cls-86,.cls-87,.cls-88,.cls-89,.cls-92,.cls-96{fill-opacity:0.83;}.cls-56{fill:url(#linear-gradient-33);}.cls-58{fill:url(#linear-gradient-34);}.cls-59{fill:url(#linear-gradient-35);}.cls-60{fill:url(#linear-gradient-36);}.cls-61{fill:url(#linear-gradient-37);}.cls-63{fill:url(#linear-gradient-38);}.cls-64{fill:url(#linear-gradient-39);}.cls-65{fill:url(#linear-gradient-40);}.cls-66{fill:url(#linear-gradient-41);}.cls-67{fill:url(#linear-gradient-42);}.cls-68{fill:url(#linear-gradient-43);}.cls-69{fill:url(#linear-gradient-44);}.cls-70{fill:url(#linear-gradient-45);}.cls-71{fill:url(#linear-gradient-46);}.cls-72{fill:url(#linear-gradient-47);}.cls-73{fill:url(#linear-gradient-48);}.cls-74{fill:url(#linear-gradient-49);}.cls-75{fill:url(#linear-gradient-50);}.cls-76{fill:url(#linear-gradient-51);}.cls-77{fill:url(#linear-gradient-52);}.cls-78{fill:url(#linear-gradient-53);}.cls-79{fill:url(#linear-gradient-54);}.cls-80{fill:url(#linear-gradient-55);}.cls-81{fill:url(#linear-gradient-56);}.cls-82{fill:url(#linear-gradient-57);}.cls-83{fill:url(#linear-gradient-58);}.cls-84{fill:url(#linear-gradient-59);}.cls-85{fill:url(#linear-gradient-60);}.cls-86{fill:url(#linear-gradient-61);}.cls-87{fill:url(#linear-gradient-62);}.cls-88{fill:url(#linear-gradient-63);}.cls-89{fill:url(#linear-gradient-64);}.cls-90{fill:url(#linear-gradient-65);}.cls-91{fill:#003f56;}.cls-92{fill:url(#linear-gradient-66);}.cls-93{fill:url(#linear-gradient-67);}.cls-94{fill:url(#linear-gradient-68);}.cls-95{fill:url(#linear-gradient-69);}.cls-96{fill:url(#linear-gradient-70);}.cls-97,.cls-99{mix-blend-mode:lighten;}.cls-97{fill:url(#linear-gradient-71);}.cls-98{fill:url(#linear-gradient-72);}.cls-99{fill:url(#linear-gradient-73);}</style><linearGradient id="linear-gradient" x1="55.8" y1="-56.82" x2="447.59" y2="419.54" gradientUnits="userSpaceOnUse"><stop offset="0" stop-color="#003f56"/><stop offset="0.03" stop-color="#064f6b"/><stop offset="0.09" stop-color="#0f678a"/><stop offset="0.16" stop-color="#167ca6"/><stop offset="0.23" stop-color="#1d8dbc"/><stop offset="0.32" stop-color="#219acd"/><stop offset="0.43" stop-color="#25a3d8"/><stop offset="0.58" stop-color="#26a9df"/><stop offset="1" stop-color="#27aae1"/></linearGradient><linearGradient id="linear-gradient-2" x1="-58.77" y1="37.4" x2="333.02" y2="513.76" xlink:href="#linear-gradient"/><linearGradient id="linear-gradient-3" x1="14.33" y1="1040.73" x2="171.5" y2="1040.73" gradientUnits="userSpaceOnUse"><stop offset="0.08" stop-color="#231f20"/><stop offset="1" stop-color="#231f20" stop-opacity="0.9"/></linearGradient><linearGradient id="linear-gradient-4" x1="173.96" y1="1069.38" x2="290.18" y2="1069.38" xlink:href="#linear-gradient-3"/><linearGradient id="linear-gradient-5" x1="77.28" y1="483.38" x2="301.31" y2="483.38" gradientUnits="userSpaceOnUse"><stop offset="0.08" stop-color="#d1d3d4"/><stop offset="1" stop-color="#f1f2f2" stop-opacity="0.9"/></linearGradient><linearGradient id="linear-gradient-6" x1="77.28" y1="484.16" x2="301.31" y2="484.16" xlink:href="#linear-gradient-5"/><linearGradient id="linear-gradient-7" x1="77.28" y1="485.16" x2="301.31" y2="485.16" xlink:href="#linear-gradient-5"/><linearGradient id="linear-gradient-8" x1="77.28" y1="482.88" x2="301.31" y2="482.88" xlink:href="#linear-gradient-5"/><linearGradient id="linear-gradient-9" x1="77.28" y1="480.17" x2="301.31" y2="480.17" xlink:href="#linear-gradient-5"/><linearGradient id="linear-gradient-10" x1="77.28" y1="481.76" x2="301.31" y2="481.76" xlink:href="#linear-gradient-5"/><linearGradient id="linear-gradient-11" x1="77.28" y1="485.81" x2="301.31" y2="485.81" xlink:href="#linear-gradient-5"/><linearGradient id="linear-gradient-12" x1="77.28" y1="478.36" x2="301.31" y2="478.36" xlink:href="#linear-gradient-5"/><linearGradient id="linear-gradient-13" x1="77.28" y1="479.21" x2="301.31" y2="479.21" xlink:href="#linear-gradient-5"/><linearGradient id="linear-gradient-14" x1="77.28" y1="477.78" x2="216.28" y2="477.78" xlink:href="#linear-gradient-5"/><linearGradient id="linear-gradient-15" x1="77.18" y1="735.5" x2="299.41" y2="735.5" xlink:href="#linear-gradient-3"/><linearGradient id="linear-gradient-16" x1="77.28" y1="487.28" x2="301.31" y2="487.28" xlink:href="#linear-gradient-5"/><linearGradient id="linear-gradient-17" x1="77.28" y1="486.08" x2="301.31" y2="486.08" xlink:href="#linear-gradient-5"/><linearGradient id="linear-gradient-18" x1="77.28" y1="487.32" x2="218.66" y2="487.32" xlink:href="#linear-gradient-5"/><linearGradient id="linear-gradient-19" x1="77.28" y1="486.39" x2="301.31" y2="486.39" xlink:href="#linear-gradient-5"/><linearGradient id="linear-gradient-20" x1="77.28" y1="486.68" x2="301.31" y2="486.68" xlink:href="#linear-gradient-5"/><linearGradient id="linear-gradient-21" x1="77.28" y1="486.94" x2="301.31" y2="486.94" xlink:href="#linear-gradient-5"/><linearGradient id="linear-gradient-22" x1="77.28" y1="487.16" x2="301.31" y2="487.16" xlink:href="#linear-gradient-5"/><linearGradient id="Orange_Yellow" x1="208.51" y1="1063.97" x2="293.52" y2="1063.97" gradientUnits="userSpaceOnUse"><stop offset="0" stop-color="#fff33b"/><stop offset="0.04" stop-color="#fee72e"/><stop offset="0.12" stop-color="#fed51b"/><stop offset="0.2" stop-color="#fdca10"/><stop offset="0.28" stop-color="#fdc70c"/><stop offset="0.67" stop-color="#f3903f"/><stop offset="0.89" stop-color="#ed683c"/><stop offset="1" stop-color="#e93e3a"/></linearGradient><linearGradient id="linear-gradient-23" x1="200.37" y1="1034.67" x2="256.09" y2="1034.67" xlink:href="#linear-gradient-3"/><linearGradient id="linear-gradient-24" x1="55.76" y1="1009.8" x2="104.15" y2="1009.8" xlink:href="#linear-gradient-3"/><linearGradient id="Orange_Yellow-2" x1="45.57" y1="1026.22" x2="182.87" y2="1026.22" xlink:href="#Orange_Yellow"/><linearGradient id="Orange_Yellow-3" x1="252.67" y1="1062.45" x2="293.48" y2="1062.45" xlink:href="#Orange_Yellow"/><linearGradient id="Orange_Yellow-4" x1="144.69" y1="1056.79" x2="123.77" y2="1031.02" xlink:href="#Orange_Yellow"/><linearGradient id="linear-gradient-25" x1="143.26" y1="257.05" x2="219.74" y2="257.05" xlink:href="#linear-gradient-3"/><linearGradient id="linear-gradient-26" x1="180.69" y1="243.27" x2="209.9" y2="243.27" xlink:href="#linear-gradient-3"/><linearGradient id="linear-gradient-27" x1="180.69" y1="243.06" x2="209.9" y2="243.06" xlink:href="#linear-gradient-3"/><linearGradient id="linear-gradient-28" x1="179.2" y1="275.61" x2="194.3" y2="275.61" xlink:href="#linear-gradient-3"/><linearGradient id="linear-gradient-29" x1="185.64" y1="256.06" x2="195.99" y2="256.06" xlink:href="#linear-gradient-3"/><linearGradient id="linear-gradient-30" x1="151.78" y1="272.95" x2="173.72" y2="272.95" xlink:href="#linear-gradient-3"/><linearGradient id="linear-gradient-31" x1="151.78" y1="265.16" x2="173.72" y2="265.16" xlink:href="#linear-gradient-3"/><linearGradient id="linear-gradient-32" x1="151.78" y1="279.11" x2="173.72" y2="279.11" xlink:href="#linear-gradient-3"/><linearGradient id="linear-gradient-33" x1="141.26" y1="235.27" x2="283.31" y2="627.06" gradientUnits="userSpaceOnUse"><stop offset="0.54" stop-color="#231f20"/><stop offset="0.87" stop-color="#231f20" stop-opacity="0.9"/></linearGradient><linearGradient id="linear-gradient-34" x1="195.37" y1="215.65" x2="337.42" y2="607.44" xlink:href="#linear-gradient-33"/><linearGradient id="linear-gradient-35" x1="281.72" y1="396.5" x2="295.27" y2="396.5" gradientUnits="userSpaceOnUse"><stop offset="0" stop-color="#231f20" stop-opacity="0.6"/><stop offset="0.38" stop-color="#231f20" stop-opacity="0.89"/><stop offset="0.82" stop-color="#231f20"/></linearGradient><linearGradient id="linear-gradient-36" x1="256.38" y1="403.56" x2="287.38" y2="403.56" xlink:href="#linear-gradient-35"/><linearGradient id="linear-gradient-37" x1="279.62" y1="428.41" x2="291.31" y2="428.41" xlink:href="#linear-gradient-35"/><linearGradient id="linear-gradient-38" x1="226.88" y1="469.66" x2="108.22" y2="448.54" xlink:href="#linear-gradient-35"/><linearGradient id="linear-gradient-39" x1="156.16" y1="229.87" x2="298.2" y2="621.66" xlink:href="#linear-gradient-33"/><linearGradient id="linear-gradient-40" x1="406.19" y1="866.2" x2="155.46" y2="677.9" gradientUnits="userSpaceOnUse"><stop offset="0" stop-color="#231f20" stop-opacity="0.6"/><stop offset="0.56" stop-color="#231f20" stop-opacity="0.68"/><stop offset="0.94" stop-color="#231f20" stop-opacity="0.93"/><stop offset="1" stop-color="#231f20"/></linearGradient><linearGradient id="linear-gradient-41" x1="244.66" y1="1081.29" x2="-6.07" y2="893" xlink:href="#linear-gradient-40"/><linearGradient id="linear-gradient-42" x1="265.13" y1="1054.04" x2="14.4" y2="865.74" xlink:href="#linear-gradient-40"/><linearGradient id="linear-gradient-43" x1="268.26" y1="1049.87" x2="17.53" y2="861.57" xlink:href="#linear-gradient-40"/><linearGradient id="linear-gradient-44" x1="253.92" y1="1068.96" x2="3.19" y2="880.67" xlink:href="#linear-gradient-40"/><linearGradient id="linear-gradient-45" x1="265.78" y1="1053.17" x2="15.05" y2="864.87" xlink:href="#linear-gradient-40"/><linearGradient id="linear-gradient-46" x1="267.24" y1="1051.22" x2="16.51" y2="862.92" xlink:href="#linear-gradient-40"/><linearGradient id="linear-gradient-47" x1="241.53" y1="1085.46" x2="-9.2" y2="897.17" xlink:href="#linear-gradient-40"/><linearGradient id="linear-gradient-48" x1="279.31" y1="1035.16" x2="28.58" y2="846.86" xlink:href="#linear-gradient-40"/><linearGradient id="linear-gradient-49" x1="284.7" y1="1027.99" x2="33.96" y2="839.69" xlink:href="#linear-gradient-40"/><linearGradient id="linear-gradient-50" x1="308.79" y1="995.89" x2="58.06" y2="807.6" xlink:href="#linear-gradient-40"/><linearGradient id="linear-gradient-51" x1="203.2" y1="831.61" x2="71.4" y2="616.55" xlink:href="#linear-gradient-40"/><linearGradient id="linear-gradient-52" x1="321.14" y1="873.8" x2="150.69" y2="739.02" xlink:href="#linear-gradient-40"/><linearGradient id="linear-gradient-53" x1="368.03" y1="917.02" x2="117.3" y2="728.72" xlink:href="#linear-gradient-40"/><linearGradient id="linear-gradient-54" x1="370.96" y1="913.12" x2="120.22" y2="724.82" xlink:href="#linear-gradient-40"/><linearGradient id="linear-gradient-55" x1="349.99" y1="941.04" x2="99.26" y2="752.74" xlink:href="#linear-gradient-40"/><linearGradient id="linear-gradient-56" x1="308.88" y1="995.78" x2="58.15" y2="807.49" xlink:href="#linear-gradient-40"/><linearGradient id="linear-gradient-57" x1="305.05" y1="1000.88" x2="54.32" y2="812.58" xlink:href="#linear-gradient-40"/><linearGradient id="linear-gradient-58" x1="311.18" y1="992.72" x2="60.45" y2="804.42" xlink:href="#linear-gradient-40"/><linearGradient id="linear-gradient-59" x1="289.19" y1="1022" x2="38.46" y2="833.7" xlink:href="#linear-gradient-40"/><linearGradient id="linear-gradient-60" x1="300.6" y1="1006.81" x2="49.87" y2="818.51" xlink:href="#linear-gradient-40"/><linearGradient id="linear-gradient-61" x1="286.01" y1="1026.23" x2="35.28" y2="837.93" xlink:href="#linear-gradient-40"/><linearGradient id="linear-gradient-62" x1="308.24" y1="1033.34" x2="224.01" y2="981.47" xlink:href="#linear-gradient-40"/><linearGradient id="linear-gradient-63" x1="295.46" y1="1054.11" x2="211.22" y2="1002.24" xlink:href="#linear-gradient-40"/><linearGradient id="linear-gradient-64" x1="295.54" y1="1053.97" x2="211.3" y2="1002.1" xlink:href="#linear-gradient-40"/><linearGradient id="linear-gradient-65" x1="14.81" y1="282.42" x2="74.94" y2="333.95" gradientUnits="userSpaceOnUse"><stop offset="0.2" stop-color="#0090bb"/><stop offset="1" stop-color="#00aeef"/></linearGradient><linearGradient id="linear-gradient-66" x1="171.09" y1="192.91" x2="237.32" y2="192.91" xlink:href="#linear-gradient-40"/><linearGradient id="linear-gradient-67" x1="236" y1="88.56" x2="248" y2="88.56" xlink:href="#linear-gradient-3"/><linearGradient id="linear-gradient-68" x1="234.04" y1="94.72" x2="243.38" y2="94.72" xlink:href="#linear-gradient-3"/><linearGradient id="linear-gradient-69" x1="-5.75" y1="119.22" x2="89.39" y2="312.8" gradientUnits="userSpaceOnUse"><stop offset="0.08" stop-color="#231f20"/><stop offset="0.39" stop-color="#282425"/><stop offset="0.77" stop-color="#363335"/><stop offset="1" stop-color="#414042"/></linearGradient><linearGradient id="linear-gradient-70" x1="0.4" y1="183.35" x2="58.44" y2="183.35" xlink:href="#linear-gradient-3"/><linearGradient id="linear-gradient-71" x1="149.6" y1="77.51" x2="171.75" y2="77.51" gradientUnits="userSpaceOnUse"><stop offset="0" stop-color="#ed1c24"/><stop offset="0.09" stop-color="#c41d31"/><stop offset="0.19" stop-color="#9a1e3e"/><stop offset="0.3" stop-color="#762049"/><stop offset="0.41" stop-color="#592052"/><stop offset="0.53" stop-color="#422159"/><stop offset="0.66" stop-color="#32225e"/><stop offset="0.8" stop-color="#292261"/><stop offset="1" stop-color="#262262"/></linearGradient><linearGradient id="linear-gradient-72" x1="146.48" y1="75.63" x2="218.82" y2="75.63" gradientUnits="userSpaceOnUse"><stop offset="0" stop-color="#414042"/><stop offset="1" stop-color="#231f20"/></linearGradient><linearGradient id="linear-gradient-73" x1="181.82" y1="76.14" x2="214.03" y2="76.14" xlink:href="#linear-gradient-71"/></defs><g class="cls-1"><g id="Layer_2" data-name="Layer 2"><g id="Layer_9" data-name="Layer 9"><path class="cls-2" d="M210.89,5.69c.05,1.08.25.23.41-1.32C211,4.42,210.84,4.82,210.89,5.69Z"/><path class="cls-3" d="M210.89,5.69c.05,1.08.25.23.41-1.32C211,4.42,210.84,4.82,210.89,5.69Z"/><path class="cls-4" d="M235.26,135.44s0-21.55,1.1-22.81,10.38-2.36,12.74-12.58.16-19.66-4.87-22c0,0-5.92-1.44-6.41-.28s-6.94,1.49-7.44,4.79-.82,4.13-1.81,0,.16-12.06-1-18-2-15.69-2.32-14.7,1.49,7.11,0,8.1-.66,3.14-3.3-2.64-6.44-2.62-7.27-5.53-3.82-13-8.1-13-8.35-2.15-6.81,0-.61,7.76,5.33,12.55.17,4.79-1.9,3.63S197.68,49.5,194,37.28L180.12,37s.6,5.62,0,7.43-1.05,4.91-2.73,2.79-1.62-6.75-2.89-6.59-.67-5.28-4.44-2.31-7.07,5.95-10.7,8.1-5.32-.5-4.72,3,1.65,4.13-.12,7.43a19.58,19.58,0,0,0-2.06,7.06,21.66,21.66,0,0,0,.08,3.35,46.44,46.44,0,0,0,0,11.17c.78,5.19-.63,17.61,0,22S151,127,175,144.56c0,0,8.49,29.41,6.45,38.22,0,0,.63,2.51-1.26,3.14-.46.15-1,.33-1.57.54-1.47,6.19,1.91,7.46,1.91,7.46s18.72-1.1,19.6-1.1,17.4-5.07,17.4-5.07c21.58-3.74,39.72-21.33,39.72-21.33S235.73,158.56,235.26,135.44Z"/><path class="cls-5" d="M235.21,135.44c0-5.47,0-10.94.28-16.41.06-1.37.13-2.74.27-4.1a11.42,11.42,0,0,1,.35-2.05c.09-.39.49-.6.78-.75s.62-.29.94-.43a20.24,20.24,0,0,0,6.94-4.16,14.45,14.45,0,0,0,4-6.94,34.75,34.75,0,0,0,1.07-8.06,26.1,26.1,0,0,0-1.07-8A13.88,13.88,0,0,0,247,80.9a7.37,7.37,0,0,0-2.91-2.61l0,0a26.86,26.86,0,0,0-4.43-.7,5.4,5.4,0,0,0-1.07,0,1.71,1.71,0,0,0-.45.13c-.12.07-.06,0-.3.35a3.23,3.23,0,0,1-1.1.62c-.36.14-.73.26-1.09.38a12.44,12.44,0,0,0-4,1.83,2.76,2.76,0,0,0-1,1.7,19.37,19.37,0,0,1-.43,2.28,2.45,2.45,0,0,1-.12.31.81.81,0,0,1-.32.39.5.5,0,0,1-.46,0,.88.88,0,0,1-.22-.19,2.63,2.63,0,0,1-.18-.3,8.08,8.08,0,0,1-.4-1.13,20.5,20.5,0,0,1-.54-2.25,32.36,32.36,0,0,1-.3-4.59c0-3,.07-6.06-.14-9a33.8,33.8,0,0,0-.63-4.45c-.27-1.5-.51-3-.71-4.51-.43-3-.71-6.06-1.22-9l0-.18s-.07,0,.21.16a.39.39,0,0,0,.4-.11.21.21,0,0,0,.06-.08s0,0,0,.05a2.23,2.23,0,0,0,0,.45,10.61,10.61,0,0,0,.13,1.1l.32,2.26a16.19,16.19,0,0,1,.15,2.33,5,5,0,0,1-.18,1.23,1.68,1.68,0,0,1-.36.63,3,3,0,0,1-.27.26l-.18.14a7.52,7.52,0,0,0-.69.86.66.66,0,0,1-.62.24,1,1,0,0,1-.29-.14l-.14-.15a2.53,2.53,0,0,1-.36-.54c-.39-.69-.7-1.38-1-2.07a10.19,10.19,0,0,0-2.28-3.7,4.49,4.49,0,0,0-1.83-1c-.69-.21-1.43-.25-2.24-.51a2.09,2.09,0,0,1-1.08-.77,3.62,3.62,0,0,1-.48-1.16q-.31-1.08-.66-2.16a29.08,29.08,0,0,0-3.78-8.09c-.88-1.15-2-2.23-3.48-2.14a23.87,23.87,0,0,1-4.55-.64l-1.1-.23a2.88,2.88,0,0,0-1-.08s0,0,0,0a.37.37,0,0,0,.05.14c.06.14.16.27.26.45a3.6,3.6,0,0,1,.46,1.14c.33,1.55.29,3.05.61,4.51a11.3,11.3,0,0,0,1.63,4.09,14.91,14.91,0,0,0,3.1,3.2,10.26,10.26,0,0,1,1.6,1.69,2.56,2.56,0,0,1,.5,1.15,1.1,1.1,0,0,1-.16.7,1.34,1.34,0,0,1-.54.44,4.52,4.52,0,0,1-2.38.15,5.56,5.56,0,0,1-2.19-.83,11.29,11.29,0,0,1-3.36-3.13A24.44,24.44,0,0,1,197,45.86a59.23,59.23,0,0,1-3.21-8.53l.17.13-13.85-.35.16-.18c.14,1.36.24,2.72.28,4.09a11.07,11.07,0,0,1-.47,4.08,15.94,15.94,0,0,1-.63,2,1.93,1.93,0,0,1-.67.9,1,1,0,0,1-.32.11,1.77,1.77,0,0,1-.32,0l-.27-.13-.22-.18A7.82,7.82,0,0,1,175.84,44c-.18-.66-.33-1.32-.53-2a4.65,4.65,0,0,0-.35-.91.83.83,0,0,0-.26-.29s-.1,0-.14,0-.24,0-.34,0c-.46-.25-.52-.63-.67-.94l-.35-1c-.24-.6-.59-1.22-1.17-1.25a2.94,2.94,0,0,0-1.69.74l-1.59,1.27-3.16,2.58a46.28,46.28,0,0,1-6.72,4.72,7,7,0,0,1-2,.62,9.41,9.41,0,0,1-1.05.07,2,2,0,0,0-.86.12c-.15.06-.17.39-.16.7a6.81,6.81,0,0,0,.13,1c.11.66.27,1.32.44,2a10.48,10.48,0,0,1,.4,2,5,5,0,0,1-.36,2.11,17.94,17.94,0,0,1-.87,1.87,18.6,18.6,0,0,0-.78,1.85,20.07,20.07,0,0,0-.89,3.92c0,.31-.1.71-.13,1s0,.65,0,1c0,.67.07,1.35.13,2v.06a45.53,45.53,0,0,0-.05,10.5,32.84,32.84,0,0,1,.34,5.33c0,1.78-.05,3.55-.11,5.32-.11,3.53-.34,7.08-.2,10.57,0,.43.07.86.11,1.28s.1.91.12,1.36l.14,2.64c.1,1.76.26,3.51.5,5.25a48.06,48.06,0,0,0,7.15,19.58,55.93,55.93,0,0,0,14.45,15.13l.13.09,0,.16c1.77,6.26,3.34,12.57,4.67,18.95.64,3.19,1.23,6.4,1.66,9.63.18,1.63.36,3.25.42,4.9a22.06,22.06,0,0,1-.28,5v-.23a4.81,4.81,0,0,1,.09,1.51,2.8,2.8,0,0,1-.6,1.49,2.44,2.44,0,0,1-.65.55l-.39.16-.32.12-1.27.43.32-.35a16.66,16.66,0,0,0-.32,2,8.47,8.47,0,0,0,.06,1.95,4.9,4.9,0,0,0,.61,1.77,3.22,3.22,0,0,0,1.25,1.19l-.2,0,18.87-1a6,6,0,0,0,1.07-.11c.38-.08.75-.17,1.13-.28l2.27-.62,4.53-1.31,9-2.69h.05a63.49,63.49,0,0,0,10.91-3,77.65,77.65,0,0,0,10.29-4.81,97.92,97.92,0,0,0,9.61-6.09,92.44,92.44,0,0,0,8.84-7.16l.07.32a38.4,38.4,0,0,1-8.71-5.1,35.85,35.85,0,0,1-7-7.21,37,37,0,0,1-2.69-4.27,33.12,33.12,0,0,1-1.9-4.67A35.49,35.49,0,0,1,235.21,135.44Zm.1,0a35,35,0,0,0,1.74,9.85,32.26,32.26,0,0,0,1.92,4.63,35.24,35.24,0,0,0,2.7,4.23,35.82,35.82,0,0,0,7,7.1,38.07,38.07,0,0,0,8.65,5l.29.11-.22.21a92.89,92.89,0,0,1-8.84,7.26A101,101,0,0,1,239,180,78.3,78.3,0,0,1,228.64,185a64.33,64.33,0,0,1-11,3.17h0l-9,2.77-4.52,1.35-2.28.65c-.38.11-.77.21-1.16.3a7.1,7.1,0,0,1-1.27.14l-18.82,1.07h-.13l-.08,0a4,4,0,0,1-1.74-1.6,5.76,5.76,0,0,1-.74-2.13,9.38,9.38,0,0,1-.07-2.18,16.43,16.43,0,0,1,.34-2.12l.06-.27.26-.08,1.28-.44.31-.11.24-.1a1.6,1.6,0,0,0,.37-.31,1.91,1.91,0,0,0,.38-1,3.83,3.83,0,0,0-.07-1.17l0-.1,0-.12a21.2,21.2,0,0,0,.26-4.73c0-1.6-.23-3.2-.41-4.81-.43-3.2-1-6.38-1.64-9.56-1.32-6.34-2.88-12.65-4.63-18.88l.17.25a56.86,56.86,0,0,1-14.66-15.4,48.82,48.82,0,0,1-7.27-19.95c-.25-1.77-.39-3.54-.49-5.32l-.12-2.65c0-.44-.07-.84-.1-1.28S152,99.43,152,99c-.13-3.58.13-7.11.26-10.64a60.65,60.65,0,0,0-.15-10.53,46.43,46.43,0,0,1,.11-10.67v.07c-.05-.68-.1-1.37-.12-2,0-.35,0-.69,0-1.06s.09-.67.13-1a19.92,19.92,0,0,1,.95-4,16.82,16.82,0,0,1,.81-1.91,17.39,17.39,0,0,0,.86-1.81,4.46,4.46,0,0,0,.34-1.89,9.74,9.74,0,0,0-.37-1.94c-.17-.66-.33-1.34-.45-2a8.7,8.7,0,0,1-.12-1,2.21,2.21,0,0,1,0-.57.85.85,0,0,1,.37-.59,2.44,2.44,0,0,1,1.13-.19,8.09,8.09,0,0,0,1-.07,6.53,6.53,0,0,0,1.87-.57,45.19,45.19,0,0,0,6.64-4.63l3.17-2.56L170.08,38a3.14,3.14,0,0,1,2-.81,1.41,1.41,0,0,1,1,.57,3.64,3.64,0,0,1,.51,1l.35,1c.11.29.27.64.44.71l.17,0a.63.63,0,0,1,.34.08,1.12,1.12,0,0,1,.42.45,4.85,4.85,0,0,1,.39,1c.2.66.34,1.33.52,2a7.44,7.44,0,0,0,1.68,3.54c.22.22.5.35.7.21a1.68,1.68,0,0,0,.52-.72,17.21,17.21,0,0,0,.62-1.92,10.4,10.4,0,0,0,.47-4c0-1.36-.12-2.71-.25-4.06l0-.18h.18L194,37.1h.12l0,.12a59.83,59.83,0,0,0,3.23,8.45c1.34,2.66,3,5.35,5.56,6.86a5.19,5.19,0,0,0,2,.75,4,4,0,0,0,2.1-.12.61.61,0,0,0,.41-.65,2.11,2.11,0,0,0-.41-.91A10.43,10.43,0,0,0,205.53,50a15.2,15.2,0,0,1-3.21-3.29,11.52,11.52,0,0,1-1.74-4.28c-.33-1.5-.31-3.07-.63-4.48a3.1,3.1,0,0,0-.38-.95,4.94,4.94,0,0,1-.32-.53.87.87,0,0,1-.1-.4.53.53,0,0,1,.34-.49,2.88,2.88,0,0,1,1.29,0l1.12.22a22.48,22.48,0,0,0,4.44.61,4,4,0,0,1,1.21.16,4.36,4.36,0,0,1,1.1.55,7.56,7.56,0,0,1,1.67,1.67,29.48,29.48,0,0,1,3.93,8.27c.24.72.47,1.45.68,2.18s.45,1.25,1.12,1.44,1.43.26,2.19.48a5.27,5.27,0,0,1,2.13,1.15,11,11,0,0,1,2.49,3.94c.32.68.64,1.37,1,2a3.93,3.93,0,0,0,.27.4l0,.06s0,0,0,0-.17.05-.13,0a6.74,6.74,0,0,1,.74-.91l.26-.21c.1-.07.08-.09.13-.13a1,1,0,0,0,.19-.35,4,4,0,0,0,.13-1,15,15,0,0,0-.15-2.2L225,51.7c-.06-.38-.11-.76-.14-1.16a2.61,2.61,0,0,1,0-.68,1.12,1.12,0,0,1,.06-.23.56.56,0,0,1,.09-.14.46.46,0,0,1,.46-.13c.33.16.25.22.3.27a1.66,1.66,0,0,1,.12.36c.57,3.06.84,6,1.29,9,.21,1.49.42,3,.68,4.47a34.32,34.32,0,0,1,.6,4.55c.19,3,.07,6.09.08,9.11a33.12,33.12,0,0,0,.25,4.47c.13.72.3,1.46.5,2.17a8.08,8.08,0,0,0,.36,1,1,1,0,0,0,.1.18s0,0,0,0a.25.25,0,0,0-.19,0c-.08.06,0,0,0,0a1.55,1.55,0,0,0,.08-.23,18.11,18.11,0,0,0,.43-2.17,3.34,3.34,0,0,1,1.27-2.1,13.07,13.07,0,0,1,4.22-1.93c.36-.12.72-.23,1.06-.36a2.69,2.69,0,0,0,.88-.46l0,0s0,0,0,0l.06-.11a1.07,1.07,0,0,1,.33-.28,2,2,0,0,1,.64-.18,6,6,0,0,1,1.19,0,28.53,28.53,0,0,1,4.53.74h.05a7.94,7.94,0,0,1,3.12,2.82,14.72,14.72,0,0,1,1.76,3.77,26.34,26.34,0,0,1,1,8.18,35.06,35.06,0,0,1-1.15,8.15,14.91,14.91,0,0,1-4.11,7.08,20.83,20.83,0,0,1-7.07,4.17c-.31.13-.63.26-.92.41s-.59.31-.66.61a10.64,10.64,0,0,0-.35,2c-.15,1.36-.23,2.72-.3,4.09C235.43,124.5,235.35,130,235.31,135.44Z"/><path class="cls-6" d="M286.79,282.73c-15.61-2.15-27.17-2.89-34.11,0s-13.05,5.7-13.87,6.52-1.49,4.71-2,7.6-6.36,23.29-4.55,28.33l-.74,2.14S206,337.65,197.93,344.26,154.57,357,154.57,357s-20.15,6.86-25.27,5.87L128.06,352l-3.22-.08s2.31-6.53,1.48-11.4S122,307.26,122,305.85s-1.74-11.48-1.74-11.48-13.29-10.16-26.67-5.78c0,0-7.62,3.19-8.26,5a23.77,23.77,0,0,0-1.47,6.17L81.14,304s-5.78-8.29-12.61-19.18l0,0A17.11,17.11,0,0,1,63,279.64a14.53,14.53,0,0,1,1,3.15c.17.91-.19,2.26-1.09,2a1.39,1.39,0,0,1-.7-.5q-2.2-2.34-4.4-4.7a6.75,6.75,0,0,1-1.39-1.86,8.11,8.11,0,0,0-.8-1.91c-.68-.85-2-.95-2.74-1.72s-.78-1.84-1.09-2.8a5.69,5.69,0,0,0-4.8-3.87,2.08,2.08,0,0,0,.52,2.33,11.74,11.74,0,0,1,1.71,1.89c.67,1.19.34,2.68.61,4,.33,1.68,1.55,3,2.4,4.5s1.26,3.54.09,4.79c-2.07,0-3.07-2.5-4.68-3.8a29.55,29.55,0,0,0-2.73-1.6c-3.59-2.27-4.65-7.29-8.21-9.63a2.45,2.45,0,0,0-1.71-.5c-1.16.22-1.56,1.69-1.49,2.87s.34,2.49-.34,3.46a.82.82,0,0,1-.38.31c-.37.1-.68-.28-.88-.61L27,267.27c-1.39.89-1.75,2.73-1.82,4.37s0,3.4-.94,4.76l-.17-.2a150.57,150.57,0,0,1,5.85,21.22c4.56,24.07,19.34,47.81,25.63,59.45S66,377.63,68.24,378.73s12,7.55,12,7.55l11,.94a31.69,31.69,0,0,0,2.26,10.54c2.2,5.35,5.66,16.51,13.52,16.2,0,0,10.89-6.53,12-8.51s6.28-6.36,8.34-6.36,25.44-1.65,41.71,0,48.81,1.82,62-4.29c0,0,13.22-3.39,19.08-3.64s14-5.28,14-5.28,12.14-6.86,16-16.52c0,0,12.11-32.73,15.64-36s5.57-11.06,5.57-11.06L306,311.58l2.81-13.74A30.29,30.29,0,0,0,286.79,282.73Z"/><path class="cls-5" d="M286.78,282.78a167.08,167.08,0,0,0-21.53-1.85,51.05,51.05,0,0,0-5.39.26,27.67,27.67,0,0,0-5.28,1,49.87,49.87,0,0,0-5,2q-2.48,1.06-4.94,2.19c-1.63.76-3.27,1.51-4.83,2.39a3.07,3.07,0,0,0-1,.77,5.18,5.18,0,0,0-.52,1.2c-.26.85-.45,1.73-.63,2.61-.37,1.76-.58,3.56-1,5.32l-1.28,5.25c-.84,3.51-1.63,7-2.27,10.57-.3,1.77-.59,3.55-.75,5.33a14.57,14.57,0,0,0,.2,5.28l0,.08,0,.07-.74,2.15,0,.1-.1,0c-6.4,2.65-12.73,5.46-18.95,8.5-3.1,1.53-6.18,3.11-9.16,4.86a47.86,47.86,0,0,0-4.33,2.81l-1,.77-1.09.75a16.29,16.29,0,0,1-2.29,1.31,68.42,68.42,0,0,1-9.75,3.72q-5,1.53-10,2.78c-6.73,1.68-13.52,3.1-20.35,4.35l.07,0q-3.11,1-6.22,2c-2.08.63-4.17,1.25-6.28,1.81s-4.22,1.09-6.36,1.5c-1.08.2-2.16.41-3.26.52a13.06,13.06,0,0,1-3.37.05l-.31,0,0-.33-1.22-10.82.4.36-3.22-.09h-.55l.18-.53a32.7,32.7,0,0,0,1.54-7,17.56,17.56,0,0,0,0-3.55c-.15-1.16-.37-2.39-.52-3.58-.66-4.81-1.27-9.62-1.88-14.43s-1.18-9.62-1.73-14.44c-.33-4.86-1.22-9.59-2-14.38l.12.19a39,39,0,0,0-6-3.53,37.83,37.83,0,0,0-6.58-2.4,28.28,28.28,0,0,0-6.91-.89,23.62,23.62,0,0,0-6.88,1.05h0c-1.23.52-2.45,1.09-3.64,1.69a24,24,0,0,0-3.43,2,5.41,5.41,0,0,0-.71.63,2.06,2.06,0,0,0-.46.79,18.14,18.14,0,0,0-.62,1.89,25,25,0,0,0-.73,3.92v.06l0,.05-2.68,4.24-.18.3-.2-.29Q74.44,294.7,68.37,285l.3,0,0,0-.12.1-.12-.07a17.12,17.12,0,0,1-5.49-5.32l.31-.17a12.19,12.19,0,0,1,1,3.74,2.87,2.87,0,0,1-.2,1,1.09,1.09,0,0,1-.81.71,1.13,1.13,0,0,1-1-.42l-.66-.7L59,281.11l-1.3-1.4a7.81,7.81,0,0,1-1.2-1.52,16.77,16.77,0,0,1-.69-1.79,2.42,2.42,0,0,0-1.32-1.17,5.68,5.68,0,0,1-1.69-1,3.9,3.9,0,0,1-.84-1.78,7.88,7.88,0,0,0-.57-1.78,5.35,5.35,0,0,0-1.09-1.49A5.48,5.48,0,0,0,47,267.65l.16-.08a1.9,1.9,0,0,0,.44,2.05,22.22,22.22,0,0,1,1.67,1.78,4.53,4.53,0,0,1,.62,2.42,8.77,8.77,0,0,0,.27,2.36c.48,1.51,1.6,2.73,2.39,4.18a6.24,6.24,0,0,1,.71,2.39,3.12,3.12,0,0,1-.77,2.4l-.06.07h-.08A3.57,3.57,0,0,1,49.9,284c-.63-.64-1.15-1.36-1.75-2-1.11-1.33-3-1.66-4.34-2.93-2.74-2.41-3.83-6-6.48-8.3a3.45,3.45,0,0,0-2.16-1.05c-.78,0-1.26.86-1.38,1.67a12.6,12.6,0,0,0,.06,2.59,4.2,4.2,0,0,1-.19,1.39,2.78,2.78,0,0,1-.33.64.84.84,0,0,1-.79.39c-.65-.19-.8-.72-1-1.06l-.68-1.13-1.36-2.26-2.73-4.53.35.08a3.41,3.41,0,0,0-1.31,1.83,9.09,9.09,0,0,0-.38,2.34c0,.81,0,1.64-.14,2.48a5.53,5.53,0,0,1-.84,2.42l-.19.27-.22-.24-.18-.19.45-.27c1.74,5,3.3,10,4.56,15.17.66,2.56,1.13,5.18,1.7,7.74s1.21,5.12,1.91,7.65a171.5,171.5,0,0,0,12,29.16c4.76,9.39,10.29,18.4,15.12,27.79l3.71,7a51.43,51.43,0,0,0,4.06,6.68A5.83,5.83,0,0,0,68,378a2.92,2.92,0,0,0,.72.49c.6.32,1.17.66,1.74,1,1.13.69,2.24,1.39,3.36,2.1q3.33,2.15,6.64,4.32l-.22-.08,11,.95.4,0,0,.42a31.62,31.62,0,0,0,1.4,8c.39,1.31.93,2.56,1.45,3.87s1,2.58,1.56,3.84a29.19,29.19,0,0,0,4.09,7.07,12.1,12.1,0,0,0,3,2.56,8.1,8.1,0,0,0,3.77.88l-.22.07c2.3-1.4,4.59-2.84,6.82-4.35,1.11-.75,2.21-1.53,3.26-2.35a15.28,15.28,0,0,0,1.45-1.29l.24-.33.3-.47c.21-.29.43-.57.66-.83a23.72,23.72,0,0,1,3-2.82,15.26,15.26,0,0,1,3.55-2.21,3.29,3.29,0,0,1,1.13-.28l1-.05,2-.09,4.05-.19c5.41-.24,10.82-.41,16.24-.42s10.84.08,16.25.53a242.87,242.87,0,0,0,32.36,1c5.39-.19,10.78-.57,16.12-1.26a59.53,59.53,0,0,0,15.59-3.78l0,0h0c4.46-1.1,8.92-2.11,13.45-2.9,1.13-.19,2.27-.36,3.42-.5s2.33-.18,3.41-.29a27.15,27.15,0,0,0,6.47-1.92,51.87,51.87,0,0,0,11.72-6.88,36.81,36.81,0,0,0,9.17-9.95,21.9,21.9,0,0,0,1.48-3l1.22-3.21,2.48-6.4c1.67-4.26,3.38-8.51,5.17-12.72a100,100,0,0,1,6-12.39c3.3-3.27,5.05-7.58,6.34-11.94v0h0l4.74-10.69v0l2.83-13.73v.07a28.23,28.23,0,0,0-4-5.57,29.44,29.44,0,0,0-5.18-4.54,27.53,27.53,0,0,0-6.08-3.24A30.65,30.65,0,0,0,286.78,282.78Zm0-.1a30.59,30.59,0,0,1,6.7,1.74,27.77,27.77,0,0,1,6.12,3.23,29.76,29.76,0,0,1,5.23,4.54,28.53,28.53,0,0,1,4.09,5.6l0,0v0l-2.78,13.75h0v0l-4.69,10.7v0a39.44,39.44,0,0,1-2.41,6.45,19.8,19.8,0,0,1-1.74,3c-.65,1-1.56,1.76-2.18,2.64a99.74,99.74,0,0,0-5.89,12.34c-1.76,4.22-3.45,8.47-5.1,12.74l-2.45,6.41-1.2,3.21a22,22,0,0,1-1.5,3.13,37.38,37.38,0,0,1-9.27,10.18,52.31,52.31,0,0,1-11.85,7,27.5,27.5,0,0,1-6.65,2c-1.19.13-2.29.16-3.42.31s-2.25.32-3.37.52c-4.49.8-8.95,1.83-13.37,3l.08,0a60.13,60.13,0,0,1-15.83,3.94c-5.38.74-10.8,1.08-16.22,1.28a242.54,242.54,0,0,1-32.46-1c-5.37-.44-10.78-.53-16.18-.53s-10.8.17-16.2.4l-4,.19-2,.1c-.32,0-.71,0-1,0a3.1,3.1,0,0,0-.82.21,15,15,0,0,0-3.31,2.07,22.56,22.56,0,0,0-2.9,2.7,8.32,8.32,0,0,0-.6.76l-.25.38-.36.5a15.61,15.61,0,0,1-1.57,1.4c-1.08.85-2.2,1.63-3.32,2.39-2.25,1.52-4.54,3-6.87,4.37l-.11.07H107a8.84,8.84,0,0,1-4.25-1,12.65,12.65,0,0,1-3.3-2.78,29.19,29.19,0,0,1-4.23-7.3c-.57-1.28-1.07-2.58-1.58-3.87s-1.06-2.58-1.47-3.93a32.9,32.9,0,0,1-1.43-8.32l.42.45-11-.94H80l-.1-.07-6.62-4.31c-1.11-.71-2.23-1.41-3.35-2.1-.56-.33-1.12-.68-1.68-1a4.09,4.09,0,0,1-.91-.62,5.69,5.69,0,0,1-.71-.78,51.18,51.18,0,0,1-4.16-6.82l-3.7-7c-4.78-9.4-10.27-18.41-15-27.86a172.25,172.25,0,0,1-12-29.33c-.7-2.55-1.38-5.11-1.89-7.7s-1-5.17-1.67-7.73c-1.23-5.12-2.77-10.16-4.49-15.14l-.44-1.24.88,1,.17.19-.41,0a4.9,4.9,0,0,0,.76-2.18c.1-.79.11-1.61.15-2.43a8.89,8.89,0,0,1,.41-2.49,3.89,3.89,0,0,1,1.52-2.08l.22-.14.13.22,2.72,4.54,1.35,2.26.68,1.14c.22.37.46.78.71.83s.47-.37.6-.72a3.79,3.79,0,0,0,.16-1.22,12.54,12.54,0,0,1-.05-2.68,3.18,3.18,0,0,1,.53-1.31,1.75,1.75,0,0,1,1.27-.74,3.87,3.87,0,0,1,2.49,1.17c2.77,2.4,3.85,6,6.47,8.32,1.22,1.2,3.13,1.54,4.36,3,.61.66,1.13,1.38,1.73,2a3.14,3.14,0,0,0,2.14,1.13l-.14.07a2.75,2.75,0,0,0,.66-2.11,5.74,5.74,0,0,0-.66-2.24c-.74-1.4-1.89-2.64-2.4-4.26s0-3.37-.83-4.69c-.43-.64-1.11-1.11-1.65-1.76a3.08,3.08,0,0,1-.6-1.13,1.69,1.69,0,0,1,.14-1.3l.06-.1H47A5.84,5.84,0,0,1,50.49,269a5.73,5.73,0,0,1,1.15,1.57,8.46,8.46,0,0,1,.59,1.85A3.46,3.46,0,0,0,53,274a5.07,5.07,0,0,0,1.59.92A2.69,2.69,0,0,1,56,276.27c.28.61.37,1.25.68,1.77a7.35,7.35,0,0,0,1.17,1.46l1.3,1.39,2.62,2.79c.44.41.84,1.09,1.35,1a.78.78,0,0,0,.54-.52,2.48,2.48,0,0,0,.16-.86,11.72,11.72,0,0,0-1-3.6l.31-.16a16.81,16.81,0,0,0,5.4,5.18l-.24,0,0,0,.18-.17.12.2q6.12,9.69,12.64,19.15h-.39l2.67-4.25,0,.1a26,26,0,0,1,.73-4c.18-.65.39-1.31.63-1.94a2.73,2.73,0,0,1,.55-.94,5.83,5.83,0,0,1,.79-.71,24.78,24.78,0,0,1,3.49-2.09c1.21-.62,2.43-1.19,3.67-1.72h0a24.29,24.29,0,0,1,7-1.1,28.54,28.54,0,0,1,7.07.89,38.69,38.69,0,0,1,6.69,2.41,39.42,39.42,0,0,1,6.15,3.58l.1.07,0,.13q.63,3.58,1.19,7.18c.19,1.2.38,2.39.51,3.61,0,.29,0,.66.07.93s0,.59.09.89l.19,1.8c.56,4.81,1.17,9.62,1.78,14.43s1.24,9.61,1.92,14.41c.16,1.21.37,2.36.53,3.61a19.16,19.16,0,0,1,0,3.71,34,34,0,0,1-1.57,7.18l-.37-.54,3.22.08h.36l0,.35,1.25,10.82-.34-.37a13.1,13.1,0,0,0,3.12-.06c1.06-.12,2.12-.32,3.18-.52,2.11-.42,4.21-1,6.3-1.52,4.18-1.13,8.34-2.38,12.45-3.75h.07c6.8-1.22,13.59-2.61,20.31-4.25q5.06-1.21,10-2.72a67.53,67.53,0,0,0,9.66-3.64,15.23,15.23,0,0,0,2.23-1.26l1-.71,1.05-.78a49.82,49.82,0,0,1,4.4-2.83c3-1.74,6.1-3.32,9.22-4.84,6.25-3,12.6-5.79,19-8.42l-.13.14.75-2.15v.16a14.7,14.7,0,0,1-.2-5.48c.17-1.8.46-3.59.78-5.37.65-3.55,1.46-7.07,2.31-10.57l1.3-5.26c.46-1.73.67-3.52,1.05-5.29a26.8,26.8,0,0,1,.66-2.64,5.32,5.32,0,0,1,.55-1.28,3.5,3.5,0,0,1,1.12-.86c1.59-.88,3.23-1.63,4.87-2.38s3.29-1.47,5-2.18a53.39,53.39,0,0,1,5-2,27.66,27.66,0,0,1,5.33-1,51.53,51.53,0,0,1,5.41-.24A167.36,167.36,0,0,1,286.8,282.68Z"/><path class="cls-7" d="M78.92,1036.42c32.56-4.46,60.66-7.84,72.31-7.52s18.45-5.05,18.45-5.05-1.57-19.35-3.77-24.06-3.94-9.13-3.94-9.13-.39-1.1-.87-2.72c-2.39,1.42-2.57,3.88-3.89,8.19s-4.9,6.85-7.13,8-10.22,2.65-19,2.65-21.85-4.1-26.23-6.89c-2.76-1.76-11.61-3.24-17.77-4.09a4.43,4.43,0,0,1,.8,3.18c0,.79-4.87,2.83-4.87,2.83l.62,2.52L56,1019.6s-4.09-3-8.34-1.73-33.66,3.93-31.3,12.9C16.34,1030.77,46.36,1040.87,78.92,1036.42Z"/><path class="cls-7" d="M268.44,1064l21-17.71h0c-.71-7.94-2.21-15.8-5.35-18.15-2.74.45-7.83.93-16.72.64-15.52-.49-24.92-7.22-37-8.53a31,31,0,0,0-15.7,2.9,7.52,7.52,0,0,1-.19,3.81c-1.41,4.25-5,8.18-10.06,13.53s-16.67,5.19-21.71,10.22-6,15.89-6,15.89S247.44,1081.74,268.44,1064Z"/><path class="cls-8" d="M151.23,1028.9c-11.65-.32-39.75,3.06-72.31,7.52s-62.58-5.65-62.58-5.65l-1.88.94.15,17.93s4.25,8.65,35.55,8,59.76-7.23,79.57-6.92,37.43-2.2,39.32-3.3c1.6-.94,2.19-17.5,2.33-22.49a1.15,1.15,0,0,0-1.36-1.16l-.34.06S162.88,1029.22,151.23,1028.9Z"/><path class="cls-9" d="M289.45,1046.32l-21,17.71c-20.94,17.66-91.26,2.69-91.68,2.6,0,0,0,0,0,0h-.69a2,2,0,0,0-2,2v19.19a.07.07,0,0,0,.07.07c2.39.26,73.89,7.94,85.49,3.14s29.73-24.48,30.34-25.14a.06.06,0,0,0,0,0,182.67,182.67,0,0,0-.54-19.5Z"/><path class="cls-10" d="M267.35,483.09l.34.59Z"/><path class="cls-11" d="M267.69,483.68c.2.33.38.65.56,1Z"/><path class="cls-12" d="M268.25,484.64l.61,1.05Z"/><path class="cls-13" d="M267.12,482.68l.23.41Z"/><path class="cls-14" d="M265.26,479.49l.79,1.36Z"/><path class="cls-15" d="M266.05,480.85l1.07,1.83C266.75,482.06,266.39,481.43,266.05,480.85Z"/><path class="cls-16" d="M268.86,485.69l.15.25Z"/><path class="cls-17" d="M264.28,477.79l.66,1.14Z"/><path class="cls-18" d="M264.94,478.93l.32.56Z"/><path class="cls-19" d="M264.26,477.76l0,0Z"/><path class="cls-20" d="M264.26,477.76l0,0,.66,1.14.32.56.79,1.36c.34.58.7,1.21,1.07,1.83l.23.41.34.59.56,1,.61,1.05.15.25.15.27.21.35.13.24.17.28.09.17,0,.06h0l0-.06-.09-.17-.17-.28-.13-.24-.21-.35-.15-.27-.15-.25-.61-1.05c-.18-.31-.36-.63-.56-1l-.34-.59-.23-.41-1.07-1.83-.79-1.36-.32-.56-.66-1.14,0,0c-12.49-21.54-65.91-25.87-65.91-25.87l-95.87-9.66-2-.19c0,.23,0,.46,0,.7-.15,4.09-1.26,7.71-3.61,10.38S87.43,467,85.23,471.84s-12.11,8.8-6,37c0,0,2.67,33.19.79,42.94S77.36,709.47,77.68,720s-3.15,37.58,5.82,53.62,9.43,29.26,9.12,33.66,4.25,44.51,7.08,55.2-3.46,49.38-1.42,54.89,2,7.39.63,12.26-4.09,19.82-.47,23.75-5.19,6.61-6.61,11.17-.78,12-2,14.94-4.72,5.19-2.2,7.08,2.83,2.67,1.73,4.71-3.78,3.31-2.52,4.25a2.68,2.68,0,0,1,.3.28c6.16.85,15,2.33,17.77,4.09,4.38,2.79,17.48,6.89,26.23,6.89s16.76-1.48,19-2.65,5.81-3.7,7.13-8,1.5-6.77,3.89-8.19c-1.22-4.12-3-11.54.09-12.22,4.24-.94,17.93-7.7,14-20.6s-11-9-8.34-19.66,5.35-34.75,5.82-41.36-4.25-100.65-2.52-104.9-3.77-22.64-1.57-29.25,5-30,2.36-38.53,9.75-3.62,8-20.29-4.09-11.32-4.09-16.2,3.3-26.1,4.56-27.68,4.56,18.25,6.76,25.48,11,31.93,12,36.8,3.61,45.14,7.07,55.83-3.61,22.81,7.87,39.32c0,0-.79,32.8,5.82,55.09s8.8,30.94,3.46,45.41-16.67,25.32-6.29,40.41,10.06,16,5.18,22.18-14.15,18.71-11.32,29.88c2,7.92,4.17,12.19,4.75,15.53a31,31,0,0,1,15.7-2.9c12.07,1.31,21.47,8,37,8.53,8.89.29,14-.19,16.72-.64l-.08-.08,1.73-2.35s1.25-28.47-1.89-30.67,5.94-5.66,6.19-11.17-8.87-22.17-6.51-27.36,15.26-15.1,15.73-26.11-7.86-20-8.34-25.95-3.3-34.44-.94-39.32-3.62-66.68-1.57-69.82-13.05-54.1-9.59-57.56,5.5-51.59.47-63.23-10.07-52.37-5.82-59-2.05-37,1.57-40.73,8.65-30.51,5.19-42.15S287,517.13,284,508.32c-2.13-6.25-6.06-14.79-8.4-21h0Z"/><path class="cls-21" d="M264.27,477.77l3,5.21,1.51,2.62.76,1.3.19.33.05.08c0,.08,0,0-.05,0l-.1-.16-.38-.65-3-5.23c-1-1.74-2-3.51-3.12-5.17a33.23,33.23,0,0,0-8.82-8.14,64.27,64.27,0,0,0-10.68-5.6,132.18,132.18,0,0,0-23.1-7,198.55,198.55,0,0,0-23.88-3.6l-96.18-9.67.06,0a18.47,18.47,0,0,1-2,8.84,12.84,12.84,0,0,1-1.27,1.9c-.5.59-1,1.17-1.43,1.78-.9,1.23-1.76,2.49-2.6,3.76q-2.51,3.81-4.82,7.75c-.76,1.32-1.51,2.65-2.21,4l-1,2A13,13,0,0,1,83.89,474a27.76,27.76,0,0,0-4.76,7.72,28.32,28.32,0,0,0-1.7,8.92l-.07,1.14V493l0,2.28c.12,1.52.22,3,.39,4.55s.4,3,.66,4.52l.87,4.48h0c.78,10.35,1.4,20.71,1.46,31.09,0,2.6,0,5.19-.2,7.79l-.16,1.94-.27,1.93c-.14,1.29-.28,2.57-.39,3.86-.29,5.18-.45,10.37-.61,15.55-.52,20.75-.77,41.5-1,62.25s-.35,41.51-.41,62.26l0,15.57c0,2.59,0,5.18,0,7.78s0,5.19-.07,7.78c-.37,10.36-.72,20.79.87,31A50.22,50.22,0,0,0,83,772.45c.56,1.17,1.19,2.3,1.8,3.45s1.14,2.34,1.71,3.5c1,2.38,2.06,4.77,2.87,7.24a62.88,62.88,0,0,1,3.23,15.21,39,39,0,0,1,.14,3.9,35.87,35.87,0,0,0,0,3.88c.15,2.58.39,5.17.63,7.75q1.55,15.48,3.79,30.89c.79,5.13,1.58,10.25,2.84,15.3a47,47,0,0,1,.5,7.77c0,2.6-.11,5.19-.24,7.78-.55,10.37-1.77,20.68-2.27,31-.06,1.29-.08,2.59-.06,3.88a10.61,10.61,0,0,0,.58,3.8c.87,2.42,1.7,5,1.37,7.62s-1.29,5-1.74,7.58a76.61,76.61,0,0,0-1.2,7.68,40.26,40.26,0,0,0-.13,7.76,11.62,11.62,0,0,0,.93,3.73,7.62,7.62,0,0,0,1.09,1.59,2.44,2.44,0,0,1,.48,1.88,4,4,0,0,1-.91,1.73A12.08,12.08,0,0,1,97,958.81c-1,.87-2,1.67-2.91,2.57a8.22,8.22,0,0,0-2.21,3.12,20.45,20.45,0,0,0-.75,3.8c-.3,2.58-.36,5.17-.62,7.76a11.49,11.49,0,0,1-.86,3.79,26.59,26.59,0,0,1-2.13,3.27,4.23,4.23,0,0,0-.78,1.73,1.71,1.71,0,0,0,.77,1.61A17.6,17.6,0,0,1,89,987.71a2.67,2.67,0,0,1,.94,1.7,4,4,0,0,1-.59,1.87,7.15,7.15,0,0,1-1.17,1.56c-.44.48-.93.91-1.34,1.41a1.15,1.15,0,0,0-.33.83c0,.29.37.45.59.7l0,0c3.51.49,7,1,10.5,1.78a48.35,48.35,0,0,1,5.16,1.36c1.72.54,3.14,1.68,4.78,2.34a66,66,0,0,0,10.06,3.45,64.15,64.15,0,0,0,10.46,1.91,41,41,0,0,0,5.32.11c1.77-.05,3.54-.15,5.31-.32s3.53-.38,5.28-.68a34.06,34.06,0,0,0,5.17-1.22,14.28,14.28,0,0,0,4.43-2.86,12.66,12.66,0,0,0,3.11-4.25,49.72,49.72,0,0,0,1.57-5.08,12.36,12.36,0,0,1,1-2.49,4.9,4.9,0,0,1,1.85-1.9l0,.05a37.19,37.19,0,0,1-1.58-7.81,6,6,0,0,1,.72-3.86,3.33,3.33,0,0,1,1.79-.83,18.16,18.16,0,0,0,1.86-.7,24,24,0,0,0,6.67-4.25,16.31,16.31,0,0,0,4.52-6.43,13.51,13.51,0,0,0,.37-7.81,23.55,23.55,0,0,0-3-7.3,19,19,0,0,0-2.49-3.1,22.64,22.64,0,0,1-2.68-2.94,6.12,6.12,0,0,1-1-3.82,16.43,16.43,0,0,1,.22-2l.41-2c4.16-20.8,7-42,5.18-63.27-.77-21.23-1.68-42.45-2.19-63.69-.11-5.31-.24-10.62-.08-15.93,0-.66.05-1.33.12-2a11.23,11.23,0,0,1,.4-1.95,17.48,17.48,0,0,0,0-4c-.23-2.64-.65-5.26-1-7.89s-.79-5.25-1.05-7.9a26.49,26.49,0,0,1,.11-8,63,63,0,0,0,1.74-7.76c.43-2.62.81-5.25,1.08-7.89s.51-5.28.64-7.93.19-5.31.09-8a31,31,0,0,0-1.07-7.85,4.83,4.83,0,0,1,.17-3.92,10.33,10.33,0,0,1,3-2.64,12.49,12.49,0,0,0,2.89-2.68,10.27,10.27,0,0,0,1.68-3.55,21.74,21.74,0,0,0,.26-7.88,71.31,71.31,0,0,0-1.2-7.86,16,16,0,0,0-1.24-3.75,14.43,14.43,0,0,0-1.11-1.65,3.84,3.84,0,0,1-.46-2,65.93,65.93,0,0,1,.69-8c.34-2.63.73-5.26,1.15-7.88s.89-5.24,1.43-7.84a34.85,34.85,0,0,1,1-3.87,3.23,3.23,0,0,1,.21-.47c.06-.08.06-.15.15-.23a.27.27,0,0,1,.34,0,2.34,2.34,0,0,1,.53.89,18.32,18.32,0,0,1,.62,1.9c1.39,5.13,2.39,10.35,3.57,15.53.59,2.59,1.16,5.18,2,7.71s1.64,5.05,2.49,7.57l5.1,15.09c.85,2.51,1.68,5,2.48,7.57.4,1.27.79,2.53,1.16,3.81a22.65,22.65,0,0,1,.82,3.91c1.14,10.56,2,21.15,3.18,31.7.6,5.28,1.24,10.55,2.15,15.78.21,1.31.5,2.6.77,3.9s.69,2.54,1,3.84a30.71,30.71,0,0,1,.8,7.93c0,2.66-.17,5.31-.14,8a45.6,45.6,0,0,0,.69,7.91,38.05,38.05,0,0,0,6.23,14.48l0,0v0a274.43,274.43,0,0,0,1.05,27.5,149.63,149.63,0,0,0,4.64,27.08c1.27,4.4,2.6,8.8,3.76,13.24A83.89,83.89,0,0,1,225.28,896a41.72,41.72,0,0,1,.08,6.89,43.31,43.31,0,0,1-1.15,6.8,67.53,67.53,0,0,1-5,12.84A122.43,122.43,0,0,0,213.49,935c-1.48,4.29-2.13,9-.73,13.43,1.24,4.44,4.21,8.07,6.69,11.91,1.26,1.93,2.51,3.86,3.58,5.9a16.76,16.76,0,0,1,1.32,3.19,6.08,6.08,0,0,1,.09,3.46,10.85,10.85,0,0,1-1.65,3.05c-.68.93-1.41,1.82-2.11,2.72-1.41,1.81-2.77,3.66-4,5.57a47.18,47.18,0,0,0-6,12.27,25,25,0,0,0-1.06,6.75,24.55,24.55,0,0,0,1.16,6.72c.61,2.21,1.33,4.39,2.08,6.56a51.26,51.26,0,0,1,2,6.59l-.17-.09c5.39-2.41,11.46-3.72,17.35-2.69,5.89.86,11.46,3,17.08,4.82a65.41,65.41,0,0,0,17.32,3.44c2.95.15,5.91.16,8.87.11a66.65,66.65,0,0,0,8.82-.7l-.05.21-.09-.07-.09-.08.07-.09,1.73-2.36,0,.07c.23-5.79.33-11.58.19-17.37-.09-2.89-.21-5.79-.58-8.65-.11-.72-.22-1.43-.38-2.13a6.81,6.81,0,0,0-.71-2,1.7,1.7,0,0,0-.32-.38,2.94,2.94,0,0,1-.42-.38,1.24,1.24,0,0,1-.29-1.12,4.69,4.69,0,0,1,1.24-1.83c1-1,2.11-2,3.08-3.07a9.74,9.74,0,0,0,2.27-3.6,7.88,7.88,0,0,0-.17-4.22c-.33-1.4-.78-2.77-1.25-4.14l-2.91-8.19a45.16,45.16,0,0,1-2.24-8.41,10.68,10.68,0,0,1-.06-2.19,4.42,4.42,0,0,1,.65-2.1,24.15,24.15,0,0,1,2.56-3.54c1.85-2.23,3.79-4.38,5.59-6.64a44.94,44.94,0,0,0,4.84-7.18,19.74,19.74,0,0,0,2.44-8.21,24.84,24.84,0,0,0-1.28-8.51,56.44,56.44,0,0,0-3.37-8,44.17,44.17,0,0,1-3.44-8,37.53,37.53,0,0,1-.5-4.33l-.36-4.33c-.48-5.78-.91-11.56-1.13-17.35-.11-2.9-.17-5.8-.07-8.7a31.67,31.67,0,0,1,.39-4.34,9.77,9.77,0,0,1,.25-1.07c.11-.35.28-.7.36-1a10.74,10.74,0,0,0,.31-2.12c.19-2.88.13-5.79.07-8.68s-.19-5.79-.33-8.68c-.27-5.79-.6-11.57-.93-17.36s-.67-11.57-.93-17.35c-.13-2.9-.25-5.79-.29-8.69,0-1.45,0-2.9.06-4.35a7.15,7.15,0,0,1,.35-2.18,2.13,2.13,0,0,0,.2-1,9.75,9.75,0,0,0,0-1.08,80.68,80.68,0,0,0-1.43-8.55c-.59-2.84-1.22-5.66-1.86-8.49-1.28-5.65-2.6-11.29-3.83-17-.62-2.83-1.21-5.67-1.75-8.52s-1-5.7-1.29-8.6c-.05-.72-.1-1.45-.08-2.18a4.33,4.33,0,0,1,.45-2.14,5.18,5.18,0,0,0,.92-1.92,18.89,18.89,0,0,0,.51-2.1,83,83,0,0,0,1.17-8.6c.54-5.77.81-11.56.92-17.35s0-11.59-.33-17.37c-.18-2.89-.44-5.77-.86-8.64a31.38,31.38,0,0,0-2.21-8.36,103.12,103.12,0,0,1-4.07-16.89q-1.47-8.57-2.25-17.23A114.48,114.48,0,0,1,272,622a26.06,26.06,0,0,1,.62-4.3,7.36,7.36,0,0,1,.32-1,5.28,5.28,0,0,1,.45-1,8,8,0,0,0,.83-2,34.13,34.13,0,0,0,.75-8.62c-.06-5.79-.59-11.57-.92-17.35a76.39,76.39,0,0,1-.12-8.69,15.54,15.54,0,0,1,.26-2.16,4.4,4.4,0,0,1,.82-2,12.57,12.57,0,0,0,2-3.84,64.71,64.71,0,0,0,2.26-8.38q.87-4.25,1.4-8.57a73.83,73.83,0,0,0,.4-17.32c-.25-2.9-1.55-5.61-1.51-8.55a13,13,0,0,1,.14-2.16,13.9,13.9,0,0,1,.45-2.13,25.13,25.13,0,0,1,1.62-4c1.25-2.58,2.76-5.19,2.81-8.13a11.83,11.83,0,0,0-.82-4.23c-.48-1.37-1-2.72-1.53-4.07-2.13-5.39-4.5-10.67-6.57-16.09h0Zm0,0,11.37,9.58h0c2.07,5.41,4.45,10.7,6.58,16.09.53,1.34,1,2.7,1.53,4.06a11.72,11.72,0,0,1,.82,4.25c-.05,3-1.56,5.57-2.8,8.15a25.79,25.79,0,0,0-1.62,4,14,14,0,0,0-.45,2.12,12.05,12.05,0,0,0-.13,2.16c-.05,2.93,1.26,5.64,1.5,8.54a74,74,0,0,1-.38,17.34q-.53,4.32-1.4,8.58A64.12,64.12,0,0,1,277,571a12.48,12.48,0,0,1-2,3.86,4.23,4.23,0,0,0-.8,2A15.58,15.58,0,0,0,274,579a76.19,76.19,0,0,0,.13,8.68c.33,5.78.86,11.56.93,17.36a34.33,34.33,0,0,1-.75,8.64,8.46,8.46,0,0,1-.84,2,5.11,5.11,0,0,0-.45,1,7.61,7.61,0,0,0-.31,1,24.91,24.91,0,0,0-.61,4.29,114.29,114.29,0,0,0,.49,17.35q.78,8.65,2.25,17.22a103.44,103.44,0,0,0,4.08,16.87,31.44,31.44,0,0,1,2.22,8.38c.43,2.87.68,5.76.87,8.65.36,5.79.43,11.59.33,17.38s-.37,11.59-.9,17.36a83.4,83.4,0,0,1-1.17,8.62c-.14.71-.31,1.42-.51,2.12a5.53,5.53,0,0,1-.95,2,4.11,4.11,0,0,0-.42,2.05c0,.72,0,1.44.09,2.16.25,2.88.76,5.74,1.28,8.58s1.14,5.68,1.76,8.51c1.23,5.66,2.55,11.3,3.84,16.95.64,2.83,1.27,5.65,1.86,8.49a82.56,82.56,0,0,1,1.44,8.58,9.93,9.93,0,0,1,0,1.09,2.4,2.4,0,0,1-.22,1.11,7.09,7.09,0,0,0-.33,2.09c-.07,1.44-.08,2.89,0,4.33,0,2.9.16,5.79.29,8.69.27,5.78.61,11.57.94,17.35s.67,11.57.94,17.36q.21,4.34.33,8.69c.06,2.89.13,5.79-.06,8.69-1.67,5.6-1.41,11.46-1.24,17.23s.66,11.57,1.14,17.34l.37,4.33a35.86,35.86,0,0,0,.49,4.29,44.44,44.44,0,0,0,3.42,7.94,56.41,56.41,0,0,1,3.39,8,25.11,25.11,0,0,1,1.28,8.6,19.73,19.73,0,0,1-2.46,8.31,45.62,45.62,0,0,1-4.86,7.22c-1.81,2.27-3.75,4.42-5.6,6.65a24.39,24.39,0,0,0-2.53,3.49,6.29,6.29,0,0,0-.56,4.15,44.45,44.45,0,0,0,2.22,8.36l2.91,8.19c.47,1.37.92,2.75,1.26,4.17a8,8,0,0,1,.16,4.35,10.09,10.09,0,0,1-2.32,3.69c-1,1.08-2.09,2-3.09,3.06a4.58,4.58,0,0,0-1.17,1.73,1,1,0,0,0,.24.9,2.59,2.59,0,0,0,.38.35,1.55,1.55,0,0,1,.37.44,6.87,6.87,0,0,1,.75,2.07c.16.72.27,1.43.38,2.15.37,2.89.49,5.79.58,8.68.14,5.8,0,11.6-.18,17.39v0l0,0-1.73,2.36,0-.17.08.07.21.18-.26,0a65.72,65.72,0,0,1-8.86.7c-3,.06-5.92,0-8.88-.11a65.7,65.7,0,0,1-17.38-3.45c-5.64-1.79-11.19-4-17-4.81-5.85-1-11.86.27-17.22,2.67l-.14.06,0-.15a50.08,50.08,0,0,0-2-6.56c-.75-2.17-1.46-4.35-2.08-6.56a24.86,24.86,0,0,1-1.17-6.79,25.28,25.28,0,0,1,1.07-6.81,46.81,46.81,0,0,1,6.08-12.34c1.27-1.92,2.63-3.77,4-5.58s3-3.53,3.72-5.7a5.9,5.9,0,0,0-.08-3.33,17.19,17.19,0,0,0-1.31-3.15c-1.06-2-2.31-4-3.56-5.87l-1.92-2.85c-.64-1-1.32-1.88-1.9-2.88a21.66,21.66,0,0,1-1.67-3l-.72-1.57-.51-1.65c-1.43-4.45-.76-9.27.73-13.58A124.18,124.18,0,0,1,219,922.45a66.94,66.94,0,0,0,4.94-12.8,43,43,0,0,0,1.15-6.76,41.24,41.24,0,0,0-.08-6.85,84.92,84.92,0,0,0-2.62-13.48c-1.17-4.44-2.49-8.83-3.76-13.24A150.23,150.23,0,0,1,214,842.2,274.83,274.83,0,0,1,213,814.68l0,.07a38.39,38.39,0,0,1-6.27-14.57,46,46,0,0,1-.68-7.95c0-2.66.12-5.31.14-8a30.12,30.12,0,0,0-.8-7.87c-.31-1.27-.72-2.56-1-3.85s-.56-2.6-.77-3.92c-.91-5.23-1.55-10.51-2.15-15.78-1.22-10.56-2-21.15-3.17-31.71a21.51,21.51,0,0,0-.82-3.87c-.36-1.28-.75-2.55-1.15-3.81-.8-2.53-1.63-5.05-2.47-7.57l-5.1-15.09c-.85-2.52-1.7-5-2.49-7.57s-1.36-5.14-1.95-7.73c-1.18-5.18-2.17-10.4-3.56-15.52a17.23,17.23,0,0,0-.62-1.88,2.14,2.14,0,0,0-.47-.81c-.09-.09-.15,0-.23.18a4.28,4.28,0,0,0-.2.43,35,35,0,0,0-1,3.85c-.54,2.59-1,5.21-1.43,7.83s-.81,5.24-1.15,7.88a65.8,65.8,0,0,0-.69,7.91,3.52,3.52,0,0,0,.44,1.87,15,15,0,0,1,1.11,1.66,16.36,16.36,0,0,1,1.25,3.79,75,75,0,0,1,1.21,7.88,22.09,22.09,0,0,1-.28,7.94,10.32,10.32,0,0,1-1.7,3.61,13.23,13.23,0,0,1-2.93,2.71,10.05,10.05,0,0,0-2.94,2.59,4.69,4.69,0,0,0-.17,3.8,31,31,0,0,1,1.08,7.89c.1,2.65.05,5.31-.09,8s-.36,5.3-.64,7.94-.65,5.27-1.08,7.89a64.19,64.19,0,0,1-1.75,7.77,26.21,26.21,0,0,0-.11,7.91c.26,2.64.65,5.26,1,7.89s.8,5.25,1,7.9a17.75,17.75,0,0,1,0,4,14.48,14.48,0,0,0-.52,3.93c-.16,5.3,0,10.61.07,15.92.51,21.23,1.41,42.46,2.17,63.68,1.78,21.24-1,42.5-5.2,63.3l-.41,1.94a16.49,16.49,0,0,0-.22,2,6.14,6.14,0,0,0,1,3.78,23.78,23.78,0,0,0,2.67,2.93,19,19,0,0,1,2.49,3.1,23.59,23.59,0,0,1,3,7.33,13.47,13.47,0,0,1-.37,7.85,16.4,16.4,0,0,1-4.53,6.47,24.4,24.4,0,0,1-6.7,4.27,19.93,19.93,0,0,1-1.87.7,3.27,3.27,0,0,0-1.75.81,5.91,5.91,0,0,0-.7,3.8,38.22,38.22,0,0,0,1.58,7.78v0l0,0a4.88,4.88,0,0,0-1.81,1.88,11.52,11.52,0,0,0-1,2.46c-.53,1.7-.87,3.45-1.57,5.1a13,13,0,0,1-3.13,4.28,14.51,14.51,0,0,1-4.47,2.88,33.18,33.18,0,0,1-5.19,1.23c-1.75.29-3.51.51-5.28.68s-3.55.27-5.32.33a41.21,41.21,0,0,1-5.33-.12,64.38,64.38,0,0,1-10.48-1.91,65.5,65.5,0,0,1-10.08-3.45c-1.65-.67-3.07-1.8-4.77-2.33a48,48,0,0,0-5.14-1.36c-3.47-.73-7-1.28-10.5-1.77h0v0l-.35-.33a.74.74,0,0,1-.28-.43,1.23,1.23,0,0,1,.36-.92c.42-.51.9-.94,1.34-1.42a7.24,7.24,0,0,0,1.16-1.54,3.93,3.93,0,0,0,.57-1.8,2.55,2.55,0,0,0-.9-1.62,17.91,17.91,0,0,0-1.49-1.25,1.84,1.84,0,0,1-.81-1.72,4.29,4.29,0,0,1,.8-1.78,27.43,27.43,0,0,0,2.12-3.25,11.44,11.44,0,0,0,.85-3.75c.26-2.58.31-5.18.61-7.76a20.94,20.94,0,0,1,.76-3.83A8.24,8.24,0,0,1,94,961.29c.93-.91,1.95-1.72,2.91-2.58a6.41,6.41,0,0,0,2.25-3,2.32,2.32,0,0,0-.46-1.79,7.45,7.45,0,0,1-1.1-1.6,11.54,11.54,0,0,1-.94-3.78,39.66,39.66,0,0,1,.12-7.78A77,77,0,0,1,98,933c.46-2.56,1.45-5,1.74-7.57s-.49-5.13-1.37-7.55a11,11,0,0,1-.59-3.85c0-1.29,0-2.59.06-3.89.5-10.37,1.71-20.69,2.26-31,.13-2.59.23-5.18.24-7.77a47.63,47.63,0,0,0-.5-7.74c-1.26-5-2.06-10.18-2.84-15.3q-2.28-15.4-3.81-30.9c-.24-2.59-.48-5.17-.63-7.76a36.24,36.24,0,0,1,0-3.9c0-1.29,0-2.59-.13-3.88a63.45,63.45,0,0,0-3.23-15.16c-.81-2.46-1.82-4.85-2.86-7.22-.58-1.16-1.1-2.35-1.72-3.49s-1.23-2.27-1.79-3.45a50.22,50.22,0,0,1-4.47-14.87c-1.6-10.29-1.25-20.73-.89-31.08q.15-3.9.07-7.78c0-2.6,0-5.19,0-7.78V695.46q.11-31.12.44-62.26c.23-20.75.48-41.5,1-62.25.16-5.19.32-10.37.62-15.56.1-1.29.24-2.59.39-3.88l.27-1.92.16-1.93c.17-2.59.21-5.18.21-7.78-.07-10.37-.68-20.74-1.45-31.08h0l-.87-4.49c-.26-1.5-.43-3-.66-4.53s-.26-3-.38-4.55l0-2.29v-1.14l.07-1.15a28.52,28.52,0,0,1,1.71-9A28.1,28.1,0,0,1,83.79,474a12.45,12.45,0,0,0,1.25-1.9l1-2c.7-1.35,1.45-2.68,2.21-4,1.55-2.63,3.15-5.22,4.83-7.76.85-1.27,1.7-2.53,2.61-3.76.45-.61.94-1.21,1.42-1.78a12,12,0,0,0,1.27-1.89,18.19,18.19,0,0,0,2-8.78V442h.07l96.17,9.71a196.48,196.48,0,0,1,23.89,3.62,131.67,131.67,0,0,1,23.1,7,65.17,65.17,0,0,1,10.69,5.61,33.18,33.18,0,0,1,8.83,8.16c1.14,1.67,2.1,3.44,3.12,5.17l3,5.23.38.65.09.17s.08.08,0,.06l-.05-.08-.19-.33-.75-1.31L267.28,483Z"/><path class="cls-22" d="M269.76,487.25l0,.06Z"/><path class="cls-23" d="M269,485.94l.15.27Z"/><path class="cls-20" d="M327.26,206.68c-2.67-9.12-8.49-19.34-15.57-23.59s-19.5-6.13-21.54-7.39-15.73-5.35-19.19-6.76-12.58-3.15-12.58-3.15l-1.1.63S239.14,184,217.56,187.75c0,0-16.52,5.07-17.4,5.07s-19.6,1.1-19.6,1.1-3.38-1.27-1.91-7.46a55.22,55.22,0,0,0-6.3,2.61c-2.83,1.41-21.86,15.72-26.42,19s-18.87,10.53-22.33,11.16-10.69,2.05-13,5-14.63,18.4-17,27.21-.63,8.18-2.36,8.81-3.93.16-3,2.2S92,264.4,92,269s2.2,6.29-.47,7.55-6.14,5.5-5,8.65S87,290,85.54,293c-.09.19-.18.39-.26.59.64-1.83,8.26-5,8.26-5,13.38-4.38,26.67,5.78,26.67,5.78S122,304.45,122,305.85s3.55,29.82,4.37,34.69-1.48,11.4-1.48,11.4l3.22.08,1.24,10.82c5.12,1,25.27-5.87,25.27-5.87s35.26-6.11,43.36-12.71,33.61-16.94,33.61-16.94l.74-2.14c-1.81-5,4.05-25.44,4.55-28.33s1.15-6.77,2-7.6,6.93-3.63,13.87-6.52,18.5-2.15,34.11,0a30.29,30.29,0,0,1,22,15.11L306,311.58s7.08,0,8.81-3,3.77-34.76,7.86-42S329.94,215.8,327.26,206.68Z"/><path d="M327.22,206.69a56.11,56.11,0,0,0-4-9.82,49.8,49.8,0,0,0-2.68-4.58,37.53,37.53,0,0,0-3.21-4.22,23.29,23.29,0,0,0-8.39-6.32,67,67,0,0,0-10-3.43L293.79,177c-.86-.22-1.72-.46-2.56-.74l-.63-.23-.6-.29a13,13,0,0,0-1.2-.55c-3.3-1.28-6.68-2.35-10-3.46L273.71,170c-1.69-.54-3.31-1.28-5-1.76-3.4-1-6.87-1.7-10.34-2.38l.07,0-1.1.63h0a94.15,94.15,0,0,1-8.85,7.22,98.66,98.66,0,0,1-9.61,6.17,78.54,78.54,0,0,1-10.32,4.9,63.47,63.47,0,0,1-11,3.12h0l-9,2.74L204,192l-2.28.64c-.37.11-.76.2-1.15.3a7.39,7.39,0,0,1-1.2.12l-18.84,1.09h0l0,0a3.82,3.82,0,0,1-1.6-1.48,5.47,5.47,0,0,1-.7-2,8.88,8.88,0,0,1-.08-2.12,18,18,0,0,1,.34-2.08l.28.25c-1.57.56-3.12,1.16-4.64,1.84a23,23,0,0,0-2.22,1.11c-.7.44-1.39.91-2.08,1.38-2.75,1.89-5.45,3.87-8.15,5.84-5.4,3.94-10.72,8-16.16,11.9a96.74,96.74,0,0,1-8.71,5c-3,1.55-6,3-9.06,4.36a20.68,20.68,0,0,1-4.81,1.57c-1.64.31-3.27.66-4.87,1.11-3.14.93-6.48,2-8.24,5a165.66,165.66,0,0,0-11.49,16.39,43.75,43.75,0,0,0-4.26,9,46.87,46.87,0,0,0-1.16,4.85c-.16.81-.27,1.63-.35,2.45,0,.42,0,.8-.12,1.28a1.43,1.43,0,0,1-.16.41,1,1,0,0,1-.36.3,5.75,5.75,0,0,1-.62.25c-.84.3-1.73.34-2.45.56-.37.13-.52.26-.49.56a2.41,2.41,0,0,0,.41,1,10.11,10.11,0,0,0,1.77,1.65A4.81,4.81,0,0,1,92,266.58a8.54,8.54,0,0,1,.35,2.58,13.27,13.27,0,0,0,.25,2.43c.14.81.38,1.6.53,2.46a2.91,2.91,0,0,1,0,1.4,2.25,2.25,0,0,1-.94,1.11c-.42.24-.77.4-1.1.61a8.41,8.41,0,0,0-1,.71,10.32,10.32,0,0,0-1.68,1.75A7.25,7.25,0,0,0,86.63,284a5.51,5.51,0,0,0,.06.57l.14.56a10.38,10.38,0,0,1,.36,1.24,7.15,7.15,0,0,1,.14,2.61,17.5,17.5,0,0,1-1.72,4.79l-.66-.26a3.07,3.07,0,0,1,.86-1.08,9,9,0,0,1,1-.77A23.05,23.05,0,0,1,89,290.38c1.45-.78,2.93-1.47,4.44-2.12h0a24.54,24.54,0,0,1,7.06-1.1,29.19,29.19,0,0,1,7.09.9,39.89,39.89,0,0,1,12.87,6l.11.09,0,.15c.41,2.39.81,4.78,1.18,7.18.19,1.2.37,2.39.51,3.62,0,.28,0,.66.07.93s.05.58.08.88l.2,1.8c.55,4.81,1.15,9.63,1.76,14.43s1.23,9.62,1.9,14.41c.17,1.22.37,2.37.53,3.61a18.49,18.49,0,0,1,0,3.72,34,34,0,0,1-1.58,7.18l-.38-.55,3.22.08h.36l0,.36,1.25,10.82-.34-.37a12.13,12.13,0,0,0,3.12-.06c1.06-.11,2.12-.32,3.18-.51,2.11-.42,4.21-1,6.31-1.51,4.18-1.13,8.33-2.4,12.44-3.78h.06c6.81-1.23,13.59-2.64,20.31-4.3q5-1.23,10-2.74a67,67,0,0,0,9.64-3.67,15.81,15.81,0,0,0,2.2-1.25l1-.71,1.06-.79a47.74,47.74,0,0,1,4.4-2.84c3-1.76,6.1-3.34,9.22-4.88,6.25-3,12.59-5.83,19-8.48l-.27.29.74-2.15v.32a9,9,0,0,1-.32-1.88,14.16,14.16,0,0,1,0-1.84c0-.61.07-1.21.12-1.81s.12-1.19.2-1.79c.31-2.38.75-4.73,1.24-7.07,1-4.67,2.18-9.31,3.24-13.9a48,48,0,0,1,1.55-7.05,3.6,3.6,0,0,1,.47-.91,2,2,0,0,1,.42-.41l.41-.27c.53-.33,1.06-.6,1.6-.88,1.07-.55,2.15-1,3.24-1.55,2.17-1,4.36-1.94,6.55-2.86,1.1-.47,2.19-.93,3.36-1.33a25.3,25.3,0,0,1,3.54-.84,62.66,62.66,0,0,1,14.35-.3c4.76.34,9.5.93,14.22,1.57a30.33,30.33,0,0,1,18.9,9.64,29.14,29.14,0,0,1,4.25,5.83l.05.1,0,.12-2.84,13.73-.29-.36a22.37,22.37,0,0,0,3.46-.32,12,12,0,0,0,3.3-1,3.51,3.51,0,0,0,2.12-2.36c.28-1.12.49-2.27.69-3.43.72-4.64,1.28-9.32,1.92-14s1.3-9.34,2.19-14a58.3,58.3,0,0,1,1.68-6.87,20.62,20.62,0,0,1,1.37-3.28,19.72,19.72,0,0,0,1.12-3.3,112.29,112.29,0,0,0,2.39-13.89c.57-4.67,1-9.36,1.31-14s.54-9.4.59-14.11c0-2.35,0-4.7-.11-7A35.61,35.61,0,0,0,327.22,206.69Zm.09,0a35.87,35.87,0,0,1,.89,7c.11,2.35.14,4.71.13,7.06,0,4.71-.23,9.42-.52,14.12s-.71,9.39-1.26,14.07a113.24,113.24,0,0,1-2.33,13.94c-4,8.63-4.93,18.1-6.24,27.4-.62,4.66-1.15,9.34-1.86,14-.19,1.17-.4,2.33-.68,3.5l-.33.88a3.31,3.31,0,0,1-.56.77,5.85,5.85,0,0,1-1.51,1.07,12.5,12.5,0,0,1-3.45,1,23.34,23.34,0,0,1-3.56.35h-.36l.07-.36,2.78-13.74,0,.21a28.41,28.41,0,0,0-4.17-5.66,29.61,29.61,0,0,0-18.5-9.32c-4.71-.63-9.44-1.19-14.17-1.5a61.84,61.84,0,0,0-14.14.35,25.91,25.91,0,0,0-3.4.82c-1.08.38-2.18.85-3.27,1.32-2.19.93-4.37,1.89-6.52,2.88-1.08.5-2.15,1-3.2,1.54-.52.27-1.05.54-1.53.84a2,2,0,0,0-.56.43,3.22,3.22,0,0,0-.33.67,48.2,48.2,0,0,0-1.51,6.88c-1.09,4.69-2.31,9.25-3.26,13.91-.49,2.32-.92,4.66-1.23,7-.08.58-.15,1.17-.2,1.75s-.11,1.17-.11,1.75a11.06,11.06,0,0,0,0,1.73,8.41,8.41,0,0,0,.26,1.63l.05.21,0,.11-.75,2.15-.07.21-.2.08c-6.4,2.63-12.74,5.42-19,8.44-3.1,1.52-6.18,3.09-9.16,4.83a49.66,49.66,0,0,0-4.32,2.78l-1,.77-1.11.75a15.46,15.46,0,0,1-2.3,1.31,67.27,67.27,0,0,1-9.78,3.71q-5,1.51-10.05,2.75c-6.74,1.66-13.53,3.06-20.37,4.29h.07c-4.13,1.38-8.29,2.65-12.5,3.78-2.11.55-4.22,1.09-6.37,1.51-1.07.21-2.15.41-3.25.53a13.07,13.07,0,0,1-3.37,0l-.31,0,0-.33-1.24-10.82.41.37-3.22-.09h-.56l.18-.54a33.57,33.57,0,0,0,1.53-7,16.77,16.77,0,0,0,0-3.54c-.14-1.16-.36-2.4-.52-3.59-.67-4.81-1.28-9.62-1.89-14.43s-1.2-9.62-1.74-14.44l-.2-1.81c0-.3-.06-.6-.08-.93s0-.56-.06-.88c-.14-1.19-.32-2.39-.5-3.58-.37-2.39-.77-4.79-1.17-7.17l.14.24a38.05,38.05,0,0,0-6-3.52,37.4,37.4,0,0,0-6.57-2.39,28.18,28.18,0,0,0-6.89-.89,24.11,24.11,0,0,0-6.85,1.05h0c-1.49.64-3,1.33-4.39,2.09a22.47,22.47,0,0,0-2.07,1.22,4.89,4.89,0,0,0-1.61,1.5l-.65-.26a17.29,17.29,0,0,0,1.68-4.6,6.77,6.77,0,0,0-.13-2.37,10.24,10.24,0,0,0-.33-1.17c-.06-.2-.12-.44-.17-.65a5.23,5.23,0,0,1-.07-.68,7.88,7.88,0,0,1,1.89-4.79,11.26,11.26,0,0,1,1.79-1.86,10,10,0,0,1,1-.76c.37-.23.79-.42,1.1-.6a1.55,1.55,0,0,0,.66-.76,2.14,2.14,0,0,0,0-1.07c-.13-.79-.37-1.61-.52-2.45a14.4,14.4,0,0,1-.26-2.54,8.1,8.1,0,0,0-.31-2.38,4.2,4.2,0,0,0-1.29-1.91,10.61,10.61,0,0,1-1.87-1.77,3,3,0,0,1-.52-1.31,1.07,1.07,0,0,1,.26-.82,1.56,1.56,0,0,1,.67-.41c.89-.26,1.7-.28,2.44-.55a4.07,4.07,0,0,0,.54-.21c.15-.09.14-.07.18-.27s.07-.8.12-1.21c.08-.84.2-1.68.36-2.51.32-1.66.7-3.29,1.18-4.91a44.47,44.47,0,0,1,4.34-9.1,165,165,0,0,1,11.56-16.43,18.54,18.54,0,0,1,1.65-1.95,10.45,10.45,0,0,1,2.15-1.43,26.07,26.07,0,0,1,4.75-1.76c1.62-.45,3.26-.8,4.91-1.11a20.05,20.05,0,0,0,4.7-1.54c3.06-1.31,6.06-2.78,9-4.32a98.55,98.55,0,0,0,8.66-5c5.42-3.9,10.76-7.94,16.17-11.87,2.71-2,5.41-3.93,8.18-5.82.69-.48,1.39-.94,2.11-1.39a20.71,20.71,0,0,1,2.26-1.13c1.54-.68,3.11-1.28,4.69-1.84l.37-.13-.09.39a17.53,17.53,0,0,0-.33,2,9.07,9.07,0,0,0,.06,2,5.08,5.08,0,0,0,.65,1.87,3.39,3.39,0,0,0,1.39,1.32h-.09l18.86-1a5.8,5.8,0,0,0,1.14-.11c.38-.09.76-.18,1.13-.29l2.27-.63,4.53-1.32,9-2.72h0a64.63,64.63,0,0,0,10.94-3.08,78.73,78.73,0,0,0,10.31-4.85,101.31,101.31,0,0,0,9.6-6.13,95.28,95.28,0,0,0,8.83-7.2h0l1.1-.63,0,0h0c3.48.68,6.94,1.42,10.36,2.4,1.71.48,3.33,1.22,5,1.76l5,1.68c3.36,1.12,6.74,2.18,10.05,3.47.84.31,1.58.84,2.42,1.08s1.69.51,2.55.73l5.13,1.36A68.58,68.58,0,0,1,309,181.62a23.64,23.64,0,0,1,8.42,6.37,35.76,35.76,0,0,1,3.21,4.24,46.68,46.68,0,0,1,2.69,4.59A55.29,55.29,0,0,1,327.31,206.67Z"/><path class="cls-20" d="M301.31,334.38V322.27s-2.05,7.75-5.57,11.06-15.64,36-15.64,36c-3.88,9.66-16,16.52-16,16.52s-8.18,5-14,5.28S231,394.8,231,394.8c-13.21,6.11-45.75,5.94-62,4.29s-39.64,0-41.71,0-7.26,4.38-8.34,6.36-12,8.51-12,8.51-.63,5,1.1,5.35,4.41,1.41,2.2,3.46-12.89,10.22-12.58,12,2.68,3.67,2.83,7.32l2,.19,95.87,9.66s53.42,4.33,65.91,25.87l11.36,9.58h0a32.49,32.49,0,0,1-1.83-6.08c-.63-4.87,3.31-1.1,4.09-10.22s2.36-5,1.73-13.37-1.57-15.25,3.15-22,13.84-20.76,10.53-28.78,8-12.26,5-30-7.08-28.63-2.83-32.72S301.31,338.47,301.31,334.38Z"/><path d="M301.26,334.38V322.27l.11,0a38.82,38.82,0,0,1-2.42,6.42,20,20,0,0,1-1.73,3c-.65,1-1.53,1.73-2.19,2.64a98.71,98.71,0,0,0-5.91,12.36c-1.78,4.21-3.47,8.46-5.13,12.73l-2.46,6.4-1.2,3.22a21.63,21.63,0,0,1-1.51,3.1,37,37,0,0,1-9.23,10.09,51.69,51.69,0,0,1-11.8,7,27,27,0,0,1-6.59,2c-1.16.13-2.28.16-3.42.32s-2.26.31-3.38.51c-4.5.8-9,1.83-13.39,2.94h0a60.4,60.4,0,0,1-15.75,3.91c-5.38.72-10.78,1.09-16.19,1.29a242.42,242.42,0,0,1-32.45-1c-5.38-.44-10.79-.52-16.19-.51s-10.8.18-16.2.42l-4.06.19-2,.1c-.33,0-.7,0-1,.05a2.65,2.65,0,0,0-.87.22,14.92,14.92,0,0,0-3.35,2.1,22.83,22.83,0,0,0-2.92,2.72c-.22.25-.42.51-.61.77l-.25.4-.34.47a16.48,16.48,0,0,1-1.55,1.38c-1.08.85-2.19,1.64-3.31,2.4-2.25,1.52-4.54,3-6.86,4.37l.17-.25a15.35,15.35,0,0,0-.11,2.25,6.1,6.1,0,0,0,.36,2.13c.13.3.32.55.55.58a10.71,10.71,0,0,1,1.14.3,4.86,4.86,0,0,1,1.12.5,2.32,2.32,0,0,1,.94.95,1.52,1.52,0,0,1-.08,1.41,3.89,3.89,0,0,1-.8,1c-.58.52-1.17,1-1.76,1.5l-3.54,2.95c-1.17,1-2.34,2-3.47,3a26.8,26.8,0,0,0-3.16,3.24,2,2,0,0,0-.44.82.34.34,0,0,0,0,.17.73.73,0,0,0,.07.24,5,5,0,0,0,.21.48c.34.65.77,1.3,1.14,2a10.08,10.08,0,0,1,1.38,4.52l-.33-.35,85.17,8.48,10.65,1.06c3.55.33,7.12.7,10.65,1.21a188.65,188.65,0,0,1,21,4.19,106.53,106.53,0,0,1,20.2,7.25,53.16,53.16,0,0,1,9.18,5.65,29.16,29.16,0,0,1,7.29,8l-.11-.13L275.94,487l0,0,0,0h0l-.85.5a43.48,43.48,0,0,1-1.59-4.88,8.59,8.59,0,0,1-.3-2.66,2.75,2.75,0,0,1,.46-1.43,4.2,4.2,0,0,1,1-1,6.13,6.13,0,0,0,2.3-4c.36-1.6.4-3.3.65-5a24.69,24.69,0,0,1,.48-2.54c.2-.85.54-1.68.8-2.44a14.35,14.35,0,0,0,.28-4.88c-.21-3.36-.58-6.75-.56-10.16a23.19,23.19,0,0,1,2-10,28.09,28.09,0,0,1,2.68-4.37c.94-1.39,1.89-2.79,2.78-4.23a70.46,70.46,0,0,0,4.84-8.86c.33-.77.68-1.54,1-2.33a23,23,0,0,0,.81-2.38c.28-.8.41-1.63.62-2.44.08-.41.12-.82.18-1.23a7.54,7.54,0,0,0,.11-1.25,11.64,11.64,0,0,0-.77-4.87,11.22,11.22,0,0,1-.35-1.26c-.05-.43-.1-.87-.13-1.31l.1-1.3c.08-.43.19-.85.29-1.27a32,32,0,0,1,2-4.69c.76-1.51,1.46-3.05,2.07-4.61a27.08,27.08,0,0,0,1.7-9.88,57.75,57.75,0,0,0-1.29-10c-.61-3.33-1.29-6.64-2-10s-1.34-6.65-1.67-10a17.67,17.67,0,0,1,.14-5.08c.13-.41.24-.83.38-1.23a11.11,11.11,0,0,1,.63-1.12,16.25,16.25,0,0,1,1.77-1.84,24.5,24.5,0,0,0,3.36-3.77A8.35,8.35,0,0,0,301.26,334.38Zm.1,0a8.45,8.45,0,0,1-1.28,4.87,24.91,24.91,0,0,1-3.36,3.81,17.63,17.63,0,0,0-1.74,1.83,8.19,8.19,0,0,0-.6,1.09c-.14.39-.25.8-.37,1.2a17.58,17.58,0,0,0-.11,5c.34,3.36,1.05,6.68,1.72,10s1.4,6.63,2,10A58.73,58.73,0,0,1,299,382.23a27.68,27.68,0,0,1-1.68,10c-.6,1.59-1.3,3.14-2.05,4.66a30.22,30.22,0,0,0-2,4.63,7.28,7.28,0,0,0,.11,4.83,12.16,12.16,0,0,1,.82,5.07,7.8,7.8,0,0,1-.1,1.28c-.07.43-.1.86-.18,1.28-.21.83-.34,1.68-.62,2.49a22.9,22.9,0,0,1-.81,2.42c-.28.81-.62,1.59-1,2.37a72.47,72.47,0,0,1-4.83,9c-.88,1.44-1.83,2.86-2.77,4.26a27.56,27.56,0,0,0-2.6,4.29,22.45,22.45,0,0,0-1.88,9.73c0,3.36.39,6.71.62,10.11a15.23,15.23,0,0,1-.29,5.19c-.28.85-.58,1.59-.77,2.39a22.44,22.44,0,0,0-.44,2.45c-.24,1.65-.27,3.36-.65,5.07a9.37,9.37,0,0,1-.85,2.52,5.79,5.79,0,0,1-1.77,2.06,2,2,0,0,0-1.1,1.71,8.12,8.12,0,0,0,.29,2.36,46.47,46.47,0,0,0,1.57,4.76l1,2.59-1.82-2.09h0l.05.05-11.35-9.57-.06-.06-.05-.08a28.24,28.24,0,0,0-7-7.72,52.26,52.26,0,0,0-9-5.54,107,107,0,0,0-20-7.19,190.61,190.61,0,0,0-20.92-4.16c-3.53-.52-7.05-.9-10.61-1.24l-10.64-1.08-85.16-8.67-.33,0v-.33a9.47,9.47,0,0,0-1.28-4.2c-.36-.66-.78-1.3-1.15-2a4.26,4.26,0,0,1-.25-.57,1.4,1.4,0,0,1-.09-.31,1,1,0,0,1,0-.39,2.5,2.5,0,0,1,.59-1.21,27.85,27.85,0,0,1,3.26-3.34c1.15-1,2.32-2,3.49-3l3.55-2.94c.59-.49,1.18-1,1.74-1.49s1-1.1.73-1.58a2.94,2.94,0,0,0-1.65-1.09c-.36-.12-.69-.19-1.08-.28a1.56,1.56,0,0,1-1-1,6.69,6.69,0,0,1-.4-2.38,16.81,16.81,0,0,1,.11-2.35v-.16l.15-.09c2.31-1.39,4.59-2.83,6.83-4.34,1.12-.75,2.22-1.53,3.27-2.35a13.31,13.31,0,0,0,1.47-1.31l.26-.35.29-.46c.21-.29.43-.56.66-.82a22.67,22.67,0,0,1,3-2.8,15.61,15.61,0,0,1,3.52-2.18,3.64,3.64,0,0,1,1.08-.27l1,0,2-.1,4.06-.18c5.41-.23,10.82-.39,16.23-.4s10.83.1,16.24.55a243.14,243.14,0,0,0,32.38,1.06c5.4-.18,10.79-.53,16.15-1.23a60.4,60.4,0,0,0,15.66-3.82h0c4.44-1.1,8.91-2.11,13.42-2.9,1.13-.19,2.27-.37,3.41-.5s2.3-.19,3.41-.3a27.25,27.25,0,0,0,6.53-1.94,52,52,0,0,0,11.77-6.93,36.76,36.76,0,0,0,9.2-10,21.73,21.73,0,0,0,1.49-3.07l1.21-3.21,2.47-6.41c1.66-4.26,3.36-8.51,5.14-12.72a99.83,99.83,0,0,1,5.95-12.38c3.28-3.26,5.06-7.62,6.34-12l.11-.39v12.51Z"/><path class="cls-24" d="M269.8,487.31Z"/><path class="cls-25" d="M269.16,486.21l.21.35Z"/><path class="cls-26" d="M269.37,486.56l.13.24Z"/><path class="cls-27" d="M269.5,486.8l.17.28Z"/><path class="cls-28" d="M269.67,487.08l.09.17Z"/><polygon class="cls-2" points="104.87 1028.9 103.03 1037.55 110.14 1036.58 111.79 1028.9 104.87 1028.9"/><polygon class="cls-29" points="77.28 1028.15 72.31 1046.32 90.15 1044.34 92.92 1035.42 86.89 1036.08 88.36 1034.27 91.97 1033.27 94.45 1024.52 77.28 1028.15"/><polygon class="cls-29" points="101.22 1026.34 97.42 1042.19 112.28 1040.05 115.59 1023.77 101.22 1026.34"/><polygon class="cls-29" points="119.72 1023.77 124.9 1023.77 129.69 1030.17 135.74 1020.89 143.17 1019.07 131.44 1034.6 131.44 1042.85 125.66 1042.85 128.31 1033.23 119.72 1023.77"/><path class="cls-29" d="M159.11,1029.81l2.33-6-2.58-.9-2.69,4-6.56-5.2v4.3l4.35,4.21-4.35,6.52,4.63-.66,2.31-5.12s8.76,4.62,10.57,4.46l1.49-2.19Z"/><path class="cls-30" d="M286.18,1047.18c-.55-.59-.16-1.58.4-2.15s1.32-1,1.59-1.8a3.49,3.49,0,0,0,.12-1.07c0-3.14-.45-6.5,1.13-9.21.43,1.15-.08,2.42,0,3.64s.51,2.1.58,3.17c.08,1.26-2.47,7.82.91,7.11a3.78,3.78,0,0,0,2-1.67,82,82,0,0,1,.15,10.16,4.39,4.39,0,0,0,0,1,7.49,7.49,0,0,0,.23.77c1,3.21-1.86,6.55-3.35,8.77-1.89,2.8-3.52,3.26-5.91,5.77s-5.22,6.47-8.21,8.42a7.44,7.44,0,0,0-1.85,1.38c-.84,1-.87,2.57-1.77,3.55-1.25,1.36-3.63,1.11-4.9,2.46-.9,1-1,2.59-2.22,3.22a3.78,3.78,0,0,1-1.41.33c-3,.29-6.34.27-9.29,1.07-2.42.66-4.45,1.4-7.08,1.28-1.87-.09-3.76-.52-5.59-.15s-3.28,1.42-5,1.61c-2.43.26-4.94-1.2-7.26-.41a7.37,7.37,0,0,1-1.75.59c-1.18.1-2.16-.86-3.29-1.23-1.77-.57-3.64.36-5.49.45-3.56.18-7.12-2.76-10.42-1.41.09-.81,1.19-1,2-.92a81.49,81.49,0,0,0,11.15-.46,5.86,5.86,0,0,0,2.08-.44c.57-.27,1-.7,1.59-1,1.46-.77,3.23-.39,4.88-.23s3.62-.11,4.4-1.57a10.41,10.41,0,0,0,.6-2.24,6.11,6.11,0,0,1,3.63-3.71,17.75,17.75,0,0,1,5.23-1l5.67-.57c1.12-.11,2.39-.3,3-1.22.54-.75.5-1.77.82-2.64a4.39,4.39,0,0,1,3.23-2.5,12.78,12.78,0,0,1,4.23,0,2.6,2.6,0,0,0,.63-2.78,2,2,0,0,0-2.51-.94c-1.32-2.21,2.62-2.93,3.42-4.55,1.27-2.58-1.21-5.77-.2-8.47s5.1-3.48,5.85-6.32c.3-1.15-.06-2.41.27-3.56.54-1.89,2.62-2.78,4.35-3.7a19.58,19.58,0,0,0,7.57-7.24c-1.67,0-2.54,2-2.68,3.71s-.08,3.58-1.32,4.71c-.95.87-2.52,1.07-3.11,2.22s.12,2.45.62,3.62.61,2.86-.55,3.38c1.91-.32,3.08-2.2,4.14-3.82s2.64-3.34,4.55-3c-.62-1.26.32-2.71,1.29-3.72s2.11-2.16,2-3.55l.32,7"/><path class="cls-31" d="M209.24,1035.26c-2,2.57-4.11,5.21-7,6.82a3.94,3.94,0,0,0-1.58,1.26,2.26,2.26,0,0,0,.6,2.62,5.9,5.9,0,0,0,2.59,1.21c10.5,2.85,21.62,1.62,32.43.37A20.06,20.06,0,0,0,243,1046a16.21,16.21,0,0,0,5.09-4.35,41.32,41.32,0,0,0,7.85-14.46c-1.77-.58-3.69-.43-5.52-.76-2.38-.42-4.52-1.63-6.72-2.62a39.12,39.12,0,0,0-21.88-2.91c-1.56.24-4.25.39-5.58,1.29s-1,1.6-1.45,3.41C213.94,1029.25,211.51,1032.37,209.24,1035.26Z"/><path class="cls-32" d="M56,1019.6l27.67-15.25-.62-2.52L87.9,999l-.8-3.18s14.78,1.79,16.84,3.6c0,0-36.58,23.93-42.86,24.35S56,1019.6,56,1019.6Z"/><polygon class="cls-7" points="214.92 1024.83 252.35 1035.5 249.6 1039.72 213.15 1029.67 214.92 1024.83"/><polygon class="cls-7" points="209.69 1036.06 244.11 1045.35 231.45 1048.09 204.45 1040.56 208.51 1036.1 209.69 1036.06"/><polygon class="cls-29" points="212.27 1031.57 208.51 1036.1 232.07 1035.31 222.6 1032.28 212.27 1031.57"/><polygon class="cls-29" points="249.6 1034.67 253.24 1033.83 254.91 1030.11 237.99 1031.41 249.6 1034.67"/><polygon class="cls-29" points="249 1039.72 216.8 1037.98 229.52 1041.41 246.08 1043.79 249 1039.72"/><path class="cls-29" d="M212,1042.67l-11.22,2.66s-1-2.64,3.08-4l1.73-.48Z"/><polygon class="cls-29" points="77.28 1015.95 77.28 1009.63 73.72 1009.82 69.84 1011.96 68.31 1020.89 77.28 1015.95"/><path class="cls-7" d="M79.92,1005.94l15.19-.86-6,3.77c-.23.15-15.35,1-15.35,1Z"/><polygon class="cls-7" points="62.16 1016.19 68.84 1015.26 67.95 1021.07 62.86 1023.33 62.16 1016.19"/><polygon class="cls-7" points="77.28 1013.45 81.84 1013.26 77.28 1015.95 77.28 1013.45"/><path class="cls-33" d="M176.09,1003.73c1.27-3.44,1.9-7.24,4.19-10.1,3.06,6.16-5,12.7-4.37,19.56l4.07-.68c1.19,2.28-1.4,5.14-.4,7.5a9.35,9.35,0,0,0,1.86,2.27,6.7,6.7,0,0,1-2,10c-1.54.76-3.51,1-4.4,2.48-2.05,3.4,2.94,6.77.43,10.24-2.22,3.08-6.7,3.86-10.15,4.44-12.81,2.17-25.8,3.14-38.76,4.11L109,1054.81l-45.7,3.42a107.31,107.31,0,0,1-17.74.34l0-2.23c1.66-.83,3.76.51,5.5-.17a7.08,7.08,0,0,0,1.92-1.46c5.16-4.49,11.58-.67,17.23-2.78,3.4-1.28,4.59-5.44,7.22-8,4-3.83,10.52-3.17,15.38-5.82,3.57-1.94,5.92-5.47,8.14-8.87-3.07,2.45-2,7.74-4.68,10.59-1.3,1.38-3.25,1.91-4.79,3s-2.61,3.45-1.33,4.85c3,.23,6,.45,8.91-.44s5.49-3.15,5.9-6.11a5.61,5.61,0,0,1,.55-2.49,3.84,3.84,0,0,1,2.65-1.22l10.54-1.83a7.27,7.27,0,0,0,3.59-1.31c1-.84,1.38-2.48.5-3.42l-7.08,10.47a2.94,2.94,0,0,0-.64,1.51c0,1.42,1.77,2,3.17,2.19,3.72.47,7.78.86,11-1.14,1.22-.77,2.27-1.87,3.64-2.33,3.51-1.17,7.87,2.22,10.79-.05a22.72,22.72,0,0,1-2.41-8.32,11.62,11.62,0,0,0,8.1,5.23,8.92,8.92,0,0,1-3.71,5.13,22.31,22.31,0,0,0,7.69.78c2.57-.34,5.15-1.76,6.15-4.15a23.05,23.05,0,0,1,1-2.71c1.29-2.28,4.45-2.66,6.31-4.5a10.45,10.45,0,0,0,2.21-4.16c1.94-5.58,1.38-9.41,1.48-14.9C170.55,1009.47,174.37,1008.4,176.09,1003.73Z"/><path class="cls-34" d="M267.22,1083.17a4.35,4.35,0,0,0,.7-2.69c.05-3-.32-6,.34-8.88s2.66-5.77,5.59-6.27c1.1-.19,2.35-.06,3.2-.79a3.79,3.79,0,0,0,1-2.35,39.52,39.52,0,0,0-.08-13.42,9.3,9.3,0,0,1-.22-3.88c.62-2.49,3.23-3.8,5.34-5.24s4.09-4.16,2.8-6.37c-1.53-.2-2.78,1.4-2.94,2.93s.37,3,.56,4.59c.69,5.54-3.16,11.13-1.67,16.52.39,1.38,1.11,2.66,1.4,4.06.75,3.6-1.39,7.09-3.44,10.14,1.86,2.15,5.57-.34,6-3.15s-.75-5.66-.41-8.48c.5-4.15,4.26-7.94,3-11.94,2.84,1.85,4.41,5.23,4.86,8.59a35.62,35.62,0,0,1-.59,10.13c-.58,3.82-1.39,8-4.45,10.41-4.63,3.59-12.76,1.63-15.81,6.63-.7,1.16-1,2.54-1.76,3.65-2.84,4.12-14.8,6.66-17.42,1C249.52,1080.32,264.43,1086.59,267.22,1083.17Z"/><path class="cls-35" d="M94.54,1053.12c.06-.13.11-.27.16-.4a6.33,6.33,0,0,1,1.09-2.48c1.32-1.32,3.7-.29,5.39-1.09s2.54-3,4.25-2.71a7,7,0,0,1-1.63,3,7.19,7.19,0,0,0,7.18-3.18c2.18-3.5,2.44-5.6,6.81-6.91,3.34-1,6.91-.81,10.34-1.21,5.05-.58,11-4,10.16-9-.24,5.4-1.55,11.75-6.51,13.9a12.41,12.41,0,0,0-2.57,1.16,3.57,3.57,0,0,0-.78,4.71,30.7,30.7,0,0,0,9.27-2.51c2.86-1.47,5.33-4.07,5.81-7.24.19-1.26.11-2.68,1-3.61a4.92,4.92,0,0,1,2.45-1.14,9.81,9.81,0,0,0,5-2.73c1.26-1.47,1.69-3.8.53-5.34a23.84,23.84,0,0,1,5.08,13.78,12.87,12.87,0,0,0,1.53-9.1c-.44-2.09-1.4-4.31-.56-6.28.38-.9,1.1-1.62,1.54-2.49a4.76,4.76,0,0,0-3.31-6.53c2.77-.57,6.31-.84,7.78,1.58,1.09,1.78.39,4,.11,6.11-.53,3.82.49,7.66.89,11.5.29,2.77-.3,3.79-1.15,6-.72,1.94-.11,4.09-.81,6a6.17,6.17,0,0,1-4.67,3.54,38.68,38.68,0,0,1-6.1.41c-4.34.26-8.5,1.75-12.8,2.41-8.33,1.28-16.93-.61-25.23.83-2.13.37-4.22.95-6.36,1.24a45.54,45.54,0,0,1-6.07.31l-10.44.09A5.65,5.65,0,0,0,94.54,1053.12Z"/><path class="cls-36" d="M184.88,64.87s5.28-4.71,10.45-4.71S207.92,61,214,64c0,0-16.35-1.24-20.81.91a64.83,64.83,0,0,1-5.95,2.64Z"/><path class="cls-36" d="M152.46,67.91s6.65-3,11.94-1.64,5.66,2.89,5.66,2.89a35.25,35.25,0,0,0-17.6,2.06Z"/><path class="cls-37" d="M190.08,75.68s5.2-3.3,6.69-3.46,9.42,0,9.42,0l3.94,2.85-5.76-2-9,1.07L194,76.18l2.4,3.06s11.24-.92,9.91-.83-9.43,2-10.41,2-6.44-3-6.44-3Z"/><path class="cls-38" d="M194,76.18c.33-.08,1.37-2.07,1.37-2.07s7.22-1.07,9-1.07,8.09,3.14,8.09,3.14-5.37,2.23-6.19,2.23-9.66.91-9.91.83A35.67,35.67,0,0,1,194,76.18Z"/><path class="cls-38" d="M155.4,80.39c.41-.16,8.83-1.36,8.83-1.36l4.05,2-4.13,3.32s-6,.47-6.19.47a38.22,38.22,0,0,1-3.32-2.23Z"/><polygon class="cls-39" points="197.68 76.14 198.88 79.03 205.28 78.33 206.59 73.82 204.37 73.04 197 73.92 197.68 76.14"/><polygon class="cls-39" points="157.35 79.94 158.57 84.77 164.15 84.3 165.68 79.73 164.23 79.03 157.35 79.94"/><polygon class="cls-5" points="180.12 98.34 180.12 96.03 184.88 95.37 187.93 101.2 184.03 98.78 180.12 98.34"/><path class="cls-5" d="M174.5,101.75a33.71,33.71,0,0,0-3-3.46l-1,1.73,1.1,2.5,1.65-1.32Z"/><path class="cls-40" d="M168.28,96s-4.35,4.62,0,7.6C168.28,103.63,164.64,101.31,168.28,96Z"/><path class="cls-41" d="M168.28,114.53s5.23-5.18,6.22-5.18,3.74,1.21,4.4.55,3.2-2.64,7.49-1.21,8.59,5,11.34,5,.28.66-3.77,3.41c0,0,2.29-1.53,0-2.53s-24.53,3.08-24.53,3.08A2,2,0,0,1,168.28,114.53Z"/><path d="M168.26,114.52c1.18-1.21,2.35-2.4,3.61-3.52a17.26,17.26,0,0,1,2-1.58,1.66,1.66,0,0,1,.68-.25,3.4,3.4,0,0,1,.65.09c.42.09.83.2,1.23.31s.81.2,1.21.26a1.71,1.71,0,0,0,1.07,0,6.48,6.48,0,0,1,2.16-1.35,7.86,7.86,0,0,1,5.07-.06c3.26,1,6,3,9,4.42a8,8,0,0,0,2.37.72c.4,0,.82,0,1.26.06a.58.58,0,0,1,.37.16.25.25,0,0,1,0,.28l-.13.14a4.7,4.7,0,0,1-.53.38c-1.44.87-2.88,1.72-4.24,2.68l-.21-.31a2,2,0,0,0,.9-1.23c0-.45-.51-.79-1-1a14.52,14.52,0,0,0-3.42,0c-2.33.22-4.65.53-7,.85-4.64.69-9.29,1.35-13.91,2.14h-.06a2.21,2.21,0,0,1-1.41-1.31,2,2,0,0,1-.05-1A3.65,3.65,0,0,1,168.26,114.52Zm0,0a3.47,3.47,0,0,0-.27.9,2,2,0,0,0,.09.91,2.06,2.06,0,0,0,1.35,1.14h-.06c4.62-.88,9.23-1.77,13.89-2.43,2.33-.34,4.66-.65,7-.83.59,0,1.18-.08,1.77-.09a6.78,6.78,0,0,1,1.83.13,2.79,2.79,0,0,1,.84.47,1.21,1.21,0,0,1,.43.94,2.37,2.37,0,0,1-1.11,1.53l-.21-.31c1.4-.94,2.88-1.76,4.31-2.6a4,4,0,0,0,.5-.34c.09-.06.11-.16.11-.1a.59.59,0,0,0-.21-.06c-.39-.07-.81,0-1.25-.09a8.09,8.09,0,0,1-2.41-.77c-3-1.43-5.86-3.35-9.07-4.24a7.85,7.85,0,0,0-4.82.13,6.46,6.46,0,0,0-2.07,1.29,2.06,2.06,0,0,1-1.39.11c-.42-.07-.83-.18-1.24-.29s-.81-.23-1.21-.32a4.32,4.32,0,0,0-.58-.09,1.33,1.33,0,0,0-.49.19,17.38,17.38,0,0,0-2,1.48C170.78,112.29,169.52,113.41,168.3,114.55Z"/><path class="cls-42" d="M194,117.06a21.93,21.93,0,0,1-7.57,4c-4.18,1.11-11.89.84-11.89.84A20,20,0,0,0,194,117.06Z"/><path class="cls-43" d="M192.45,126.36s-4.4-3.3-6.83-3.19-6,.52-8,2.31a23.31,23.31,0,0,0-2.83,2.76s5.58-3.53,10-2.54A26.71,26.71,0,0,0,192.45,126.36Z"/><path class="cls-40" d="M190.47,95.37c-1.09-.58,2.75,2.42.66,4.46C191.13,99.83,194.43,97.46,190.47,95.37Z"/><polygon class="cls-44" points="153.62 232.21 219.59 217.47 209.04 292.7 143.41 296.64 153.62 232.21"/><path class="cls-45" d="M153.68,232.49l22.31-5,35.54-7.94,8.12-1.81-.66-.23L215.42,243l-5.68,40.52-1.3,9.27.7-.36L187,293.72l-35.34,2.12-8.15.49.51.26,3.45-21.79,5.5-34.7,1.25-7.95c.07-.44-1.15-.27-1.21.11l-3.45,21.79-5.5,34.7-1.25,7.94c0,.26.33.27.5.26l22.15-1.34,35.33-2.12,8.15-.49c.18,0,.67-.12.71-.36l3.56-25.44,5.69-40.52,1.3-9.27c0-.31-.5-.26-.67-.22l-22.31,5-35.54,7.94-8.12,1.82C152.83,232.09,153,232.65,153.68,232.49Z"/><path class="cls-20" d="M200.15,227.27h0l-5.53,1.24h0l-8.68,1.94-5.1,31L203.93,258l5.82-32.86Zm-10.56,23.91,3.26-14.69,7.06-1.57L197,250.15Z"/><path class="cls-46" d="M199.52,227.25h0l.32-.23-14.21,3.17c-.13,0-.29.09-.31.24l-4.46,27.05-.65,3.91c0,.29.66.31.79.3l20.23-3,2.86-.43c.16,0,.43-.06.46-.26l5.11-28.82.71-4c.06-.34-.78-.3-.93-.27l-9.6,2.15c-.79.18.21.59.62.5l9.6-2.14-.94-.27L204,253.94l-.72,4,.47-.26-20.23,3-2.86.42.78.3,4.46-27.06.64-3.91-.31.24,14.21-3.18c.1,0,.31-.09.31-.23h0C200.77,226.89,199.52,226.86,199.52,227.25Z"/><path class="cls-47" d="M190.21,251.2l2.85-12.83.41-1.86-.31.23,7.06-1.57-.93-.27-2.57,13.31-.37,1.92.46-.26-7.38,1c-.84.12-.25.64.31.56l7.39-1c.17,0,.43-.06.47-.26l2.57-13.3.37-1.92c.06-.34-.79-.3-.94-.27l-7.06,1.57a.38.38,0,0,0-.32.24l-2.84,12.82-.42,1.86C188.89,251.5,190.12,251.62,190.21,251.2Z"/><polygon class="cls-20" points="182.84 265.22 194.15 264.36 190.52 286.17 179.34 286.86 182.84 265.22"/><path class="cls-48" d="M183.27,265.4l11.3-.86-1-.27L191.24,278l-1.19,7.17a5.38,5.38,0,0,0-.12.7c0,.29.15.08,0,.11a14.74,14.74,0,0,1-3,.18l-8.07.5,1,.27L183,268l.43-2.71c0-.22-1.2-.42-1.23-.18l-3.06,18.93-.44,2.7c0,.25.9.28,1,.27l11.17-.68s.19,0,.2-.09l3.17-19,.46-2.77c0-.25-.9-.28-1-.27l-11.3.85C181.87,265.09,183,265.41,183.27,265.4Z"/><path class="cls-49" d="M186.75,255.5l-1,5.91,8.36-1.31,1.71-7.09s-.66,4.78-3,1.8l0-4.09-2.05,4.09-1.23-3.63-1.5,4.32L186.75,253Z"/><path class="cls-50" d="M186.13,255.59l-1,5.91c0,.21.59.16.65.15l8.36-1.31c.13,0,.53-.08.58-.26l1.71-7.09-1.23.11a6.29,6.29,0,0,1-.39,1.49,3.2,3.2,0,0,1-.56.92c-.08.1-.18,0,0,0,.58.06.16,0,.12-.05s-.42-.28-.6-.47-.28-.38-.28-.79v-3.61c0-.35-1.11-.12-1.22.11l-2.05,4.09,1.22-.1-1.24-3.64c-.11-.32-1.12-.18-1.22.11l-1.5,4.32,1.2-.17-1.34-2.49c-.15-.27-1.21-.1-1.21.24v2.49c0,.3,1.24.2,1.24-.18v-2.49l-1.21.24,1.34,2.49c.14.26,1.1.09,1.19-.17l1.5-4.32-1.22.11,1.24,3.63c.11.35,1.09.16,1.22-.11l2-4.09-1.23.11v3.37a2.81,2.81,0,0,0,0,.71,2.2,2.2,0,0,0,1,1,1.92,1.92,0,0,0,1.27.16,2.09,2.09,0,0,0,1.54-1.45,7,7,0,0,0,.42-1.63c0-.27-1.15-.19-1.22.11l-1.72,7.09.58-.26-8.37,1.31.66.15,1-5.91C187.41,255.16,186.19,255.19,186.13,255.59Z"/><path class="cls-20" d="M168.28,271l2.81-.73,2.47-13.22L157,259.77l-5.11,29.07,18-1.32,3-16-4,.66Zm-6.48-8.32,8.83-1.92-1.33,7.16-9.22,1.64Zm5.1,20.64-8.7,1.23,2-9.47,8.8-1.41Z"/><path class="cls-51" d="M168.68,271.45l2.81-.73a.17.17,0,0,0,.11-.12l2.47-13.22c.08-.4-.56-.84-.91-.78l-16.53,2.72a.15.15,0,0,0-.1.12l-4.48,25.49-.63,3.58c-.06.34.49.82.82.8l18-1.32c.09,0,.18,0,.2-.14l3-16c.08-.41-.56-.84-.91-.79l-4,.66.82.46-.66-1.15c-.23-.4-1.22-.72-.82,0l.66,1.16a.91.91,0,0,0,.82.46l4-.66-.92-.78-2.71,14.67a4.75,4.75,0,0,0-.19,1c0,.35-.16.26.09.18a10.5,10.5,0,0,1-2.1.15l-9.19.67-6.67.49.82.8,3.38-19.24,1.62-9.21c0-.14,0-.49.11-.61-.17.24.37,0,.59,0l5-.83,10.8-1.77-.92-.79-1.62,8.66c-.26,1.4-.57,2.8-.79,4.2a1,1,0,0,1-.06.34c.15-.2-.24,0-.43,0l-2.28.59C167.48,270.65,168.28,271.56,168.68,271.45Z"/><path class="cls-52" d="M162.2,263.13l7.73-1.68,1.11-.24-.92-.78-1.29,6.93a.5.5,0,0,0,0,.16c0,.16-.23-.09.09,0a1,1,0,0,0-.24,0l-1.4.25-4.49.8-3.09.55.92.78,1.72-6.88c.1-.4-.91-1.1-1-.66l-1.73,6.88c-.09.4.59.85.92.79l8.08-1.45,1.14-.2a.15.15,0,0,0,.11-.12l1.33-7.16c.07-.39-.57-.86-.92-.79L162.5,262l-1.11.24C161,262.31,161.79,263.22,162.2,263.13Z"/><path class="cls-53" d="M166.59,282.86l-8.7,1.22.82.8,1.67-7.95a7.57,7.57,0,0,0,.29-1.4s0-.08,0-.11-.15.07-.06.1.34,0,.44-.07l4.51-.72,3.82-.61-.92-.78-1.82,8.43-.27,1.22c-.08.4.93,1.1,1,.66l1.83-8.43.26-1.22c.09-.4-.57-.84-.91-.78l-8.81,1.4a.14.14,0,0,0-.1.12l-1.74,8.3-.25,1.17c-.07.33.5.85.82.8l8.7-1.22C167.77,283.71,167,282.8,166.59,282.86Z"/><polygon class="cls-20" points="158.27 238.14 178.67 233.67 182.84 232.85 181.5 240.94 173.4 242.76 170.56 262.25 162.5 263.4 165.14 244.08 157.04 245.89 158.27 238.14"/><path class="cls-54" d="M150.1,269.56s-13,86.44-9,91.47h-2.73s6.36-68.67,5.89-71.34S150.1,269.56,150.1,269.56Z"/><path class="cls-55" d="M120.21,294.37s8.54,59.37-1.52,66.66-14.58,21.05-19.3,23.52a22.72,22.72,0,0,1-8.24,2.67S94.87,412,105.75,414c0,0,8.71-4.35,10.93-6.43s3.69-6.9,8.53-7.73-8.37-3.35-11.24-2.12-6.37,5.75-6.78,2.67,10.27-8,5.34-12.53-8.21-5.95-6.16-9.24,9.44-15.5,13.55-15.65,9.38-.1,9.38-.1.53-9.68-1.24-10.82-3.1-.42-2.93-1,2.39-5.07,2.39-5.07a23.83,23.83,0,0,1,2.62,14.37l1,2.6,1.85-.18s-.63-13.21-4.42-23.37S120.21,294.37,120.21,294.37Z"/><path class="cls-56" d="M178.64,347.59s3.32.74,3.08,2.05l-.24,1.31,4.56-1.36S181.72,346,178.64,347.59Z"/><path class="cls-54" d="M188.09,223s-7.6,25.89-9,44S180.08,221.52,188.09,223Z"/><path class="cls-57" d="M269.4,173.27s-7.6,4.72-9.65,8.83C259.75,182.1,265.91,172,269.4,173.27Z"/><path class="cls-54" d="M320.73,245.54c0,.62-2.63,13.62-11.89,18.82,0,0,13.94-4.45,11.89-18.2Z"/><path class="cls-54" d="M291,256.83c-3.18,1.18,26.28-8.62,30-19.3s2.47-16.22,2.47-16.22S329.76,242.46,291,256.83Z"/><path class="cls-55" d="M308.84,297.84s7.84,9.16,6,10.75-4.41,3.94-8.81,3Z"/><path class="cls-58" d="M235.65,301.79s-6.5,14.79-6.29,16.64-2.05-15-2.05-15l.12,25.6s5.19-.5,4.85-3.86S233.32,305.68,235.65,301.79Z"/><path class="cls-59" d="M281.72,382.29s6.83,19.8,9.44,23a15.78,15.78,0,0,1,2.83,5.34c0-.68-2.08-6.44-.85-9.41s4.18-1.26-.13-8Z"/><path class="cls-60" d="M256.46,395.63c-1.41.32,16.43,1,20.33,6.57a32.64,32.64,0,0,1,4.93,9.65s4.1-.2,5.34.83S287.47,388.65,256.46,395.63Z"/><path class="cls-61" d="M281.72,435.67s-4.73-8.21,0-10.47,9.59-4.06,9.59-4.06S284.18,436.08,281.72,435.67Z"/><path class="cls-55" d="M113.14,423.35s.41,6.16,4.52,8.42-6.36-1.64-10.47-1.23-9.54,4.18-9.54,4.18l12.95-12.34Z"/><path class="cls-62" d="M122.18,221.31s-4.72,16.22-4.72,18.28-2.47,11.29-1.65,14.57.08,9.65-.16,7-6.61-16.64-5.38-23-.16-9.65-.16-9.65-3.33,8.44-1.89,13.05,4.31,13.64,4.31,13.64-7.6-9.65-9.45-9-7.8,7.8,9.55,16.83c0,0-15.3-12.73-7.7-10.26s8.21,7.8,9,10.26,1.84,6.57,1.84,6.57-19.88-10.07-21.76-10.47-2.26,1-2.26,1-2.67,3.41,1.85,4.3,7-1,13,2.12,8.2,4.32,10,11.09a121.07,121.07,0,0,1,2.67,12.12s-3.49-43.12,1.44-56.26Z"/><path class="cls-62" d="M91.77,267c6.8.91,11.93,2.35,13.37,3.79s-9,.2-9.65,3.28,2.67,3.64-1.65,4.9a20.53,20.53,0,0,0-7.53,4.36,13.47,13.47,0,0,1,6.49-8.17Z"/><path class="cls-54" d="M131,267s-2.88,16.52,1.85,29.86,4.92,18.07,4.92,18.07-3.28-23.38-.82-31.6a31.39,31.39,0,0,0,.82-15l-5.13-11.5Z"/><path class="cls-62" d="M200.61,283.34c-2-.74,11.91,29.34,13.76,38s-2.64,13.24,2.17,12.57l8.83-4S208.83,286.43,200.61,283.34Z"/><path class="cls-54" d="M259.75,187.64S230.39,232,232.64,256.83l1,16.84s1-27.56,11.09-50.74S263,192.16,263,192.16Z"/><path class="cls-62" d="M270.42,193.92s-23.53,25.75-22.64,30.27-2.41,46-3.43,49.48a21.15,21.15,0,0,0-1,5.31s17.86-23.17,25.46-27.28a120.55,120.55,0,0,1,17-7.19s-31.21,9.65-36.34,23.41c0,0,14-24,22-30.39,0,0-14.37,7.81-18.48,17.66,0,0,14.78-25.25,24.64-28.95,0,0-24.91,15.92-25.46,26.9,0,0,5.75-19.51,12.42-22.49,0,0-11.6,7.91-12.63,14.89a34.93,34.93,0,0,1,5.34-18.07C263,218,270.22,204.89,277.61,202c0,0-19.51,6.57-24.23,27.52,0,0,3.29-15.61,11.19-23.82s11-13.55,16.33-15.2c0,0-23.21,17.46-25.88,26.9Z"/><path class="cls-62" d="M236.13,435.68c1,.83-26.48-26.29-34.7-29a72.06,72.06,0,0,0-12.52-3.16s21.15-.53,26.08-1.77a135.23,135.23,0,0,0,13.55-4.1c1.23-.62,2.42-2.89,2.42-2.89s-18.61,6.78-45.22,5.23-41.58-1.7-49.34-1.35-2.11.86-5,2.91-8.42,3.69-2.06,3.49,8.14.41,14.85,2.26,25.54,6.77,37.07,11.7,10.71-.2,16.25,8.83,8.63,10.08,7.19,7.81-1-15.21-26.9-19.93-32.44-8.62-34.9-11.29-4.52-3.08-.82-3.49,36.54.65,42.09,2.59S217.24,420.08,236.13,435.68Z"/><path class="cls-54" d="M115.59,408.39s3,2.64,10.84,2,15.79-2.69,17.78.09,9,11.2,9,11.2-1.59-5.1-14.86-6.66-19.43,2-23.74,0-6.19-3.05-4.74-3.22S115.59,408.39,115.59,408.39Z"/><path class="cls-54" d="M165.5,438.55s-11.7-.21-16.42-5.14,1.64-8,2.87-9.85-1,3.49,13.55,8.42,18.89,7.59,18.89,7.59Z"/><path class="cls-63" d="M93.35,458c.54-.81,4.78-4.88,5.82-8.66a43.57,43.57,0,0,0,1.31-7.3s59.89,5.69,79.81,8,28.74,1.67,37,3.72a132.19,132.19,0,0,1,14,4.26s-23.41-.77-33.27-3-12.73-2.05-26.07-2.67-16.22-.67-23.41-2.28-10.27-1.21-10.27-1.21l-.41,6.37s-12.29-2.88-19.18-2.88-7.69,2.06-10.47-.41a17.73,17.73,0,0,0-5-3.28l-1,13.14s1.64-7.19-2.06-5.54A20.71,20.71,0,0,1,93.35,458Z"/><path class="cls-64" d="M280.24,532.7s-7.76.71-5.92-4.63,3.54-6.57-.28-16-6.9-16.83-17.58-23.2S241.68,471,238.6,467.5a39.11,39.11,0,0,0-6.37-5.75s-2.87,16.43,1.65,29.57,6,19.3,9.44,27.71a98,98,0,0,1,4.72,13.7s-5.75-11.85-9.44-18.83S231,508,228.33,501.17s-2.26-22-2.26-22,.41,18.28,5.14,23,2.46-1.85,2.46-1.85-8.21-27.51-5.54-37l3.08-5.39s28.13,8.27,33,19.76c0,0,4.93,2.26,6.16,4.93l6.3,7.46s-7.32-8.28-11-9.1,7,10.47,7,10.47-9.65-14.37-13.34-16.84S240.24,463.6,239,464.21s8.42,15.81,12.52,17.87,7.81,5.33,11.3,8.83,15,20.73,15,28.54S275.68,531.37,280.24,532.7Z"/><path class="cls-55" d="M136.35,458c.57-1-13.35,40.91-6.16,60.83C130.19,518.83,122.54,481.62,136.35,458Z"/><path class="cls-65" d="M140.45,548.4s16.59,82.54,17.44,88.08-.6,34.5,2.89,41.07,3.49-1.65,4.31,11.91-2.05,8.42-1.85,18,3.49,19.4,3.9,26.59-4.31,23.41-4.51,29.57-3.49,3.9-2.47,12.93,10.07,43.31,10.07,43.31-.42-28.19-.08-30.62-.85-11.42-1.44-17.1-1-9-.13-12.15,6.16-27.43,2-39.83c0,0-1.19-2.55,3.62-5.52s7.89-12.08.91-27.65c0,0,2.6-29.66,4.27-29.7s-12.08-31.86-12.7-38.63-25-68.58-26.28-76.38l-4.09-9.51Z"/><path class="cls-54" d="M146,514.72s18.48,68,19.3,70-.21-36.14,0-35.73,33,25.87,33,25.87S146,522.11,146,514.72Z"/><path class="cls-66" d="M160.4,985.37s-5.17,1.93-5.94,4.9-.55,11.68-5.07,13-10.35,3.63-25.65,1.54-19.27-6.72-24-7.27-11.89-1-11.34-1,9.14,2,13.54,3.08,10.54,6.06,22.45,6.83,16.76.33,19.62,0,11.45-4.84,12.11-6.17a42.76,42.76,0,0,0,2.75-6.6,12.6,12.6,0,0,1,2.58-4.64Z"/><path class="cls-67" d="M148.62,974.42s1.1-6.17,6.39-5.29,10.79,4.32,11,2.6c0,0-5.5,4.23-8.7,2.69S148.62,974.42,148.62,974.42Z"/><path class="cls-68" d="M124.9,958.12c1.26-.66,6.55-4.18,12.49-2.2s7.93,6.16,15,4.84,13.87-1.76,16.73-1.1.45,6.83-6.16,6.83-6.39-.66-9,0-19.38-2.2-21.8-4.63S124.9,958.12,124.9,958.12Z"/><path class="cls-69" d="M99.14,954.45c-1.83-2.77,9.18-1.47,10.94,0a7.17,7.17,0,0,1,2.21,3.67H97.68S99.83,955.51,99.14,954.45Z"/><path class="cls-70" d="M108.1,946.45s21.14-2,31.27,2,14.1,9.69,14.1,9.69-11.45-2-16.52-5.3-12.55,2.78-14.75,2.5,4.18-2.49-1.55-4.69S108.1,946.45,108.1,946.45Z"/><path class="cls-71" d="M99.77,922.55c-.47-2.11,7.23,6.06,12.52,8s8.8,8.37,8.8,8.37l.89,2.64s-5.69-4.4-11.11-5.72-12-6.24-12-6.24S100.28,924.8,99.77,922.55Z"/><path class="cls-72" d="M89.79,979.5a43.76,43.76,0,0,0,7.89-4.74c5.14-3.65,13.28-1.44,17.47,1s7.71,9.63,7.71,9.63-12.37-11.17-16.54-9-5,4.62-9.89,5.51-9.78,2.76-9.53,2.26S89.79,979.5,89.79,979.5Z"/><path class="cls-73" d="M106.78,915.62c.88.88,18.5,10.57,33.25,10.57h13.44s-21.58,4.18-31.49,2S104.87,918,104.87,918Z"/><path class="cls-74" d="M100.43,872s6.57,17.18,11.86,21.58-5.93,18.06-5.93,18.06,5.85-7.71-1.49-11.89c0,0-5.91-4-5.84-4.85S100.44,874,100.43,872Z"/><path class="cls-75" d="M100,803.08c.88,1.54,14.54,25.1,11.67,35.68s-2,44-2.2,43.38-9.25-17.84-8.37-27.75-5.44-16.77-5.79-19.59-3.8-28.42-2.63-31.72S100,803.08,100,803.08Z"/><path class="cls-76" d="M115.59,786.78c-3.3-4.84-27.75-31.19-32.38-29.73s9,26.67,9.18,39.86c0,0-6.29-18.36-11.48-29.11,0,0-3.92-17.66-3.58-32.33,0-.89.47-72,.47-72l.7-65.19s.26-44.79,1.82-48.49-.13-26.59-.22-28.12-.79-12.27-1.28-14.92-4.24-20.86,0-24.24c0,0,7.07,22.47,7.95,32.23s-4.19,67.25-4.85,84.2,0,19.83,0,19.83,5.07,27.52,15.86,42.5c0,0-12.33-10.57-15-18.94s-1.76,26,2,40.52-.66,17.4,7,29.51c0,0-10.79-19.38-10.79-15.85s-7.27,40.3,1.54,49.33,39,12.55,45.59,51.09c0,0-9.47-15.41-11-12.77Z"/><path class="cls-77" d="M217.22,784c5.95,9.36,10.8,11.12,2.76,9s-13.84,0-13.84-1,.66-8.38,0-12.14S211.28,774.67,217.22,784Z"/><path class="cls-78" d="M208.2,793.85s-2.91,2.08-1.68,4.39,1,6.93,3.36,11,3.21,5.4,3.21,5.4-2.14-7.2-.82-9.18,3.74-4,8.37-2.31,17.73,1.32,13.76-.44S208.2,793.85,208.2,793.85Z"/><path class="cls-79" d="M217.56,806.6a71.31,71.31,0,0,0,20,3c11,0,17.06,2.54,19.49,3.53s-15.75-.44-27.31.55-12.33-1.21-12.22-1.54S212.84,809.57,217.56,806.6Z"/><path class="cls-80" d="M215.48,813.9c5.38,4,14.3,15.39,14.19,19.24s-2.71,5.51,5.47,7.93S251,852.63,252.9,856.48s6.28,7.6.66,10.24-14,3.31-22.79,1.66-11.82,1.7-12.35-.33-5.33-23.78-4.92-34.47a150.26,150.26,0,0,0-.41-18.9Z"/><path class="cls-81" d="M226.8,915.62s-10.35,13.65-11.23,19.16a27.77,27.77,0,0,0,0,9.47s10.13-8.81,11.23-9.25S230.77,926.19,226.8,915.62Z"/><path class="cls-82" d="M255.21,961c2.21.69,7,9.5,12.78,9.5s10.13,4.31,10.13,4.31-16.08,1.1-18.28-1.93S255.21,961,255.21,961Z"/><path class="cls-83" d="M278.12,944.25c-4.19-2.87-17.18-7.93-30-6.61s-11,1.32-21.81,4-9,5.18-8.36,4.35,7.48-1.94,18.72.16,7.84.56,11.07-1,.6-1.32,4.56-1.77,6.83-.44,14.32.89S278.12,944.25,278.12,944.25Z"/><path class="cls-84" d="M263.36,990.05s-16.29-10.79-23.78-13.65-9.88-1.37-14.1,0-5.72,6-5.72,6,6.05.05,9.08,3,9,2.92,14.7,2.7S261.16,988.07,263.36,990.05Z"/><path class="cls-85" d="M281.42,990.05s-4.62,1.33-6.6,4,6.6-.66,6.6-.66l4.63-5.07Z"/><path class="cls-86" d="M280.28,1001.07c-1.72,1.76-4.14,11.45-11.19,6.82s4.84-5.94-13.88-9.25-14-5.06-26.37-5.28-16.35,3.74-1.81,4.18,20.48,2.64,25.1,6.39-.44.44,7.27,4.18,11.94,7.67,14.09,3.75S280.28,1001.07,280.28,1001.07Z"/><path class="cls-87" d="M283.84,1011.2c-1.32.88-3.16,7.48-3.56,10.35s.44,2,1.78-1.32S283.84,1011.2,283.84,1011.2Z"/><path class="cls-88" d="M232.31,1006.89c-3.3-1.64-4.84-1.64-4.84-1.64s-3.7,4.84-10,0l-6.3-4.85s-1-2.93-1.12-2.3-1.52,10.23,2.22,13.1,8.59-.88,15.2,0S232.31,1006.89,232.31,1006.89Z"/><path class="cls-89" d="M227.47,1020c6.84.77,12.46.36,21.53,3.26s5.55,2.46,17.67,4.44,17.35.38,17.35.38-15.68,4.91-35-2.58-33.82-2.24-33.82-2.24S225.52,1019.78,227.47,1020Z"/><path class="cls-90" d="M14.44,253c4.33,4,14.35,2.17,20,3.25,8,1.53,16,4.55,21.22,11.17,3.84,4.89,5.72,11.2,10.14,15.58a31.91,31.91,0,0,1,3,3,15.78,15.78,0,0,1,2.12,4.27c5.9,16.18,7.77,33.5,9.6,50.61.9,8.49,1.4,17.14,2.73,25.58s6.23,13.33,11.48,20l-3.54.74-11-.94-12.38-7.85-3.29-4.7-8.61-16.11-3.54-6.88L42.83,334l-6.37-14.72-3.63-10.16L28.34,290.5s-5.29-18.33-6-18.91c-4-3.36-5.89-13.75-7.93-18.58Z"/><path class="cls-57" d="M81.59,303.31s12.47,23.46,15,24.84L81,303.83Z"/><path class="cls-41" d="M214,374.56c.59-.93-16.35,18.83-39.64,19.49s-34.13-.16-41.43,0S199.17,398,214,374.56Z"/><path class="cls-91" d="M228.57,120.86S216,138,197.35,140.68s-17.84,2.15-20.32,0,2.32-3,0-5.29-3.14-4.79-1.81-6.77,3.79-4,2.47-5.12-3.3-1.15-4.29-2.64,3.14-4.79,7.93-4.79a55.79,55.79,0,0,0,11.23-1.65s-11.89.66-16.68.82-8.59,0-9.91-.82S160,103.85,158.2,98.89s-1.65-6.11,0-7.43S154.11,85,154.67,82s-.43-12.55,6-10.73,10.08,7.1,10.08,8.59-3.64-.33-2.15,1.65.82,4.13.66,5.45.5,4,.16,2.64,5.95-8.42,4.79-12.55-2.8-7.77-7.1-10.08-9.74-3.3-7.43-5.61,5.95-4,10.9-5.62,5.12-5.12,7.93-11.23,5.28-1.16,1.65-6.77-12.88-.5-16.35-.66-9.29,2.14-9.19,2.47,1.55,3.8,0,7.11a64.75,64.75,0,0,0-3,9.58l.94,10.9a39.84,39.84,0,0,0,.15,12.57c1.22,6.26-1.62,17,.05,23.92s-.13,11.65,6,22.84c0,0,7.63,11.69,16.24,18,0,0,9.57,35.31,6.41,40.1,0,0,0,.8-2.26,1.62,0,0-3.56,5.35.29,6.8s-10,.64,7.48.47,9.3.43,14.06-.91,3.56-.95,9.24-2.67A70.86,70.86,0,0,1,221,187.64s-5.29-5-5.95-7.81-3,6-5.28,7.81-6.61,4.08-6,.94,3.8-8.09,4.13-12.88-3-.17-8.92,3.63-8.92-.94-8.09-6.17.49-3.24,2.14-11,2.65-12.72,6.28-14.53,5-3.29,6.61-3.63,2.81.49,8.59-4,8.92-6,11.06-9.25S228.57,120.86,228.57,120.86Z"/><path class="cls-92" d="M237.32,184.62S213.21,194.53,206.1,197s-4.79,4-13.38,3.64-15.36,1.41-17.83,0-3.8-7.77-3.8-7.77-.17,5.25,4.29,5.91,19.49.5,21.8-.16S237.32,184.62,237.32,184.62Z"/><path class="cls-93" d="M236,85.32c0-.47,1.32-4.6,4-3.85a10.71,10.71,0,0,1,7.11,7c1.07,3.8,1.07,6.12.74,7.19s-.88-10.9-5.81-11.15S236,85.32,236,85.32Z"/><path class="cls-94" d="M235.34,87.91c1.16.57,3.3-.17,4.79,2.23s2.89,3.44,3.05,5.6.69,3.48-1.18,4.06-3.61.91-3.94,1.32l-.33.41s4.41-3.71,1.63-5.53-1.79.5-3,1.24-1.9,2.56-2.06.82,1.07-3.3,0-6.11A3.16,3.16,0,0,1,235.34,87.91Z"/><path class="cls-91" d="M194.54,82.54s11.7,4,7.93,3.47C201.44,85.85,196.85,85.68,194.54,82.54Z"/><path class="cls-37" d="M186.45,75.27s3.47-5.45,8.09-6.11C194.54,69.16,185.62,72.46,186.45,75.27Z"/><path class="cls-95" d="M46.7,240.81s-4.41-13.53-3.62-17,11.17-14.62,12.27-31.29c0,0,7.5-4.41,5.4-9.91,0,0,6.86-7.71-2.89-11.8,0,0,4.25-13,2-16.35s-6.77-5.82-8.34-4.25c0,0-.94-7.71-10.06-6s-15.1,2.52-16,3.78S23,157.93,19,161.7s-11.64,5.35-12.9,8-1.26,6.76-2.67,8.34S0,181.83.62,190s6.76,27.68,6.92,32.55,2.67,21.86,3.61,23.75c2.3,4.59,4.51,9.08,5.66,14.12.17.76.32,1.52.53,2.27a24.69,24.69,0,0,0,.84,2.37l1.74,4.45a20.1,20.1,0,0,0,1.76,3.72,9.66,9.66,0,0,0,2.61,2.92c1-1.12.79-3.14.84-4.52.07-1.64.43-3.48,1.82-4.37l4.95,8.25c.2.33.51.71.88.61a.82.82,0,0,0,.38-.31c.68-1,.41-2.28.34-3.46s.33-2.65,1.49-2.87a2.45,2.45,0,0,1,1.71.5c3.56,2.34,4.62,7.36,8.21,9.63a29.55,29.55,0,0,1,2.73,1.6c1.61,1.3,2.61,3.76,4.68,3.8,1.17-1.25.76-3.3-.09-4.79s-2.07-2.82-2.4-4.5c-.27-1.35.06-2.84-.61-4a11.74,11.74,0,0,0-1.71-1.89,2.08,2.08,0,0,1-.52-2.33,5.69,5.69,0,0,1,4.8,3.87c.31,1,.38,2.07,1.09,2.8s2.06.87,2.74,1.72a8.11,8.11,0,0,1,.8,1.91,6.75,6.75,0,0,0,1.39,1.86q2.19,2.36,4.4,4.7a1.39,1.39,0,0,0,.7.5c.9.21,1.26-1.14,1.09-2a14.53,14.53,0,0,0-1-3.15,17.11,17.11,0,0,0,5.45,5.26l0,0C59.41,270.32,48.4,251.14,46.7,240.81Zm-9.57-82.43V157.2l12.39-4.13-4.33,9.18s.27,0-.82.46S37.13,158.38,37.13,158.38Z"/><path class="cls-96" d="M47,153.73s-9.74,1.82-9.91,3.47,6.94,6.11,6.94,6.11S31.85,156,30.36,155.88s-5.29-2.15-5,2-1.65,6.6,6.28,10.07S51,174.54,54,176.69a15.14,15.14,0,0,1,4.46,5.61S37.13,172.06,33,170.74s-19,3.14-21,3.8-.67-3-2.65-1.32a22.41,22.41,0,0,0-3.8,4.62s-4.62,2.65,0,2.32,10.74-5.12,13.05-4.3,4,5,8.59,5.29S49,188.58,49,188.58s-16.18-5-23.29-5-12.55,0-13,.17l-.5.16a62.18,62.18,0,0,0-4.46,4.63c-.33.66,5.45-.33,5.62,2.15S7,194.58,5.75,201.46s2.64,11.07,3,14.21a17.22,17.22,0,0,1-1.18,6.89l-7-29.85s-1-12.12,3.37-15.27c0,0,1.36-7.13,2.54-8.18s9.5-5,11.05-6.3,6.25-8.43,8-14.94l16.73-3.89s-2.1,1.67-1.6,4S47,153.73,47,153.73Z"/><path class="cls-55" d="M152.53,63.83a16.08,16.08,0,0,1,2-7.06c1.77-3.3.71-4,.12-7.43s1.09-.83,4.72-3,6.94-5.12,10.7-8.1,3.17,2.48,4.44,2.31,1.21,4.46,2.89,6.59,2.12-1,2.73-2.79,0-7.43,0-7.43l13.84.33c3.72,12.22,7.19,14.54,9.25,15.69s7.85,1.16,1.9-3.63-3.8-10.41-5.33-12.55,2.52,0,6.81,0,7.28,10.07,8.1,13,4.63-.26,7.27,5.53,1.82,3.63,3.3,2.64-.33-7.1,0-8.1,1.16,8.76,2.32,14.7,0,13.88,1,18,1.32,3.3,1.81,0,6.94-3.64,7.44-4.79,6.41.28,6.41.28.31-.15,1.1-4.56.15-4.09.78-6.29,4.72-1.26.63-4.87c-.85-.75-1.74-1.47-2.63-2.17,1.41-13,3.42-22.24,0-35.66-1-4.06-2.16-8.26-4.8-11.51-5.4-6.66-15.26-7.29-23.78-6.36-7.72.85-16.23,2.36-22.66-2-1.55-1-2.92-2.41-4.64-3.15a14.71,14.71,0,0,0-5.12-.84c-6.74-.28-13.89-.47-19.74,2.89-7.67,4.42-10.93,13.61-13.61,22a8.55,8.55,0,0,0-10.53,1.79c-5.3,6.59,7.72,14.34-1.21,20.08-1.47.95-3.23,1.4-4.6,2.49-2.64,2.1-3,6.12-1.87,9.29s3.62,5.67,6,8.07c2.07,2.1,4.58,4.52,5.74,7.29.75,1.76.42,5.29,2.29,6.3a6,6,0,0,0,2,.41,1.79,1.79,0,0,1,1.57,1.13,6.61,6.61,0,0,1,0,1.09c.07,1.81,2.81,2.36,3.28,4.1a81.55,81.55,0,0,0-.61-12.78,21.89,21.89,0,0,1-.29-3.7c.11-2.47,1.05-4.61,1.05-7.09Z"/><polygon class="cls-97" points="152.48 86.02 170.27 85.32 171.75 69 149.6 70.48 152.48 86.02"/><polygon class="cls-57" points="152.48 86.02 170.27 85.32 171.75 69 149.6 70.48 152.48 86.02"/><polygon class="cls-98" points="218.82 65.56 216.51 65.19 178.35 66.68 146.48 68.58 146.48 70.23 147.96 71.05 151.42 86.06 152.48 86.02 149.6 70.48 174.45 68.82 181.82 68.58 183.43 68.58 214.03 67.51 212.56 84.27 214.03 84.3 215.52 71.22 217.83 71.22 218 71.32 218 70.32 218.82 65.56"/><polygon class="cls-5" points="234.84 78.08 218.82 65.56 218 70.32 218 71.32 232.82 79.88 234.84 78.08"/><polygon class="cls-99" points="183.43 68.58 181.82 68.58 185.26 84.77 212.56 84.27 214.03 67.51 183.43 68.58"/><polygon class="cls-57" points="183.43 68.58 181.82 68.58 185.26 84.77 212.56 84.27 214.03 67.51 183.43 68.58"/></g></g></g></svg>