<svg xmlns="http://www.w3.org/2000/svg" viewBox="0 0 1964.91 2617.49"><defs><style>.cls-1{fill:#371a45;}.cls-2{fill:#fff;}.cls-3{opacity:0.25;}.cls-4{opacity:0.35;}.cls-5{fill:#22a7f0;}.cls-6{fill:#2577ef;}.cls-7{fill:#111a28;}.cls-8{opacity:0.5;}.cls-9{opacity:0.3;}.cls-10{fill:#ccc;}.cls-11{fill:#4da2ff;}.cls-12{fill:#2580ef;}.cls-13{opacity:0.6;}</style></defs><g id="Layer_2" data-name="Layer 2"><g id="Layer_5" data-name="Layer 5"><path class="cls-1" d="M1306.64,2117.81q-5.37,0-10.77-.34l-549-34.43a170.55,170.55,0,0,1-159.13-180.42l34.06-543.29A170.57,170.57,0,0,1,802.17,1200.2l549.05,34.43a170.57,170.57,0,0,1,159.13,180.42l-34.06,543.29a170.64,170.64,0,0,1-169.65,159.47Zm-515.2-885.27a137.94,137.94,0,0,0-137.08,128.84l-34.07,543.29a137.92,137.92,0,0,0,128.57,145.77l549.05,34.42a137.88,137.88,0,0,0,145.77-128.56L1477.75,1413a137.9,137.9,0,0,0-128.57-145.77l-549.05-34.43Q795.78,1232.54,791.44,1232.54Z"/><path class="cls-2" d="M1772.19,2071.36c-41.82,31.73-124.52-12-124.52-12s-82.9,30.8-191.7,26.67c-9.59-.36-19.4-1-29.36-2-140.37-13.52-174.63-414-174.63-414l28.22-127.67,27.48-124.35,29.78-134.73,4.86-22.06c25.52,24.59,50.43,64.45,74,112.44,94.26,192.07,166.46,514.86,166.46,514.86s55.5-.73,107.25,14.13c42.14,12.09,83.63,69.84,93.64,116C1788.53,2041.22,1785.88,2061,1772.19,2071.36Z"/><g class="cls-3"><path class="cls-1" d="M1772.19,2071.36c-41.82,31.73-124.52-12-124.52-12s-82.9,30.8-191.7,26.67c-9.59-.36-19.4-1-29.36-2-140.37-13.52-174.63-414-174.63-414l28.22-127.67,89.72-98.3c6.91,8.46,142.7,540.19,142.7,540.19s99.81-23.69,154.94,13.72c44.15,29.9,89.52,37.49,116.11,20.67C1788.53,2041.22,1785.88,2061,1772.19,2071.36Z"/></g><path class="cls-1" d="M1476.68,2102.79c-16.55,0-33.81-.74-51.61-2.44-65.8-6.32-117.69-81.77-154.22-224.26-26.15-101.95-34.77-200.45-35.13-204.59a16.33,16.33,0,0,1,32.55-2.79c9.23,107.62,55.94,389.13,159.92,399.11,117.37,11.27,212.85-23.39,213.8-23.74l6.84-2.53,6.47,3.4c20.47,10.76,79.64,34.17,107,13.41,9.27-7,7.68-24,5.91-33.49-7.54-40.4-45.32-95.69-82.72-106.44-48.68-14-102-13.55-102.52-13.49l-13.25.16-2.9-12.93c-1.12-5-113.19-500.9-235.87-619.1a16.34,16.34,0,1,1,22.67-23.53c119.82,115.45,223.44,542.16,242.21,622.93,20.17.69,60.14,3.49,98.69,14.56,50.56,14.53,96.34,81.14,105.81,131.84,5.44,29.17-1,52.44-18.29,65.52-42.8,32.49-112.87,3.52-135.55-7.32C1625.72,2083.89,1560.53,2102.79,1476.68,2102.79Z"/><path class="cls-1" d="M1284.39,1773.25a16.34,16.34,0,0,1-9.63-29.55c5.82-4.24,143.73-104,237.72-122a16.34,16.34,0,0,1,6.14,32.09c-86.88,16.62-223.27,115.35-224.63,116.35A16.28,16.28,0,0,1,1284.39,1773.25Z"/><path class="cls-2" d="M893,1365.94c-3.84,8.53-7.84,17-11.81,25.19-26.09,53.87-52.52,97.94-52.52,97.94s-50.19,38.84-128.07,60.36c-50.72,14-113.17,20.7-181.12,4.49-269.79-64.36-285.92-425.14-285.92-425.14L497,1043.3c2.74,22.18,6.82,41.49,12.17,58.28,34.35,108.14,119.5,112.39,211.39,103.61,48.72-4.61,99.32-13,145.23-11.35a236.64,236.64,0,0,1,41.69,4.82C952.79,1208.42,926.81,1291.24,893,1365.94Z"/><g class="cls-3"><path class="cls-1" d="M881.19,1391.13c-26.09,53.87-52.52,97.94-52.52,97.94S691.74,1595,519.48,1553.92c-269.79-64.36-285.92-425.14-285.92-425.14L497,1043.3c2.74,22.18,6.82,41.49,12.17,58.28-36.22,57.05-114.31,207.3-16.62,319.9,104.1,119.94,280.2-68.78,280.2-68.78Z"/></g><path class="cls-1" d="M600.87,1579.82a366.07,366.07,0,0,1-85.16-10c-115.8-27.61-204.19-112.93-255.62-246.73-38.27-99.57-42.7-189.77-42.87-193.56l-.55-12.43,294.11-95.45,2.41,19.67c20.72,169.07,124.71,157.17,245.09,143.4,52-6,105.72-12.1,152.6-2h0c14.91,3.21,26,12.22,32,26.06C972,1276,864.53,1461,842.69,1497.45l-1.58,2.64-2.44,1.88C833.81,1505.74,736.19,1579.81,600.87,1579.82Zm-350-439.48c6,62.5,45.39,343.53,272.44,397.68,150.39,35.88,274.64-47,293.07-60.19,47.16-79.23,113.77-216.35,96.53-256.09-1.79-4.13-4.28-6.13-8.88-7.11h0c-41.61-8.95-92.66-3.12-142,2.53-116.25,13.31-247.46,28.33-278.38-152.36Zm577.84,348.71h0Z"/><path class="cls-2" d="M545.05,1024.4c-42.11,174.76-218.41,158.47-266.94,146.66-101.22-24.65-136-120-136-120l81.64-107.9,36.3-58.38,43.36-13C337.53,809.61,410.11,739.18,451.78,764,451.78,764,581.36,873.76,545.05,1024.4Z"/><g class="cls-3"><path class="cls-1" d="M127.13,994.61c0,54.45,71.32,103.85,224.86,85.95,54.09-6.3,98.59-44.14,98.59-98.59A98.59,98.59,0,0,0,352,883.38C297.54,883.38,127.13,940.16,127.13,994.61Z"/></g><path class="cls-2" d="M397.64,818l-76.35,186.5L208.15,888.64s-34.54-29.18-74.31-69C67.38,753.14-13.74,656.91,27.57,617.89c70.09-66.26,245.05,167,245.05,167S200.1,496.26,309.71,489.45C370,485.67,389,628.87,395,727.39,398.08,778.74,397.64,818,397.64,818Z"/><g class="cls-3"><path class="cls-1" d="M397.64,818l-76.35,186.5L208.15,888.64s-34.54-29.18-74.31-69c51.4,10.64,119,19.29,158,2.63C327.7,807,350.27,742.36,395,727.39,398.08,778.74,397.64,818,397.64,818Z"/></g><path class="cls-1" d="M321.29,1020.81a16.38,16.38,0,0,1-11.69-4.92L197,900.64C174.38,881.46,2.4,733,0,647.42-.44,630.86,5.2,616.55,16.33,606c12.77-12.08,29.38-17.64,48-16,57.89,4.92,132.41,79.43,178.86,132.83C231.49,653.67,222,550,257.58,501.34c12.54-17.16,30.21-26.91,51.11-28.21,15.13-1,29.43,4.63,41.5,16.1C415.08,550.91,414.27,791,414,818.16a16.32,16.32,0,0,1-1.21,6L336.4,1010.66a16.32,16.32,0,0,1-12,9.84A15.72,15.72,0,0,1,321.29,1020.81ZM58,622.38c-7.76,0-13.93,2.39-19.21,7.39-2.75,2.59-6.36,7.15-6.1,16.73,1.69,60.84,134.85,186.43,186,229.69a14.3,14.3,0,0,1,1.14,1.06l95.76,98,65.73-160.57c.51-72.27-8-258.44-53.64-301.78-7.29-6.92-13.18-7.39-17-7.17-11.34.71-19.84,5.43-26.74,14.87-37.16,50.81-9.35,205.15,4.5,260.33a16.34,16.34,0,0,1-28.91,13.78c-34.64-46.15-137.74-167.06-198-172.18C60.31,622.44,59.13,622.38,58,622.38ZM397.63,818h0Z"/><path class="cls-2" d="M121.46,1030.84c26.84,43.65,140.82,64,183.12,31.22,36-27.94.05-63.53-10.19-72.57-1.59-1.44-2.58-2.19-2.58-2.19s43.79-13.42,51.44-50.3a50.41,50.41,0,0,0,1-7.51c2.68-42.55-110.95-79.28-162.54-71-38.58,6.21-53.29,21.92-56.92,38.72-3.88,17.9,4.82,37,10.64,47.27a86.52,86.52,0,0,0,4.72,7.46S99.94,995.9,121.46,1030.84Z"/><g class="cls-4"><path class="cls-1" d="M135.43,944.5c30.47,15.61,91.56,42.15,159,45-1.59-1.44-2.58-2.19-2.58-2.19s43.79-13.42,51.44-50.3c-40.41,8.85-152,25.7-218.46-39.77C120.91,915.13,129.61,934.26,135.43,944.5Z"/></g><g class="cls-4"><path class="cls-1" d="M121.46,1030.84c26.84,43.65,140.82,64,183.12,31.22,17.7-13.72,18-29.28,12.53-42.65a53.93,53.93,0,0,1-6.91,6.36C268,1058.58,154,1038.2,127.13,994.61a40.89,40.89,0,0,1-5.47-13.92C115,995.65,111.27,1014.24,121.46,1030.84Z"/></g><path class="cls-1" d="M242.67,1094.64a224.6,224.6,0,0,1-40-3.75c-44.71-8.12-80.27-27.35-95.12-51.46-20.79-33.76.13-71.13,12.68-88.57-8-14.57-18.86-41.2-8.54-66.33,9.13-22.25,31.82-36.43,67.42-42.16h0c42.25-6.78,123.74,12.61,161.51,46.92,17.62,16,20.55,31.27,19.92,41.27-2,31.7-23.44,51-40.95,61.66,8.6,10.75,17,25.49,17,41.94,0,10.86-3.86,26.75-22,40.82C298,1087.86,272.42,1094.64,242.67,1094.64Zm-44.44-221a88.47,88.47,0,0,0-13.95,1h0c-16.19,2.6-36.69,8.58-42.35,22.25-6.41,15.45,6.09,38.07,11.45,45.49A16.38,16.38,0,0,1,152.21,963c-.29.32-31.37,35.71-16.85,59.29,9.76,15.85,38.47,30.15,73.13,36.45,36.27,6.58,70.06,2.82,86.06-9.59,8.34-6.47,9.33-11.68,9.35-15,.06-13.35-16.42-29.42-22.2-34A16.36,16.36,0,0,1,287,971.68c.33-.1,39-12.62,40.9-43.2.26-4-3-9.34-9.28-15C293.07,890.24,235,873.64,198.23,873.64ZM181.69,858.5h0Z"/><path class="cls-1" d="M277.5,1004.05c-80.25,0-142.85-36.36-145.63-38a16.34,16.34,0,0,1,16.58-28.16h0c.64.38,65.23,37.66,142.4,33.1a16.34,16.34,0,0,1,1.91,32.62Q285,1004.06,277.5,1004.05Z"/><path class="cls-2" d="M451.77,764c-55.32-33-165,101.76-167,162.23-1.54,46.16,53.13,84.67,118.47,25.77C469.46,892.37,538.65,815.85,451.77,764Z"/><path class="cls-2" d="M142.15,1051.05s34.75,95.35,135.93,120c48.55,11.83,224.86,28.12,267-146.67C581.36,873.76,451.77,764,451.77,764c-55.32-33-165,101.76-167,162.23-1.54,46.16,67.06,72.34,124.53-8.89,0,0-30.28,73.78,34.36,124.12l-152.3,87.72-115.17-22.48Z"/><path class="cls-2" d="M413.59,1006.14l3-1.74c-2.29-1.79-4.38-3.53-6.36-5.37C411.25,1001.37,412.34,1003.75,413.59,1006.14Z"/><g class="cls-4"><path class="cls-1" d="M406.93,903.69c8.1-29.82-77.56,46.11-122.13,26.6,2.13,37.48,51.49,59.25,100.75,14.36C388.49,920.64,406.93,903.69,406.93,903.69Z"/></g><g class="cls-3"><path class="cls-1" d="M195.62,1110.52l-19.43-3.77c21.47,25.55,54.38,52.73,101.9,64.32,48.56,11.83,224.87,28.08,267-146.69,24.71-102.49-27.44-186.1-63.28-229C511,841.91,536.86,909.11,518,987.3c-42.1,174.77-218.41,158.52-267,146.69A185.39,185.39,0,0,1,195.62,1110.52Z"/></g><path class="cls-2" d="M142.19,1051.12a156.23,156.23,0,0,0,8.95,18.94l3,.6Z"/><path class="cls-2" d="M149.15,1069.66c1.59,1.89,3.23,3.83,5,5.72-1.05-1.84-2-3.63-3-5.32Z"/><path class="cls-1" d="M466.17,1134a213.32,213.32,0,0,0,53.89-83.74c11.38-31.62,16.21-65.28,13.11-98.3-2.83-33.14-13.83-65.51-29.9-95.4a306.75,306.75,0,0,0-28-42.77c-5.25-6.75-10.75-13.32-16.51-19.62C455.89,791,453,787.93,450,785s-6.2-6.06-8.82-8.37l2.2,1.57c-4.1-2.39-9-3.28-15.14-2.52s-13,3.27-19.66,6.69a127.87,127.87,0,0,0-19.82,12.79,199.33,199.33,0,0,0-18.62,16.12c-23.74,23.17-44.52,51.12-58.6,80.63a139.58,139.58,0,0,0-8.24,22.08,59.39,59.39,0,0,0-1.93,10.37,26.7,26.7,0,0,0,.27,8.61,23.85,23.85,0,0,0,7.67,13.48,29.06,29.06,0,0,0,15.37,6.68c12.08,1.75,26.2-2.91,38.48-11.44C375.6,933.22,386.48,921.19,396,908l0,0a16.39,16.39,0,0,1,28.51,15.49l-.06.14c-.52,1.4-1.42,4.12-2,6.36s-1.22,4.8-1.7,7.26a116.42,116.42,0,0,0-1.94,14.86,92.86,92.86,0,0,0,2.79,29.15c1,4.76,3,9.13,4.72,13.6,2.28,4.22,4.24,8.61,7.24,12.44,2.48,4.14,6,7.64,9.19,11.32,1.48,1.94,3.58,3.4,5.4,5.09l5.61,4.95,1.44,1.28a16.3,16.3,0,0,1-21.52,24.5l-7.37-6.44c-2.41-2.21-5-4.16-7.13-6.75-4.41-4.93-9-9.72-12.54-15.43-4-5.34-7-11.42-10-17.39-2.5-6.2-5.19-12.42-6.62-19a125.64,125.64,0,0,1-3.79-39.29,149.32,149.32,0,0,1,2.53-19.35c.62-3.19,1.36-6.38,2.24-9.55a105.36,105.36,0,0,1,3.28-10.06l28.45,15.64,0,0c-11.13,15.47-24.19,30.27-41.09,41.79a103.89,103.89,0,0,1-28.12,13.81c-10.34,3.1-21.68,4.66-33.25,3a61.91,61.91,0,0,1-32.46-14.51,56.67,56.67,0,0,1-18.15-31.78,59.53,59.53,0,0,1-.74-17.8,91.59,91.59,0,0,1,2.87-15.69,169.41,169.41,0,0,1,10.23-27.6,299.4,299.4,0,0,1,28.93-48.17,331.32,331.32,0,0,1,36.58-42.16,232.12,232.12,0,0,1,21.49-18.59,161.1,161.1,0,0,1,24.75-15.9c9-4.56,19-8.49,30.43-10,11.28-1.61,24.88,0,36.09,6.71l.18.1a15.68,15.68,0,0,1,2,1.47c4.15,3.59,7.35,6.66,10.82,10.07s6.65,6.76,9.88,10.21q9.63,10.37,18.35,21.47A356.86,356.86,0,0,1,533,840.2a296,296,0,0,1,23.08,52.19,262.11,262.11,0,0,1,11.67,56.44,235,235,0,0,1-2,57.81A255.34,255.34,0,0,1,550.27,1062c-7.35,17.78-17.19,34.82-29.88,49.54a146.93,146.93,0,0,1-44.81,35.82,8.26,8.26,0,0,1-9.54-13.23Z"/><path class="cls-1" d="M157.5,1045.45c.66,1.36,1.72,3.58,2.72,5.44l3.14,5.84c1,2,2.25,3.88,3.38,5.82s2.27,3.87,3.5,5.75a253.62,253.62,0,0,0,15.6,22l8.67,10.28c3.11,3.21,6.14,6.51,9.3,9.66s6.47,6.13,9.8,9.09l10.42,8.34c14.27,10.75,30,18.83,46.93,25.55l13,5c4.19,1.61,8.64,2.93,13,4.37,8.85,2.71,17.78,5.1,26.87,7l.29.06a8.29,8.29,0,0,1-.3,16.28,126.11,126.11,0,0,1-31.37,1.17c-5.21-.34-10.32-1.08-15.58-1.95-5-.83-10.08-2.19-15.14-3.28-20.28-5-40.09-14.17-57.75-26a210.25,210.25,0,0,1-46.14-43.49c-6.3-8.46-12.45-17-17.51-26.28-2.7-4.53-5-9.27-7.3-14.07-1.09-2.43-2.24-4.8-3.21-7.35s-1.92-4.85-3-8a16.31,16.31,0,0,1,30.1-12.42Z"/><path class="cls-2" d="M1473,2159.53H630.52s-22.3-169.2,22.87-415.13a1801,1801,0,0,1,129.18-413.91,343.73,343.73,0,0,1,15.19-35.21c13.19-26.91,35.37-65.46,68-101.44,54.35-59.91,137.71-112.76,257-93.36,121.58,19.76,183.33,103.16,214.74,182.88,16.78,42.55,24.87,84.09,28.79,114.27,3.67,28.22,3.67,46.51,3.67,46.51,3.52,102.27,13.4,204.32,25.73,298,19.07,144.78,44,269.46,60.32,344C1466.14,2132.58,1473,2159.53,1473,2159.53Z"/><g class="cls-3"><path class="cls-1" d="M1473,2159.53H630.52s-22.3-169.2,22.87-415.13c296.7,4.45,260.72,55.7,406.31,61.22,175.78,6.65,199.92-78.33,336-63.51,19.07,144.78,44,269.46,60.32,344C1466.14,2132.58,1473,2159.53,1473,2159.53Z"/></g><path class="cls-1" d="M1378.08,1443.86c2.59,15,4.57,29.9,6.33,44.84.89,7.47,1.75,14.93,2.48,22.4.91,7.47,1.94,14.92,2.7,22.39l2.42,22.38,2.1,22.41c1.76,14.91,3.13,29.85,4.72,44.77q9.74,89.51,23.38,178.58c9.14,59.35,18.75,118.66,30.15,177.65,5.79,29.47,11.37,59,17.43,88.4s12.46,58.84,19,87.82l4.64,20.37H616.12l-1.79-14.2h0c-2.4-18.67-3.86-36.28-4.88-54.38s-1.51-36-1.78-53.93c-.44-35.92.36-71.83,2.72-107.63s5.71-71.51,10.19-107.08,9.95-71,16.91-106.19a1739.81,1739.81,0,0,1,53.54-208c22.1-68.1,48.88-134.87,84.07-197.26a8.2,8.2,0,0,1,14.91,6.67v0c-22.88,67.14-46.57,133.28-67.35,200.5-10.14,33.66-19.7,67.51-27.82,101.7-4.29,17-8,34.22-11.87,51.36-3.5,17.21-7.26,34.38-10.27,51.69A1789.36,1789.36,0,0,0,646.2,1948c-2.19,35-3.59,70.1-3.72,105.15,0,17.52.19,35,.93,52.5s1.59,35.15,3.32,51.73h0l-16.2-14.2H1473l-15.83,20.36c-7.9-29.58-14.78-58.95-21.43-88.56l-9.71-44.39c-3.13-14.82-6-29.7-9-44.55-11.45-59.49-21.85-119.18-30.41-179.17-4.42-30-8.16-60.05-11.84-90.13-1.81-15-3.2-30.14-4.82-45.21s-3.16-30.14-4.32-45.26-2.66-30.21-3.7-45.33l-1.22-22.72-.81-22.74c-.33-7.57-.38-15.16-.55-22.74s.14-15.19.3-22.79c.33-15.19.88-30.37,2-45.55a8.22,8.22,0,0,1,16.29-.78Z"/><g class="cls-4"><path class="cls-1" d="M1049.45,1771.35q5.29,8.12,10.25,15.92C1056.38,1782.06,1053,1776.72,1049.45,1771.35Z"/></g><path class="cls-2" d="M850.62,1774.33c-52.2,21.13-133,16.71-188.06,10A59.13,59.13,0,0,1,611.21,1717h0a59.12,59.12,0,0,1,61.21-50.46c51.51,2.42,128.78,3.55,177.71-7.31"/><g class="cls-4"><path class="cls-1" d="M850.63,1774.32c-52.21,21.16-133,16.7-188.07,10.07a59.23,59.23,0,0,1-45.26-86.16,59,59,0,0,0,45.26,31.28c55,6.67,135.63,11.09,187.84-9.94Z"/></g><path class="cls-1" d="M746.79,1806.21a729.27,729.27,0,0,1-86.19-5.62,75.51,75.51,0,0,1,12.58-150.39c75.65,3.55,137.25,1.09,173.41-6.94,8-1.78,27.74-2,39,34.43,11.14,35.85,9.67,96.17-28.89,111.78h0C825.81,1802,786.13,1806.21,746.79,1806.21Zm103.83-31.88h0Zm-181-91.54a42.84,42.84,0,0,0-5.08,85.37c78.35,9.47,142.26,6.29,180-9h0c9.17-3.72,12.45-18.79,13.44-25.1,3.69-23.68-2.85-50.07-8.33-58.07-49.89,10.16-123.92,9.36-178,6.82C671,1682.81,670.28,1682.79,669.6,1682.79Z"/><path class="cls-2" d="M1437.94,1784.37c-25.83,3.13-57.37,5.77-89,5.47-2.17,0-4.31,0-6.49-.1s-4.58-.1-6.85-.2c-1.55,0-3.07-.09-4.55-.16l-5.37-.3c-2.28-.13-4.55-.29-6.79-.46h-.17c-2.24-.16-4.51-.36-6.75-.59-1.49-.13-3-.3-4.42-.46-1.25-.1-2.5-.27-3.72-.4-2-.23-3.89-.49-5.77-.76s-3.59-.52-5.34-.82a5.12,5.12,0,0,1-1-.17c-2.08-.29-4.12-.65-6.13-1.05s-4.06-.76-6-1.19l-.5-.1c-1.12-.26-2.24-.49-3.33-.75s-2.44-.56-3.66-.89h0c-3.72-.93-7.38-2-10.94-3.1-1.91-.59-3.82-1.25-5.7-1.91s-3.73-1.39-5.51-2.11l.24-55.27.26-59.85a335.28,335.28,0,0,0,42.25,6.16c44.56,4.06,97.12,2.94,135.45,1.16.92,0,1.85-.07,2.8-.07a59.18,59.18,0,0,1,7,117.92Z"/><g class="cls-3"><path class="cls-1" d="M1438,1784.37c-25.84,3.13-57.38,5.77-89,5.47-2.18,0-4.32,0-6.49-.1s-4.59-.1-6.86-.2c-1.55,0-3.06-.1-4.55-.16l-5.37-.3c-2.27-.13-4.55-.29-6.79-.46h-.16c-2.24-.16-4.52-.36-6.76-.59-1.48-.13-3-.3-4.42-.46-1.25-.1-2.5-.27-3.72-.4-1.94-.23-3.89-.49-5.77-.76s-3.59-.52-5.34-.82a5.12,5.12,0,0,1-1-.17c-2.08-.29-4.12-.65-6.13-1.05s-4-.76-6-1.19l-.5-.1c-1.12-.26-2.24-.49-3.32-.75s-2.44-.56-3.66-.89h0c-3.72-.93-7.38-2-10.94-3.1-1.91-.59-3.82-1.25-5.7-1.91s-3.72-1.39-5.5-2.11l.23-55.27,0-4c1.68.69,3.46,1.39,5.24,2s3.79,1.32,5.7,1.91c3.56,1.12,7.22,2.18,10.94,3.1h0c1.22.33,2.44.63,3.66.89s2.2.5,3.32.76l.5.1c2,.43,4,.82,6,1.19s4.05.75,6.13,1a5.11,5.11,0,0,0,1,.16c1.75.3,3.53.56,5.34.83s3.83.53,5.77.76c1.22.13,2.47.29,3.72.39,1.45.17,2.94.33,4.42.46,2.24.23,4.52.43,6.76.6h.16c2.24.16,4.52.33,6.79.46l5.37.29c1.49.07,3,.14,4.55.17,2.27.1,4.58.16,6.86.2s4.31.1,6.49.1c31.57.29,63.11-2.34,89-5.47a58.92,58.92,0,0,0,44-29.07,59.24,59.24,0,0,1-44,88.42Z"/></g><path class="cls-1" d="M1353.72,1806.21c-39.35,0-79-4.21-110-16.74h0c-38.56-15.61-40-75.93-28.89-111.78,11.31-36.38,31.07-36.19,39-34.43,36.17,8,97.77,10.49,173.42,6.94a75.51,75.51,0,0,1,12.58,150.39A729.41,729.41,0,0,1,1353.72,1806.21ZM1250.91,1676c-5.48,8-12,34.39-8.33,58.07,1,6.31,4.27,21.38,13.44,25.1h0c37.7,15.26,101.61,18.45,180,9a42.84,42.84,0,0,0-7.12-85.32C1374.84,1685.37,1300.8,1686.18,1250.91,1676Z"/><path class="cls-2" d="M1270.06,1621.17v184.48a62.43,62.43,0,0,1-62.24,62.24H868.07a62.42,62.42,0,0,1-62.2-62.24V1621.17a62.39,62.39,0,0,1,62.2-62.2h339.75a62.37,62.37,0,0,1,62.24,62.2Z"/><g class="cls-3"><path class="cls-1" d="M1270.06,1621.17v184.49a62.42,62.42,0,0,1-62.25,62.22H868.06a62.37,62.37,0,0,1-62.19-62.19v-69c36.4,70.76,160.07,98.6,261.82,88.29,22.72-2.3,39-23.9,33.55-46.09a88.51,88.51,0,0,1-2.48-20.91c0-40.24,26.66-72.87,59.55-72.87,31.8,0,57.84,30.52,59.52,69,40.77-53.29,43-124.61,39.55-170.39A61.9,61.9,0,0,1,1270.06,1621.17Z"/></g><path class="cls-1" d="M1201.37,1884.22H874.55a85.12,85.12,0,0,1-85-85V1627.64a85.12,85.12,0,0,1,85-85h326.82a85.12,85.12,0,0,1,85,85V1799.2A85.12,85.12,0,0,1,1201.37,1884.22ZM874.55,1575.29a52.4,52.4,0,0,0-52.34,52.35V1799.2a52.4,52.4,0,0,0,52.34,52.35h326.82a52.4,52.4,0,0,0,52.34-52.35V1627.64a52.4,52.4,0,0,0-52.34-52.35Z"/><circle class="cls-5" cx="1158.32" cy="1713.42" r="53.65" transform="translate(-872.31 1320.91) rotate(-45)"/><path class="cls-2" d="M1212,1713.43a51.21,51.21,0,0,1-.69,8.55,53.65,53.65,0,0,0-105.93,0,50.17,50.17,0,0,1-.7-8.55,53.66,53.66,0,0,1,107.32,0Z"/><path class="cls-6" d="M1212,1713.41a53.65,53.65,0,0,1-107.29,0,52.49,52.49,0,0,1,3.68-19.42,53.6,53.6,0,0,0,99.93,0A52.49,52.49,0,0,1,1212,1713.41Z"/><path class="cls-1" d="M1158.32,1779.32a65.9,65.9,0,1,1,65.91-65.9A66,66,0,0,1,1158.32,1779.32Zm0-107.3a41.4,41.4,0,1,0,41.4,41.4A41.45,41.45,0,0,0,1158.32,1672Z"/><path class="cls-1" d="M1006.28,1884.22a16.35,16.35,0,0,1-16.34-16.34v-89a69.22,69.22,0,0,0-27.46-55A102.12,102.12,0,0,1,922,1642.65V1559a16.34,16.34,0,1,1,32.67,0v83.69a69.28,69.28,0,0,0,27.46,55.06,102,102,0,0,1,40.49,81.14v89A16.35,16.35,0,0,1,1006.28,1884.22Z"/><path class="cls-2" d="M1656.84,1097.56h0a10.88,10.88,0,0,1-8.17-13l70.1-305.44a10.88,10.88,0,0,1,13-8.17h0a114.14,114.14,0,0,1,85.71,136.78l-23.9,104.15A114.14,114.14,0,0,1,1656.84,1097.56Z"/><path class="cls-1" d="M1682.38,1103.4a117.27,117.27,0,0,1-26.2-3,13.84,13.84,0,0,1-10.37-16.56l70.1-305.44a13.82,13.82,0,0,1,16.56-10.37,117.07,117.07,0,0,1,87.91,140.29l-23.9,104.16A117.31,117.31,0,0,1,1682.38,1103.4Zm47-329.83a8,8,0,0,0-7.73,6.16l-70.1,305.45a8,8,0,0,0,6,9.52h0a111.21,111.21,0,0,0,133.26-83.51L1814.66,907a111.21,111.21,0,0,0-83.51-133.26A7.86,7.86,0,0,0,1729.36,773.57Z"/><g class="cls-3"><path class="cls-1" d="M1804.83,963l-11.2,48.86a114.2,114.2,0,0,1-136.8,85.72,10.9,10.9,0,0,1-8.17-13.06l18.61-81.21a10.89,10.89,0,0,0,8.2,8.51l7.25,1.64A114,114,0,0,0,1804.83,963Z"/></g><path class="cls-1" d="M1682.62,1116.83a131.75,131.75,0,0,1-29.43-3.35,27.24,27.24,0,0,1-20.44-32.61l70.1-305.45A27.21,27.21,0,0,1,1735.47,755a130.45,130.45,0,0,1,98,156.35l-23.9,104.16a130.61,130.61,0,0,1-126.92,101.33Zm-16.77-34.12a97.79,97.79,0,0,0,111.84-74.52L1801.6,904a97.8,97.8,0,0,0-68.16-115.83Zm-5.36-1.08Z"/><path class="cls-2" d="M723.62,539.51h0a10.88,10.88,0,0,1,8.17,13L661.69,858a10.88,10.88,0,0,1-13,8.17h0a114.14,114.14,0,0,1-85.72-136.78l23.91-104.15A114.14,114.14,0,0,1,723.62,539.51Z"/><path class="cls-1" d="M651.08,869.37A13.54,13.54,0,0,1,648,869a117.21,117.21,0,0,1-87.93-140.29L584,624.57a117.21,117.21,0,0,1,140.29-87.92h0a13.84,13.84,0,0,1,10.37,16.56l-70.1,305.44A13.85,13.85,0,0,1,651.08,869.37Zm47-329.83A111.39,111.39,0,0,0,589.7,625.88L565.79,730A111.33,111.33,0,0,0,649.3,863.3a8,8,0,0,0,9.53-6l70.1-305.44a8,8,0,0,0-6-9.52A111.27,111.27,0,0,0,698.08,539.54Z"/><g class="cls-3"><path class="cls-1" d="M681.16,773.26,661.7,858a10.9,10.9,0,0,1-13.06,8.17,114.1,114.1,0,0,1-85.7-136.76L573,685.52a114.18,114.18,0,0,0,86.35,88.59l11.15,2.56A11,11,0,0,0,681.16,773.26Z"/></g><path class="cls-1" d="M651.08,882.78a27.52,27.52,0,0,1-6.08-.69c-70.12-16.1-114.08-86.24-98-156.36l23.91-104.16c16.09-70.12,86.28-114.06,156.35-98h0a27.24,27.24,0,0,1,20.43,32.61l-70.1,305.45A27.29,27.29,0,0,1,651.08,882.78Zm47-329.83a98,98,0,0,0-95.32,75.93L578.85,733A97.93,97.93,0,0,0,647,848.87l67.59-294.51A97.79,97.79,0,0,0,698.08,553Zm21.86,2.48h0Z"/><g class="cls-3"><path class="cls-1" d="M1416.32,1373.74A532.86,532.86,0,0,1,1005.63,1415,537.64,537.64,0,0,1,893,1365.94a531.16,531.16,0,0,1-172.47-160.75c48.72-4.61,99.32-13,145.23-11.35,54.35-59.91,137.71-112.76,257-93.36,121.58,19.76,183.33,103.16,214.74,182.88l4.86-22.06C1367.84,1285.89,1392.75,1325.75,1416.32,1373.74Z"/></g><circle class="cls-2" cx="1190.29" cy="818.55" r="534.03"/><path class="cls-1" d="M1190,1355.57a535.36,535.36,0,0,1-156.65-23.5c-283.15-86.54-443.11-387.3-356.58-670.46s387.3-443.1,670.46-356.58C1484.4,347,1597,439.78,1664.38,566.41s81.35,271.91,39.43,409.08C1633.2,1206.54,1419.93,1355.57,1190,1355.57Zm.58-1068.17c-227.44,0-438.35,147.39-508.2,375.93C596.8,943.39,755,1240.87,1035.07,1326.45A529.68,529.68,0,0,0,1190,1349.7c227.44,0,438.35-147.39,508.2-375.93,41.46-135.66,27.61-279.36-39-404.61s-178-217-313.68-258.51A529.3,529.3,0,0,0,1190.58,287.4Z"/><g class="cls-3"><path class="cls-1" d="M1717.72,902.44a530.5,530.5,0,0,1-16.71,72.2c-86.23,282-384.75,440.81-666.81,354.64S593.39,944.52,679.56,662.47c2.47-8.12,5.14-16.18,8-24.05C646,897.55,800.81,1154.15,1058.88,1233,1332.82,1316.73,1622.25,1169.37,1717.72,902.44Z"/></g><path class="cls-1" d="M1190,1369a548.55,548.55,0,0,1-160.55-24.09C739.22,1256.19,575.26,947.92,664,657.7s397-454.18,687.2-365.48c140.59,43,256,138.1,325.06,267.9s83.38,278.69,40.42,419.29C1644.25,1216.22,1425.66,1369,1190,1369Zm.58-1068.17c-221.7,0-427.29,143.67-495.37,366.44-83.43,273,70.79,563,343.79,646.4a516.39,516.39,0,0,0,151,22.66c221.7,0,427.29-143.67,495.37-366.45,40.42-132.24,26.91-272.3-38-394.39s-173.52-211.58-305.76-252A516.12,516.12,0,0,0,1190.57,300.8Z"/><path class="cls-1" d="M1695.36,987.25c-29,100.39-88.57,184.16-166.6,245.16-58.5,45.73-259.51,97.24-472.16,37.82-197.17-55.1-345.78-211.7-370.84-281.59-33.44-93.23-39.07-195.85-10-296.24C752.54,426.74,1012.63,382.61,1294.21,464S1772.18,721.59,1695.36,987.25Z"/><path class="cls-1" d="M1254.15,1304.13c-63.5,0-131.82-7.75-199.57-26.68-199.36-55.71-350.67-216-375.88-286.28C643.5,893,640,789,668.51,690.32,705.56,562.19,785.45,478.27,906,440.9c105.82-32.82,240.8-27.31,390.34,15.93s266.63,110.62,338.6,194.85c82,95.92,104.73,209.52,67.68,337.65h0c-28.53,98.67-87,184.77-169.19,249C1489,1273,1381.27,1304.13,1254.15,1304.13ZM1057.32,434.76c-53.53,0-102.87,6.8-146.92,20.46C795,491,718.48,571.51,682.92,694.48c-27.65,95.63-24.23,196.47,9.9,291.63,24.29,67.75,171.34,222.55,365.8,276.89,215.38,60.19,412.5,5,465.52-36.5,79.65-62.26,136.37-145.71,164-241.34h0c35.56-123,13.8-231.89-64.68-323.74-70.06-82-184.64-147.75-331.36-190.18C1208.15,447,1129,434.76,1057.32,434.76Z"/><g class="cls-4"><path class="cls-7" d="M1667.87,710.74c45.13,77.49,58.33,169.79,27.49,276.49-29,100.41-88.59,184.18-166.58,245.19-58.52,45.72-259.55,97.22-472.2,37.82-75.08-21-143.1-56.66-200-96.72,262.95,67.45,508.09,3.77,580.64-53,99-77.41,174.61-183.76,211.42-311.15A540.31,540.31,0,0,0,1667.87,710.74Z"/></g><path class="cls-1" d="M1718.9,756.61a15,15,0,0,1-12.22-6.29l-1.23-1.64-.77-2.18c-51.23-145.73-197.78-263.19-402.06-322.27-205.43-59.4-392.52-36-513.34,64.24l-1.07.81a15,15,0,0,1-17.75-24.18C899,358.67,1096,333.26,1311,395.41c213.37,61.71,367,185.73,421.76,340.37a15,15,0,0,1-13.81,20.83Z"/><g class="cls-8"><ellipse class="cls-2" cx="1540.1" cy="903.24" rx="94.51" ry="68.48" transform="translate(46.29 1881.15) rotate(-63.6)"/></g><g class="cls-8"><ellipse class="cls-2" cx="1407.51" cy="1059.78" rx="43.38" ry="37.22" transform="translate(-261.54 1624.12) rotate(-55.66)"/></g><g class="cls-8"><path class="cls-2" d="M760.49,874.36S754.38,605.18,915.81,545.3s352.67-4.16,344.65,6.82c0,0-226.67-10-358,133.53C801.22,796.3,760.49,874.36,760.49,874.36Z"/></g><path class="cls-1" d="M479.13,1557.77a16.33,16.33,0,0,1-8.08-30.54c71.24-40.44,112.5-106.49,122.62-196.32,7.73-68.58-6.48-126-6.62-126.53a16.33,16.33,0,0,1,31.66-8.06c.65,2.54,15.71,62.88,7.55,137.18-11,99.91-59.07,176.73-139.08,222.14A16.18,16.18,0,0,1,479.13,1557.77Z"/><path class="cls-2" d="M1570,1978.65s150.86,18.73,117.61,84.31c-16.25,32.06-109.92-11.76-160.85-.23,0,0-28.86-79.59-11.25-93S1570,1978.65,1570,1978.65Z"/><g class="cls-3"><path class="cls-1" d="M1687.66,2063c-16.26,32.06-109.94-11.76-160.87-.21,0,0-20.46-56.52-16.38-82.37,0,.24.07.48.1.72,3.52,25.31,24.1,44.69,49.51,47.39,51.45,5.48,114.94,27.82,127.64,2.78.28-.58.57-1.15.81-1.72C1693.62,2039,1694.19,2050.08,1687.66,2063Z"/></g><path class="cls-1" d="M1571.05,1970.54c14.8-1.21,29-.08,43.43,2.2a192.75,192.75,0,0,1,42.59,12.12,146.54,146.54,0,0,1,20.94,10.72,82.64,82.64,0,0,1,19.91,16.94,51.33,51.33,0,0,1,12,28.4c1,11-2,21.25-6,29.42l-.38.82-.62,1.13c-.43.75-.82,1.5-1.32,2.23a34.73,34.73,0,0,1-3.18,4.19,38.07,38.07,0,0,1-7.71,6.61,47,47,0,0,1-15.69,6.15c-9.67,1.9-17.87,1.66-25.66,1.2-15.49-1.08-29.43-3.87-43.17-6.39s-27-5.28-39.91-7-25.6-2.42-35.94-.64l-.54.09a16.33,16.33,0,0,1-6.67-32c16.93-4.15,32.34-3.24,47-2,14.68,1.44,28.75,3.69,42.39,6.12s27,4.68,39.27,5.62c6,.45,11.88.35,15.87-.47a12.9,12.9,0,0,0,3.68-1.22c.19-.12.21-.14.21-.09l0,.05s0,0,0,0h0l.17-.36c2.18-4.23,3-7.87,2.86-10.78s-1.28-5.86-3.9-9.42c-5.3-7.14-15.89-14-27.12-19.26-22.91-10.63-49.07-18.38-74.64-28.29l-.32-.12a8.34,8.34,0,0,1,2.34-16.09Z"/><path class="cls-2" d="M938.56,2084.46c1.54-56.54-7-102.49-22.49-138.9-64.2-151.41-246.88-138.06-313-36.58-103.36,158.57,7.51,430.46,7.51,430.46S548.66,2503.9,626,2563.09c59.92,45.84,152.34,53.08,224.59,6.29,75.68-49,76-225.58,71.83-278.91S938.56,2084.46,938.56,2084.46Z"/><g class="cls-3"><path class="cls-1" d="M922.44,2290.47c4.25,53.33,3.88,229.92-71.79,278.93C778.4,2616.16,686,2608.93,626,2563.11c-18.91-14.5-29.53-35.28-34.72-58.4,1.51,1.35,3.07,2.66,4.7,3.88,59.91,45.86,152.33,53.09,224.58,6.29,75.67-49,74.86-217,82.37-269.54,3-20.87,16-69.51,30.63-120.81C927.91,2173.58,919.62,2254.57,922.44,2290.47Z"/></g><path class="cls-1" d="M741.88,2617.49c-45.11,0-89.76-13.88-125.76-41.42-78-59.67-33.93-204.46-23-236.34-16.17-42.1-103.24-287.05-3.76-439.67,37.18-57,107.78-89.8,179.9-83.38,72.57,6.42,131.56,51.07,161.85,122.5,17.3,40.79,25.3,89.82,23.77,145.73a14.06,14.06,0,0,1-.13,1.71c-.2,1.51-20,151.56-16,202.56.19,2.31,17.15,231.51-79.23,293.91A216.69,216.69,0,0,1,741.88,2617.49Zm10-768.91c-54.42,0-107.43,26.76-135.17,69.32-97.44,149.49,7.89,412.73,9,415.37a16.38,16.38,0,0,1,.17,11.91c-.58,1.53-56.71,153.82,10.11,204.94,57.86,44.26,142.48,46.55,205.78,5.55,66.24-42.89,68.76-209.08,64.42-263.91-4.18-52.9,14.27-194.85,16.08-208.59,1.29-50.83-5.85-95-21.22-131.23-25.42-60-74.5-97.39-134.65-102.72Q759.14,1848.57,751.9,1848.58Zm186.66,235.88h0Z"/><path class="cls-2" d="M1161.71,2084.46c-7.93-291.63,253.46-301.36,335.51-175.48,103.36,158.57-7.51,430.46-7.51,430.46s61.9,164.46-15.48,223.65c-59.92,45.84-152.34,53.08-224.59,6.29-75.68-49-76-225.58-71.83-278.91S1161.71,2084.46,1161.71,2084.46Z"/><path class="cls-1" d="M1358.4,2617.49a216.72,216.72,0,0,1-117.64-34.4c-96.36-62.39-79.42-291.6-79.23-293.91,4-51-15.81-201-16-202.56a16.42,16.42,0,0,1-.14-1.71c-5.23-192.39,99.82-246.11,145.23-260.28,82.4-25.69,175.05,6,220.3,75.43,99.48,152.62,12.41,397.57-3.76,439.67,10.93,31.88,55,176.67-23,236.34C1448.16,2603.6,1403.49,2617.49,1358.4,2617.49ZM1178,2083.17c1.81,13.72,20.26,155.68,16.07,208.59-4.33,54.84-1.79,221,64.42,263.91,63.31,41,147.93,38.7,205.79-5.55,66.83-51.12,10.69-203.41,10.12-204.94a16.38,16.38,0,0,1,.16-11.91c1.08-2.64,106.39-265.88,9-415.37-36.81-56.49-115.58-83.17-183.2-62.08C1219.56,1881,1175,1963.87,1178,2083.17Z"/><path class="cls-2" d="M1878.16,984.08c99.55-420.12-123.39-832.65-497.94-921.4s-758.9,179.88-858.45,600L586,677.91c90.11-380.32,438-623.5,777.11-543.16S1904,588.54,1813.91,968.86"/><g class="cls-9"><path class="cls-1" d="M1878.17,984.09l-64.25-15.22C1904,588.54,1702.2,215.1,1363.12,134.75S676.13,297.59,586,677.92l-64.24-15.23q5.46-23,12.05-45.44l63,14.93C687,251.85,1034.92,8.68,1374,89s540.92,453.78,450.8,834.11l63,14.94Q1883.61,961.07,1878.17,984.09Z"/></g><path class="cls-1" d="M1878.18,1000.42a16.34,16.34,0,0,1-15.91-20.1c97.31-410.69-120.63-815.21-485.82-901.74-176.58-41.85-361-4-519.23,106.67C702.6,293.32,591,458.1,541.58,650.59l32.47,7.69c46.68-181,152-336.16,297.82-438.09,150.64-105.29,326.46-141.28,495-101.33,347.3,82.29,554.95,465.28,462.91,853.76a16.33,16.33,0,0,1-31.79-7.53c87.89-371-108.89-736.3-438.65-814.44C1200,112.88,1033.49,147.09,890.58,247c-143.48,100.29-246,254.67-288.66,434.71l-3.76,15.89-96-22.76,3.77-15.89C555,451.82,673.08,274.09,838.51,158.47c166-116,359.73-155.69,545.47-111.68,382.73,90.68,611.54,512.84,510.08,941.06A16.34,16.34,0,0,1,1878.18,1000.42Z"/><path class="cls-10" d="M661.7,472.28,567.85,811.76a57.67,57.67,0,0,0-1.59,7.71,59,59,0,0,0,115.41,23.75l93.85-339.47a59,59,0,0,0-111.19-38.92A53.81,53.81,0,0,0,661.7,472.28Z"/><path class="cls-11" d="M506.74,543.19,471.32,671.32C454.1,733.62,491,798.66,553.26,815.88l13,3.59a57.67,57.67,0,0,1,1.59-7.71L661.7,472.28a53.81,53.81,0,0,1,2.63-7.45l-13-3.6C589,444,524,480.9,506.74,543.19Z"/><path class="cls-10" d="M1839.65,751.4l-68.45,345.49a58.38,58.38,0,0,1-2,7.61,59,59,0,0,1-113.8-30.56l68.46-345.49a59,59,0,0,1,116.83,15.11A54.39,54.39,0,0,1,1839.65,751.4Z"/><path class="cls-2" d="M1769.17,1104.49c-.58,1.66-1.22,3.31-1.93,4.9l63.35-319.66a57.1,57.1,0,0,0,1-7.84,59,59,0,0,0-112.89-27.56l5.15-25.88a59,59,0,0,1,116.83,15.1,57.13,57.13,0,0,1-1,7.84l-68.48,345.51A58.75,58.75,0,0,1,1769.17,1104.49Z"/><g class="cls-3"><path class="cls-1" d="M1769.17,1104.49a59.06,59.06,0,0,1-113.83-30.56l68.48-345.48a57.89,57.89,0,0,1,7.83-19.75l-52.23,263.62c-2.13,10.78,7,28.86,25.25,21.13,25.84-10.93,35.18-68.35,43.65-67.08s-5.35,45.73,7.58,75.2c9.12,20.79,26.61,21.32,31.52,13.5l-16.23,81.83A58.75,58.75,0,0,1,1769.17,1104.49Z"/></g><path class="cls-11" d="M1946.32,884.3l-25.84,130.4c-12.56,63.4-74.69,105-138.09,92.42l-13.24-2.62a58.38,58.38,0,0,0,2-7.61l68.45-345.49a54.39,54.39,0,0,0,1-7.84l13.26,2.62C1917.3,758.75,1958.88,820.9,1946.32,884.3Z"/><path class="cls-2" d="M1920.47,1014.69a115.3,115.3,0,0,1-4.73,17L1938,919.31c12.56-63.41-29-125.56-92.42-138.13l-11.38-2.26,5.46-27.53a57.13,57.13,0,0,0,1-7.84l13.24,2.63c63.41,12.56,105,74.71,92.41,138.12Z"/><path class="cls-2" d="M563.91,818.91c-.23,1.74-.39,3.5-.47,5.24l86.82-314.1a55.57,55.57,0,0,1,2.65-7.44,59,59,0,0,1,113.25,26l7-25.45A59,59,0,0,0,662,464.27a57,57,0,0,0-2.64,7.44L565.51,811.22A57.75,57.75,0,0,0,563.91,818.91Z"/><path class="cls-2" d="M469,670.76a114.26,114.26,0,0,0-3.41,17.32l30.53-110.43c17.22-62.3,82.26-99.19,144.57-82l11.18,3.09,7.48-27.06a57,57,0,0,1,2.64-7.44l-13-3.6c-62.3-17.22-127.34,19.67-144.56,82Z"/><path class="cls-12" d="M1782.38,1107.11l-13.21-2.62a58.75,58.75,0,0,0,2-7.59l68.48-345.51a57.13,57.13,0,0,0,1-7.84l3.75.74-52.87,266.77c-.51,2.63,16.2-60.28,15.36-57.8,0,0-.83,65,39.43,70.54,28.2,3.9,63.76-20.52,86-68.66l-11.8,59.55C1907.9,1078.1,1845.78,1119.68,1782.38,1107.11Z"/><g class="cls-3"><path class="cls-1" d="M563.91,818.9a59.06,59.06,0,0,0,115.44,23.75l93.83-339.47A58,58,0,0,0,775,482L703.43,741c-4.06,14.66-28.45,8.52-33.12-3-8.17-20.16,7.3-64.83-.63-66.7s-17.92,52.45-41.08,65.86c-15,8.67-40,2.62-40.87-6.41l-22.21,80.42A56.25,56.25,0,0,0,563.91,818.9Z"/></g><path class="cls-12" d="M550.94,815.31l13,3.59a56.25,56.25,0,0,1,1.61-7.69L659.35,471.7a57,57,0,0,1,2.64-7.44l-3.68-1L585.86,725.36c-.72,2.58,12.56-61.14,12.2-58.55,0,0-28.41,58.45-66.88,45.36-27-9.17-47.78-46.95-46-99.94L469,670.75C451.78,733.06,488.63,798.09,550.94,815.31Z"/><path class="cls-1" d="M1713.18,1160.77a75.35,75.35,0,0,1-73.85-90l68.46-345.49A75.38,75.38,0,0,1,1857,744.59a70.83,70.83,0,0,1-1.28,10l-68.45,345.48a74.62,74.62,0,0,1-2.62,9.74A75.69,75.69,0,0,1,1713.18,1160.77Zm68.54-463.56a42.77,42.77,0,0,0-41.88,34.41l-68.46,345.49a42.71,42.71,0,0,0,83.8,16.59l68.45-345.48a39.29,39.29,0,0,0,.7-5.49,43,43,0,0,0-7.16-26.52,42.58,42.58,0,0,0-35.45-19Z"/><path class="cls-1" d="M1805.3,1125.72a134.13,134.13,0,0,1-26.08-2.57l-31.59-6.26,6.07-17.69a44,44,0,0,0,1.48-5.5l68.45-345.47a39.61,39.61,0,0,0,.7-5.5l1-18.87,31.79,6.3a134.18,134.18,0,0,1,105.26,157.31l-25.84,130.41a134.38,134.38,0,0,1-131.2,107.84Zm-16.42-34a101.52,101.52,0,0,0,115.57-80.17l25.84-130.41A101.52,101.52,0,0,0,1854,762.92Z"/><path class="cls-11" d="M1642.16,362.24C1471.26,197.61,1259.62,147.44,1033,217.9c-22.41,7.79-44.75-4.07-49.76-28.16L968,116.63c-5-24.1,12.77-53.25,39.64-62.59,270.54-85.42,527.17-24.62,730.64,173.13,19.82,20.4,22.63,54.43,7.34,73.71l-46.39,58.52C1684,378.69,1658.68,379.26,1642.16,362.24Z"/><g class="cls-13"><path class="cls-2" d="M1746.46,299.78a62,62,0,0,0-16.7-36.49C1526.27,65.54,1269.63,4.74,999.11,90.17a62.15,62.15,0,0,0-31.32,25.07c-4.12-23.79,13.54-52,39.88-61.19,270.52-85.43,527.15-24.62,730.65,173.13C1757.78,247.19,1760.82,280.37,1746.46,299.78Z"/><ellipse class="cls-2" cx="1507.12" cy="132.45" rx="37.13" ry="65.76" transform="translate(840.33 1490.52) rotate(-68.87)"/></g><path class="cls-12" d="M1745.65,300.87l-46.39,58.51c-15.29,19.31-40.58,19.88-57.09,2.87C1471.25,197.6,1259.62,147.46,1033,217.91c-22.42,7.78-44.74-4.08-49.77-28.19-6.05-29.24-9.12-43.86-15.17-73.1-3.16-15.16,2.71-32.33,14.18-45.31,5,24.3,8.08,38.81,13.57,65.35,5,24.11,27.34,36,49.76,28.18,226.64-70.48,438.26-20.3,609.18,144.35,16.51,17,41.81,16.43,57.09-2.87,16.83-21.21,26-32.82,41.43-52.24C1757.73,270.8,1755.27,288.78,1745.65,300.87Z"/><path class="cls-1" d="M1669.65,390.8c-14.46,0-28.21-6-39-17C1464,213.36,1259,164.81,1038.07,233.42c-15.46,5.3-31.36,4-44.81-3.58s-22.67-20.67-26-36.77L952,120c-6.71-32.29,16.31-69.53,50.27-81.34,138-43.56,272.24-50.27,399.61-20.09S1646.3,115,1749.69,215.45c25.39,26.12,29.25,69.74,8.76,95.58l-46.39,58.52c-10.22,12.88-24.33,20.41-39.75,21.18C1671.42,390.78,1670.53,390.8,1669.65,390.8ZM1229.44,170.3c156,0,300,60.7,424.05,180.18l.38.38c4.84,5,10.8,7.52,16.8,7.24s11.43-3.36,15.78-8.85l46.4-58.52c9.43-11.89,8.75-36.73-6.26-52.18-197.38-191.83-451.07-251.95-714-168.93-19.9,6.92-31.65,28.82-28.55,43.68l15.2,73.11c1.42,6.86,4.93,12.05,10.14,15s11.72,3.33,18.25,1.06l.52-.17C1096.9,180.92,1164.23,170.3,1229.44,170.3Z"/><path class="cls-1" d="M624.76,902.86a75.43,75.43,0,0,1-74.68-85.6,72.24,72.24,0,0,1,2-9.86L646,467.93h0a69.23,69.23,0,0,1,3.43-9.69A75.38,75.38,0,0,1,791.27,508.1L697.42,847.58a75.7,75.7,0,0,1-72.66,55.28Zm93.9-457.55a42.64,42.64,0,0,0-21.08,5.61,42.21,42.21,0,0,0-18.22,20.31,40.34,40.34,0,0,0-1.92,5.4h0L583.6,816.11a41.36,41.36,0,0,0-1.15,5.54,42.87,42.87,0,0,0,30.94,47,42.87,42.87,0,0,0,52.54-29.76L759.78,499.4a42.7,42.7,0,0,0-41.12-54.09Zm-57,27h0Z"/><path class="cls-1" d="M580,840.21l-31.06-8.59A134.17,134.17,0,0,1,455.57,667L491,538.84c19.67-71.14,93.54-113,164.66-93.36l31.24,8.64-7.61,17.29a39.88,39.88,0,0,0-1.84,5.22L583.6,816.11a41.36,41.36,0,0,0-1.15,5.54ZM522.49,547.55,487.07,675.68a101.49,101.49,0,0,0,67.31,123.5l89.3-323a101.26,101.26,0,0,0-121.19,71.42Z"/><path class="cls-1" d="M927.4,1995a16.3,16.3,0,0,1-11.89-5.13c-53.77-57-114.85-83.65-181.7-79.13-73.66,5-132.33,47.35-144.39,64.18a16.34,16.34,0,0,1-26.57-19c17.43-24.33,84.81-72.1,168.76-77.76,76-5.14,147.74,25.78,207.67,89.32A16.33,16.33,0,0,1,927.4,1995Z"/><path class="cls-1" d="M1171.8,1995a16.34,16.34,0,0,1-11.88-27.54c59.94-63.55,131.79-94.45,207.68-89.32,84,5.66,151.34,53.43,168.76,77.76a16.33,16.33,0,1,1-26.56,19c-12.06-16.83-70.75-59.22-144.4-64.18-66.79-4.51-127.93,22.13-181.71,79.13A16.29,16.29,0,0,1,1171.8,1995Z"/><g class="cls-3"><path class="cls-1" d="M1177.34,2290.47c-4.25,53.33-3.88,229.92,71.8,278.93,72.24,46.76,164.66,39.53,224.61-6.29,18.91-14.5,29.53-35.28,34.72-58.4-1.51,1.35-3.07,2.66-4.7,3.88-59.91,45.86-152.33,53.09-224.58,6.29-75.67-49-74.86-217-82.37-269.54-3-20.87-16-69.51-30.63-120.81C1171.87,2173.58,1180.16,2254.57,1177.34,2290.47Z"/></g></g></g></svg>