<svg xmlns="http://www.w3.org/2000/svg" viewBox="0 0 746.16 1430.65"><defs><style>.cls-1{fill:#dc2626;}.cls-1,.cls-2,.cls-3,.cls-5{stroke:#000;stroke-miterlimit:10;}.cls-2{fill:#fff;}.cls-3{fill:none;}.cls-4{fill:#000e16;}.cls-5,.cls-6{fill:#020101;}</style></defs><g id="cloth"><path class="cls-1" d="M750.54,897.12c-20.87,21.08-33.67,83.74-33.67,83.74Z" transform="translate(-586.92 184.65)"/><path class="cls-1" d="M748.45,895.73l-.35-.18c-.82,1-1.29,1.57-1.29,1.57Z" transform="translate(-586.92 184.65)"/><path class="cls-1" d="M750.54,897.12c17.49-17.67,3.05-5.72-2.09-1.39A8,8,0,0,1,750.54,897.12Z" transform="translate(-586.92 184.65)"/><path class="cls-2" d="M721.92,894c-22.49,3.35-22.08,51.47-22.08,51.47,5.45,1.37,17,35.43,17,35.43s12.8-62.66,33.67-83.74a8,8,0,0,0-2.09-1.39l-1.64,1.39s.47-.56,1.29-1.57C744.61,893.88,736.89,891.74,721.92,894Z" transform="translate(-586.92 184.65)"/><path class="cls-1" d="M1246.26,488.94s-29.29-83.12-37.47-102.88-114.46-55.18-114.46-55.18,10.9-6.14-6.81-14.31-42.25-24.53-51.1-38.84,2.72-60.63,0-76.31c-1.57-9-10.18-11.29-18.17-10.45-2.26.23-5.1.31-6.32,2.13-1.32,2-1,6.85-1.76,9.3a17.72,17.72,0,0,1-5.08,8.2c-4.65,4-11.26,4.27-17.17,5.83-3,.79-5.92,1.95-9,2.3-6.09.69-12-1.82-17.81-3.85-11.41-4-27.6-9.2-39.4-5.3-9.79,3.24-20.87,4.62-31.1,6.15-13.62,2.05.68,32,.68,32,10.9,24.45,2.05,48.45-9.54,53.22s-13.62,6.13-25.2,22.72-81.76,41.32-81.76,41.32c-87.89,22.49-75.63,107-103.56,128.77s-18.4,178.51-18.4,178.51,1.36,7.5-30.66,24.53-34.75,55.87-34.75,55.87l22.3,65.4c-15.85,25.9.19,39.52.19,39.52-4.77,47.69,84.48,86.53,89.93,87.89,0,0-.41-48.12,22.08-51.47,15-2.22,22.69-.08,26.18,1.59,5.95-7.27,30.72-38.5,37-61.09,7.18-25.72,59.78-79.86,59.78-79.86l38.68,4.12s40.68,25.45,58.78,26.82,56.47,22.43,75,22.43,36.74,11.42,36.74,11.42l41,18.26c-18.92,31.15,3,30.88,3,30.88L1081.6,888.2l.7,5.76s47.26-3.89,50.35,55.23l-2.6,10c4.62-2.15,10-4,15.38-9,11.58-10.9,0,0,32-.68s21.8,2,33.39,2.73,34.74,0,52.46-14.31,10.22-53.15,10.22-53.15S1300.09,848,1328,780.55,1246.26,488.94,1246.26,488.94Z" transform="translate(-586.92 184.65)"/><path class="cls-3" d="M1068.39,909l35.75,83.08,14-18.7c2.19-8.76,6.53-11.66,11.87-14.13l2.6-10c-3.09-59.12-50.35-55.23-50.35-55.23C1079.34,904.08,1068.39,909,1068.39,909Z" transform="translate(-586.92 184.65)"/><path class="cls-4" d="M1118.18,973.37l-14,18.7L1068.39,909s10.95-4.91,13.91-15l-.7-5.76-27.47-68.81S1036,808,1017.39,808s-56.92-21.07-75-22.43-58.78-26.82-58.78-26.82L844.9,754.6s-52.6,54.14-59.78,79.86-38.31,62.66-38.31,62.66,24.6-21.08,3.73,0-33.67,83.74-33.67,83.74l-2.72,23.85-19.76,69.49,15.67,170.92,193.5-3.31,18.39-60,28.62,63.27h214.62S1114.09,989.72,1118.18,973.37Z" transform="translate(-586.92 184.65)"/></g><g id="details"><path class="cls-5" d="M722.32,403.78s3.41,81.76-4.76,128.09S699.84,664.73,698.48,680.4s-8.86,53.82-8.18,65.4,23.17,55.19,36.11,63.37,33.39,14.31,45,15-26.57-4.77-12.26-17,42.24-14.3,49.73-23.16,13.63-12.27,9.54-19.08l-4.09-6.81-4.08-2.73c-2.73-3.4-19.76-17.71,1.36-19.07s30,5.45,36.79,4.77,23.85-8.18-8.86-12.95-23.16-23.17-49.73-4.09-34.07,23.85-50.42,35.43-14.31,17-21.8,11.58-21.13-23.84-2.73-34.74,19.08-18.4,54.51-21.13,40.88-11.58,59.27-1.36S864,730.82,864,737s6.13,20.44,0,19.76,7.49-7.5,27.93,4.08-15.67,1.37,45.65,19.08,47,21.12,71.54,21.12h24.53s23.17,7.5,34.75,7.5,18.39,0,23.16,8.85,13.63,10.22,6.14,15.67,12.94,15-7.5,5.45-36.11-19.07-36.11-19.07l22.48,52.46,4.09,12.26s5.45-25.21-55.87-49.05S956,811.21,956,811.21s-4.09-.68-19.08-10.9-6.13-5.45-32.7-15-34.07-11.58-34.07-11.58S847,758.07,845,764.88s-4.77,27.25-4.08,30-6.82,8.18-6.82,8.18-4.09-16.36-6.81-10.91-17.72,7.5-17.72,12.27,10.91,8.17,10.91,8.17l75-6.13,51.45,4.09-126.46,9.54-13.63-8.86s-3.41,4.09-12.26,10.9-12.95,20.44-12.95,23.17-24.53,42.92-24.53,42.92,5.45-8.86-2.72-26.57l-8.18-17.71h0s-11.58,0-11.58-4.09,6.81-7.5-.68-19.08-36.79-41.56-36.79-38.15-42.25,25.89-42.25,25.89l-32.7,17.71s25-46.28,52.46-48.37,11.58-10.81,15-16.36-4.09-6.81-4.09-6.81-59,15.14-70.17,54.51c0,0,10.22-52.46,56.55-58.6l11.58-3.4s3.41-1.37,4.09-20.44l-72.22,24.52s15-4.76,10.9-10.21l-4.09-5.46-15-.68s-12.26-18.39,20.44-19.76,56.55,2.73,61.32-10.22,10.22-69.49,10.22-71.53,10.9-74.95,10.9-74.95l-9.54-10.9s-36.11-52.46-15.67-37.47,25.89,18.39,25.89,18.39l-39.51-34.75,38.15,27.94Z" transform="translate(-586.92 184.65)"/><path class="cls-5" d="M706.59,834.73c-2.48,0-5.14.15-7.13,1.63-1.2.89-2,2.21-3.24,3.1a10.65,10.65,0,0,1-5.59,1.64,44.27,44.27,0,0,1-16.8-2,71.92,71.92,0,0,0-7.13-2.26A20.39,20.39,0,0,0,645,847.14a6.08,6.08,0,0,0-.82,4.31c.87,3.09,5.08,3.53,8.22,2.87,10-2.06,19.74-8.69,29.48-5.76,2,5.21-1.59,11.24-6.54,13.83S664.54,865,659,864.7a30.83,30.83,0,0,1-6.57-.8,50.6,50.6,0,0,1-7.92-3.39c-10.58-4.89-22.92-6-32.41-12.75-1.69.66-1.86,3.21-.74,4.65s3,2,4.72,2.57L629,858.87c11.65,3.51,23.41,7,35.53,8.08,3.57.31,7.3.44,10.42,2.2s5.28,5.83,3.63,9a17.48,17.48,0,0,1-9.28-.86c-2.3-.87-4.38-2.23-6.66-3.17-4.83-2-10.21-2-15.43-2-2.92,0-6,0-8.57,1.34s-4.63,4.29-3.83,7.1c1,3.53,5.39,4.61,9,5.07a35.54,35.54,0,0,0,9.71.32c6.64-1,13.53-5.58,19.49-2.49,4.75,2.46,6.08,8.5,6.9,13.78l2.1,13.64-19-.36,14.75,4.2c2.23.63,5.24,1,6.3-1.1a5,5,0,0,0,.29-2.7c-.91-10.81-3.77-21.45-4-32.3s2.91-22.56,11.48-29.22c5.86,11.22,5.06,24.6,4.11,37.22,1-13.05,2-26.26,6.13-38.67a103.61,103.61,0,0,1,5.47,39.9c3.74-14.45,4.86-29.43,6-44.32,5.1,5.13,7.83,12.25,8.89,19.41s.58,14.45.11,21.67l3.11-40.41q1.14,19.61,3.55,39.1l5.92-38.72a140.88,140.88,0,0,1,9.24,38.37,125.77,125.77,0,0,0,2.4-20.65c.21-6.49-.57-14-5.9-17.72-2.43-1.7-5.08-2.74-7-5.06s-1.56-3.18-4.84-4C722.18,833.82,713.58,834.67,706.59,834.73Z" transform="translate(-586.92 184.65)"/><path class="cls-5" d="M1078.69,897.5a15.46,15.46,0,0,1,17.16-5.57,26.49,26.49,0,0,1,5.59,2.9,102.63,102.63,0,0,1,30.67,30.6,32.38,32.38,0,0,1,3.9,7.72,31.84,31.84,0,0,1,1.17,8.2c.16,3.75.07,7.61-1.37,11.07s-4.52,6.45-8.25,6.82a26.41,26.41,0,0,0,5.83-19.14,37,37,0,0,0-4.11-12.9,63.32,63.32,0,0,0-32.07-29.69c-3.37-1.39-7.14-2.49-10.63-1.43-6.75,2-8.89,11.15-15.49,12.84C1073.88,905.46,1076,901.3,1078.69,897.5Z" transform="translate(-586.92 184.65)"/><path class="cls-5" d="M1089.41,853c.69-2,2.06-3.72,2.86-5.69,1.27-3.13,1.07-6.82,2.89-9.66l.76,4.19c.08.44.28,1,.72,1a1,1,0,0,0,.61-.31l2.41-2c1.92,4.67,4.1,9.64,8.4,12.29a11.94,11.94,0,0,0,3.44,1.43c.56,2-1.14,3.78-2.68,5.12-3.57,3.11-8.31,9.71-13.46,7.41C1090.6,864.63,1087.73,857.83,1089.41,853Z" transform="translate(-586.92 184.65)"/><path class="cls-5" d="M1115,849.86a20.47,20.47,0,0,1,22.21-7.91c2,.6,4,1.53,6.09,1.25,1.88-.26,3.56-1.5,5.45-1.49,2.6,0,4.57,2.33,5.81,4.61s2.23,4.88,4.38,6.34c2.7,1.84,6.61,1.43,9,3.66,2.23,2.07,2.47,5.84,5,7.46,2.16,1.36,5.13.62,7.37,1.87a7.54,7.54,0,0,1,2.8,3.28c2.79,5.39,3.09,11.67,3.33,17.73l.74,18.27a6.42,6.42,0,0,0,.59,3,5.83,5.83,0,0,0,2.52,2.07c8.59,4.55,18.54,5.5,28,7.57a3.47,3.47,0,0,1,1.8.79,3.8,3.8,0,0,1,.74,2.17,17.68,17.68,0,0,0,3.62,8.3c.71.89,1.55,1.82,1.55,3,0,2.14-2.74,3-4.87,3.18-6.52.5-13.73,0-18.49-4.52-4.42-4.18-5.6-10.74-9.08-15.73a5.12,5.12,0,0,0-3.16-2.45c-1.51-.23-2.93.73-4.09,1.71a36,36,0,0,0-6.32,7c-1.19,1.72-2.27,3.78-1.76,5.81.66,2.57,3.49,3.82,5.91,4.93a45.24,45.24,0,0,1,13.27,9.3c-9.77-1.23-15.56-12.39-25.09-14.86a1.9,1.9,0,0,0-1.08,0c-.49.17-.76.69-1,1.14-2.18,3.8-6.6,5.57-10.59,7.37a184.4,184.4,0,0,0-20.46,11.4c5-2.9,5-10.3,8.71-14.79,4-4.85,11.43-5.3,16.15-9.45,3.39-3,5.05-7.56,8.51-10.45,2.55-2.14,6.12-3.43,7.36-6.52,1.32-3.32-.74-7-2.72-9.93-3.11-.49-4.51,3.62-6.09,6.36-2.49,4.3-7.59,6.26-11.27,9.6-2.34,2.14-4.1,4.85-6.48,6.94-4.12,3.64-9.66,5.11-15,6.47,9.15-5.67,12.63-17.49,21-24.3,3.25-2.65,7.17-4.48,10-7.54s4.39-8.08,1.84-11.41c-13.12,9.84-23.63,21.78-38.69,28.28.44-3.65,3.33-6.54,6.46-8.46s6.65-3.17,9.66-5.28c6.41-4.49,9.65-12.17,12.56-19.44,1.07-2.65,1.82-6.35-.64-7.8a5.15,5.15,0,0,0-2.2-.59,16.25,16.25,0,0,0-11,3.16c-2.62,2-4.56,4.64-6.64,7.16-5.92,7.15-13.89,13.43-23.15,14,.11-3.48,2.44-6.53,5.18-8.67s6-3.59,8.84-5.53a31.88,31.88,0,0,0,13.86-25.93c-13,1.41-24.33,9.22-34.26,17.71-3.79,3.24-7.84,6.78-12.81,7.21.24-5.43,4.51-9.71,8.33-13.58S1115.7,855.26,1115,849.86Z" transform="translate(-586.92 184.65)"/><path class="cls-5" d="M1126,489.45l-51.15,173.88c-5.24,17.81-10.53,36.33-7.75,54.69,13.66-5.37,27.11,9.26,31.34,23.31s4.95,30.29,15.39,40.6l-24.38-66.44c-2.8-7.64-5.64-15.46-5.7-23.6-.15-17.88,12.74-32.82,19.81-49.24,11-25.49,7.88-55,16.66-81.34,4.72-14.13,12.72-26.93,18.35-40.73,4.59-11.25,7.56-23.08,10.51-34.86,3.6-14.34,15.18-38.8,10.14-53.09C1140.19,443.23,1131.78,469.69,1126,489.45Z" transform="translate(-586.92 184.65)"/><path class="cls-5" d="M1186.09,494.33c1.18-8.28,8.35-14.16,14.7-19.59,7.45-6.36,21.08-36.66.82-31.33C1187.32,447.17,1183.75,483.35,1186.09,494.33Z" transform="translate(-586.92 184.65)"/><path class="cls-5" d="M1162.67,596.32c-6.43,10-12.88,20.09-20.22,29.49-5,6.44-10.5,12.6-14.58,19.69-7.88,13.69-10.12,30.07-18.08,43.72,13.06,3.55,27.21-2,37.53-10.74a38.61,38.61,0,0,0,9.78-11.74c2.72-5.39,3.57-11.51,4.76-17.44,4.83-24,15.79-46.06,26.38-67.95,6.73-13.9,24.75-39.16,18.85-54.92C1190.46,547.65,1177.35,573.43,1162.67,596.32Z" transform="translate(-586.92 184.65)"/><path class="cls-5" d="M1165.54,715.05c12.45-2.68,23.81-8.88,35.78-13.19,22.2-8,46.15-9.36,69.71-10.65,8.43-.46,18-.53,24,5.45,6.16,6.16,5.85,16,7.07,24.64a59.64,59.64,0,0,0,24,39.66,97.45,97.45,0,0,1-50.09-8.24c-5.64-2.57-11.06-5.7-17-7.5-6.61-2-13.61-2.3-20.51-2.4a399.38,399.38,0,0,0-81.42,7.25l58.84-8c5.13-.69,10.53-1.5,14.61-4.69s6.08-9.65,2.8-13.65c-4.3-3.74-10.94-3.08-16.16-.79s-9.78,6-15.15,7.86c-7,2.5-14.72,1.8-22.18,1.57a164.29,164.29,0,0,0-38.32,3.33c-13,2.69-29.32,5.78-37.08-5l21.69-5.15c-14.6.12-28.72-10-33.36-23.79C1116.09,708,1141.06,720.33,1165.54,715.05Z" transform="translate(-586.92 184.65)"/><path class="cls-5" d="M1256.28,778.67l-24.77-18.25a62.35,62.35,0,0,0-11.25-7.11c-6.73-3-14.35-3.52-21.68-2.74-2.06.22-4.52.87-5.11,2.86-.77,2.58,2.22,4.59,4.7,5.61a528.34,528.34,0,0,0,49.88,17.67c2.37.71,4.84,1.46,6.57,3.21a20.93,20.93,0,0,1,3,4.79c3.82,6.85,34.1,26.59,41,17.87C1301.22,799.31,1262.48,783.24,1256.28,778.67Z" transform="translate(-586.92 184.65)"/><path class="cls-6" d="M1234.5,809.92l11.68,15.29c10.9,14.27,22.38,30.4,20.8,48.29a23.68,23.68,0,0,1-4.66,12.86c-3.06,3.8-7.54,6.13-11.59,8.86-6.14,4.16-11.71,9.56-18.82,11.65-3.92,1.14-8.06,1.2-12.15,1.25l-22.42.27c12.19,4.66,25.59,4.65,38.64,4.59,7,0,15-.57,19.21-6.13,3,6.07-.39,13.38-4.66,18.64a59.09,59.09,0,0,1-52.88,20.92,66.82,66.82,0,0,0,65.27-6.37c3-2.18,6-4.73,7.55-8.13a25.68,25.68,0,0,0,1.77-7.1c1.11-7.34,2.22-14.72,2.09-22.14-.09-5.35-.83-10.66-1.32-16-1.06-11.49-1-23.09-2.56-34.52s-5.06-22.93-12.34-31.89c-4.56-5.6-10.42-10-16-14.61a194.61,194.61,0,0,1-40.7-46.95c.78,1.26-.78,5.48-.22,7.28s1.41,2.24,2.44,3.73c3,4.33,6.6,8.43,9.81,12.64Z" transform="translate(-586.92 184.65)"/><path class="cls-5" d="M1159.34,782.38c4.85-1.69,9.52-3.91,14.49-5.17s10.44-1.48,15.06.75,8,7.42,7.06,12.45a5.57,5.57,0,0,1-1.94,3.48,7.15,7.15,0,0,1-3,1.09c-5.38,1-10.9.89-16.37.75l-29.8-.73c-7.89-.2-16-.36-23.45,2.26s-14.24,8.65-15.39,16.47c2.39.42,4.26-1.92,5.64-3.91a76.47,76.47,0,0,1,19.77-19.61C1139.75,784.53,1149.88,785.68,1159.34,782.38Z" transform="translate(-586.92 184.65)"/><path class="cls-5" d="M838.54,821.88S777.92,1041.37,776,1134.53s5.77,109.36,5.77,109.36l1.88-74.27Z" transform="translate(-586.92 184.65)"/><path class="cls-5" d="M892,814.67l-10.68,258v56.79l-20.42,30.63H799l10.84,28.71L866,1183l-20.49,33.18,7.3,26.48,50.78-.87,18.39-60,28.62,63.27,24.51-1.23s-34.46-62.79-2.55-72.36,38.92,19.14,38.92,19.14l13.4,53.22L983.37,942.47s26.16,238.63,26.16,236.08-4.46-72.74-23-62.53l-18.5,10.21s-19.35,10.85-21.16,32.54a162.86,162.86,0,0,1-7.55,37.65l-12.13-42.12-6.38,20.42s-23-47.85-28.07-75.29-3.83-63.8-3.83-63.8,33.82,2.55,48.49-29.35,15.32-50.41,15.32-50.41-19.14,86.14-60.62,70.19Z" transform="translate(-586.92 184.65)"/><path class="cls-5" d="M969.34,821.88s1.27,88.34,7,93.3Z" transform="translate(-586.92 184.65)"/><path class="cls-5" d="M1109.79,973.74s-6.07-2.56-5.63,12.12,15.76,47,15.76,47Z" transform="translate(-586.92 184.65)"/><path class="cls-5" d="M1071.09,1025.42l63,56.88,3.16,17.34s-3.29-8.5-17.32-11.05-47.89-16.39-48.83-26.06S1044.59,1022.87,1071.09,1025.42Z" transform="translate(-586.92 184.65)"/><path class="cls-5" d="M1013.36,1106.45c1.92-.64,23-32.54,40.84-26.16s44,30.63,44,30.63a25.75,25.75,0,0,1-19.73,9.57C1065.68,1120.49,1013.36,1106.45,1013.36,1106.45Z" transform="translate(-586.92 184.65)"/><path class="cls-5" d="M1046.54,858.89l24.55,56.29S1053.56,868.46,1046.54,858.89Z" transform="translate(-586.92 184.65)"/><path class="cls-5" d="M856.55,323.62s40.05,29.3,66.85,36.95,77.2,3.83,81,0,89.9-29.69,89.9-29.69S893.06,386.2,856.55,323.62Z" transform="translate(-586.92 184.65)"/><path class="cls-5" d="M1021.34,204.25s-5,13.92-24.57,14-25.87,4.62-25.87,4.62,40.55-8.45,40.55-23.13S1021.34,204.25,1021.34,204.25Z" transform="translate(-586.92 184.65)"/><path class="cls-2" d="M716.87,980.86s12.65-62.06,36.47-86.9C753.34,894,713.86,964.87,716.87,980.86Z" transform="translate(-586.92 184.65)"/><path class="cls-5" d="M703.42,949.19S684.61,908.25,714.31,894s36.23,3.16,36.23,3.16-16.46-12.28-28.62-3.16-18.25,16.73-19.26,28.9S703.42,949.19,703.42,949.19Z" transform="translate(-586.92 184.65)"/></g><g id="head"><path class="cls-3" d="M815.57,88.33a13,13,0,0,0-1.77-1A59.4,59.4,0,0,0,821.43,97C819.89,93.31,818,90.07,815.57,88.33Z" transform="translate(-586.92 184.65)"/><path class="cls-1" d="M809.19,35.17c.63-8.94,15.31-3.83,28.07,5.76S857.68,50.48,880,60.69s28.71-10.85,59.34-19.76,26.16-60.64,26.16-60.64,6.38-23.6,5.39-12.12,21.41,21.7,47.57,44S1044,116.84,1044,116.84s8.93-56.15,12.12-71.46c2-9.76,19.59-17.18,32.08-21.28A362,362,0,0,0,1095.05-35c.65-20-.51-40.61-8.92-58.74s-25.4-33.39-45.34-34.79c-8.89-.63-18.67,1.25-26.06-3.73-5.16-3.48-7.83-9.51-11.36-14.63-15.5-22.47-46.57-26.6-73.85-27.47-12.82-.41-25.89-.52-38.15,3.22-9.11,2.77-17.57,7.61-26.9,9.51-16.68,3.41-35.4-2.66-50.24,5.69q1-14,2.06-28.07c-12.55,1.91-23,13.34-23.74,26s8.24,25.26,20.47,28.65c-7.9-1.67-16-3.44-22.76-7.87s-11.93-12.22-10.9-20.23c-7.65,7.48-13.27,17.7-12.89,28.39s7.94,21.41,18.49,23.17c-12.44,2.08-25.79,4-37.22-1.31S729.07-128.48,737-138.3c-18.48,1.71-29,25-22.93,42.51s23.61,28.74,41.4,34c-6.68,10.36-22.44,8.17-33.38,13.85-15.7,8.14-17.51,30.76-10.46,47s20.22,29,28.75,44.46c3,5.4,4,14.28-2,15.82a8.91,8.91,0,0,1-5.32-.64c-11.17-4.21-18.25-17.17-15.76-28.84-9.67,10.67-10.61,28.22-2.14,39.87s25.47,16.15,38.6,10.23a14,14,0,0,1,.06,14.17c-1.22,2-3,3.82-3.4,6.14-1.09,6.23,7.37,9.18,13.68,9.6,7.36.49,16,.43,20.47-5.44,2.39-3.14,3-7.32,5-10.69,4.39-7.17,16.42-10.28,24.16-6.42-2.21-3.58-4.16-7.77-4.61-11.93C808,64.66,808.55,44.1,809.19,35.17Z" transform="translate(-586.92 184.65)"/><path class="cls-2" d="M1110.39,42.08c-5-7.45-14.67-10-23.45-11.94.44-2,.84-4,1.25-6-12.49,4.1-30,11.52-32.08,21.28-3.19,15.31-12.12,71.46-12.12,71.46s.64-82.31-25.52-104.64-48.55-32.54-47.57-44-5.39,12.12-5.39,12.12S970,32,939.35,40.93s-37,30-59.34,19.76-30-10.17-42.75-19.76-27.44-14.7-28.07-5.76-1.17,29.49,0,40.19c.45,4.16,2.4,8.35,4.61,11.93a13,13,0,0,1,1.77,1c2.43,1.74,4.32,5,5.86,8.7,2.38,5.78,3.92,12.72,5.34,17,8,24,6.44,50.92,19.42,73.24,14.6,25.11,43.83,37.09,71,47.36,6.54,2.47,13.28,5,20.27,4.77,10.63-.31,20-6.78,28.59-13l29.33-21.14c12.45-9,25.21-18.26,33.43-31.21,9.28-14.61,11.85-32.36,14-49.53.13,4.22,5.54,6,9.76,5.82,14.17-.42,27.28-8.58,36.5-19.34s15.09-24,20.18-37.2C1113.19,63.52,1116.57,51.21,1110.39,42.08Z" transform="translate(-586.92 184.65)"/></g><g id="face"><path d="M920.3,49.21s64.07-21.6,69.92-21.6,35.89,21.6,35.89,21.6H989.38l-65.11,19.3Z" transform="translate(-586.92 184.65)"/><polygon points="291.45 261.5 222.27 260.01 226.89 241.47 281.43 247.31 291.45 261.5"/><path d="M943.24,102.22s2.21-23.83,38.17-26.6c0,0,27.65-2.49,31.25-4.42,0,0-1.82,6.89-16.54,5.66S951,78.2,943.24,102.22Z" transform="translate(-586.92 184.65)"/><path class="cls-3" d="M1008,76.86s-5,21.72-18,28.08-46.74,0-46.74,0,.42-14.69,14.07-20.36c0,0,15.67-11.74,32.66-8L1008,74Z" transform="translate(-586.92 184.65)"/><path class="cls-3" d="M883.49,107.77s-22.12,14-33.74,12.11-17.7-17.66-17.7-17.66S850.86,90,862.75,93.6,884.6,102.3,883.49,107.77Z" transform="translate(-586.92 184.65)"/><path d="M846.14,95.32s2,14.05,11.67,14.32,19.42-6.25,19.79-9.9C877.6,99.74,859.55,87.29,846.14,95.32Z" transform="translate(-586.92 184.65)"/><path d="M957.31,84.58S967,101,975.6,97,989.14,89.76,990,76.61C990,76.61,967.79,75,957.31,84.58Z" transform="translate(-586.92 184.65)"/><path d="M822.64,97s42.15-13.83,55,2.71c0,0-23.12-13.64-41.29,0l-4.26,2.48Z" transform="translate(-586.92 184.65)"/><path d="M940.19,145.6s-.55,12.45-5.53,12.17-13.55-9.4-15.49-1.38v4.15s-.55-4.15,4.7-3S942.13,160.54,940.19,145.6Z" transform="translate(-586.92 184.65)"/><path d="M909.77,162.47s-6.14-7.47-8.33-5.81l-2.18,1.66-1.11,2.22Z" transform="translate(-586.92 184.65)"/><polygon points="304.6 375.42 364.34 365.93 370.39 360.39 362.13 369.52 304.6 375.42"/><path d="M1051.8,101.2s11.73-1.19,11.49-8.85-5.5-1-4.31-10.29,3.83-28.28,22.49-34,30.63-6.43,28.72,8.64-7.42,32.37-16.51,41,18.42-27.79,7.41-36.64l-2.63-1.68s4.07,37.81-23.45,50.25c0,0,22.73-25.36,14.84-34.22,0,0-8.18-7.89-8.76-2.39s6.84,13.88-1,20.58l-7.9,6.7-6.22,2s18.9-11.54,12.2-23.27C1078.12,79,1065.2,109.34,1051.8,101.2Z" transform="translate(-586.92 184.65)"/></g></svg>