<?xml version="1.0" encoding="UTF-8" standalone="no"?>
<!-- Created with Inkscape (http://www.inkscape.org/) -->

<svg
   width="76.204948mm"
   height="217.81383mm"
   viewBox="0 0 76.204948 217.81383"
   version="1.1"
   id="svg1"
   xmlns:xlink="http://www.w3.org/1999/xlink"
   xmlns="http://www.w3.org/2000/svg"
   xmlns:svg="http://www.w3.org/2000/svg">
  <defs
     id="defs1">
    <linearGradient
       id="linearGradient14">
      <stop
         style="stop-color:#ffbc2a;stop-opacity:1;"
         offset="0"
         id="stop14" />
      <stop
         style="stop-color:#f5624e;stop-opacity:0.95408165;"
         offset="1"
         id="stop15" />
    </linearGradient>
    <linearGradient
       xlink:href="#linearGradient14"
       id="linearGradient15"
       x1="52.858261"
       y1="7.6421576"
       x2="123.54823"
       y2="176.40649"
       gradientUnits="userSpaceOnUse" />
  </defs>
  <g
     id="layer1"
     transform="translate(-58.70062,0.01229241)">
    <g
       id="g14"
       style="fill:#ff2a2a">
      <path
         d="m 121.67375,-0.01229178 -2.1307,5.17e-4 c -7.31678,0.002 -13.20544,4.91014098 -13.203,11.00397978 l 0.01,25.020178 c -1.85695,1.794586 -4.3348,2.890022 -7.065916,2.890779 l -4.71806,0.0016 c -2.859942,7.97e-4 -5.434099,-1.205935 -7.31535,-3.15433 l -0.0043,-9.869165 C 87.2436,19.787349 81.351192,14.883008 74.034318,14.885039 l -2.130076,5.17e-4 c -7.316885,0.002 -13.20606,4.909543 -13.203619,11.003463 l 0.01117,27.218493 0.0094,23.523629 0.01551,38.068469 h 0.03475 v 4.72736 c -0.03942,0.34757 -0.06329,0.69931 -0.06329,1.05575 v 50.74162 c 0,6.09385 5.890548,11.00036 13.207342,11.00036 h 2.130696 c 7.316793,0 13.207342,-4.90651 13.207342,-11.00036 v -25.02018 c 1.857683,-1.79407 4.336036,-2.88871 7.067161,-2.88871 h 4.71806 c 2.859956,0 5.433646,1.20748 7.314126,3.1564 v 9.86916 c 0,6.09393 5.89045,10.99985 13.20733,10.99985 h 2.13008 c 7.31689,0 13.20797,-4.90592 13.20797,-10.99985 V 129.12247 105.59883 67.530356 h -0.0534 l -0.002,-4.748548 c 0.0393,-0.347574 0.0628,-0.699307 0.0627,-1.055749 l -0.0205,-50.741606 c -0.002,-6.0938378 -5.89489,-10.99877778 -13.21168,-10.99674478 z"
         style="fill:url(#linearGradient15);fill-opacity:1;fill-rule:evenodd;stroke-width:0.289919"
         id="path13-4" />
      <path
         d="m 81.796721,123.56266 q -3.726913,0 -6.565291,-1.65366 -2.813695,-1.65367 -4.368633,-4.6895 -1.554937,-3.03583 -1.554937,-7.03424 v -9.84793 q 0,-3.998412 1.554937,-7.034241 1.554938,-3.03583 4.368633,-4.689493 2.838378,-1.678345 6.565291,-1.678345 3.085192,0 5.676754,1.332803 2.591562,1.308122 4.31927,3.726913 1.75239,2.418791 2.369428,5.60271 v 0 h -5.158442 v 0 q -0.468949,-1.678345 -1.579619,-2.986466 -1.085988,-1.332804 -2.56688,-2.048568 -1.480893,-0.715765 -3.060511,-0.715765 -2.196658,0 -3.850321,1.061306 -1.653663,1.061306 -2.56688,2.986467 -0.913217,1.900478 -0.913217,4.442679 v 9.84793 q 0,2.51752 0.913217,4.44268 0.913217,1.92516 2.56688,2.98647 1.653663,1.03662 3.850321,1.03662 1.6043,0 3.060511,-0.6664 1.480892,-0.6664 2.56688,-1.97452 1.11067,-1.30812 1.579619,-3.10988 v 0 h 5.158442 v 0 q -0.617038,3.18392 -2.369428,5.60271 -1.752389,2.41879 -4.343951,3.7516 -2.591562,1.30812 -5.652073,1.30812 z m 29.321669,0 q -2.59156,0 -4.91162,-0.49363 -2.32007,-0.49363 -4.34396,-1.48089 -1.999201,-0.98727 -3.75159,-2.46816 v 0 l 3.13456,-3.85032 v 0 q 2.04856,1.77707 4.51672,2.66561 2.46815,0.88853 5.35589,0.88853 3.89969,0 6.04698,-1.43153 2.14729,-1.45621 2.14729,-4.09713 v -0.0247 q 0,-1.8758 -0.98726,-2.96179 -0.96258,-1.11067 -2.51751,-1.62898 -1.53026,-0.54299 -3.97373,-0.98726 -0.074,-0.0247 -0.17277,-0.0247 -0.074,0 -0.14809,-0.0247 l -0.37023,-0.074 q -3.6035,-0.61704 -5.8742,-1.38217 -2.24602,-0.78981 -3.85032,-2.83837 -1.604304,-2.07325 -1.604304,-5.874211 v -0.02468 q 0,-3.332008 1.480894,-5.676755 1.50557,-2.369428 4.36863,-3.603505 2.86306,-1.234077 6.88615,-1.234077 1.92516,0 3.77628,0.419586 1.8758,0.419586 3.67755,1.258759 1.82643,0.814491 3.57882,2.073249 v 0 l -2.86306,3.99841 v 0 q -2.04857,-1.505574 -4.09713,-2.24602 -2.02389,-0.765128 -4.07246,-0.765128 -3.67755,0 -5.72612,1.480893 -2.02388,1.456211 -2.02388,4.146499 v 0.02468 q 0,1.851116 1.03662,2.91242 1.06131,1.06131 2.61625,1.57962 1.57961,0.49363 4.36863,1.03663 0.0987,0.0247 0.17277,0.0494 0.0987,0 0.19745,0.0247 0.12341,0.0247 0.2715,0.0494 0.14809,0.0247 0.2715,0.0494 3.25796,0.6664 5.42994,1.57962 2.19665,0.91321 3.65286,2.96178 1.4809,2.02389 1.4809,5.55335 v 0.0494 q 0,3.28265 -1.55494,5.62739 -1.55494,2.32007 -4.51672,3.55414 -2.93711,1.2094 -7.10829,1.2094 z"
         id="cs"
         style="font-size:50.5478px;line-height:1.25;font-family:Bahnschrift;-inkscape-font-specification:'Bahnschrift, Normal';letter-spacing:0px;word-spacing:0px;fill:#f9f9f9;stroke-width:1.2637"
         aria-label="CS" />
    </g>
    <ellipse
       style="fill:#f77645;fill-opacity:0.964706;stroke-width:3.253;stroke-linecap:round;stroke-linejoin:round;paint-order:stroke fill markers"
       id="path14"
       cx="72.711243"
       cy="204.42775"
       rx="14.010624"
       ry="13.373777" />
  </g>
</svg>
