<svg xmlns="http://www.w3.org/2000/svg" viewBox="0 0 1386.55 267.86"><defs><style>.cls-1{fill:#dc2626;}</style></defs><g id="neck"><path d="M302.08,333.14q43,0,69.21,25.35t26.25,66q0,41-25.84,65.67t-69.62,24.69H224.23V333.14Zm0,20.9h-55.3v139.9h55.3q33.57,0,52.83-18.85t19.26-50.94q0-31.59-19.59-50.85T302.08,354Z" transform="translate(-224.23 -246.98)"/><path class="cls-1" d="M437.2,514.84V333.14H580.06V354H459.75v53.33H532.5v20.9H459.75v65.67H587.47v20.9Z" transform="translate(-224.23 -246.98)"/><path d="M693.29,514.84H679.14l-87.56-181.7H616.1L686.22,478.8l70.11-145.66h25Z" transform="translate(-224.23 -246.98)"/><polygon class="cls-1" points="354.46 64.74 211.97 64.74 212.25 47.62 354.46 47.62 354.46 64.74"/><rect class="cls-1" x="1212.23" y="320.69" width="47.23" height="47.23" transform="translate(505.1 -1081.36) rotate(51.18)"/></g><g id="Layer_6" data-name="Layer 6"><path d="M1048.9,432.63V271.83H972.53v-20.9h175.61v20.9h-76.53v160.8Z" transform="translate(-224.23 -246.98)"/><path d="M1237.34,437.4q-40.81,0-67.39-26.91t-26.58-68.22q0-41.47,26.66-68.38T1237.34,247q40.82,0,67.65,27t26.82,68.3q0,41.31-26.74,68.22T1237.34,437.4Zm0-21.23q30.62,0,50.7-20.9t20.07-53q0-32.25-20-53.16t-50.78-20.9q-30.61,0-50.69,21t-20.08,53.08q0,32.1,20.08,53T1237.34,416.17Z" transform="translate(-224.23 -246.98)"/><path d="M1371.48,432.63V250.93H1479q26.82,0,40.57,11.44t13.74,33.82a42.89,42.89,0,0,1-4.27,19.42,35.43,35.43,0,0,1-12.18,13.82q14.48,8.4,21.89,20.58t7.4,28q0,25.17-16.54,39.91t-44.85,14.73ZM1394,322.69h86.9q14.31,0,21.89-6.51t7.57-18.68q0-12.83-7.33-19.25t-22.13-6.42H1394Zm0,89h95.13q15.46,0,24.35-9.14t8.89-24.93q0-15.65-8.89-24.86t-24.35-9.21H1394Z" transform="translate(-224.23 -246.98)"/><path d="M1588.4,432.63V291.74h22.38V432.63Z" transform="translate(-224.23 -246.98)"/></g></svg>