<?xml version="1.0" encoding="UTF-8" standalone="no"?>
<!-- Created with Inkscape (http://www.inkscape.org/) -->

<svg
   width="776.57007mm"
   height="911.86023mm"
   viewBox="0 0 776.57008 911.86023"
   version="1.1"
   id="svg1"
   xml:space="preserve"
   xmlns:xlink="http://www.w3.org/1999/xlink"
   xmlns="http://www.w3.org/2000/svg"
   xmlns:svg="http://www.w3.org/2000/svg"><defs
     id="defs1"><linearGradient
       id="linearGradient226"><stop
         style="stop-color:#0044aa;stop-opacity:1"
         offset="0"
         id="stop226" /><stop
         style="stop-color:#0055d4;stop-opacity:1"
         offset="1"
         id="stop227" /></linearGradient><linearGradient
       id="linearGradient224"><stop
         style="stop-color:#0044aa;stop-opacity:1"
         offset="0"
         id="stop224" /><stop
         style="stop-color:#003380;stop-opacity:1"
         offset="1"
         id="stop225" /></linearGradient><linearGradient
       id="linearGradient222"><stop
         style="stop-color:#003380;stop-opacity:1"
         offset="0"
         id="stop222" /><stop
         style="stop-color:#0055d4;stop-opacity:1"
         offset="1"
         id="stop223" /></linearGradient><linearGradient
       id="linearGradient220"><stop
         style="stop-color:#003380;stop-opacity:1"
         offset="0"
         id="stop220" /><stop
         style="stop-color:#0044aa;stop-opacity:1"
         offset="1"
         id="stop221" /></linearGradient><linearGradient
       id="linearGradient217"><stop
         style="stop-color:#0044aa;stop-opacity:1"
         offset="0"
         id="stop218" /><stop
         style="stop-color:#003380;stop-opacity:1"
         offset="1"
         id="stop219" /></linearGradient><linearGradient
       id="linearGradient215"><stop
         style="stop-color:#aa0000;stop-opacity:1"
         offset="0"
         id="stop216" /><stop
         style="stop-color:#d40000;stop-opacity:1"
         offset="1"
         id="stop217" /></linearGradient><linearGradient
       id="linearGradient214"><stop
         style="stop-color:#0044aa;stop-opacity:1"
         offset="0"
         id="stop214" /><stop
         style="stop-color:#0055d4;stop-opacity:1"
         offset="1"
         id="stop215" /></linearGradient><linearGradient
       id="linearGradient202"><stop
         style="stop-color:#aa0000;stop-opacity:1"
         offset="0"
         id="stop203" /><stop
         style="stop-color:#ff0000;stop-opacity:1"
         offset="1"
         id="stop204" /></linearGradient><linearGradient
       id="linearGradient200"><stop
         style="stop-color:#aa0000;stop-opacity:1"
         offset="0"
         id="stop201" /><stop
         style="stop-color:#ff0000;stop-opacity:1"
         offset="1"
         id="stop202" /></linearGradient><linearGradient
       id="linearGradient199"><stop
         style="stop-color:#ff0000;stop-opacity:1"
         offset="0"
         id="stop199" /><stop
         style="stop-color:#aa0000;stop-opacity:1"
         offset="1"
         id="stop200" /></linearGradient><linearGradient
       id="linearGradient188"><stop
         style="stop-color:#ffffff;stop-opacity:1"
         offset="0"
         id="stop188" /><stop
         style="stop-color:#ffffff;stop-opacity:0"
         offset="1"
         id="stop189" /></linearGradient><radialGradient
       xlink:href="#linearGradient199"
       id="radialGradient1709"
       gradientUnits="userSpaceOnUse"
       gradientTransform="matrix(-1.3543304,0.4855419,-0.7342334,-2.0480103,4358.5319,208.87809)"
       cx="1721.7454"
       cy="348.6355"
       fx="1721.7454"
       fy="348.6355"
       r="149.5251" /><radialGradient
       xlink:href="#linearGradient200"
       id="radialGradient1710"
       gradientUnits="userSpaceOnUse"
       gradientTransform="matrix(-2.5326058,-0.8225854,0.49510656,-1.5243522,7693.2031,2766.7213)"
       cx="2211.657"
       cy="293.81915"
       fx="2211.657"
       fy="293.81915"
       r="145.58882" /><radialGradient
       xlink:href="#linearGradient202"
       id="radialGradient1711"
       gradientUnits="userSpaceOnUse"
       gradientTransform="matrix(-1.560853,0.72585079,-0.43062609,-0.92599396,4998.364,-1078.2888)"
       cx="1906.4821"
       cy="107.83813"
       fx="1906.4821"
       fy="107.83813"
       r="249.30373" /><linearGradient
       xlink:href="#linearGradient217"
       id="linearGradient1711"
       gradientUnits="userSpaceOnUse"
       x1="888.52045"
       y1="18.889933"
       x2="913.20856"
       y2="49.275272" /><linearGradient
       xlink:href="#linearGradient220"
       id="linearGradient1712"
       gradientUnits="userSpaceOnUse"
       x1="936.94708"
       y1="74.912903"
       x2="883.77271"
       y2="22.688101" /><linearGradient
       xlink:href="#linearGradient224"
       id="linearGradient1713"
       gradientUnits="userSpaceOnUse"
       x1="903.17175"
       y1="15.403349"
       x2="921.21307"
       y2="51.485939" /><linearGradient
       xlink:href="#linearGradient222"
       id="linearGradient1714"
       gradientUnits="userSpaceOnUse"
       x1="1851.6066"
       y1="73.114723"
       x2="1816.4735"
       y2="9.4954214" /><linearGradient
       xlink:href="#linearGradient226"
       id="linearGradient1715"
       gradientUnits="userSpaceOnUse"
       x1="1054.149"
       y1="-135.57381"
       x2="1123.4656"
       y2="2.1097655" /><radialGradient
       xlink:href="#linearGradient215"
       id="radialGradient1715"
       gradientUnits="userSpaceOnUse"
       gradientTransform="matrix(0.22070714,-1.0044547,2.096833,0.46074045,599.16438,2718.8181)"
       cx="2337.3047"
       cy="564.37903"
       fx="2337.3047"
       fy="564.37903"
       r="117.79643" /><radialGradient
       xlink:href="#linearGradient214"
       id="radialGradient1716"
       gradientUnits="userSpaceOnUse"
       gradientTransform="matrix(-1.1127913,-1.1588678,0.74815257,-0.71840485,4108.4694,3107.9811)"
       cx="2061.1089"
       cy="391.21609"
       fx="2061.1089"
       fy="391.21609"
       r="101.222" /><radialGradient
       xlink:href="#linearGradient214"
       id="radialGradient1717"
       gradientUnits="userSpaceOnUse"
       gradientTransform="matrix(-1.1127913,-1.1588678,0.74815257,-0.71840485,4108.4694,3107.9811)"
       cx="2061.1089"
       cy="391.21609"
       fx="2061.1089"
       fy="391.21609"
       r="101.222" /><linearGradient
       xlink:href="#linearGradient188"
       id="linearGradient1717"
       gradientUnits="userSpaceOnUse"
       x1="1967.5197"
       y1="363.4328"
       x2="1969.4916"
       y2="215.53963" /></defs><g
     id="layer7"
     transform="translate(-807.62346,-3646.7371)"><g
       id="g1709"
       transform="translate(-821.66675,3906.8078)"><g
         id="g1672"
         style="opacity:0"><g
           id="g1627"
           transform="matrix(-1,0,0,1,3985.7685,-1.5875)"><path
             d="m 1791.7262,233.58936 c 3.8238,-0.15544 4.5703,2.33164 4.5703,2.33164 0,0 73.3949,138.83156 79.5848,151.21144 6.19,12.37988 0.8841,261.7463 0.8841,261.7463 l -267.0519,3.53725 -19.4541,-40.67659 c -19.4541,-40.67675 -5.3056,-84.89094 -5.3056,-84.89094 4.7325,-25.63434 12.16,-49.01341 21.4333,-70.5745 16.4279,7.0227 55.6969,29.15326 55.6969,29.15326 l 29.9785,-60.65418 c 0,0 -36.9254,-19.4765 -53.9951,-26.75392 30.3973,-46.11629 67.4251,-83.25369 98.0978,-117.88428 34.2658,-38.68712 49.188,-46.28641 55.561,-46.54548 z"
             style="opacity:1;vector-effect:none;fill:url(#radialGradient1709);stroke:#000000;stroke-width:0.153034px;stop-color:#000000;stop-opacity:1"
             id="path1622" /><path
             style="font-variation-settings:normal;opacity:1;vector-effect:none;fill:url(#radialGradient1710);fill-opacity:1;stroke:#000000;stroke-width:0.153034px;stroke-linecap:butt;stroke-linejoin:miter;stroke-miterlimit:4;stroke-dasharray:none;stroke-dashoffset:0;stroke-opacity:1;-inkscape-stroke:none;stop-color:#000000;stop-opacity:1"
             d="m 2185.3785,256.25955 c 49.5196,53.94096 38.024,28.29688 49.5196,53.94096 11.4956,25.64405 45.0982,73.39505 69.8579,102.57623 24.7598,29.18116 52.1724,98.15486 50.4039,140.60019 -1.7686,42.44534 3.5371,44.21389 -5.3057,63.66801 -8.8428,19.45413 -30.9497,36.25541 -30.9497,36.25541 l -254.6721,-1.76856 c 0,0 70.7423,-372.28102 121.1461,-395.27224 z"
             id="path1623" /><path
             d="m 1927.9452,140.50357 c 22.2573,0.27508 85.2201,4.3372 85.2201,4.3372 0,0 72.2899,7.51603 116.7246,14.36915 44.4348,6.85313 86.4387,27.63409 97.0499,35.37148 10.6113,7.73741 -26.0862,46.20339 -26.0862,46.20339 0,0 2.3583,0.85316 5.6327,2.59415 -4.7578,5.93112 -26.2178,33.10518 -31.9402,48.69367 -6.4109,17.46441 -43.9926,114.29328 -45.9822,129.32596 -1.9897,15.03265 -25.4232,79.5848 -25.4232,79.5848 0,0 -21.4435,97.93376 -23.212,112.30323 -1.6955,13.77542 -4.0341,34.4361 -4.2385,36.24016 l -181.6324,-0.36948 c 0.1714,-4.51602 5.5892,-148.7679 -1.3751,-186.4186 -6.096,-32.95678 -5.0385,-39.54903 -16.2104,-58.40677 -5.1361,-14.36121 -12.4861,-31.26191 -22.905,-48.54794 -9.7602,-16.19307 -27.7108,-36.13547 -46.7026,-55.16511 -25.0687,-25.11868 -49.3136,-46.27647 -62.2551,-57.26627 0.2429,-0.14133 0.4032,-0.24835 0.6558,-0.39378 6.0613,-3.49038 15.4249,-8.41892 18.3131,-11.45925 4.2003,-4.42135 -24.3177,-49.29832 -29.1812,-60.13069 -4.8636,-10.83236 -4.8636,-12.15884 -2.2107,-11.93777 2.6528,0.22106 60.1307,-1.10509 79.5848,-3.75791 19.4539,-2.65283 99.7024,-13.92786 109.4295,-15.0332 1.2157,-0.13814 3.5645,-0.1757 6.7438,-0.13642 z"
             style="opacity:1;vector-effect:none;fill:url(#radialGradient1711);fill-opacity:1;stroke:#000000;stroke-width:0.153034px;stop-color:#000000;stop-opacity:1"
             id="path1624" /><path
             d="m 2145.12,388.41453 c 8.2422,-27.52671 33.5561,-85.81121 41.8057,-102.31055 8.5965,-17.1929 21.1457,-34.39757 24.8931,-39.46994 0.1844,0.12818 0.3441,0.2076 0.5302,0.34055 6.1899,4.42138 -11.9378,26.08626 -11.9378,26.08626 -16.3592,14.3695 -45.7615,101.24988 -54.3832,113.62976 -0.2795,0.40127 -0.6043,1.14104 -0.908,1.72392 z"
             style="opacity:1;vector-effect:none;fill:#aa0000;fill-opacity:1;stroke:#000000;stroke-width:0.153034px;stop-color:#000000;stop-opacity:1"
             id="path1625" /><path
             d="m 2075.6902,649.52676 c 0.2044,-1.80407 2.543,-22.4647 4.2385,-36.24016 1.7685,-14.36951 23.212,-112.30323 23.212,-112.30323 0,0 23.4335,-64.5521 25.4232,-79.5848 1.9896,-15.03272 39.5712,-111.8615 45.9822,-129.32596 5.7224,-15.58854 27.1824,-42.76254 31.9402,-48.69367 1.6068,0.85432 3.3744,1.89413 5.3325,3.2551 -3.7474,5.07237 -16.2966,22.27704 -24.8931,39.46994 -8.2496,16.49934 -33.5635,74.78384 -41.8057,102.31055 -9.0663,17.39983 -28.5382,112.77048 -36.4525,125.3908 -8.1796,13.04309 -25.4233,135.73693 -25.4233,135.73693 z"
             style="opacity:1;vector-effect:none;fill:#f9f9f9;stroke:#000000;stroke-width:0.153034px;stop-color:#000000;stop-opacity:1"
             id="path1626" /><path
             d="m 1744.6096,243.35259 c 12.9415,10.98982 37.1863,32.14754 62.2551,57.26627 0,0 0,0 0,0 18.9918,19.02967 36.9423,38.972 46.7026,55.16511 10.419,17.28607 17.7689,34.18671 22.905,48.54794 -1.7925,-3.02583 -3.8326,-6.30409 -6.3391,-10.12496 -18.1277,-27.63365 -63.2257,-88.42799 -80.6902,-104.12388 -17.4645,-15.69591 -36.9187,-37.80289 -44.6562,-41.11894 l -4.9568,-2.12442 c 0.04,-0.0852 0.051,-0.23112 0.094,-0.30747 0.3135,-0.56448 2.2803,-1.78007 4.6855,-3.17965 z"
             style="opacity:1;vector-effect:none;fill:#f9f9f9;stroke:#000000;stroke-width:0.153034px;stop-color:#000000;stop-opacity:1"
             id="path1627" /></g><g
           id="g1630"
           transform="matrix(-1,0,0,1,3985.7685,-1.5875)"><path
             d="m 909.13823,-14.605811 c -4.19401,0.03066 -8.68839,1.356875 -13.42708,4.516003 -10.29928,6.8661876 -14.11794,17.9011807 -13.71596,29.582174 2.0466,-2.834642 4.44904,-5.669769 7.28276,-8.444446 11.69521,-11.45157321 24.93995,-2.3609927 34.80356,8.706445 9.75795,7.557442 17.10991,20.598059 21.78523,30.885453 -1.36055,-15.319304 -3.28559,-35.456233 -3.28559,-35.456233 0,0 -13.23537,-29.937117 -33.44292,-29.789396 z"
             style="opacity:1;fill:#0066ff;fill-opacity:1;stroke:#0066ff;stroke-width:0.529167;stop-color:#000000;stop-opacity:1"
             id="path1628"
             transform="translate(919.94858,13.082907)" /><path
             d="m 898.36473,58.849136 c 0.37761,-18.771675 3.28694,-50.055911 18.94355,-43.206148 2.37292,1.038152 4.62712,2.449237 6.77323,4.111377 -9.86361,-11.0674377 -23.10835,-20.15801821 -34.80356,-8.706445 -2.83372,2.774677 -5.23616,5.609804 -7.28276,8.444446 0.49258,14.31376 7.33238,29.579751 16.36954,39.35677 z"
             style="opacity:1;fill:url(#linearGradient1711);fill-opacity:1;stroke:#0044aa;stroke-width:0.529167;stop-color:#000000;stop-opacity:1"
             id="path1629"
             transform="translate(919.94858,13.082907)" /><path
             d="m 913.23256,14.680256 c -12.10411,-0.131201 -14.52562,27.157084 -14.86783,44.16888 3.33016,3.602797 6.9517,6.47618 10.67222,8.258928 22.0564,10.568678 38.13927,4.135577 38.13927,0 0,-0.521927 -0.0747,-1.751719 -0.20257,-3.480408 -0.22033,-2.977865 -0.65629,-7.91403 -1.10691,-12.987838 -4.67531,-10.287373 -12.0273,-23.328026 -21.78523,-30.885453 -2.14611,-1.662137 -4.40032,-3.073227 -6.77323,-4.111377 -1.46781,-0.642164 -2.82357,-0.949159 -4.07572,-0.962732 z"
             style="opacity:1;fill:url(#linearGradient1712);fill-opacity:1;stroke:#003380;stroke-width:0.529167;stop-color:#000000;stop-opacity:1"
             id="path1630"
             transform="translate(919.94858,13.082907)" /></g><g
           id="g1633"
           style="fill:url(#linearGradient1714);fill-opacity:1"><path
             d="m 909.13823,-14.605811 c -4.19401,0.03066 -8.68839,1.356875 -13.42708,4.516003 -10.29928,6.8661876 -14.11794,17.9011807 -13.71596,29.582174 2.0466,-2.834642 4.44904,-5.669769 7.28276,-8.444446 11.69521,-11.45157321 24.93995,-2.3609927 34.80356,8.706445 9.75795,7.557442 17.10991,20.598059 21.78523,30.885453 -1.36055,-15.319304 -3.28559,-35.456233 -3.28559,-35.456233 0,0 -13.23537,-29.937117 -33.44292,-29.789396 z"
             style="opacity:1;fill:#0066ff;fill-opacity:1;stroke:#0066ff;stroke-width:0.529167;stop-color:#000000;stop-opacity:1"
             id="path1631"
             transform="translate(919.94858,13.082907)" /><path
             d="m 898.36473,58.849136 c 0.37761,-18.771675 3.28694,-50.055911 18.94355,-43.206148 2.37292,1.038152 4.62712,2.449237 6.77323,4.111377 -9.86361,-11.0674377 -23.10835,-20.15801821 -34.80356,-8.706445 -2.83372,2.774677 -5.23616,5.609804 -7.28276,8.444446 0.49258,14.31376 7.33238,29.579751 16.36954,39.35677 z"
             style="opacity:1;fill:url(#linearGradient1713);fill-opacity:1;stroke:#0044aa;stroke-width:0.529167;stop-color:#000000;stop-opacity:1"
             id="path1632"
             transform="translate(919.94858,13.082907)" /><path
             d="m 913.23256,14.680256 c -12.10411,-0.131201 -14.52562,27.157084 -14.86783,44.16888 3.33016,3.602797 6.9517,6.47618 10.67222,8.258928 22.0564,10.568678 38.13927,4.135577 38.13927,0 0,-0.521927 -0.0747,-1.751719 -0.20257,-3.480408 -0.22033,-2.977865 -0.65629,-7.91403 -1.10691,-12.987838 -4.67531,-10.287373 -12.0273,-23.328026 -21.78523,-30.885453 -2.14611,-1.662137 -4.40032,-3.073227 -6.77323,-4.111377 -1.46781,-0.642164 -2.82357,-0.949159 -4.07572,-0.962732 z"
             style="opacity:1;fill:#00398e;fill-opacity:1;stroke:#003380;stroke-width:0.529167;stop-color:#000000;stop-opacity:1"
             id="path1633"
             transform="translate(919.94858,13.082907)" /></g><path
           style="font-variation-settings:normal;opacity:1;vector-effect:none;fill:#0044aa;fill-opacity:1;stroke:#000000;stroke-width:0.153034px;stroke-linecap:butt;stroke-linejoin:miter;stroke-miterlimit:4;stroke-dasharray:none;stroke-dashoffset:0;stroke-opacity:1;-inkscape-stroke:none;stop-color:#000000;stop-opacity:1"
           d="m 2016.8173,113.98631 2.494,71.6402 -73.0679,-1.42765 2.6724,-71.11343 z"
           id="path1634"
           transform="matrix(-1,0,0,1,3985.7685,-1.5875)" /><path
           style="font-variation-settings:normal;opacity:1;vector-effect:none;fill:#00112b;fill-opacity:1;stroke:#000000;stroke-width:0.153034px;stroke-linecap:butt;stroke-linejoin:miter;stroke-miterlimit:4;stroke-dasharray:none;stroke-dashoffset:0;stroke-opacity:1;-inkscape-stroke:none;stop-color:#000000;stop-opacity:1"
           d="m 1947.1711,161.86134 c 0,0 -9.5345,43.39 -32.2578,47.31876 -37.6651,6.51212 -61.346,11.25502 -61.346,11.25502 0,0 1.2505,85.66321 25.6364,158.19558 24.3859,72.53235 23.7606,235.73015 21.8848,270.74577 l 165.0736,0.62529 c 0,0 10.0044,-120.05356 18.1331,-149.44167 8.1286,-29.38811 25.6364,-141.93832 28.7628,-177.57922 3.1264,-35.6409 -1.2506,-90.66544 -1.2506,-90.66544 0,0 -51.8981,-17.50781 -68.7807,-23.7606 -16.8825,-6.25279 -19.4378,-25.22804 -24.1834,-46.73328 0,0 -34.1135,13.88612 -72.2014,0.0398 z"
           id="path1635"
           transform="matrix(-1,0,0,1,3985.7685,-1.5875)" /><path
           style="font-variation-settings:normal;display:inline;opacity:1;fill:url(#linearGradient1715);fill-opacity:1;stroke:#000000;stroke-width:0.529167;stroke-linecap:butt;stroke-linejoin:miter;stroke-miterlimit:4;stroke-dasharray:none;stroke-dashoffset:0;stroke-opacity:1;stop-color:#000000;stop-opacity:1"
           d="m 1075.8391,-238.00645 c 0,0 -80.41413,4.13558 -115.79639,45.95098 -35.38225,41.8154 -43.19392,78.57615 -38.13931,112.579915 5.05461,34.00372 22.97549,139.23146 22.97549,139.23146 0,0 0.45951,16.08282 37.22029,30.78714 36.76072,14.704305 89.60442,27.111095 96.03752,27.570605 6.4332,0.4595 97.416,-33.544225 103.8492,-38.139325 6.4332,-4.5951 17.0019,-11.94728 18.3805,-16.54233 1.3785,-4.5951 20.6778,-120.85111 20.6778,-124.06764 0,-3.21659 14.7044,-106.606295 -49.627,-146.583645 -64.3314,-39.97735 -95.5781,-30.78716 -95.5781,-30.78716 z"
           id="path1636"
           transform="translate(919.94858,13.082907)" /><path
           style="font-variation-settings:normal;opacity:1;fill:#000000;fill-opacity:1;stroke:#000000;stroke-width:0.529167;stroke-linecap:butt;stroke-linejoin:miter;stroke-miterlimit:4;stroke-dasharray:none;stroke-dashoffset:0;stroke-opacity:1;stop-color:#000000;stop-opacity:1"
           d="m 1096.5171,-67.987825 c 0,0 12.8663,14.2448 39.0583,-1.83802 26.192,-16.08288 41.8155,-14.24481 41.8155,-14.24481 l -8.7308,17.92084 c 0,0 -45.0319,22.9755 -53.3031,16.54238 -8.2712,-6.43311 -18.8399,-18.38039 -18.8399,-18.38039 z"
           id="path1637"
           transform="translate(919.94858,13.082907)" /><path
           style="font-variation-settings:normal;opacity:1;vector-effect:none;fill:#ffffff;fill-opacity:1;stroke:#000000;stroke-width:0.153034px;stroke-linecap:butt;stroke-linejoin:miter;stroke-miterlimit:4;stroke-dasharray:none;stroke-dashoffset:0;stroke-opacity:1;-inkscape-stroke:none;stop-color:#000000;stop-opacity:1"
           d="m 2136.1934,-17.170868 c 0,0 26.8869,-63.15317 27.5122,-79.410424 0.6253,-16.257248 6.2528,-44.394798 -1.2506,-48.771758 -7.5033,-4.37695 -3.1263,-14.38141 -8.7539,-21.25948 -5.6275,-6.87807 -5.0022,-31.26395 -19.3836,-36.26618 -14.3814,-5.00223 -16.2572,-21.88476 -31.264,-26.26171 -15.0067,-4.37696 -14.3814,-18.13309 -32.5144,-17.50781 -18.1331,0.62528 -29.3882,-6.87807 -35.0157,-5.00224 -5.6275,1.87584 -20.6342,-6.87806 -35.0156,-6.25278 -14.3814,0.62527 -33.1398,-2.50112 -41.8937,1.87583 -8.7539,4.37695 -30.6387,-2.50111 -37.5167,5.62751 -6.8781,8.12863 -18.1331,3.75168 -26.887,13.75614 -8.7539,10.00446 -23.1353,5.00223 -25.0112,12.50558 -1.8758,7.50334 -30.6386,23.7606 -30.6386,32.5145 0,8.75391 -11.2551,12.50558 -11.8803,31.88923 -0.6253,19.38364 -7.5034,33.13978 -3.7517,41.89369 3.7517,8.7539 27.5123,107.54797 27.5123,107.54797 0,0 -9.3792,-80.660982 13.7561,-97.54351 23.1353,-16.88253 38.142,-50.02232 57.5256,-48.77176 19.3837,1.25056 86.2886,6.87807 108.1733,1.25056 21.8848,-5.62751 42.519,-6.25279 50.0223,1.87584 7.5034,8.12862 13.7562,36.89145 20.009,41.89368 6.2527,5.00224 25.0111,3.1264 28.1375,26.886997 3.1264,23.760599 8.1287,67.530125 8.1287,67.530125 z"
           id="path1638"
           transform="matrix(-1,0,0,1,3985.7685,-1.5875)" /><path
           style="font-variation-settings:normal;opacity:1;fill:#000000;fill-opacity:1;stroke:#000000;stroke-width:0.529167;stroke-linecap:butt;stroke-linejoin:miter;stroke-miterlimit:4;stroke-dasharray:none;stroke-dashoffset:0;stroke-opacity:1;stop-color:#000000;stop-opacity:1"
           d="m 1186.5811,-82.692135 -10.5688,13.32579 c 0,0 24.3541,-5.97361 29.8681,-2.29757 0,0 -12.8662,-11.48773 -19.2993,-11.02822 z"
           id="path1639"
           transform="translate(919.94858,13.082907)" /><path
           style="font-variation-settings:normal;opacity:1;fill:#0044aa;fill-opacity:1;stroke:none;stroke-width:0.529167;stroke-linecap:butt;stroke-linejoin:miter;stroke-miterlimit:4;stroke-dasharray:none;stroke-dashoffset:0;stroke-opacity:1;stop-color:#000000;stop-opacity:1"
           d="m 982.55869,6.9122853 c 0,0 50.54611,-13.7853 67.08841,-33.0847103 0,0 -2.757,18.8399003 -29.8681,33.5442203 0,0 22.516,-16.54239 19.7589,-18.8399103 -2.757,-2.29758 -35.8418,18.8399103 -56.97921,18.3804003 z"
           id="path1640"
           transform="translate(919.94858,13.082907)" /><path
           style="font-variation-settings:normal;opacity:1;fill:#000000;fill-opacity:1;stroke:#000000;stroke-width:0.529167;stroke-linecap:butt;stroke-linejoin:miter;stroke-miterlimit:4;stroke-dasharray:none;stroke-dashoffset:0;stroke-opacity:1;stop-color:#000000;stop-opacity:1"
           d="m 945.79791,-82.692135 c 0,0 33.54421,0 48.24852,12.40678 14.70427,12.40674 36.76077,18.38035 51.00557,9.64971 0,0 -19.7589,-11.94728 -27.111,-19.29941 -7.3522,-7.35218 -53.76271,-26.651595 -72.14309,-2.75708 z"
           id="path1641"
           transform="translate(919.94858,13.082907)" /><path
           d="m 1999.6325,18.215942 c -3.0345,-0.09668 -7.1342,0.79309 -9.6506,1.799891 -5.3247,2.130428 -9.8507,4.673569 -13.5785,7.251753 -3.1386,2.170678 -8.2183,7.534113 -6.4704,10.450008 3.6266,-2.217229 9.3317,-5.042872 13.1392,-3.640087 5.9402,2.188474 23.7603,2.50111 27.1994,-0.312643 2.0817,-1.703253 8.0482,0.144556 12.4416,1.86862 0.3616,-0.440891 0.699,-0.88686 0.9829,-1.321883 1.0366,-1.58819 0.1707,-3.662547 -1.5492,-4.467945 -4.1007,-1.920221 -11.0487,-5.398228 -13.4385,-7.958687 -2.0565,-2.203387 -5.1479,-3.164888 -7.8481,-3.56464 -0.3823,-0.0566 -0.7943,-0.09058 -1.2278,-0.104387 z"
           style="opacity:1;vector-effect:none;fill:#0066ff;stroke:none;stroke-width:0.153034px;stop-color:#000000;stop-opacity:1"
           id="path1642" /><path
           d="m 1988.3179,42.350903 c -2.0343,-5.408585 -8.834,-2.966014 -12.8452,-0.936377 2.9848,0.67677 7.8113,-0.368292 10.6619,0.284738 0.7457,0.170826 1.4723,0.396907 2.1833,0.651639 z"
           style="opacity:1;vector-effect:none;fill:#002255;stroke:none;stroke-width:0.153034px;stop-color:#000000;stop-opacity:1"
           id="path1643" /><path
           d="m 2018.7243,38.62865 c -8.1526,-3.856879 -10.9864,-0.380089 -11.9755,2.519226 2.2663,-1.807602 4.8242,-3.183062 7.8998,-2.380733 1.5283,0.398695 2.8834,0.281568 4.0757,-0.138493 z"
           style="opacity:1;vector-effect:none;fill:#002255;stroke:none;stroke-width:0.153034px;stop-color:#000000;stop-opacity:1"
           id="path1644" /><path
           d="m 2022.7132,35.633484 c -4.3934,-1.724064 -10.3599,-3.571873 -12.4416,-1.86862 -3.4391,2.813753 -21.2592,2.501117 -27.1994,0.312643 -3.8075,-1.402785 -9.5126,1.422858 -13.1392,3.640087 0.024,0.04056 0.045,0.08236 0.072,0.121957 1.0327,1.515586 2.854,2.791598 5.0225,3.461804 0.1418,0.04385 0.2934,0.07872 0.4454,0.113171 4.0112,-2.029637 10.8109,-4.472208 12.8452,0.936377 4.1049,1.47059 7.6212,4.034786 10.3865,4.2323 2.5048,0.178918 5.0122,-3.016783 8.0444,-5.435327 0.9891,-2.899315 3.8229,-6.376105 11.9755,-2.519226 1.6489,-0.580891 2.9688,-1.751334 3.9889,-2.995166 z"
           style="opacity:1;vector-effect:none;fill:#0055d4;stroke:none;stroke-width:0.153034px;stop-color:#000000;stop-opacity:1"
           id="path1645" /><path
           style="font-variation-settings:normal;opacity:1;vector-effect:none;fill:#0055d4;fill-opacity:1;stroke:none;stroke-width:0.153034px;stroke-linecap:butt;stroke-linejoin:miter;stroke-miterlimit:4;stroke-dasharray:none;stroke-dashoffset:0;stroke-opacity:1;-inkscape-stroke:none;stop-color:#000000;stop-opacity:1"
           d="m 1984.948,88.789607 c 0,0 16.8825,20.634203 37.2041,-1.563196 0,0 -14.3814,15.006689 -37.2041,1.563196 z"
           id="path1646" /><path
           style="font-variation-settings:normal;opacity:1;vector-effect:none;fill:#00112b;fill-opacity:1;stroke:#000000;stroke-width:0.153034px;stroke-linecap:butt;stroke-linejoin:miter;stroke-miterlimit:4;stroke-dasharray:none;stroke-dashoffset:0;stroke-opacity:1;-inkscape-stroke:none;stop-color:#000000;stop-opacity:1"
           d="m 1999.0167,80.660982 -3.439,-1.563198 c 0,0 5.9402,-7.815987 15.9446,-2.188477 0,0 -3.4391,5.940151 -12.5056,3.751675 z"
           id="path1647" /><path
           style="font-variation-settings:normal;opacity:1;vector-effect:none;fill:#5599ff;fill-opacity:1;stroke:none;stroke-width:0.153034px;stroke-linecap:butt;stroke-linejoin:miter;stroke-miterlimit:4;stroke-dasharray:none;stroke-dashoffset:0;stroke-opacity:1;-inkscape-stroke:none;stop-color:#000000;stop-opacity:1"
           d="m 1990.2628,71.907076 c 0,0 5.0023,-8.441264 12.193,-6.878068 0,0 -1.8759,-0.625281 -12.193,6.878068 z"
           id="path1648" /><path
           style="font-variation-settings:normal;opacity:1;vector-effect:none;fill:#80b3ff;fill-opacity:1;stroke:none;stroke-width:0.153034px;stroke-linecap:butt;stroke-linejoin:miter;stroke-miterlimit:4;stroke-dasharray:none;stroke-dashoffset:0;stroke-opacity:1;-inkscape-stroke:none;stop-color:#000000;stop-opacity:1"
           d="m 2007.7707,66.904845 c 0,0 2.8137,-3.439033 4.6895,-1.250558 1.8759,2.188477 -3.7517,3.126396 -4.6895,1.250558 z"
           id="path1649" /><path
           style="font-variation-settings:normal;opacity:1;vector-effect:none;fill:#2a7fff;fill-opacity:1;stroke:none;stroke-width:0.153034px;stroke-linecap:butt;stroke-linejoin:miter;stroke-miterlimit:4;stroke-dasharray:none;stroke-dashoffset:0;stroke-opacity:1;-inkscape-stroke:none;stop-color:#000000;stop-opacity:1"
           d="m 1984.9479,23.7606 c 0,0 15.0067,4.689591 16.2573,-1.250559 0.6441,-3.059333 -9.6918,-5.314871 -16.2573,1.250559 z"
           id="path1650" /><path
           style="font-variation-settings:normal;opacity:1;vector-effect:none;fill:#5599ff;fill-opacity:1;stroke:none;stroke-width:0.153034px;stroke-linecap:butt;stroke-linejoin:miter;stroke-miterlimit:4;stroke-dasharray:none;stroke-dashoffset:0;stroke-opacity:1;-inkscape-stroke:none;stop-color:#000000;stop-opacity:1"
           d="m 2010.5844,23.44796 c 0,0 -6.2528,-3.439034 -5.3149,0 0.9379,3.439035 4.377,1.563197 5.3149,0 z"
           id="path1651" /><path
           style="font-variation-settings:normal;opacity:1;fill:#ffffff;fill-opacity:1;stroke:none;stroke-width:0.529167;stroke-linecap:butt;stroke-linejoin:miter;stroke-miterlimit:4;stroke-dasharray:none;stroke-dashoffset:0;stroke-opacity:1;stop-color:#000000;stop-opacity:1"
           d="m 958.20467,-35.822135 c 0,0 27.57059,43.1939303 85.00933,5.97362 l 4.1355,-4.1356 c 0,0 -8.4613,-24.750229 -66.35953,-20.155129 0,0 -27.3804,7.288839 -22.7853,18.317109 z"
           id="path1652"
           transform="translate(919.94858,13.082907)" /><circle
           style="opacity:1;fill:#00aa88;stroke:#666666;stroke-width:0.529167;stroke-linecap:round;stroke-linejoin:round;stroke-dasharray:none;stroke-opacity:0.831943;paint-order:stroke fill markers"
           id="circle1652"
           cx="1001.2209"
           cy="-37.156143"
           r="17.82045"
           transform="translate(919.94858,13.082907)" /><path
           d="m 992.01312,-58.790592 c -3.26794,0.03029 -13.6791,3.666872 -17.29773,3.954065 0,0 -19.53566,7.143063 -16.87264,17.906497 l 92.09475,2.985648 c -4.7373,-7.170423 -19.8754,-25.19888 -57.92438,-24.84621 z"
           style="opacity:1;fill:#0044aa;fill-opacity:1;stroke:none;stroke-width:0.529167;stop-color:#000000;stop-opacity:1"
           id="path1653"
           transform="translate(919.94858,13.082907)" /><path
           style="font-variation-settings:normal;opacity:1;fill:#000000;fill-opacity:1;stroke:#000000;stroke-width:0.529167;stroke-linecap:butt;stroke-linejoin:miter;stroke-miterlimit:4;stroke-dasharray:none;stroke-dashoffset:0;stroke-opacity:1;stop-color:#000000;stop-opacity:1"
           d="m 947.7056,-39.498225 6.89265,-4.5951 95.60975,9.918996 -99.28582,-1.647806 z"
           id="path1654"
           transform="translate(919.94858,13.082907)" /><path
           style="font-variation-settings:normal;display:inline;opacity:1;fill:#ffffff;fill-opacity:1;stroke:none;stroke-width:0.529167;stroke-linecap:butt;stroke-linejoin:miter;stroke-miterlimit:4;stroke-dasharray:none;stroke-dashoffset:0;stroke-opacity:1;stop-color:#000000;stop-opacity:1"
           d="m 958.20467,-35.822135 c 0,0 27.57059,43.1939303 85.00933,5.97362 l 4.1355,-4.1356 c 0,0 -13.823,-20.323167 -71.72125,-15.728067 0,0 -22.01868,2.861777 -17.42358,13.890047 z"
           id="path1655"
           transform="matrix(-1,0,0,1,3075.6124,13.082907)" /><circle
           style="display:inline;opacity:1;fill:#008066;stroke:#666666;stroke-width:0.529167;stroke-linecap:round;stroke-linejoin:round;stroke-dasharray:none;stroke-opacity:0.831943;paint-order:stroke fill markers"
           id="circle1655"
           cx="1921.1694"
           cy="-22.485735"
           r="17.82045"
           transform="matrix(-1,0,0,1,3995.561,0)" /><path
           d="m 1009.7148,-53.306874 c -11.0828,-3.333395 -53.20421,-0.211796 -52.70944,16.45297 l 91.88644,2.212346 c -4.7373,-7.170423 -19.2699,-12.677854 -39.177,-18.665316 z"
           style="display:inline;opacity:1;fill:#0052cc;fill-opacity:1;stroke:none;stroke-width:0.529167;stop-color:#000000;stop-opacity:1"
           id="path1656"
           transform="matrix(-1,0,0,1,3075.6124,13.082907)" /><path
           style="font-variation-settings:normal;display:inline;opacity:1;fill:#000000;fill-opacity:1;stroke:#000000;stroke-width:0.529167;stroke-linecap:butt;stroke-linejoin:miter;stroke-miterlimit:4;stroke-dasharray:none;stroke-dashoffset:0;stroke-opacity:1;stop-color:#000000;stop-opacity:1"
           d="m 947.7056,-39.498225 6.89265,-4.5951 96.30695,9.918996 -99.98302,-1.647806 z"
           id="path1657"
           transform="matrix(-1,0,0,1,3075.6124,13.082907)" /><path
           d="m 1739.83,246.83971 4.9568,2.12442 c 7.7375,3.31605 27.1917,25.42302 44.6562,41.11894 17.4645,15.69591 62.5625,76.49021 80.6902,104.12388 18.1277,27.63366 15.4753,30.28675 22.5495,68.53173 6.9643,37.65081 1.5465,181.90257 1.3751,186.4186 l -28.1249,-0.0574 c 1.9896,-5.96888 4.2007,-195.20447 -2.4313,-235.8812 -6.6321,-40.67676 -9.7275,-35.37122 -42.8879,-75.8269 -33.1604,-40.45568 -69.4158,-76.26898 -75.8269,-80.02716 -6.1649,-3.61396 -5.9619,-8.38951 -4.9568,-10.52494 z"
           style="display:inline;opacity:1;vector-effect:none;fill:#aa0000;stroke:#000000;stroke-width:0.153034px;stop-color:#000000;stop-opacity:1"
           id="path1658"
           transform="matrix(-1,0,0,1,3985.7685,-1.5875)" /><path
           d="m 1638.0673,398.01912 c 17.0696,7.27741 53.9951,26.75392 53.9951,26.75392 l -29.9785,60.65418 c 0,0 -39.269,-22.13057 -55.6969,-29.15326 2.1374,-4.96962 4.3809,-9.83418 6.7056,-14.6141 l 14.119,7.60212 -8.7178,-18.22886 c 1.035,-1.95996 2.0757,-3.91319 3.1388,-5.84202 l 24.043,-3.96151 -17.276,-7.80211 c 3.1361,-5.24409 6.357,-10.38576 9.6677,-15.40836 z m 22.8833,28.41428 -16.4496,5.70715 -4.1967,8.22482 1.6785,15.10709 14.7717,8.89661 17.9606,-33.57159 z"
           style="display:inline;opacity:1;vector-effect:none;fill:#333333;fill-opacity:1;stroke:#000000;stroke-width:0.153034px;stop-color:#000000;stop-opacity:1"
           id="path1659"
           transform="matrix(-1,0,0,1,3985.7685,-1.5875)" /><path
           style="font-variation-settings:normal;display:inline;opacity:1;vector-effect:none;fill:#ffffff;fill-opacity:1;stroke:#000000;stroke-width:0.153034px;stroke-linecap:butt;stroke-linejoin:miter;stroke-miterlimit:4;stroke-dasharray:none;stroke-dashoffset:0;stroke-opacity:1;-inkscape-stroke:none;stop-color:#000000;stop-opacity:1"
           d="m 2284.136,385.39715 -20.4717,-26.15882 c -10.8188,-13.82433 -53.6009,28.58418 -53.6009,28.58418 l 35.5559,38.34464 c 0.6972,-2.78871 21.7311,-8.69241 50.1596,-24.14748 z"
           id="path1660"
           transform="matrix(-1,0,0,1,3985.7685,-1.5875)" /><g
           id="g1666"
           style="opacity:1;fill:#ff2a2a;fill-opacity:1;stroke:none"><path
             style="font-variation-settings:normal;opacity:0.5;vector-effect:none;fill:#ff2a2a;fill-opacity:1;stroke:none;stroke-width:0.153034px;stroke-linecap:butt;stroke-linejoin:miter;stroke-miterlimit:4;stroke-dasharray:none;stroke-dashoffset:0;stroke-opacity:1;-inkscape-stroke:none;stop-color:#000000;stop-opacity:1"
             d="m 1631.7032,534.59967 c 20.1683,-71.27997 33.1534,-91.7246 41.1655,-100.56553 30.5422,-33.70159 86.199,-112.72179 89.2381,-125.98318 3.0391,-13.26137 3.8679,-19.33951 3.8679,-19.33951 0,0 -9.6698,6.51603 -17.4056,24.75045 -7.7358,18.2344 -48.0725,73.60483 -62.7153,89.35273 -14.6428,15.74789 -31.5733,52.26041 -34.6123,59.16738 -3.0391,6.90695 -20.9197,65.98696 -19.5383,72.61766 z"
             id="path1661" /><path
             d="m 2322.4675,432.06355 -3.6928,1.67845 9.5679,16.95349 8.7287,-4.53203 -0.8392,-4.69997 -3.8608,-5.37125 z"
             style="opacity:1;vector-effect:none;fill:#1a1a1a;fill-opacity:1;stroke:#000000;stroke-width:0.153034px;stop-color:#000000;stop-opacity:1"
             id="path1662" /><path
             d="m 2367.2746,429.44562 -8.7178,18.22886 14.119,-7.60212 c -1.7491,-3.5966 -3.5559,-7.13247 -5.4012,-10.62674 z"
             style="opacity:1;vector-effect:none;fill:#ffd5d5;stroke:#000000;stroke-width:0.153034px;stop-color:#000000;stop-opacity:1"
             id="path1663" /><path
             d="m 2357.3688,411.83998 -17.276,7.80211 24.043,3.96151 c -2.1978,-3.98757 -4.4589,-7.90403 -6.767,-11.76362 z"
             style="opacity:1;vector-effect:none;fill:#ffd5d5;stroke:#000000;stroke-width:0.153034px;stop-color:#000000;stop-opacity:1"
             id="path1664" /><path
             style="font-variation-settings:normal;opacity:1;vector-effect:none;fill:#ff2a2a;fill-opacity:1;stroke:none;stroke-width:0.153034px;stroke-linecap:butt;stroke-linejoin:miter;stroke-miterlimit:4;stroke-dasharray:none;stroke-dashoffset:0;stroke-opacity:1;-inkscape-stroke:none;stop-color:#000000;stop-opacity:1"
             d="m 2402.0836,532.11314 c 0,0 -19.8471,-89.79447 -74.2292,-158.6625 -2.1868,-2.76929 -53.9927,-68.12945 -58.4131,-72.54993 -4.4205,-4.42044 -33.5912,-34.6895 -33.5912,-34.6895 0,0 141.9789,103.81043 166.2335,265.90193 z"
             id="path1665" /><path
             d="m 2324.8178,424.8459 -13.7645,4.36408 17.9606,33.57159 14.7717,-8.89661 1.6785,-15.10709 -4.1967,-8.22482 z m -2.3503,7.21765 9.9038,4.02869 3.8608,5.37125 0.8392,4.69997 -8.7287,4.53203 -9.5679,-16.95349 z"
             style="opacity:1;vector-effect:none;fill:#ffd5d5;fill-opacity:1;stroke:#000000;stroke-width:0.153034px;stop-color:#000000;stop-opacity:1"
             id="path1666" /></g><g
           id="g1671"
           style="opacity:0.3;fill:#000000"><path
             style="font-variation-settings:normal;opacity:1;vector-effect:none;fill:#000000;fill-opacity:1;stroke:#000000;stroke-width:0.153034px;stroke-linecap:butt;stroke-linejoin:miter;stroke-miterlimit:4;stroke-dasharray:none;stroke-dashoffset:0;stroke-opacity:1;-inkscape-stroke:none;stop-color:#000000;stop-opacity:1"
             d="m 2094.194,443.15136 c 0,0 72.3851,-127.64087 157.479,-159.68922 l -18.7869,-20.44463 c 0,0 -130.9563,125.98319 -138.6921,180.13385 z"
             id="path1667" /><path
             style="font-variation-settings:normal;opacity:1;vector-effect:none;fill:#000000;fill-opacity:1;stroke:#000000;stroke-width:0.153034px;stroke-linecap:butt;stroke-linejoin:miter;stroke-miterlimit:4;stroke-dasharray:none;stroke-dashoffset:0;stroke-opacity:1;-inkscape-stroke:none;stop-color:#000000;stop-opacity:1"
             d="m 2210.7837,412.76066 c 0,0 6.0782,114.93203 3.8679,130.40365 -2.2102,15.47161 -37.5739,104.98598 -37.5739,104.98598 0,0 29.2855,-71.27997 35.9162,-80.12089 6.6307,-8.84092 47.52,-27.62787 47.52,-27.62787 l 6.6307,-7.73581 -43.652,19.89206 c 0,0 48.625,-38.67904 72.9376,-44.75718 0,0 -6.6307,-8.84091 -23.76,1.10513 -17.1293,9.94604 -69.6223,57.46601 -50.8353,35.91626 18.787,-21.54976 40.3367,-52.49299 40.3367,-52.49299 0,0 -37.5739,37.57393 -40.3367,44.20462 -2.7628,6.63069 4.973,-124.87806 4.973,-124.87806 l -8.2883,67.41205 z"
             id="path1668" /><path
             style="font-variation-settings:normal;opacity:1;vector-effect:none;fill:#000000;fill-opacity:1;stroke:#000000;stroke-width:0.153034px;stroke-linecap:butt;stroke-linejoin:miter;stroke-miterlimit:4;stroke-dasharray:none;stroke-dashoffset:0;stroke-opacity:1;-inkscape-stroke:none;stop-color:#000000;stop-opacity:1"
             d="m 1765.9747,409.44532 c 0,0 44.2046,26.52279 44.2046,30.39068 0,3.86792 -49.1776,-19.33953 -70.7274,-9.39348 0,0 33.1535,0.55256 43.6521,7.18325 l -38.1265,-1.65767 57.466,13.81395 -20.4446,1.10511 c 0,0 -81.5023,-3.8679 -125.1543,68.79345 0,0 56.3609,-78.18694 155.8212,-61.6102 l 14.0903,-16.02417 22.6548,-22.65487 -4.4204,-22.65487 c 0,0 -49.7302,-119.90504 -59.1237,-124.32551 l -18.2344,16.02418 c 0,0 73.4902,90.61948 75.7004,117.14225 l 2.2102,11.60372 -20.9972,17.68185 -24.8651,-38.12649 19.3396,42.54695 c 0,0 -43.0996,-32.04837 -53.0456,-29.83813 z"
             id="path1669" /><path
             style="font-variation-settings:normal;opacity:1;vector-effect:none;fill:#000000;fill-opacity:1;stroke:#000000;stroke-width:0.153034px;stroke-linecap:butt;stroke-linejoin:miter;stroke-miterlimit:4;stroke-dasharray:none;stroke-dashoffset:0;stroke-opacity:1;-inkscape-stroke:none;stop-color:#000000;stop-opacity:1"
             d="m 1864.6785,171.09326 c 9.524,66.32841 7.8233,69.38971 7.8233,69.38971 l 2.381,-9.18393 c 0,0 1.7008,0.68029 3.7416,-2.04087 2.0409,-2.72117 -11.5649,-51.02185 -13.9459,-58.16491 z"
             id="path1670" /><path
             style="font-variation-settings:normal;opacity:1;vector-effect:none;fill:#000000;fill-opacity:1;stroke:#000000;stroke-width:0.153034px;stroke-linecap:butt;stroke-linejoin:miter;stroke-miterlimit:4;stroke-dasharray:none;stroke-dashoffset:0;stroke-opacity:1;-inkscape-stroke:none;stop-color:#000000;stop-opacity:1"
             d="m 2140.5366,161.90933 c -10.5445,55.78389 -14.9664,30.61311 -10.5445,55.78389 l 2.381,2.72116 c 0,0 -2.7212,-9.86422 0,-15.6467 2.7212,-5.78247 8.1635,-42.85835 8.1635,-42.85835 z"
             id="path1671" /></g><path
           style="font-variation-settings:normal;opacity:1;vector-effect:none;fill:#ff0000;fill-opacity:1;stroke:none;stroke-width:0.153034px;stroke-linecap:butt;stroke-linejoin:miter;stroke-miterlimit:4;stroke-dasharray:none;stroke-dashoffset:0;stroke-opacity:1;-inkscape-stroke:none;stop-color:#000000;stop-opacity:1"
           d="m 1658.2259,519.12805 c 0,0 47.746,-82.20662 154.1636,-60.78135 l 36.4689,-41.16556 4.1442,0.55255 c 0,0 -34.8112,33.42975 -36.4688,44.20463 -1.6577,10.77488 1.223,14.00942 1.223,14.00942 0,0 -2.8807,-16.49593 -14.4844,-17.32477 -11.6037,-0.82884 -92.0785,-9.95588 -145.0465,60.50508 z"
           id="path1672" /></g><g
         id="g1708"
         transform="translate(0.75178443,-0.24005123)"><path
           style="font-variation-settings:normal;display:inline;opacity:1;vector-effect:none;fill:#ffffff;fill-opacity:1;stroke:#000000;stroke-width:0.151124px;stroke-linecap:butt;stroke-linejoin:miter;stroke-miterlimit:4;stroke-dasharray:none;stroke-dashoffset:0;stroke-opacity:1;-inkscape-stroke:none;stop-color:#000000;stop-opacity:1"
           d="m 2001.0059,120.67271 5.6223,347.73759 9.1335,-0.40651 -6.2775,-347.56137 z"
           id="path1673" /><g
           id="g1707"
           transform="translate(0,0.52916643)"><path
             style="font-variation-settings:normal;display:inline;opacity:0.5;vector-effect:none;fill:#ffffff;fill-opacity:1;stroke:#000000;stroke-width:0.153034px;stroke-linecap:butt;stroke-linejoin:miter;stroke-miterlimit:4;stroke-dasharray:none;stroke-dashoffset:0;stroke-opacity:1;-inkscape-stroke:none;stop-color:#000000;stop-opacity:1"
             d="m 1985.573,78.973938 -6.4149,389.435352 -9.2489,-0.41165 7.2977,-389.720879 z"
             id="path1674"
             transform="matrix(-1,0,0,1,3985.7685,-1.5875)" /><path
             d="m 1977.3685,290.81481 c 20.4685,-0.15981 44.2692,3.79914 69.5735,15.87758 -9.7773,3.48431 -26.1002,7.36497 -49.6336,8.44341 0,0 0,0 0,0 -10.4833,0.48041 -22.415,0.38959 -35.8449,-0.53536 0,0 0,0 0,0 -15.4879,-1.0667 -32.9259,-3.2283 -52.5239,-6.98304 0.2008,-0.11971 27.7163,-16.48474 68.4289,-16.80259 z"
             style="display:inline;opacity:1;vector-effect:none;fill:none;stroke:#000000;stroke-width:0.153034px;stop-color:#000000;stop-opacity:1"
             id="path1675"
             transform="matrix(-1,0,0,1,3985.7685,-1.5875)" /><g
             id="g1686"
             style="display:inline"
             transform="matrix(-1,0,0,1,3985.7685,-1.5875)"><path
               style="font-variation-settings:normal;display:inline;opacity:1;vector-effect:none;fill:#afe9c6;fill-opacity:1;stroke:none;stroke-width:0.153034px;stroke-linecap:butt;stroke-linejoin:miter;stroke-miterlimit:4;stroke-dasharray:none;stroke-dashoffset:0;stroke-opacity:1;-inkscape-stroke:none;stop-color:#000000;stop-opacity:1"
               d="m 2045.5301,309.04172 c 0,0 -8.3661,-4.88022 -8.3661,-8.3661 0,-3.48586 -2.0916,-24.40112 -16.0351,-23.70394 -13.9435,0.69717 -27.1898,-18.82374 -30.6757,-16.73221 -3.4858,2.09152 -4.183,-13.94351 -18.8237,-5.5774 -14.6407,8.3661 -9.7604,16.03501 -14.6407,16.03501 -4.8802,0 -15.3378,-1.39435 -18.1265,4.88024 -2.7887,6.27457 -20.7296,8.97046 -22.8212,18.73091 -2.0915,9.76045 -3.5786,19.6208 -3.5786,19.6208 0,0 45.2235,37.64038 133.0676,-4.88731 z"
               id="path1676"
               transform="translate(-1.2916667e-4)" /><g
               id="g1681"
               style="fill:#ffcc00;stroke:#ffcc00"><path
                 d="m 1927.8744,492.21182 c 23.0439,18.45605 66.2059,32.53847 88.3786,38.93302 -17.5728,7.12065 -48.6692,13.54076 -85.0594,-6.67608 z"
                 style="opacity:1;vector-effect:none;fill:#ffcc00;fill-opacity:1;stroke:#ffcc00;stroke-width:0.153034px;stop-color:#000000;stop-opacity:1"
                 id="path1677" /><path
                 d="m 1922.329,438.31795 c 9.9668,7.76698 27.4674,18.35153 58.2626,30.48289 14.2533,5.61493 35.9715,10.65738 54.5558,13.65137 l -2.0484,23.36653 c -23.9155,-5.04838 -75.5935,-17.52625 -107.6219,-36.90783 z"
                 style="opacity:1;vector-effect:none;fill:#ffcc00;fill-opacity:1;stroke:#ffcc00;stroke-width:0.153034px;stop-color:#000000;stop-opacity:1"
                 id="path1678" /><path
                 d="m 1914.9036,366.15129 c 32.5188,22.57361 92.7548,45.52599 125.4321,57.11435 l -2.8489,32.50292 C 2002.4255,445.452 1941.8595,425.55344 1918.894,404.93291 Z"
                 style="opacity:1;vector-effect:none;fill:#ffcc00;fill-opacity:1;stroke:#ffcc00;stroke-width:0.153034px;stop-color:#000000;stop-opacity:1"
                 id="path1679" /><path
                 d="m 1908.9396,307.6174 c 19.598,3.75474 37.036,5.91634 52.5239,6.98304 18.4663,22.83218 59.9842,37.56242 84.4874,44.61174 l -3.3006,37.64887 c -48.155,-10.57803 -105.2368,-48.35991 -131.4953,-67.13906 l -2.2712,-22.07462 c 0,0 0.055,-0.0295 0.056,-0.03 z"
                 style="opacity:1;vector-effect:none;fill:#ffcc00;fill-opacity:1;stroke:#ffcc00;stroke-width:0.153034px;stop-color:#000000;stop-opacity:1"
                 id="path1680" /><path
                 d="m 2048.0598,335.15629 c -15.854,-3.82754 -40.5626,-10.89861 -50.7514,-20.02049 23.5334,-1.07844 39.8563,-4.9591 49.6336,-8.44341 1.1564,0.55194 2.3056,1.06562 3.468,1.6521 z"
                 style="opacity:1;vector-effect:none;fill:#ffcc00;fill-opacity:1;stroke:#ffcc00;stroke-width:0.153034px;stop-color:#000000;stop-opacity:1"
                 id="path1681" /></g><g
               id="g1685"
               style="fill:#ffd5d5;stroke:#ffd5d5"><path
                 d="m 1925.4771,468.91091 c 32.0284,19.38158 83.7064,31.85945 107.6219,36.90783 l -1.5126,17.25579 c 0,0 -5.6365,4.14102 -15.3334,8.07031 -22.1727,-6.39455 -65.3347,-20.47697 -88.3786,-38.93302 z"
                 style="opacity:1;vector-effect:none;fill:#ffd5d5;stroke:#ffd5d5;stroke-width:0.153034px;stop-color:#000000;stop-opacity:1"
                 id="path1682" /><path
                 d="m 1918.894,404.93291 c 22.9655,20.62053 83.5315,40.51909 118.5928,50.83565 l -2.3394,26.68365 c -18.5843,-2.99399 -40.3025,-8.03644 -54.5558,-13.65137 -30.7952,-12.13136 -48.2958,-22.71591 -58.2626,-30.48289 z"
                 style="opacity:1;vector-effect:none;fill:#ffd5d5;stroke:#ffd5d5;stroke-width:0.153034px;stop-color:#000000;stop-opacity:1"
                 id="path1683" /><path
                 d="m 1911.155,329.72199 c 26.2585,18.77915 83.3403,56.56103 131.4953,67.13906 l -2.3146,26.40459 c -32.6773,-11.58836 -92.9133,-34.54074 -125.4321,-57.11435 z"
                 style="opacity:1;vector-effect:none;fill:#ffd5d5;stroke:#ffd5d5;stroke-width:0.153034px;stop-color:#000000;stop-opacity:1"
                 id="path1684" /><path
                 d="m 2045.9509,359.21218 c -24.5032,-7.04932 -66.0211,-21.77956 -84.4874,-44.61174 13.4299,0.92495 25.3616,1.01577 35.8449,0.53536 10.1888,9.12188 34.8974,16.19295 50.7514,20.02049 z"
                 style="opacity:1;vector-effect:none;fill:#ffd5d5;stroke:#ffd5d5;stroke-width:0.153034px;stop-color:#000000;stop-opacity:1"
                 id="path1685" /></g></g><g
             id="g1694"
             style="display:inline"
             transform="matrix(-1,0,0,1,3985.7685,-1.5875)"><path
               d="m 2121.7158,526.94355 c 37.903,-12.55919 48.3183,-52.09983 51.002,-67.40364 1.6013,-0.3647 30.4031,-6.64972 78.5394,4.52479 49.5196,11.49558 102.6592,92.01748 102.6592,92.01748 15.0484,63.45825 -26.8274,95.80886 -34.3484,96.20746 -28.3281,1.50134 -155.3969,0.19385 -155.3969,0.19385 0,0 -16.3743,-20.40574 -28.312,-42.9548 -11.9087,-22.49408 -14.1325,-82.29317 -14.1433,-82.58514 z"
               style="opacity:1;vector-effect:none;fill:url(#radialGradient1715);fill-opacity:1;stroke:#000000;stroke-width:0.153034px;stop-color:#000000;stop-opacity:1"
               id="path1686" /><path
               d="m 2093.5144,489.51844 c 12.1892,-4.66331 36.8915,-16.72716 38.302,-38.35528 1.1978,-18.36559 1.4712,-23.27401 1.9963,-31.94017 l 2.0464,0.18604 c 4.8635,0.44213 36.2551,40.23423 36.2551,40.23423 0,0 0.5576,-0.0929 0.6036,-0.10335 -2.6837,15.30381 -13.099,54.84445 -51.002,67.40364 -10e-5,-7.2e-4 -0.01,-0.0951 -0.01,-0.0951 z"
               style="opacity:1;vector-effect:none;fill:#d40000;stroke:#000000;stroke-width:0.153034px;stop-color:#000000;stop-opacity:1"
               id="path1687" /><g
               id="g1693"
               transform="translate(-1.2916667e-4)"
               style="fill:url(#radialGradient1717);fill-opacity:1"><path
                 d="m 1993.49,344.68749 c 7.0742,0 49.0776,12.37956 61.0154,17.68522 11.9377,5.30566 76.4899,56.59396 76.4899,56.59396 l 2.8174,0.25632 c -0.5251,8.66616 -0.7985,13.57458 -1.9963,31.94017 -1.4105,21.62812 -26.1128,33.69197 -38.302,38.35528 l -3.1957,-4.23075 -33.1607,13.70614 c 0,0 -22.5489,11.49582 -53.4986,10.16941 -30.9497,-1.32644 -29.1812,-18.33303 -23.8755,-25.40724 5.3057,-7.07421 24.9763,2.42427 24.9763,2.42427 l 11.2351,-2.1898 14.148,0.67792 c 0,0 9.7713,-5.12884 17.2876,-10.87664 7.5164,-5.7478 5.7481,-12.82207 3.9796,-14.14849 -1.7686,-1.32642 -46.4246,7.51634 -46.4246,7.51634 0,0 -17.2438,-0.44208 -34.4873,-3.0949 -17.2433,-2.65284 -32.7179,0.44245 -32.7179,-17.68523 0,-18.12768 50.8603,-8.97576 60.5874,-7.20721 9.7271,1.76856 39.5575,-7.04467 39.5575,-7.04467 -31.3919,-19.01196 -74.943,-6.08679 -87.3229,-4.76039 -12.3799,1.3264 -16.8011,-3.09506 -19.0118,-16.35921 -2.2106,-13.26416 52.6143,-17.68523 58.8042,-17.68523 6.19,0 26.9706,3.53717 40.2348,6.63216 13.2641,3.09495 15.4746,-1.32648 13.7061,-4.42144 -1.7686,-3.09496 -38.4657,-14.14865 -47.7506,-17.68574 -9.2849,-3.53714 -28.7395,4.42135 -47.3092,7.51633 -18.5698,3.09496 -16.8013,-20.78034 -11.9378,-23.43319 4.8636,-2.65284 49.0774,-17.24339 56.1516,-17.24339 z"
                 style="opacity:1;vector-effect:none;fill:url(#radialGradient1716);fill-opacity:1;stroke:#000000;stroke-width:0.153034px;stop-color:#000000;stop-opacity:1"
                 id="path1688" /><g
                 id="g1692"
                 style="fill:#0044aa;fill-opacity:1;stroke:none"><path
                   style="font-variation-settings:normal;opacity:1;vector-effect:none;fill:#0044aa;fill-opacity:1;stroke:none;stroke-width:0.153034px;stroke-linecap:butt;stroke-linejoin:miter;stroke-miterlimit:4;stroke-dasharray:none;stroke-dashoffset:0;stroke-opacity:1;-inkscape-stroke:none;stop-color:#000000;stop-opacity:1"
                   d="m 1947.6717,363.31136 2.5011,16.25724 c 0,0 -23.1353,-3.75166 -2.5011,-16.25724 z"
                   id="path1689" /><path
                   style="font-variation-settings:normal;opacity:1;vector-effect:none;fill:#0044aa;fill-opacity:1;stroke:none;stroke-width:0.153034px;stroke-linecap:butt;stroke-linejoin:miter;stroke-miterlimit:4;stroke-dasharray:none;stroke-dashoffset:0;stroke-opacity:1;-inkscape-stroke:none;stop-color:#000000;stop-opacity:1"
                   d="m 1944.2327,404.8924 2.5011,15.00672 c 0,0 -8.7539,2.81373 -9.3792,-4.37698 -0.6252,-7.19069 6.8781,-10.62974 6.8781,-10.62974 z"
                   id="path1690" /><path
                   style="font-variation-settings:normal;opacity:1;vector-effect:none;fill:#0044aa;fill-opacity:1;stroke:none;stroke-width:0.153034px;stroke-linecap:butt;stroke-linejoin:miter;stroke-miterlimit:4;stroke-dasharray:none;stroke-dashoffset:0;stroke-opacity:1;-inkscape-stroke:none;stop-color:#000000;stop-opacity:1"
                   d="m 1952.674,442.40915 c 0,0 -7.816,-0.93792 -10.0045,3.75166 -2.1885,4.68961 3.439,10.62974 8.7539,10.62974 z"
                   id="path1691" /><path
                   style="font-variation-settings:normal;opacity:1;vector-effect:none;fill:#0044aa;fill-opacity:1;stroke:none;stroke-width:0.153034px;stroke-linecap:butt;stroke-linejoin:miter;stroke-miterlimit:4;stroke-dasharray:none;stroke-dashoffset:0;stroke-opacity:1;-inkscape-stroke:none;stop-color:#000000;stop-opacity:1"
                   d="m 1991.7539,490.86825 -1.5632,15.94461 c 0,0 -26.5744,-9.06653 1.5632,-15.94461 z"
                   id="path1692" /></g></g></g><path
             d="m 1974.1739,238.19373 c -3.9157,1.31677 -3.3009,4.36415 -3.3009,4.36415 10.4576,4.88021 16.4062,-0.15948 16.4062,-0.15948 -1.6359,-2.01345 1.0907,-3.60005 -0.827,-4.39381 2.2433,0.12682 4.503,0.31553 6.7898,0.6227 46.7107,6.27457 54.2201,67.85166 54.2201,67.85166 l -3.2143,2.07763 c -69.4723,14.85247 -130.4695,0.21867 -130.4695,0.21867 l -1.2752,-2.64816 c 1.1988,-35.3656 24.0103,-64.57759 61.6708,-67.93336 z"
             style="display:inline;opacity:1;vector-effect:none;fill:url(#linearGradient1717);fill-opacity:1;stroke:#000000;stroke-width:0.153034px;stop-color:#000000;stop-opacity:1"
             id="path1694"
             transform="matrix(-1,0,0,1,3985.7685,-1.5875)" /><path
             style="font-variation-settings:normal;opacity:1;vector-effect:none;fill:#003380;fill-opacity:1;stroke:none;stroke-width:0.153034px;stroke-linecap:butt;stroke-linejoin:miter;stroke-miterlimit:4;stroke-dasharray:none;stroke-dashoffset:0;stroke-opacity:1;-inkscape-stroke:none;stop-color:#000000;stop-opacity:1"
             d="m 1989.3665,350.48645 0.6779,16.27015 c 0,0 -5.7623,-9.82988 -0.6779,-16.27015 z"
             id="path1695" /><path
             style="font-variation-settings:normal;opacity:1;vector-effect:none;fill:#003380;fill-opacity:1;stroke:none;stroke-width:0.153034px;stroke-linecap:butt;stroke-linejoin:miter;stroke-miterlimit:4;stroke-dasharray:none;stroke-dashoffset:0;stroke-opacity:1;-inkscape-stroke:none;stop-color:#000000;stop-opacity:1"
             d="m 1993.0951,348.11372 0.3389,19.65978 c 0,0 2.7117,-17.96497 -0.3389,-19.65978 z"
             id="path1696" /><path
             style="font-variation-settings:normal;opacity:1;vector-effect:none;fill:#003380;fill-opacity:1;stroke:none;stroke-width:0.153034px;stroke-linecap:butt;stroke-linejoin:miter;stroke-miterlimit:4;stroke-dasharray:none;stroke-dashoffset:0;stroke-opacity:1;-inkscape-stroke:none;stop-color:#000000;stop-opacity:1"
             d="m 1997.5016,354.89295 0.3389,7.79611 c 0,0 2.7117,-6.1013 -0.3389,-7.79611 z"
             id="path1697" /><path
             style="font-variation-settings:normal;opacity:1;vector-effect:none;fill:#0044aa;fill-opacity:1;stroke:none;stroke-width:0.153034px;stroke-linecap:butt;stroke-linejoin:miter;stroke-miterlimit:4;stroke-dasharray:none;stroke-dashoffset:0;stroke-opacity:1;-inkscape-stroke:none;stop-color:#000000;stop-opacity:1"
             d="m 2002.586,396.58525 v 17.28705 c 0,0 4.4065,-11.52472 0,-17.28705 z"
             id="path1698" /><path
             style="font-variation-settings:normal;opacity:1;vector-effect:none;fill:#0044aa;fill-opacity:1;stroke:none;stroke-width:0.153034px;stroke-linecap:butt;stroke-linejoin:miter;stroke-miterlimit:4;stroke-dasharray:none;stroke-dashoffset:0;stroke-opacity:1;-inkscape-stroke:none;stop-color:#000000;stop-opacity:1"
             d="m 1996.8236,400.6528 -0.3389,11.52469 c 0,0 -3.0507,-11.86368 0.3389,-11.52469 z"
             id="path1699" /><path
             style="font-variation-settings:normal;opacity:1;vector-effect:none;fill:#0044aa;fill-opacity:1;stroke:none;stroke-width:0.153034px;stroke-linecap:butt;stroke-linejoin:miter;stroke-miterlimit:4;stroke-dasharray:none;stroke-dashoffset:0;stroke-opacity:1;-inkscape-stroke:none;stop-color:#000000;stop-opacity:1"
             d="m 1990.7256,444.42924 -3.5087,16.92721 c 0,0 6.6539,-10.39044 3.5087,-16.92721 z"
             id="path1700" /><path
             style="font-variation-settings:normal;opacity:1;vector-effect:none;fill:#0044aa;fill-opacity:1;stroke:none;stroke-width:0.153034px;stroke-linecap:butt;stroke-linejoin:miter;stroke-miterlimit:4;stroke-dasharray:none;stroke-dashoffset:0;stroke-opacity:1;-inkscape-stroke:none;stop-color:#000000;stop-opacity:1"
             d="m 1984.2576,447.24252 -2.671,11.21601 c 0,0 -0.5792,-12.23593 2.671,-11.21601 z"
             id="path1701" /><path
             style="font-variation-settings:normal;opacity:1;vector-effect:none;fill:#0044aa;fill-opacity:1;stroke:none;stroke-width:0.153034px;stroke-linecap:butt;stroke-linejoin:miter;stroke-miterlimit:4;stroke-dasharray:none;stroke-dashoffset:0;stroke-opacity:1;-inkscape-stroke:none;stop-color:#000000;stop-opacity:1"
             d="m 1961.2359,488.83323 -3.5087,16.92721 c 0,0 6.6539,-10.39044 3.5087,-16.92721 z"
             id="path1702" /><path
             style="font-variation-settings:normal;opacity:1;vector-effect:none;fill:#0044aa;fill-opacity:1;stroke:none;stroke-width:0.153034px;stroke-linecap:butt;stroke-linejoin:miter;stroke-miterlimit:4;stroke-dasharray:none;stroke-dashoffset:0;stroke-opacity:1;-inkscape-stroke:none;stop-color:#000000;stop-opacity:1"
             d="m 1954.7679,491.64651 -2.671,11.21601 c 0,0 -0.5792,-12.23593 2.671,-11.21601 z"
             id="path1703" /><path
             style="font-variation-settings:normal;opacity:1;vector-effect:none;fill:#0044aa;fill-opacity:1;stroke:none;stroke-width:0.153034px;stroke-linecap:butt;stroke-linejoin:miter;stroke-miterlimit:4;stroke-dasharray:none;stroke-dashoffset:0;stroke-opacity:1;-inkscape-stroke:none;stop-color:#000000;stop-opacity:1"
             d="m 1925.306,476.29165 -3.5087,16.92721 c 0,0 6.6539,-10.39044 3.5087,-16.92721 z"
             id="path1704" /><path
             style="font-variation-settings:normal;opacity:1;vector-effect:none;fill:#003380;fill-opacity:1;stroke:none;stroke-width:0.153034px;stroke-linecap:butt;stroke-linejoin:miter;stroke-miterlimit:4;stroke-dasharray:none;stroke-dashoffset:0;stroke-opacity:1;-inkscape-stroke:none;stop-color:#000000;stop-opacity:1"
             d="m 1935.0093,365.82313 8.1344,17.90123 c 0,0 -4.6613,-17.56036 -8.1344,-17.90123 z"
             id="path1705" /><path
             style="font-variation-settings:normal;opacity:1;vector-effect:none;fill:#0044aa;fill-opacity:1;stroke:none;stroke-width:0.153034px;stroke-linecap:butt;stroke-linejoin:miter;stroke-miterlimit:4;stroke-dasharray:none;stroke-dashoffset:0;stroke-opacity:1;-inkscape-stroke:none;stop-color:#000000;stop-opacity:1"
             d="m 1945.6404,407.09307 -0.3389,11.52469 c 0,0 -3.0507,-11.86368 0.3389,-11.52469 z"
             id="path1706" /><path
             style="font-variation-settings:normal;opacity:1;vector-effect:none;fill:#0044aa;fill-opacity:1;stroke:none;stroke-width:0.153034px;stroke-linecap:butt;stroke-linejoin:miter;stroke-miterlimit:4;stroke-dasharray:none;stroke-dashoffset:0;stroke-opacity:1;-inkscape-stroke:none;stop-color:#000000;stop-opacity:1"
             d="m 1943.6099,438.6669 -3.5087,16.92721 c 0,0 6.6539,-10.39044 3.5087,-16.92721 z"
             id="path1707" /></g></g></g></g></svg>
